<svg viewBox="0 0 56 56" xmlns:xlink="http://www.w3.org/1999/xlink" xmlns="http://www.w3.org/2000/svg" data-name="Layer 1" id="Layer_1">
  <defs>
    <style>
      .cls-1 {
        clip-path: url(#clippath);
      }

      .cls-2 {
        fill: none;
      }

      .cls-2, .cls-3 {
        stroke-width: 0px;
      }

      .cls-3 {
        fill: #ab8744;
      }
    </style>
    <clipPath id="clippath">
      <rect height="50.83" width="47.69" y="2.58" x="4.15" class="cls-2"></rect>
    </clipPath>
  </defs>
  <g class="cls-1">
    <g>
      <path d="M51.55,22.95c-.03-.48-.31-.75-.79-.75-1.05,0-2.1.03-3.15-.01-1.79-.07-3.11-.92-3.95-2.58-.19-.37-.17-.64.1-.98,1.71-2.21,3.4-4.44,5.08-6.68.17-.23.33-.56.32-.84-.08-2.22-.21-4.44-.32-6.65-.03-.65-.2-.82-.84-.85-.02,0-.05,0-.07,0-.44.58-.92,1.12-1.43,1.64-.03.04-.06.08-.09.12-4.46,5.63-8.93,11.25-13.38,16.88-.25.31-.49.46-.89.45-8.22-.01-16.44,0-24.66-.01-.16,0-.32-.02-.48-.02l-.08-.14c.08-.04.17-.06.23-.11.95-.82,1.89-1.64,2.84-2.46.88-.76,1.78-1.51,2.63-2.3.18-.17.29-.55.26-.81-.02-.18-.31-.46-.5-.48-.25-.02-.56.11-.76.28-2.39,2.03-4.77,4.08-7.13,6.15-.18.16-.31.5-.31.76-.02,2.59-.02,5.18-.02,7.77,0,.83.21,1.05,1.02,1.05,2.42,0,4.84,0,7.26,0,1.05,0,1.95.7,2.21,1.73.05.19-.02.5-.15.63-3.32,3.37-6.65,6.73-9.97,10.1-.2.2-.35.56-.36.85-.03,2.19-.02,4.37-.02,6.56,0,1,.14,1.14,1.12,1.14,9.05,0,18.1,0,27.15.01.67,0,1.1-.19,1.53-.75,5.85-7.59,11.73-15.15,17.59-22.74.19-.25.31-.63.3-.94-.07-2.01-.19-4.02-.29-6.03h0ZM33.71,23.85c0-.14.1-.29.19-.41,4.49-5.66,8.98-11.32,13.47-16.98.01-.01.03-.02.08-.07.03.13.06.23.06.33.07,1.31.14,2.62.19,3.93,0,.22-.07.49-.2.66-4.52,5.97-9.05,11.93-13.59,17.89-.04.05-.09.1-.23.26,0-1.96,0-3.79,0-5.62h0ZM14.69,36.63c.03.2.06.32.06.44,0,1.71.01,3.43,0,5.14-.01,1.59-.98,2.57-2.52,2.57-1.82,0-3.65,0-5.62,0,2.74-2.77,5.38-5.43,8.08-8.15h0ZM32.24,51.89H5.6v-5.65h6.59c2.33,0,3.94-1.54,3.99-3.93.06-2.5.06-5,.02-7.5-.04-2.23-1.69-3.87-3.85-3.89-2.06-.02-4.13,0-6.19,0h-.57v-6.71h26.65v6.71h-.55c-2,0-3.99.06-5.99-.02-2.11-.08-4.09,1.58-4.05,4.17.04,2.34.03,4.69,0,7.03-.04,2.77,2.14,4.25,4.06,4.17,2.13-.09,4.26-.02,6.39-.02.03,0,.06.01.13.03v5.61h0ZM32.24,44.79c-2.23-.02-4.46,0-6.7-.01-1.42,0-2.42-.99-2.43-2.44-.02-2.5-.02-5,0-7.5.01-1.46,1-2.46,2.41-2.46,2.38,0,4.77-.01,7.15,0,.47,0,.78-.14,1.07-.53,2.8-3.71,5.61-7.4,8.42-11.1.08-.11.18-.2.29-.34,1.5,2.76,3.91,3.49,6.88,3.2-.42.54-.74.96-1.06,1.37-5.1,6.48-10.21,12.95-15.31,19.43-.2.25-.4.37-.72.37h0ZM50.26,29.25c-5.46,7.04-10.92,14.08-16.38,21.12-.03.04-.07.06-.18.14,0-1.03.07-2.01-.02-2.97-.12-1.24.3-2.15,1.06-3.1,5.04-6.31,10.02-12.67,15.03-19.01.12-.15.24-.29.44-.54.08,1.41.17,2.67.23,3.94,0,.14-.08.3-.17.41h0Z" class="cls-3"></path>
      <path d="M45.77,3.48c-1.92-.1-3.85-.21-5.77-.31-3.87-.2-7.73-.42-11.6-.6-.3-.01-.67.13-.91.32-1.09.89-2.14,1.83-3.2,2.75-1.04.9-2.08,1.79-3.11,2.69-.49.43-.44,1.15.12,1.29.26.06.64-.06.86-.24,1.69-1.42,3.39-2.85,5.02-4.34.8-.74,1.59-1.23,2.7-.94.43.11.91.04,1.37.07,3.12.16,6.25.33,9.37.49,1.39.07,2.79.15,4.21.23.31-.47.62-.95.95-1.41h0Z" class="cls-3"></path>
    </g>
  </g>
</svg>