<svg width="57" height="63" viewBox="0 0 57 63" fill="none" xmlns="http://www.w3.org/2000/svg">
<g id="_8543uw">
<path id="Vector" d="M27.7724 0.477051C28.0151 0.477051 28.2577 0.477051 28.5003 0.477051C28.6095 0.556388 28.7102 0.648947 28.8278 0.713859C33.719 3.4005 38.6101 6.08352 43.5024 8.76776C47.4935 10.9579 51.4845 13.1481 55.4779 15.3335C55.8831 15.5547 56.2519 15.7963 56.2701 16.306C56.2895 16.8469 55.9231 17.1126 55.4937 17.347C51.7817 19.3761 48.0745 21.4124 44.3661 23.4487C44.1854 23.5485 44.0131 23.6639 43.7754 23.8093C44.0653 23.9716 44.2557 24.081 44.4498 24.1868C48.14 26.2135 51.829 28.2426 55.5216 30.2632C55.9559 30.5013 56.3817 30.8042 56.2409 31.3127C56.1439 31.6637 55.8188 32.0447 55.4901 32.2274C51.7962 34.289 48.0818 36.3133 44.3746 38.3496C44.1902 38.4506 44.0156 38.5672 43.7839 38.709C44.0071 38.8424 44.1563 38.9386 44.3115 39.024C46.4478 40.1972 48.5852 41.368 50.7227 42.54C52.3118 43.4115 53.8985 44.289 55.4925 45.1533C55.9013 45.3745 56.2591 45.6245 56.2689 46.1342C56.2798 46.6764 55.9122 46.9504 55.4755 47.1656C55.3857 47.2101 55.3008 47.2654 55.2123 47.3147C47.8647 51.3428 40.5146 55.3686 33.1706 59.4015C31.6058 60.261 30.0567 61.1481 28.5003 62.0232H27.7724C27.6123 61.9127 27.4595 61.7876 27.2896 61.6939C18.4779 56.8579 9.66484 52.0232 0.850623 47.1921C0.413915 46.9528 -0.00944862 46.7112 0.00146908 46.1342C0.0123868 45.5885 0.416342 45.3565 0.834853 45.1269C4.52867 43.1062 8.21886 41.0807 11.909 39.0552C12.0934 38.9542 12.2693 38.8364 12.5022 38.6946C12.2451 38.5467 12.0582 38.4349 11.8678 38.3304C8.19459 36.3145 4.52261 34.2974 0.846984 32.2851C0.409063 32.0459 -0.0118748 31.8019 0.000256003 31.2249C0.0123868 30.6792 0.417555 30.4484 0.836066 30.2188C4.52989 28.1981 8.22007 26.1726 11.9102 24.1471C12.0934 24.0461 12.2705 23.9367 12.5107 23.7961C12.2693 23.653 12.1177 23.5569 11.9612 23.4715C9.82497 22.2983 7.68753 21.1275 5.55009 19.9555C3.94276 19.0743 2.3233 18.2149 0.740233 17.2917C0.419981 17.1053 0.115498 16.7099 0.0281568 16.3565C-0.0919379 15.872 0.320508 15.5715 0.745086 15.3683C0.836066 15.3251 0.920982 15.2698 1.00954 15.2217C9.45255 10.5913 17.8944 5.96091 26.335 1.32812C26.8226 1.06006 27.2933 0.76074 27.7724 0.477051ZM2.9917 31.2405C3.25252 31.3944 3.40294 31.4906 3.56064 31.5759C11.5439 35.9551 19.5296 40.3282 27.5019 44.7254C27.9981 44.9995 28.3462 44.961 28.8133 44.7038C36.7711 40.321 44.7373 35.9551 52.7024 31.5843C52.8722 31.4906 53.0348 31.386 53.2544 31.2538C53.1246 31.166 53.0493 31.1083 52.9681 31.0626C49.3482 29.0756 45.7236 27.0958 42.111 25.0967C41.792 24.92 41.5676 24.9789 41.2849 25.134C37.226 27.3686 33.1549 29.5805 29.1093 31.838C28.4008 32.2334 27.844 32.213 27.1501 31.8259C23.1215 29.5805 19.0686 27.3759 15.0315 25.146C14.6967 24.9609 14.4432 24.9405 14.095 25.1364C12.4476 26.068 10.7809 26.9696 9.12138 27.8795C7.11132 28.9818 5.10125 30.0841 2.99413 31.2393L2.9917 31.2405ZM23.3532 57.3328C24.8647 58.1634 26.2646 58.9159 27.6439 59.7032C28.0029 59.9076 28.2722 59.9052 28.6325 59.7068C36.6789 55.2784 44.7325 50.8608 52.7837 46.4408C52.9317 46.3602 53.0688 46.2604 53.2641 46.1354C51.8156 45.3409 50.4327 44.6004 49.0704 43.8214C48.6774 43.5966 48.3875 43.5834 47.975 43.8106C41.0605 47.6224 34.1338 51.4137 27.2108 55.2099C25.9613 55.8951 24.7131 56.5839 23.3508 57.334L23.3532 57.3328ZM46.4769 42.4114C45.0176 41.6096 43.6225 40.8607 42.2481 40.0746C41.866 39.8558 41.587 39.869 41.2049 40.0794C33.6898 44.2145 26.1663 48.3352 18.6453 52.4595C17.9829 52.8226 17.3242 53.1928 16.5697 53.6123C18.0727 54.4394 19.4847 55.1991 20.8773 55.9936C21.223 56.1908 21.4778 56.1715 21.8138 55.9852C29.842 51.5712 37.8762 47.1668 45.908 42.76C46.0778 42.6674 46.2379 42.5581 46.4757 42.4114H46.4769ZM19.3403 42.4306C17.75 41.5567 16.2773 40.7333 14.7852 39.9484C14.6275 39.8654 14.3206 39.9423 14.1362 40.0433C10.5819 41.9787 7.03489 43.9272 3.48785 45.8758C3.3435 45.9551 3.21248 46.0561 3.02203 46.1823C4.51533 47.0021 5.9322 47.7666 7.3321 48.5612C7.65963 48.7475 7.90345 48.7223 8.21522 48.5456C9.37128 47.8905 10.5419 47.2606 11.7065 46.6211C14.2115 45.2471 16.7165 43.8719 19.3403 42.4318V42.4306ZM26.1312 46.1583C24.6148 45.324 23.2028 44.5619 21.8077 43.7673C21.4632 43.5714 21.2085 43.593 20.8713 43.7794C17.3655 45.7183 13.8487 47.6392 10.3369 49.5662C10.1743 49.6551 10.0191 49.7573 9.79343 49.8943C11.3571 50.7526 12.8164 51.5652 14.2915 52.3478C14.4432 52.4283 14.7209 52.391 14.8871 52.3057C15.6587 51.9138 16.412 51.4859 17.1714 51.0699C20.1179 49.4544 23.0645 47.8376 26.1312 46.1571V46.1583ZM43.7281 16.3444C44.7373 16.8998 45.6144 17.389 46.4975 17.8663C47.1671 18.2293 47.8465 18.8556 48.5197 18.8556C49.1942 18.8556 49.8723 18.2257 50.5419 17.8614C51.4335 17.377 52.3203 16.883 53.3004 16.3432C51.7016 15.4657 50.2095 14.6423 48.7102 13.8321C48.6083 13.7768 48.4251 13.7756 48.3232 13.8309C46.8238 14.6399 45.333 15.4633 43.7268 16.3456L43.7281 16.3444ZM23.3496 5.16875C24.9496 6.04626 26.4381 6.87569 27.9447 7.67146C28.0866 7.74599 28.3656 7.65704 28.5391 7.56448C29.677 6.95984 30.8039 6.33596 31.9333 5.71449C32.239 5.5462 32.5398 5.36949 32.9135 5.15672C31.351 4.29844 29.8917 3.48825 28.4202 2.70089C28.2759 2.62396 28.0187 2.61915 27.8756 2.69488C26.4029 3.48103 24.9436 4.29123 23.3496 5.16754V5.16875ZM32.9268 27.5237C31.3207 26.6426 29.8286 25.8168 28.3256 25.0138C28.2055 24.9501 27.9738 24.9958 27.8367 25.0691C26.4369 25.8216 25.0455 26.5885 23.6541 27.3554C23.5801 27.3963 23.5255 27.4708 23.4272 27.5622C24.9423 28.394 26.4005 29.2042 27.8707 29.9904C28.0139 30.0673 28.271 30.0661 28.4142 29.9904C29.8844 29.2042 31.3425 28.394 32.9256 27.5237H32.9268ZM30.1986 8.86753C30.309 8.96369 30.3357 8.99615 30.3696 9.01418C31.3911 9.57675 32.4743 10.0552 33.4205 10.7235C34.4856 11.476 35.3724 11.47 36.4399 10.7235C37.431 10.0299 38.5579 9.52747 39.7176 8.89037C38.1236 8.01526 36.6328 7.19304 35.1334 6.38284C35.0303 6.32755 34.8459 6.32394 34.7452 6.37803C33.2446 7.18823 31.7526 8.01285 30.1986 8.86753ZM36.9955 12.5891C37.0986 12.6853 37.1241 12.719 37.1568 12.737C38.1261 13.2707 39.1608 13.7131 40.0488 14.3574C41.2158 15.2037 42.2141 15.2037 43.3848 14.361C44.3164 13.6902 45.3973 13.2238 46.5048 12.6144C44.912 11.7405 43.4211 10.9171 41.9242 10.1081C41.8223 10.0528 41.6379 10.048 41.536 10.1021C40.0354 10.9123 38.5434 11.7369 36.9943 12.5879L36.9955 12.5891ZM2.98079 16.3456C4.49713 17.1799 5.92371 17.9492 7.3321 18.7486C7.65963 18.9349 7.90224 18.9085 8.214 18.7329C9.42101 18.0502 10.6414 17.3902 11.8569 16.7219C12.057 16.6113 12.2536 16.4959 12.5301 16.3384C11.1096 15.5583 9.77766 14.8575 8.47967 14.099C7.97503 13.8044 7.59048 13.7612 7.06158 14.0773C5.75873 14.8563 4.40979 15.5595 2.98079 16.3456ZM30.144 23.7925C31.7489 24.6748 33.2374 25.5054 34.744 26.3012C34.8859 26.3757 35.1674 26.2856 35.3408 26.1918C36.6534 25.4886 37.955 24.7662 39.2579 24.0473C39.3852 23.9776 39.4981 23.8838 39.663 23.7684C38.1333 22.927 36.6752 22.1156 35.2038 21.3282C35.0606 21.2513 34.8034 21.2501 34.6603 21.327C33.1888 22.1132 31.7295 22.9222 30.1452 23.7913L30.144 23.7925ZM36.9397 20.0685C38.4609 20.9051 39.8875 21.6756 41.2958 22.4762C41.6246 22.6625 41.866 22.6361 42.1777 22.4606C43.4381 21.749 44.7131 21.0614 45.9807 20.363C46.1275 20.2812 46.2634 20.1802 46.4623 20.0492C45.316 19.4205 44.1866 18.9133 43.1858 18.2221C42.1353 17.496 41.2679 17.5008 40.2211 18.2341C39.2312 18.9277 38.103 19.4302 36.9397 20.0697V20.0685ZM16.5563 23.7937C18.1661 24.6772 19.6703 25.5114 21.1903 26.3168C21.3165 26.3829 21.5724 26.282 21.7337 26.1966C22.6933 25.6869 23.6419 25.1604 24.5942 24.6363C25.077 24.3707 25.5574 24.099 26.1154 23.7877C24.5396 22.9222 23.0633 22.1072 21.5809 21.3042C21.4742 21.2465 21.2898 21.2128 21.1951 21.2633C19.6788 22.0783 18.1709 22.909 16.5563 23.7937ZM19.3355 12.6204C17.7282 11.7381 16.2385 10.9111 14.7343 10.1129C14.6045 10.0444 14.3485 10.1189 14.192 10.2018C12.8285 10.9327 11.4723 11.6792 10.1173 12.4257C10.0263 12.4762 9.9572 12.5627 9.84559 12.6613C11.3595 13.4919 12.8164 14.3009 14.2867 15.0859C14.4286 15.1616 14.6858 15.1568 14.8301 15.0798C16.2992 14.2949 17.7561 13.4871 19.3367 12.6204H19.3355ZM16.6364 8.8519C16.7189 8.93965 16.7492 8.99374 16.7953 9.01899C18.2207 9.80515 19.6424 10.5985 21.0799 11.3618C21.2303 11.4424 21.5081 11.4063 21.6743 11.3222C22.515 10.8906 23.3374 10.4278 24.166 9.97344C24.7895 9.63085 25.4106 9.28585 26.119 8.89517C24.5372 8.02487 23.0645 7.20987 21.5821 6.40929C21.4632 6.34437 21.2534 6.32755 21.1393 6.38765C19.6424 7.19424 18.154 8.01766 16.6364 8.8531V8.8519ZM32.8176 12.6709C32.7643 12.5819 32.7533 12.5351 32.7242 12.5194C31.7028 11.9533 30.6183 11.4736 29.6709 10.8041C28.5852 10.0383 27.673 10.0564 26.5909 10.8089C25.6132 11.4893 24.5056 11.9881 23.3568 12.6204C24.4753 13.2347 25.5598 13.7023 26.4939 14.3754C27.6511 15.2097 28.6313 15.1952 29.7849 14.3718C30.7202 13.7035 31.7999 13.2311 32.8176 12.6709ZM19.3331 20.0685C17.7464 19.1969 16.2907 18.3855 14.8168 17.6078C14.6542 17.5225 14.3522 17.5742 14.1702 17.6691C13.1719 18.1884 12.1905 18.739 11.2042 19.2811C10.7554 19.5275 10.3102 19.78 9.77887 20.0769C11.3704 20.9508 12.8613 21.7742 14.3595 22.5832C14.4601 22.6373 14.6457 22.6325 14.7489 22.5772C16.2458 21.7682 17.7354 20.946 19.3343 20.0685H19.3331ZM23.3532 20.0685C24.9436 20.9424 26.4174 21.7634 27.9071 22.5531C28.0539 22.6313 28.3341 22.5676 28.5051 22.4786C29.2924 22.0723 30.064 21.6336 30.8403 21.2068C31.5014 20.8438 32.1614 20.4808 32.9147 20.0685C31.3256 19.1957 29.8492 18.3783 28.362 17.5814C28.2346 17.5128 28.0017 17.5273 27.8695 17.5982C26.398 18.3892 24.9363 19.1982 23.352 20.0685H23.3532ZM26.1239 16.3444C24.5335 15.4705 23.073 14.6567 21.5979 13.8742C21.4475 13.7948 21.1672 13.8357 21.0023 13.9235C19.6327 14.6507 18.2741 15.4008 16.9154 16.1485C16.8232 16.199 16.7492 16.2855 16.6315 16.3853C18.1491 17.2183 19.6121 18.0261 21.0823 18.8183C21.2036 18.8832 21.4123 18.9145 21.5239 18.8556C23.0269 18.049 24.5202 17.2243 26.1239 16.3444ZM30.144 16.3444C31.7404 17.2219 33.2155 18.0442 34.7076 18.8339C34.8532 18.9109 35.1346 18.8399 35.3057 18.7498C36.321 18.2137 37.323 17.6535 38.3287 17.0993C38.7593 16.8625 39.1863 16.6209 39.6934 16.3384C38.1127 15.4693 36.6352 14.6519 35.1492 13.8501C35.0327 13.7876 34.8229 13.7852 34.7076 13.8477C33.2204 14.6483 31.7429 15.4657 30.1452 16.3444H30.144Z" fill="#AB8744"></path>
</g>
</svg>
