<svg viewBox="0 0 56 56" xmlns="http://www.w3.org/2000/svg" data-name="Layer 1" id="Layer_1">
  <defs>
    <style>
      .cls-1 {
        fill: #ab8744;
        stroke-width: 0px;
      }
    </style>
  </defs>
  <path d="M28.19,17.62c-.3-.28-.71-.42-1.12-.42-.52,0-.98.22-1.31.61l-.6.75-.33.39h-4.01c.14,1.28.27,2.81.41,4.51.33,3.98.49,8.21.63,10.38.14,2.17.38,3.76.98,5.12.57,1.25,2.1,2.23,2.78,2.62h1.5c.68-.39,2.21-1.39,2.78-2.62.6-1.36.87-2.98.98-5.12.11-2.17.3-6.4.63-10.38.14-1.7.27-3.23.38-4.51h-2.1l-1.58-1.36-.03.03ZM25.85,18.81l.44-.56.79-.36.65.25.95.81,1.17,1c.44.39.49,1.06.14,1.5l-1.8,2.17c-.35.42-1.04.47-1.47.14l-2.13-1.84c-.44-.39-.49-1.06-.14-1.5l.71-.86.52-.64.11-.14.05.03ZM23.69,26.3l.79-.97c.52-.61,1.39-.7,1.99-.17l.95.83c.6.5.68,1.42.16,2.03l-.82.97c-.49.61-1.39.7-1.99.17l-.95-.81c-.6-.5-.68-1.42-.16-2.03M29.04,37.71l-.85,1.03c-.49.61-1.39.7-1.99.17l-1.01-.86c-.6-.5-.68-1.42-.16-2.03l.85-1.03c.49-.61,1.39-.7,1.99-.17l1.01.86c.6.5.68,1.45.16,2.03Z" class="cls-1"></path>
  <path d="M38.66,2.67c-.11-.36-.55-.56-.87-.42l-5.02,1.81-.25.25-.19.14-2.24,6.62v.08h-13.14l.16.67s.98,4.2,1.55,10.1c.33,3.51.55,7.18.71,9.88.05.92.11,1.75.14,2.39.19,2.89.6,4.73,1.45,6.29.9,1.73,3.38,3.01,4.25,3.42v6.01c-.9.31-3.33,1.11-4.58,1.53-1.85.61-1.91,1.7-1.91,1.81v.53h15.19v-.53s-.05-1.2-1.91-1.81c-1.25-.42-3.68-1.22-4.58-1.53v-6.01c.9-.42,3.35-1.7,4.28-3.42.82-1.56,1.25-3.39,1.45-6.29.05-.67.08-1.47.14-2.39.16-2.7.38-6.37.71-9.88.55-5.87,1.53-10.07,1.55-10.1l.16-.67h-2.94l.98-2.84.35-1,.44-1.25,1.34-.45.9-.31,1.85-.64.41-.36v-.53l-.35-1.09-.03-.03ZM36.75,4.54l-2.29.78-.27.08-.14.06-.95-.78.19-.08.38-.14,4.34-1.56.38,1.09-1.64.56ZM32.8,5.26l1.04.81-.44,1.25-.33.92v-.03l-1.01,2.87-.11.08h-1.15M32.14,34.12c-.19,2.73-.57,4.45-1.31,5.87-.9,1.73-4.04,3.09-4.06,3.09l-.33.14v7.46l.35.11s3.38,1.11,4.94,1.64l.65.28h-12.02l.65-.28c1.55-.53,4.93-1.64,4.93-1.64l.35-.11v-7.46l-.33-.14s-3.16-1.36-4.06-3.09c-.76-1.42-1.15-3.12-1.34-5.87-.03-.64-.08-1.47-.14-2.39-.16-2.7-.38-6.4-.71-9.91-.44-4.59-1.12-8.18-1.42-9.6h16.14c-.3,1.42-1.01,5.01-1.42,9.6-.33,3.51-.55,7.21-.71,9.91-.05.92-.11,1.75-.16,2.39" class="cls-1"></path>
</svg>