<svg viewBox="0 0 56 56" xmlns="http://www.w3.org/2000/svg" data-name="Layer 1" id="Layer_1">
  <defs>
    <style>
      .cls-1 {
        fill: #a38344;
      }

      .cls-1, .cls-2 {
        stroke-width: 0px;
      }

      .cls-2 {
        fill: #ab8744;
      }

      .cls-3 {
        fill: none;
        stroke: #ab8744;
        stroke-width: 1.5px;
      }
    </style>
  </defs>
  <g>
    <path d="M35.53,18.73c.97.13,1.92.17,2.82.4,3.06.79,4.95,2.85,5.77,5.82,1.48,5.36.49,10.28-3.01,14.62-.55.68-.73,1.26-.77,2.11-.13,4.02-1.3,7.72-3.75,10.96-.25.33-.58.6-.91.86-.43.35-.93.5-1.5.5-5.59,0-11.16-.01-16.75,0-.67,0-1.22-.22-1.72-.63-1.19-1.02-1.92-2.35-2.57-3.74-1.05-2.3-1.75-4.7-1.92-7.24-.13-1.92.23-3.79.83-5.6.67-1.99,1.37-3.99,2.25-5.89.87-1.87,1.28-3.79,1.38-5.84.1-2.19.26-4.36.43-6.54.04-.57-.03-1.06-.39-1.54-.75-1.02-1.45-2.08-2.18-3.13-.35-.51-.32-.82.14-1.25.48-.45.98-.87,1.45-1.34.36-.36.73-.44,1.21-.27,1.87.64,3.75,1.3,5.64,1.89.66.21,1.38.26,2.07.32,3.57.3,7.15.56,10.73.84.38.03.78.05,1.16.1.75.08,1.02.57.67,1.22-.3.56-.56,1.13-.91,1.65-.38.58-.3,1.15-.21,1.69h.01ZM35.04,29.38c-.15.07-.3.12-.45.19-1.83.78-3.71,1.09-5.68.72-1.36-.25-2.57-.84-3.74-1.55-2.66-1.61-5.38-1.56-8.11-.2-.19.09-.35.31-.44.5-.28.66-.54,1.32-.8,1.99-.7,1.73-1.45,3.43-2.08,5.19-.71,2.02-1.19,4.1-1.05,6.27.14,2.08.69,4.06,1.51,5.96.51,1.21,1.13,2.37,1.98,3.39.42.48.89.71,1.55.71,5.41-.02,10.83-.02,16.24,0,.5,0,.91-.15,1.24-.51.17-.2.36-.4.52-.61,1.21-1.67,1.99-3.56,2.55-5.54.51-1.83.8-3.68.54-5.59-.55-3.88-2.21-7.38-3.78-10.92ZM17.59,18.19c-.19,2.92-.38,5.79-.57,8.73.22-.08.35-.12.49-.17,1.07-.4,2.18-.64,3.32-.67,1.96-.03,3.73.54,5.38,1.59,2.63,1.66,5.37,1.69,8.15.42.26-.12.32-.25.3-.54-.14-1.74-.26-3.49-.38-5.24-.1-1.37-.19-2.73-.27-4.12h-16.42ZM15.02,13.42c.69,1.01,1.38,1.98,2.03,2.97.16.25.35.34.66.34,2.97-.01,5.95,0,8.93,0h7.23c.15,0,.38-.04.46-.15.21-.3.36-.64.57-1.04-.97-.09-1.88-.16-2.78-.24-2.83-.22-5.66-.44-8.49-.67-.61-.05-1.24-.09-1.8-.26-1.56-.48-3.12-1.04-4.67-1.56-.81-.27-1.52-.07-2.13.61ZM35.79,23.14c.03.58.05,1.13.11,1.68.11,1.11.16,2.24.37,3.33.13.72.46,1.41.74,2.1.66,1.59,1.34,3.16,2.02,4.74,0,0,.04-.02.05-.04,1.5-2.97,1.86-6.04.78-9.24-.55-1.61-1.88-2.75-4.08-2.58ZM40.02,38.64c.13-.15.22-.24.28-.34,2.81-3.92,3.71-8.23,2.43-12.91-.71-2.58-2.33-4.35-5.03-4.93-.67-.14-1.37-.15-2.12-.23.04.56.08.97.12,1.43h.62c2.24.1,3.85,1.15,4.77,3.21.51,1.16.73,2.39.81,3.65.16,2.95-.57,5.68-2.14,8.19-.08.12-.13.28-.11.4.1.48.23.95.37,1.52Z" class="cls-1"></path>
    <path d="M37.16,2l-7.5,17-7.5,17" class="cls-3"></path>
  </g>
  <path d="M27.34,45.45c-.51,0-.91-.39-.91-.89s.4-.89.91-.89.91.39.91.89-.4.89-.91.89ZM27.34,44.14c-.23,0-.44.19-.44.44,0,.48.86.48.86,0,0-.23-.19-.44-.44-.44h.02Z" class="cls-2"></path>
  <path d="M29.27,46.43c-.51,0-.91-.39-.91-.89s.4-.89.91-.89.91.39.91.89-.4.89-.91.89ZM29.27,45.12c-.23,0-.44.19-.44.44,0,.48.86.48.86,0,0-.23-.19-.44-.44-.44h.02Z" class="cls-2"></path>
  <path d="M25.47,50.01c-.51,0-.91-.39-.91-.89s.4-.89.91-.89.91.39.91.89-.4.89-.91.89ZM25.47,48.71c-.23,0-.44.19-.44.44,0,.48.86.48.86,0,0-.23-.19-.44-.44-.44h.02Z" class="cls-2"></path>
  <path d="M31.6,48.51c-.51,0-.91-.39-.91-.89s.4-.89.91-.89.91.39.91.89-.4.89-.91.89ZM31.6,47.21c-.23,0-.44.19-.44.44,0,.48.86.48.86,0,0-.23-.19-.44-.44-.44h.02Z" class="cls-2"></path>
  <path d="M22.44,51.36c-.51,0-.91-.39-.91-.89s.4-.89.91-.89.91.39.91.89-.4.89-.91.89ZM22.44,50.05c-.23,0-.44.19-.44.44,0,.48.86.48.86,0,0-.23-.19-.44-.44-.44h.02Z" class="cls-2"></path>
  <path d="M26.76,47.47c-.51,0-.91-.39-.91-.89s.4-.89.91-.89.91.39.91.89-.4.89-.91.89ZM26.76,46.16c-.23,0-.44.19-.44.44,0,.48.86.48.86,0,0-.23-.19-.44-.44-.44h.02Z" class="cls-2"></path>
  <path d="M28.56,50.53c-.51,0-.91-.39-.91-.89s.4-.89.91-.89.91.39.91.89-.4.89-.91.89ZM28.56,49.23c-.23,0-.44.19-.44.44,0,.48.86.48.86,0,0-.23-.19-.44-.44-.44h.02Z" class="cls-2"></path>
  <path d="M31,51.83c-.51,0-.91-.39-.91-.89s.4-.89.91-.89.91.39.91.89-.4.89-.91.89ZM31,50.53c-.23,0-.44.19-.44.44,0,.48.86.48.86,0,0-.23-.19-.44-.44-.44h.02Z" class="cls-2"></path>
  <path d="M26.78,52.04c-.51,0-.91-.39-.91-.89s.4-.89.91-.89.91.39.91.89-.4.89-.91.89ZM26.78,50.74c-.23,0-.44.19-.44.44,0,.48.86.48.86,0,0-.23-.19-.44-.44-.44h.02Z" class="cls-2"></path>
</svg>