<svg width="55" height="56" viewBox="0 0 55 56" fill="none" xmlns="http://www.w3.org/2000/svg">
<g id="Background" clip-path="url(#clip0_2068_4781)">
<path id="Vector" d="M8.37665 14.9725L9.66372 13.2086L9.71345 13.2443L8.94346 14.2848L8.6404 14.6944L9.05555 14.9897L9.90171 15.5916L10.3022 15.8765L10.5939 15.4809L11.1472 14.7308L11.2008 14.7692L10.672 15.4905L10.3716 15.9003L10.7862 16.1941L11.6888 16.8336L12.0921 17.1194L12.3825 16.7194L13.2403 15.5377L13.302 15.5811L11.9215 17.4487L8.37665 14.9725Z" fill="#AB8744" stroke="#AB8744"></path>
<path id="Vector_2" d="M7.76896 22.8527L9.47632 23.3052L9.37442 23.662L5.15063 22.5597L5.55785 21.1129L5.55788 21.1129L5.55937 21.1074C5.67191 20.6892 5.81753 20.5451 5.93953 20.4841L5.95195 20.4779L5.964 20.471C6.08302 20.403 6.26067 20.3738 6.51516 20.428L6.76308 20.4989L6.77109 20.5012L6.77917 20.5032C6.98925 20.5557 7.10563 20.6452 7.17034 20.7504L7.17933 20.765L7.18929 20.7789C7.23157 20.8381 7.24663 20.8889 7.24663 20.9398V21.1252C7.12005 20.9968 6.95351 20.9141 6.78654 20.8709L6.6714 20.838C6.45024 20.7659 6.16609 20.7222 5.89103 20.8873L5.86891 20.9006L5.84828 20.9161C5.65868 21.0583 5.53492 21.2814 5.47674 21.5265L5.42497 21.6991L5.27722 22.1917L5.77387 22.3255L6.75165 22.5888L7.2272 22.7169L7.29647 22.4744H7.33587L7.39706 22.2091V22.2753V22.3694V22.7541L7.76896 22.8527ZM7.42529 22.0867C7.45732 21.9479 7.46862 21.8284 7.46785 21.7267L8.02405 21.3558C8.19377 21.2426 8.39213 21.1567 8.62197 21.1127C8.94229 21.0628 9.41567 21.0851 10.0576 21.23L9.96656 21.5656C9.68973 21.505 9.44085 21.4568 9.22057 21.4253C8.92833 21.3835 8.64935 21.3653 8.4053 21.4047C8.13328 21.4428 7.9118 21.531 7.73957 21.6707C7.56405 21.813 7.48153 21.9756 7.43746 22.0784L7.41526 22.1302L7.42529 22.0867Z" fill="#AB8744" stroke="#AB8744"></path>
<path id="Vector_3" d="M28.0906 9.30449V9.30468C28.516 9.30468 28.8144 9.23516 29.0112 9.1244L29.0224 9.11814L29.0224 9.11829C29.2215 9.01285 29.3627 8.89612 29.472 8.7595L29.4853 7.27629H29.2675V7.73559V8.54442V8.75147L29.1212 8.89791C29.0435 8.97555 28.9238 9.06291 28.8032 9.12327M28.0906 9.30449L28.8032 9.12327M28.0906 9.30449L28.0771 9.30486C27.5255 9.31977 27.1436 9.1341 26.8499 8.79833C26.5941 8.50593 26.4292 8.0737 26.3966 7.44558H26.4094V6.94558C26.4094 6.32075 26.5988 5.82323 26.9205 5.45546C27.2431 5.10698 27.7014 4.90625 28.3351 4.90625C28.5687 4.90625 28.7501 4.93686 28.918 4.98267L28.918 4.98278L28.9283 4.98536C28.9762 4.99733 29.0271 5.01385 29.0761 5.03179V5.09196M28.0906 9.30449L29.0761 5.09196M28.8032 9.12327C28.5883 9.23072 28.3655 9.25133 28.1658 9.25133C27.7503 9.25133 27.3812 9.10077 27.1221 8.74439L27.1161 8.73614L27.1105 8.72765C26.8734 8.37202 26.7821 7.81087 26.7821 7.1713V7.09606C26.7821 6.47124 26.8988 5.91143 27.22 5.5317C27.5315 5.1634 27.9404 4.99722 28.4103 4.99722C28.6267 4.99722 28.847 5.01832 29.0761 5.09196M28.8032 9.12327L29.0761 5.09196" fill="#AB8744" stroke="#AB8744"></path>
<path id="Vector_4" d="M8.64594 30.1591L8.83278 30.2453C9.06818 30.4117 9.23915 30.6824 9.3251 31.0866L9.60122 32.4263L5.30986 33.3101L5.24203 32.9958L5.77918 32.8845L8.95696 32.2262L9.45983 32.122L9.34224 31.6221L9.271 31.3192C9.23901 31.1318 9.16706 30.9536 9.04277 30.8016C8.91925 30.6506 8.76339 30.5491 8.59798 30.4852C8.41416 30.4033 8.19177 30.3901 8.00937 30.3901C7.77654 30.3901 7.46885 30.4111 7.05757 30.5218H6.99399H6.94806L6.90291 30.5302C6.345 30.6335 5.86727 30.8295 5.54666 31.1235C5.3946 31.263 5.26294 31.4298 5.18758 31.6338C5.11501 31.8303 5.10649 32.0291 5.14413 32.2215L5.0872 32.2785L5.05792 32.1428C4.92998 31.4991 5.05723 31.1012 5.30615 30.8403L5.30626 30.8404L5.31444 30.8314C5.59234 30.5256 6.05923 30.2786 6.76703 30.14L6.97064 30.103L6.97066 30.1031L6.9814 30.1009C7.75367 29.9429 8.29132 29.9953 8.64594 30.1591Z" fill="#AB8744" stroke="#AB8744"></path>
<path id="Vector_5" d="M18.7432 6.73628L19.1092 6.59299L20.7381 10.522L20.3721 10.6653L18.7432 6.73628Z" fill="#AB8744" stroke="#AB8744"></path>
<path id="Vector_6" d="M12.934 10.038L11.9665 10.8983L11.5855 11.237L11.9317 11.6114L12.6274 12.3638L12.961 12.7246L13.3276 12.3972L14.0191 11.7796L14.063 11.8257L13.3948 12.4226L13.0098 12.7664L13.3657 13.1403L14.1178 13.9303L14.4503 14.2795L14.8113 13.96L15.912 12.9859L15.9485 13.0254L14.2073 14.5824L11.2481 11.4695L12.8918 9.99356L12.934 10.038Z" fill="#AB8744" stroke="#AB8744"></path>
<path id="Vector_7" d="M21.9772 7.59158L22.4398 9.84383L22.3665 9.85823L21.5001 5.7071L21.5719 5.69373L23.929 7.70226L25.0363 8.64584L24.743 7.2209L24.3185 5.15854L24.406 5.14166L25.2246 9.22114L22.7946 7.11328L21.6804 6.14681L21.9772 7.59158Z" fill="#AB8744" stroke="#AB8744"></path>
<path id="Vector_8" d="M17.1937 11.4994L17.4503 11.9092L17.8685 11.6665L18.977 11.0231L19.0062 11.0689L17.161 12.1713L14.8888 8.54048L15.2171 8.34235L17.1937 11.4994Z" fill="#AB8744" stroke="#AB8744"></path>
<path id="Vector_9" d="M8.96181 28.2182L8.95528 28.3554L6.90333 27.6283H7.22293H7.24173L7.32079 27.1336L7.7222 27.1553L7.75981 26.4593L7.79724 25.7666L7.12828 25.9501L5.96247 26.2699L4.62653 26.6363L4.64072 26.3287L9.08401 25.1026L9.06997 25.4536L8.21278 25.6647L7.84883 25.7543L7.83279 26.1288L7.77638 27.4455L7.76017 27.8238L8.11999 27.9419L8.96181 28.2182ZM6.70331 27.4779L6.69909 27.5559L4.61812 26.8185L4.61924 26.7944L5.9389 27.2272L6.70331 27.4779Z" fill="#AB8744" stroke="#AB8744"></path>
<path id="Vector_10" d="M34.5782 49.474L34.5787 49.4771C32.1441 50.1251 29.5093 50.5875 27.1237 50.4955C28.1925 48.6058 29.7022 46.801 31.1405 45.0815L31.1519 45.0679C31.888 44.2969 32.6233 43.5784 33.4414 42.9728L33.6188 42.9882C36.6956 44.145 39.9578 44.3231 43.2444 44.1778C40.7864 46.5929 37.8559 48.303 34.5782 49.474Z" fill="#AB8744" stroke="#AB8744"></path>
<path id="Vector_11" d="M10.6056 19.9372L10.6061 19.9376C10.5828 19.9636 10.5621 19.9861 10.5434 20.0057L10.4691 19.972C10.5324 19.8882 10.6057 19.7795 10.6655 19.643C10.751 19.4609 10.749 19.2665 10.7483 19.2025C10.7483 19.1979 10.7482 19.194 10.7482 19.1908V19.1096L10.7226 19.0327C10.6686 18.8707 10.5583 18.7684 10.4925 18.7157C10.4189 18.6568 10.3375 18.6105 10.2651 18.5743L10.2574 18.5704L10.2496 18.5669L7.14157 17.1432L7.3083 16.7992L10.5066 18.2706C10.765 18.3936 10.9096 18.5512 10.9873 18.7369C11.0517 18.9061 11.0539 19.1303 10.8932 19.4715C10.7829 19.6736 10.7072 19.8066 10.6056 19.9372Z" fill="#AB8744" stroke="#AB8744"></path>
<path id="Vector_12" d="M22.9789 50.0539C21.968 49.8501 21.1045 49.6172 20.237 49.3282C20.3419 49.3146 20.4466 49.2988 20.5507 49.2807C21.2316 49.1622 21.9118 48.9419 22.5003 48.5858C22.6278 49.0903 22.7947 49.5858 22.9789 50.0539Z" fill="#AB8744" stroke="#AB8744"></path>
<path id="Vector_13" d="M36.037 40.7824L36.1044 40.8152L36.1784 40.8269C39.4033 41.3353 42.8285 41.4443 46.3093 40.6488C46.3046 40.6573 46.2999 40.6657 46.2952 40.6741C46.1687 40.9014 46.0501 41.1044 45.9194 41.2748C45.7893 41.4444 45.6655 41.5568 45.5416 41.6215C45.4275 41.6811 45.2897 41.7131 45.0971 41.6825L45.0358 41.6728L44.9741 41.6784C41.7039 41.971 38.4935 41.8946 35.4762 41.127C35.5463 41.0392 35.6105 40.9638 35.6751 40.8997C35.7753 40.8004 35.8418 40.7646 35.8813 40.753C35.9031 40.7467 35.9444 40.7372 36.037 40.7824Z" fill="#AB8744" stroke="#AB8744"></path>
<path id="Vector_14" d="M17.5463 46.8736L17.4924 46.8224L17.4737 46.813C16.7919 46.0564 15.9991 45.3698 15.2348 44.7078C15.0766 44.5708 14.9196 44.4349 14.7651 44.2996C13.8242 43.4758 12.9616 42.6664 12.3339 41.7289L12.3276 41.7195L12.3209 41.7105C11.5434 40.6556 11.0137 39.4348 10.476 38.1466C10.4442 38.0706 10.4125 37.9943 10.3806 37.9178C9.97584 36.946 9.5568 35.9399 9.01665 34.996C9.08836 35.0209 9.16529 35.0514 9.24949 35.0855C9.68257 35.4599 9.99791 35.936 10.2906 36.4826C10.4148 36.7145 10.5307 36.9506 10.6509 37.1957C10.6793 37.2534 10.7079 37.3117 10.7369 37.3706C10.8866 37.6741 11.0451 37.9882 11.2245 38.2923L12.0465 39.6855L12.154 38.0715C12.1796 37.6873 12.0756 37.3375 11.9955 37.0697L11.9893 37.0489C11.9053 36.7683 11.8421 36.557 11.8353 36.3302L11.8343 36.2987L11.8294 36.2676C11.6763 35.2946 11.6663 34.3428 11.6639 33.3557C11.6638 33.3047 11.6637 33.2536 11.6636 33.2023C11.6623 32.5329 11.6609 31.8452 11.6119 31.1432C11.9224 31.5304 12.0328 32.0463 12.0827 32.7013C12.0986 32.9111 12.1079 33.1257 12.1176 33.3508L12.1192 33.389C12.1294 33.6248 12.1405 33.8714 12.1611 34.1166C12.2022 34.6047 12.2835 35.1219 12.4944 35.6049L12.6591 35.9823L13.0611 35.8929C13.2079 35.8603 13.3465 35.7806 13.4445 35.6457C13.5296 35.5284 13.5547 35.4076 13.5647 35.3516C13.5689 35.328 13.5721 35.305 13.5741 35.2891L13.6174 35.2242L13.6216 35.0808C13.645 34.2765 13.7661 33.4899 13.8927 32.667C13.9126 32.538 13.9325 32.4081 13.9523 32.2771C14.0608 31.5581 14.1614 30.8128 14.1786 30.042C14.4429 30.3536 14.5385 30.7654 14.5517 31.291C14.5588 31.5753 14.5416 31.8681 14.5233 32.1791C14.5221 32.1991 14.5209 32.2192 14.5197 32.2394C14.5009 32.562 14.4821 32.9094 14.5032 33.2363L15.4827 33.3422L16.1264 31.1029C16.1982 31.2044 16.2636 31.3236 16.3236 31.4498C16.3561 31.6357 16.4233 31.8202 16.5735 32.0005L16.8174 32.2932L16.5196 32.9635L16.3691 33.302L16.3396 33.3687L16.3302 33.441C16.0259 35.7954 16.9785 38.194 18.7484 39.7834L19.1583 40.1515L19.4851 39.7079C19.8165 39.2579 19.9862 38.7062 19.938 38.1284L19.9365 38.1102L19.9337 38.0922C19.7913 37.1866 19.4724 36.3891 19.1204 35.6487C18.969 35.3302 18.8193 35.0366 18.6732 34.7501C18.4643 34.3403 18.2628 33.9451 18.0742 33.5122L17.7152 32.6883L17.7455 32.6732C18.0357 32.528 18.1792 32.2841 18.256 32.1536L18.2605 32.1459C18.2811 32.111 18.2981 32.0826 18.3124 32.0594C18.4921 32.5946 18.7117 33.1161 18.9155 33.6002C18.9242 33.6207 18.9327 33.6411 18.9413 33.6614L18.9464 33.6735L18.9521 33.6853C19.2585 34.3181 19.6308 34.9096 20.0047 35.4758C20.1077 35.6318 20.2102 35.785 20.3117 35.9367C20.5841 36.3437 20.8491 36.7397 21.0967 37.1494C21.7683 38.2609 22.2561 39.3872 22.2304 40.7563L22.2301 40.7731L22.2309 40.7899C22.2642 41.476 22.1808 42.1309 22.0912 42.835C22.0611 43.0713 22.0303 43.3131 22.003 43.5635C21.9046 44.4646 21.8616 45.4288 22.1456 46.4563C21.7008 47.0221 20.8826 47.2698 19.9298 47.3566C19.8018 47.3543 19.6784 47.3537 19.5586 47.3531C19.2031 47.3513 18.879 47.3497 18.5589 47.3053C18.1439 47.2477 17.8106 47.1244 17.5463 46.8736ZM17.9626 31.9909C17.9626 31.9909 17.9624 31.9905 17.9621 31.9893L17.9626 31.9909ZM17.5204 30.602C17.5197 30.5989 17.5189 30.5957 17.5182 30.5926L17.9436 30.0819C18.1621 29.8196 18.2544 29.4991 18.3168 29.2703C18.3268 29.2338 18.3362 29.1989 18.3451 29.1655C18.4006 28.9589 18.4405 28.8104 18.5104 28.6764L18.519 28.6599L18.5264 28.6428C19.1403 27.2158 20.1793 26.0861 21.5833 26.0861H21.6247L21.6656 26.0793C21.68 26.0769 21.6943 26.0747 21.7085 26.0728C21.0492 26.5868 20.5108 27.2311 20.019 27.8597C19.8976 28.0148 19.7792 28.1687 19.6626 28.3203C19.0197 29.1556 18.4293 29.9228 17.6794 30.467L17.6677 30.4755L17.6564 30.4848C17.6162 30.5177 17.5698 30.5569 17.5204 30.602ZM17.0357 27.8149C17.0276 28.4296 17.0192 29.065 17.0537 29.6829C16.9978 29.6113 16.9397 29.5429 16.8809 29.4773C16.6713 29.2438 16.4286 29.023 16.2095 28.8238C16.1696 28.7875 16.1304 28.7518 16.0924 28.717C15.8331 28.4794 15.6183 28.2707 15.463 28.0571L15.4585 28.051L15.4539 28.045C14.6843 27.0512 14.1382 25.9168 13.6779 24.6917C14.6059 25.1098 15.4889 25.6608 16.0256 26.4052L16.2822 26.761L16.6683 26.553C16.8629 26.4482 16.9738 26.2809 17.0205 26.1082C17.0316 26.3149 17.0378 26.5223 17.0407 26.731C17.0455 27.0792 17.0407 27.4432 17.0357 27.8149Z" fill="#AB8744" stroke="#AB8744"></path>
<path id="Vector_15" d="M29.1924 30.9678L29.2069 31.0986C29.2637 31.6102 29.5466 31.927 29.8693 32.0292C30.6095 32.2417 31.4519 32.1806 32.3701 32.1041C32.371 32.104 32.3718 32.1039 32.3727 32.1039L32.4142 32.6021C33.0159 32.5457 33.6553 32.5081 34.257 32.5457L29.1924 30.9678ZM29.1924 30.9678C29.2046 30.7897 29.2453 30.6012 29.2953 30.3696C29.306 30.32 29.3172 30.2684 29.3285 30.2145C29.4689 29.6696 29.643 28.9459 29.3228 28.2033V27.7759H28.8802L28.8749 27.7723L28.8554 27.7617C28.8433 27.7551 28.8316 27.7487 28.8204 27.7426C28.7229 27.6896 28.659 27.6548 28.6039 27.6148C28.558 27.5815 28.546 27.5634 28.5445 27.5607L28.5408 27.5527L28.5367 27.5445C28.532 27.5351 28.5298 27.525 28.531 27.5123C28.5322 27.4994 28.5375 27.4786 28.5555 27.4528L28.5766 27.4226L28.577 27.4218C28.5801 27.4193 28.5838 27.4163 28.5882 27.4128C28.5963 27.4064 28.605 27.3998 28.6156 27.3918C28.7534 27.3055 28.9089 27.1769 29.0313 26.9627L29.0382 26.9506L29.0444 26.9382L29.1008 26.8253L29.3585 26.3098L28.8117 26.1275L28.6989 26.0899C28.6095 26.06 28.4824 26.0086 28.3669 25.9379C28.2827 25.8863 28.2256 25.8373 28.1902 25.7965C28.193 25.7896 28.1967 25.781 28.2016 25.7706C28.2137 25.7453 28.2306 25.7147 28.255 25.674L28.2649 25.6575L28.2734 25.6403C28.2786 25.63 28.2848 25.6181 28.2917 25.6047C28.3583 25.4758 28.4954 25.2103 28.4954 24.9089V24.9084V24.9078V24.9073V24.9067V24.9062V24.9056V24.9051V24.9045V24.904V24.9034V24.9028V24.9023V24.9017V24.9012V24.9006V24.9001V24.8995V24.899V24.8984V24.8979V24.8973V24.8968V24.8962V24.8957V24.8951V24.8946V24.894V24.8935V24.8929V24.8924V24.8918V24.8913V24.8907V24.8902V24.8896V24.8891V24.8885V24.888V24.8874V24.8869V24.8863V24.8858V24.8852V24.8847V24.8841V24.8836V24.883V24.8825V24.8819V24.8814V24.8808V24.8803V24.8797V24.8792V24.8786V24.8781V24.8775V24.8769V24.8764V24.8758V24.8753V24.8747V24.8742V24.8736V24.8731V24.8725V24.872V24.8714V24.8709V24.8703V24.8698V24.8692V24.8687V24.8681V24.8676V24.867V24.8665V24.8659V24.8654V24.8648V24.8643V24.8637V24.8632V24.8626V24.8621V24.8615V24.861V24.8604V24.8599V24.8593V24.8588V24.8582V24.8577V24.8571V24.8566V24.856V24.8555V24.8549V24.8544V24.8538V24.8533V24.8527V24.8521V24.8516V24.851V24.8505V24.8499V24.8494V24.8488V24.8483V24.8477V24.8472V24.8466V24.8461V24.8455V24.845V24.8444V24.8439V24.8433V24.8428V24.8422V24.8417V24.8411V24.8406V24.84V24.8395V24.8389V24.8384V24.8378V24.8373V24.8367V24.8362V24.8356V24.8351V24.8345V24.834V24.8334V24.8329V24.8323V24.8318V24.8312V24.8307V24.8301V24.8296V24.829V24.8285V24.8279V24.8274V24.8268V24.8263V24.8257V24.8251V24.8246V24.824V24.8235V24.8229V24.8224V24.8218V24.8213V24.8207V24.8202V24.8196V24.8191V24.8185V24.818V24.8174V24.8169V24.8163V24.8158V24.8152V24.8147V24.8141V24.8136V24.813V24.8125V24.8119V24.8114V24.8108V24.8103V24.8097V24.8092V24.8086V24.8081V24.8075V24.807V24.8064V24.8059V24.8053V24.8048V24.8042V24.8037V24.8031V24.8026V24.802V24.8015V24.8009V24.8004V24.7998V24.7992V24.7987V24.7981V24.7976V24.797V24.7965V24.7959V24.7954V24.7948V24.7943V24.7937V24.7932V24.7926V24.7921V24.7915V24.791V24.7904V24.7899V24.7893V24.7888V24.7882V24.7877V24.7871V24.7866V24.786V24.7855V24.7849V24.7844V24.7838V24.7833V24.7827V24.7822V24.7816V24.7811V24.7805V24.78V24.7794V24.7789V24.7783V24.7778V24.7772V24.7767V24.7761V24.7756V24.775V24.7745V24.7739V24.7733V24.7728V24.7722V24.7717V24.7711V24.7706V24.77V24.7695V24.7689V24.7684V24.7678V24.7673V24.7667V24.7662V24.7656V24.7651V24.7645V24.764V24.7634V24.7629V24.7623V24.7618V24.7612V24.7607V24.7601V24.7596V24.759V24.7585V24.7579V24.7574V24.7568V24.7563V24.7557V24.7552V24.7546V24.7541V24.7535V24.753V24.7524V24.7519V24.7513V24.7508V24.7502V24.7497V24.7491V24.7486V24.748V24.7474V24.7469V24.7463V24.7458V24.7452V24.7447V24.7441V24.7436V24.743V24.7425V24.7419V24.7414V24.7408V24.7403V24.7397V24.7392V24.7386V24.7381V24.7375V24.737V24.7364V24.7359V24.7353V24.7348V24.7342V24.7337V24.7331V24.7326V24.732V24.7315V24.7309V24.7304V24.7298V24.7293V24.7287V24.7282V24.7276V24.7271V24.7265V24.726V24.7254V24.7249V24.7243V24.7238V24.7232V24.7227V24.7221V24.7215V24.721V24.7204V24.7199V24.7193V24.7188V24.7182V24.7177V24.7171V24.7166V24.716V24.7155V24.7149V24.7144V24.7138V24.7133V24.7127V24.7122V24.7116V24.7111V24.7105V24.71V24.7094V24.7089V24.7083V24.7078V24.7072V24.7067V24.7061V24.7056V24.705V24.7045V24.7039V24.7034V24.7028V24.7023V24.7017V24.7012V24.7006V24.7001V24.6995V24.699V24.6984V24.6979V24.6973V24.6968V24.6962V24.6956V24.6951V24.6945V24.694V24.6934V24.6929V24.6923V24.6918V24.6912V24.6907V24.6901V24.6896V24.689V24.6885V24.6879V24.6874V24.6868V24.6863V24.6857V24.6852V24.6846V24.6841V24.6835V24.683V24.6824V24.6819V24.6813V24.6808V24.6802V24.6797V24.6791V24.6786V24.678V24.6775V24.6769V24.6764V24.6758V24.6753V24.6747V24.6742V24.6736V24.6731V24.6725V24.672V24.6714V24.6709V24.6703V24.6697V24.6692V24.6686V24.6681V24.6675V24.667V24.6664V24.6659V24.6653V24.6648V24.6642V24.6637V24.6631V24.6626V24.662V24.6615V24.6609V24.6604V24.6598V24.6593V24.6587V24.6582V24.6576V24.6571V24.6565V24.656V24.6554V24.6549V24.6543V24.6538V24.6532V24.6527V24.6521V24.6516V24.651V24.6505V24.6499V24.6494V24.6488V24.6483V24.6477V24.6472V24.6466V24.6461V24.6455V24.6449V24.6444V24.6438V24.6433V24.6427V24.6426C28.4957 24.6379 28.496 24.6332 28.4964 24.6283C28.5148 24.3436 28.5509 23.7867 28.0922 23.3584L28.052 23.3209L28.0046 23.293C27.5656 23.0346 27.0687 23.0353 26.7375 23.0358C26.724 23.0358 26.7109 23.0358 26.698 23.0358H26.6979H26.6978H26.6977H26.6975H26.6974H26.6973H26.6972H26.6971H26.697H26.6969H26.6968H26.6966H26.6965H26.6964H26.6963H26.6962H26.6961H26.6959H26.6958H26.6957H26.6956H26.6955H26.6953H26.6952H26.6951H26.695H26.6949H26.6947H26.6946H26.6945H26.6944H26.6943H26.6941H26.694H26.6939H26.6938H26.6936H26.6935H26.6934H26.6933H26.6931H26.693H26.6929H26.6928H26.6926H26.6925H26.6924H26.6922H26.6921H26.692H26.6919H26.6917H26.6916H26.6915H26.6913H26.6912H26.6911H26.6909H26.6908H26.6907H26.6905H26.6904H26.6903H26.6901H26.69H26.6899H26.6897H26.6896H26.6895H26.6893H26.6892H26.689H26.6889H26.6888H26.6886H26.6885H26.6884H26.6882H26.6881H26.6879H26.6878H26.6877H26.6875H26.6874H26.6872H26.6871H26.687H26.6868H26.6867H26.6865H26.6864H26.6863H26.6861H26.686H26.6858H26.6857H26.6855H26.6854H26.6852H26.6851H26.685H26.6848H26.6847H26.6845H26.6844H26.6842H26.6841H26.6839H26.6838H26.6836H26.6835H26.6833H26.6832H26.6831H26.6829H26.6828H26.6826H26.6825H26.6823H26.6822H26.682H26.6819H26.6817H26.6816H26.6814H26.6813H26.6811H26.681H26.6808H26.6806H26.6805H26.6803H26.6802H26.68H26.6799H26.6797H26.6796H26.6794H26.6793H26.6791H26.679H26.6788H26.6787H26.6785H26.6783H26.6782H26.678H26.6779H26.6777H26.6776H26.6774H26.6773H26.6771H26.6769H26.6768H26.6766H26.6765H26.6763H26.6762H26.676H26.6758H26.6757H26.6755H26.6754H26.6752H26.6751H26.6749H26.6747H26.6746H26.6744H26.6743H26.6741H26.6739H26.6738H26.6736H26.6735H26.6733H26.6731H26.673H26.6728H26.6727H26.6725H26.6723H26.6722H26.672H26.6719H26.6717H26.6715H26.6714H26.6712H26.6711H26.6709H26.6707H26.6706H26.6704H26.6702H26.6701H26.6699H26.6698H26.6696H26.6694H26.6693H26.6691H26.6689H26.6688H26.6686H26.6685H26.6683H26.6681H26.668H26.6678H26.6676H26.6675H26.6673H26.6671H26.667H26.6668H26.6667H26.6665H26.6663H26.6662H26.666H26.6658H26.6657H26.6655H26.6653H26.6652H26.665H26.6648H26.6647H26.6645H26.6643H26.6642H26.664H26.6639H26.6637H26.6635H26.6634H26.6632H26.663H26.6629H26.6627H26.6625H26.6624H26.6622H26.662H26.6619H26.6617H26.6615H26.6614H26.6612H26.661H26.6609H26.6607H26.6606H26.6604H26.6602H26.6601H26.6599H26.6597H26.6596H26.6594H26.6592H26.6591H26.6589H26.6587H26.6586H26.6584H26.6582H26.6581H26.6579H26.6577H26.6576H26.6574H26.6572H26.6571H26.6569H26.6568H26.6566H26.6564H26.6563H26.6561H26.6559H26.6558H26.6556H26.6554H26.6553H26.6551H26.6549H26.6548H26.6546H26.6544H26.6543H26.6541H26.654H26.6538H26.6536H26.6535H26.6533H26.6531H26.653H26.6528H26.6526H26.6525H26.6523H26.6522H26.652H26.6518H26.6517H26.6515H26.6513H26.6512H26.651H26.6509H26.6507H26.6505H26.6504H26.6502H26.65H26.6499H26.6497H26.6496H26.6494H26.6492H26.6491H26.6489H26.6488H26.6486H26.6484H26.6483H26.6481H26.6479H26.6478H26.6476H26.6475H26.6473H26.6471H26.647H26.6468H26.6467H26.6465H26.6464H26.6462H26.646H26.6459H26.6457H26.6456H26.6454H26.6452H26.6451H26.6449H26.6448H26.6446H26.6445H26.6443H26.6441H26.644H26.6438H26.6437H26.6435H26.6434H26.6432H26.643H26.6429H26.6427H26.6426H26.6424H26.6423H26.6421H26.642H26.6418H26.6417H26.6415H26.6413H26.6412H26.641H26.6409H26.6407H26.6406H26.6404H26.6403H26.6401H26.64H26.6398H26.6397H26.6395H26.6394H26.6392H26.6391H26.6389H26.6388H26.6386H26.6385H26.6383H26.6382H26.638H26.6379H26.6377H26.6376H26.6374H26.6373H26.6371H26.637H26.6368H26.6367H26.6365H26.6364H26.6363H26.6361H26.636H26.6358H26.6357H26.6355H26.6354H26.6352H26.6351H26.6349H26.6348H26.6347H26.6345H26.6344H26.6342H26.6341H26.634H26.6338H26.6337H26.6335H26.6334H26.6332H26.6331H26.633H26.6328H26.6327H26.6325H26.6324H26.6323H26.6321H26.632H26.6319H26.6317H26.6316H26.6315H26.6313H26.6312H26.631H26.6309H26.6308H26.6306H26.6305H26.6304H26.6302H26.6301H26.63H26.6298H26.6297H26.6296H26.6294H26.6293H26.6292H26.6291H26.6289H26.6288H26.6287H26.6285H26.6284H26.6283H26.6281H26.628H26.6279H26.6278H26.6276H26.6275H26.6274H26.6273H26.6271H26.627H26.6269H26.6268H26.6266H26.6265H26.6264H26.6263H26.6261H26.626H26.6259H26.6258H26.6257H26.6255H26.6254H26.6253H26.6252H26.6251H26.6249H26.6248H26.6247H26.6246H26.6245H26.6244H26.6242H26.6241H26.624H26.6239H26.6238H26.6237H26.6236H26.6234H26.6233H26.6232H26.6231H26.623H26.6229H26.6228C26.3108 23.0358 26.1167 23.0279 25.9762 22.989C26.0255 22.7881 26.1527 22.5657 26.3536 22.2355C26.3538 22.2352 26.354 22.2348 26.3542 22.2345L25.9271 21.9746M29.1924 30.9678L26.8013 21.381C26.793 21.4033 26.7843 21.4256 26.7753 21.4479C26.7421 21.5301 26.7043 21.6119 26.6641 21.692C26.6542 21.6108 26.6493 21.5292 26.6493 21.4479C26.6493 21.4109 26.6508 21.3744 26.6537 21.3382L26.3407 21.1846M25.9271 21.9746C26.0775 21.73 26.2467 21.4479 26.3407 21.1846M25.9271 21.9746L25.9173 21.9906C25.6578 22.4169 25.4198 22.808 25.457 23.2725L25.9271 21.9746ZM26.3407 21.1846C27.9202 17.9681 28.898 15.2595 29.4433 12.6449L26.6576 21.2977L26.3407 21.1846ZM31.2443 15.8978L30.8424 15.9782V16.1158C30.2497 16.4613 29.4937 16.988 29.2604 17.8791L29.1841 18.1708L29.4065 18.3745C30.6322 19.4967 32.1195 19.8788 33.58 19.8788V19.879L33.5929 19.8787C35.2277 19.8367 36.5205 19.0164 37.6327 18.1341L38.093 17.7689L37.6589 17.3729C36.9637 16.7389 36.0998 16.2601 35.2947 15.9262L35.2604 15.912L35.2244 15.903C35.1448 15.8831 34.9834 15.8577 34.8167 15.8962C34.7303 15.9161 34.5771 15.9685 34.461 16.1167C34.3297 16.2843 34.3185 16.4785 34.3518 16.6281L34.3632 16.6796L34.3851 16.7275C34.5852 17.1654 34.4743 17.6702 34.1094 18.0297C33.7589 18.3191 33.1584 18.4029 32.6867 18.2345C32.2557 18.0588 32.019 17.6786 31.9728 17.1426C31.9702 17.0892 31.9803 17.0411 32.0046 16.9257C32.0092 16.9036 32.0144 16.879 32.0201 16.8514C32.0495 16.7095 32.099 16.4558 32.0014 16.1823L31.8561 15.7754L31.4324 15.8601L31.2443 15.8978Z" fill="#AB8744" stroke="#AB8744"></path>
<path id="Vector_16" d="M49.4577 32.659C49.1935 33.8043 48.8966 34.812 48.5503 35.7044C46.9478 33.5867 45.8143 30.7329 45.315 27.397C45.3522 27.0694 45.4989 26.7766 45.7076 26.36C45.7198 26.3356 45.7322 26.3109 45.7448 26.2857C45.8982 25.9976 46.0537 25.6867 46.1911 25.3726L46.2329 25.2768V25.1859C46.7638 23.7397 47.3473 22.1436 47.2284 20.3981L47.2277 20.3881L47.2266 20.3781C47.117 19.3692 46.5621 18.5352 45.5942 18.3258L45.542 18.3145H45.4885H45.4881H45.4876H45.4872H45.4867H45.4863H45.4859H45.4854H45.485H45.4845H45.4841H45.4836H45.4832H45.4827H45.4823H45.4818H45.4814H45.481H45.4805H45.4801H45.4796H45.4792H45.4787H45.4783H45.4778H45.4774H45.4769H45.4765H45.476H45.4756H45.4751H45.4746H45.4742H45.4737H45.4733H45.4728H45.4724H45.4719H45.4715H45.471H45.4706H45.4701H45.4696H45.4692H45.4687H45.4683H45.4678H45.4673H45.4669H45.4664H45.466H45.4655H45.465H45.4646H45.4641H45.4637H45.4632H45.4627H45.4623H45.4618H45.4613H45.4609H45.4604H45.46H45.4595H45.459H45.4586H45.4581H45.4576H45.4572H45.4567H45.4562H45.4558H45.4553H45.4548H45.4544H45.4539H45.4534H45.453H45.4525H45.452H45.4515H45.4511H45.4506H45.4501H45.4497H45.4492H45.4487H45.4482H45.4478H45.4473H45.4468H45.4464H45.4459H45.4454H45.4449H45.4445H45.444H45.4435H45.443H45.4426H45.4421H45.4416H45.4411H45.4407H45.4402H45.4397H45.4392H45.4388H45.4383H45.4378H45.4373H45.4368H45.4364H45.4359H45.4354H45.4349H45.4344H45.434H45.4335H45.433H45.4325H45.432H45.4316H45.4311H45.4306H45.4301H45.4296H45.4292H45.4287H45.4282H45.4277H45.4272H45.4267H45.4263H45.4258H45.4253H45.4248H45.4243H45.4238H45.4234H45.4229H45.4224H45.4219H45.4214H45.4209H45.4204H45.42H45.4195H45.419H45.4185H45.418H45.4175H45.417H45.4166H45.4161H45.4156H45.4151H45.4146H45.4141H45.4136H45.4131H45.4127H45.4122H45.4117H45.4112H45.4107H45.4102H45.4097H45.4092H45.4087H45.4083H45.4078H45.4073H45.4068H45.4063H45.4058H45.4053H45.4048H45.4043H45.4038H45.4033H45.4029H45.4024H45.4019H45.4014H45.4009H45.4004H45.3999H45.3994H45.3989H45.3984H45.3979H45.3974H45.397H45.3965H45.396H45.3955H45.395H45.3945H45.394H45.3935H45.393H45.3925H45.392H45.3915H45.391H45.3905H45.39H45.3896H45.3891H45.3886H45.3881H45.3876H45.3871H45.3866H45.3861H45.3856H45.3851H45.3846H45.3841H45.3836H45.3831H45.3826H45.3821H45.3816H45.3811H45.3807H45.3802H45.3797H45.3792H45.3787H45.3782H45.3777H45.3772H45.3767H45.3762H45.3757H45.3752H45.3747H45.3742H45.3737H45.3732H45.3727H45.3722H45.3717H45.3712H45.3707H45.3702H45.3698H45.3693H45.3688H45.3683H45.3678H45.3673H45.3668H45.3663H45.3658H45.3653H45.3648H45.3643H45.3638H45.3633H45.3628H45.3623H45.3618H45.3613H45.3608H45.3603H45.3598H45.3593H45.3588H45.3584H45.3579H45.3574H45.3569H45.3564H45.3559H45.3554H45.3549H45.3544H45.3539H45.3534H45.3529H45.3524H45.3519H45.3514H45.3509H45.3504H45.3499H45.3494H45.3489H45.3484H45.348H45.3475H45.347H45.3465H45.346H45.3455H45.345H45.3445H45.344H45.3435H45.343H45.3425H45.342H45.3415H45.341H45.3405H45.34H45.3396H45.3391H45.3386H45.3381H45.3376H45.3371H45.3366H45.3361H45.3356H45.3351H45.3346H45.3341H45.3336H45.3331H45.3327H45.3322H45.3317H45.3312H45.3307H45.3302H45.3297H45.3292H45.3287H45.3282H45.3277H45.3273H45.3268H45.3263H45.3258H45.3253H45.3248H45.3243H45.3238H45.3233H45.3228H45.3224H45.3219H45.3214H45.3209H45.3204H45.3199H45.3194H45.3189H45.3184H45.318H45.3175H45.317H45.3165H45.316H45.3155H45.315H45.3145H45.3141H45.3136H45.3131H45.3126H45.3121H45.3116H45.3111H45.3107H45.3102H45.3097H45.3092H45.3087H45.3082H45.3078H45.3073H45.3068H45.3063H45.3058H45.3053H45.3049H45.3044H45.3039H45.3034H45.3029H45.3024H45.302H45.3015H45.301H45.3005H45.3H45.2996H45.2991H45.2986H45.2981H45.2976H45.2972H45.2967H45.2962H45.2957H45.2952H45.2948H45.2943H45.2938H45.2933H45.2929H45.2924H45.2919H45.2914H45.291H45.2905H45.29H45.2895H45.2891H45.2886H45.2881H45.2876H45.2872H45.2867H45.2862H45.2857H45.2853H45.2848H45.2843H45.2838H45.2834H45.2829H45.2824H45.282H45.2815H45.281H45.2805H45.2801H45.2796H45.2791H45.2787H45.2782H45.2777H45.2773H45.2768H45.2763H45.2759H45.2754H45.2749H45.2745H45.274H45.2735H45.2731H45.2726H45.2721H45.2717H45.2712H45.2708H45.2703H45.2698H45.2694H45.2689H45.2684H45.268H45.2677C45.075 18.2963 44.8106 18.2746 44.5454 18.3063C44.2667 18.3396 43.9425 18.4367 43.6778 18.6961C43.2249 19.1088 42.9122 19.6174 42.6497 20.0674L42.6496 20.0673L42.6435 20.0784C42.6429 20.0795 42.6423 20.0807 42.6416 20.0818C42.5989 19.6598 42.5245 19.2112 42.3693 18.7818C41.8087 17.1066 40.4923 15.9552 39.1821 14.9067L39.1731 14.8995L39.1639 14.8927C39.0543 14.813 38.9456 14.7389 38.8439 14.6695L38.8412 14.6677C38.7368 14.5965 38.6396 14.5302 38.5433 14.4601L38.5372 14.4556L38.5309 14.4514L38.5296 14.4505C37.2807 13.5987 36.0566 12.7638 35.0704 11.7885C34.098 10.827 33.3848 9.75485 33.1232 8.43919C33.0427 7.3571 33.313 6.83204 33.7527 6.56326L33.8035 6.53223L33.8455 6.49016C33.921 6.4147 34.0552 6.34703 34.2314 6.32468C37.331 7.1464 40.9144 9.39714 44.0631 12.5469L44.0692 12.553L44.0755 12.5589C44.8627 13.2939 45.448 14.1905 46.0504 15.1132L46.0651 15.1358C46.3614 15.5989 46.6833 16.0918 47.0266 16.5519C49.7935 21.2974 50.7575 27.7684 49.4617 32.643L49.4596 32.651L49.4577 32.659Z" fill="#AB8744" stroke="#AB8744"></path>
<path id="Vector_17" fill-rule="evenodd" clip-rule="evenodd" d="M27.4902 1.15186C12.6919 1.15186 0.695312 13.1525 0.695312 27.9559C0.695312 42.7592 12.6919 54.7599 27.4902 54.7599C42.2885 54.7599 54.2851 42.7592 54.2851 27.9559C54.2851 13.1525 42.2885 1.15186 27.4902 1.15186Z" stroke="#AB8744" stroke-width="0.75" stroke-miterlimit="10"></path>
</g>
<defs>
<clipPath id="clip0_2068_4781">
<rect width="55" height="55" fill="white" transform="translate(0 0.456055)"></rect>
</clipPath>
</defs>
</svg>
