<svg xmlns="http://www.w3.org/2000/svg" fill="none" viewBox="0 0 24 24" height="24" width="24">
<g clip-path="url(#clip0_811_4959)">
<path fill="#787878" d="M19.98 16.9853C19.7429 16.7296 19.4976 16.4658 19.3659 16.1391C19.1303 15.4706 19.2844 14.4807 18.9575 13.797C18.6673 13.1016 17.926 12.7812 17.5991 12.1737C17.3029 11.5356 17.3874 10.5261 17.0067 9.89791C16.6312 9.21681 15.8817 9.04001 15.4538 8.52851C15.2781 8.29162 15.1509 7.96407 15.0267 7.64729C14.6954 6.66915 14.2765 6.22853 13.3886 6.24829C13.1388 6.23393 12.9031 6.22047 12.7461 6.12176C12.5867 6.02125 12.4439 5.79961 12.2928 5.56448C11.826 4.72723 11.2882 4.53786 10.4938 4.76221C10.2567 4.81247 10.0315 4.86003 9.86774 4.81875C9.35985 4.65991 8.93871 3.97341 8.34031 4.01021C7.71572 4.02009 7.2527 4.72185 6.73882 4.9794C6.19578 5.17951 5.52557 4.99106 5.02888 5.52053C4.61898 5.94948 4.56735 6.68533 4.35717 7.26144C4.06471 6.92673 3.8261 6.5247 3.66302 6.07781C3.59645 5.89564 3.41993 5.81309 3.26882 5.89294C2.70033 6.20972 3.74531 7.5549 4.01159 7.85192C3.15512 8.73764 2.75046 9.268 3.22469 10.6213C3.40645 11.1337 3.41318 11.4684 3.30697 12.0158C3.09528 13.0667 3.24264 13.7613 4.06695 14.2862C4.515 14.5805 4.68406 14.848 4.78728 15.46C4.94885 16.4157 5.32136 16.9299 6.14865 17.0843C6.68122 17.1901 6.90339 17.3983 7.12481 17.9915C7.86608 20.0716 9.21166 18.4958 10.3382 19.7387C11.9322 21.4051 12.6973 19.3501 14.1396 20.4566C14.4605 20.6603 14.7919 20.8703 15.1711 20.8963C15.8189 20.9708 16.5198 20.3777 17.1138 20.3597C17.7384 20.3795 18.3136 20.9915 18.9457 20.9915C20.1859 20.9753 20.8089 20.4082 20.8344 20.3839C21.165 20.1623 20.9443 17.7375 19.9802 16.9846L19.98 16.9853ZM20.3727 19.8866C20.2127 19.9925 19.8529 20.1836 19.2956 20.2491C18.5035 20.0822 17.8213 19.1831 16.964 19.3105C15.8084 19.5205 14.9886 18.1331 13.874 18.1556C12.9637 18.2148 12.2299 17.3721 11.4953 16.8849C10.9732 16.5968 10.3613 16.5672 9.88185 16.1993C9.46372 15.8888 9.21687 15.3306 8.84362 15.0013C8.4584 14.6863 7.89291 14.5589 7.51516 14.1891C7.11498 13.8167 6.99155 13.2989 6.67366 12.9104C6.33407 12.5326 5.74612 12.2517 5.45889 11.8111C5.24272 11.4844 5.21729 11.1587 5.19634 10.8966C5.18661 10.5485 5.08563 10.3824 4.90313 10.0899C4.56653 9.59724 4.29052 8.90265 4.82683 8.52755C5.04002 8.67113 5.37811 8.86137 5.50901 8.48717C5.59354 8.23949 5.43272 8.03669 5.24347 7.96759C5.26741 6.64754 6.16203 7.11867 6.90104 7.21019C7.28029 7.15904 7.53013 6.87368 8.01482 7.02084C8.46886 7.14917 8.92739 7.67144 9.35525 7.88323C9.78311 8.06719 10.2259 7.98373 10.6755 8.26462C11.1131 8.52128 11.4467 9.08393 11.8461 9.37199C12.2523 9.64121 12.7781 9.6762 13.188 10.0011C13.6675 10.3699 13.9465 11.0241 14.3826 11.4728C15.0625 12.0722 15.9998 12.5092 16.3402 13.5304C16.6521 14.4547 17.534 14.8191 18.0681 15.5154C18.2872 15.8143 18.4054 16.1328 18.5086 16.4137C18.7705 17.4027 19.7414 17.7688 20.1969 18.5648C20.3794 19.1983 20.3854 19.6694 20.3727 19.8857L20.3727 19.8866Z"></path>
<path fill="#787878" d="M19.0938 18.2988C18.8395 18.0655 18.5515 17.8016 18.3376 17.4965C17.9957 17.0191 17.9494 16.452 17.6187 15.9907C17.2754 15.5393 16.6306 15.1633 16.2708 14.6886C15.8946 14.222 15.7846 13.6297 15.4271 13.1891C15.0419 12.7395 14.4061 12.4469 13.9917 12.0162C13.3835 11.3773 13.0926 10.4817 12.2518 10.3193C12.0162 10.2367 11.7723 10.1506 11.5457 9.9935C11.1328 9.7189 10.7977 9.15804 10.4057 8.90676C10.01 8.67793 9.55302 8.76139 9.13264 8.55139C8.90749 8.44371 8.69057 8.27411 8.48039 8.11077C8.26496 7.94296 8.04205 7.76887 7.873 7.71952C7.5364 7.63337 7.27908 7.93669 6.91332 7.92861C6.60364 7.94297 6.15933 7.74285 5.86162 7.76619C5.82122 8.04618 5.85713 8.34589 5.70828 8.62678C5.55793 8.90677 5.31632 8.99381 5.12109 9.15444C5.2303 9.49276 5.56541 9.88491 5.68434 10.2322C5.84292 10.6261 5.72099 11.0345 5.92744 11.3647C6.0359 11.5289 6.26105 11.6985 6.47872 11.8636C6.69041 12.0234 6.90957 12.1894 7.08535 12.3895C7.42121 12.7592 7.54912 13.2923 7.88796 13.6279C8.24327 13.9501 8.80652 14.0793 9.188 14.4149C9.58071 14.7353 9.8298 15.2943 10.2045 15.595C10.6444 15.9055 11.239 15.9396 11.7432 16.2312C12.2429 16.5013 12.7306 17.073 13.2332 17.3045C13.7172 17.5091 14.2101 17.3807 14.7217 17.5961C14.9992 17.7065 15.276 17.8994 15.5438 18.0861C15.8056 18.2691 16.0524 18.4406 16.2716 18.5195C16.7548 18.6855 17.2193 18.5016 17.7115 18.6721C18.2404 18.8327 18.8006 19.3361 19.2771 19.5084C19.6339 19.6161 19.8919 19.6484 20.067 19.6511C19.9151 19.2446 19.5314 18.6371 19.0953 18.2988L19.0938 18.2988Z"></path>
</g>
<defs>
<clipPath id="clip0_811_4959">
<rect transform="translate(3 4)" fill="white" height="17" width="18"></rect>
</clipPath>
</defs>
</svg>
