<svg viewBox="0 0 56 56" xmlns="http://www.w3.org/2000/svg" data-name="Layer 1" id="Layer_1">
  <defs>
    <style>
      .cls-1 {
        fill: #ab8744;
        stroke-width: 0px;
      }
    </style>
  </defs>
  <path d="M17.76,12.34c-1.12.46-2.21.88-3.28,1.35-.75.33-1.47.72-2.2,1.1-.51.26-.97.17-1.2-.25-.24-.43-.08-.88.43-1.16,3.36-1.85,6.92-3.1,10.67-3.83,4.09-.8,8.18-.87,12.27.02.09.02.17.04.26.06.47.14.7.51.62.95-.08.43-.46.69-.94.61-.73-.12-1.46-.28-2.2-.39-3.41-.5-6.79-.29-10.15.41-.89.18-1.76.42-2.75.66.33.61.59,1.18.92,1.7,2.38,3.63,5.79,5.01,9.98,4.62,1.84-.17,3.51-.83,5.06-1.86,2.32-1.53,4.78-2.81,7.41-3.73.07-.02.13-.06.22-.1-.02-.06-.03-.12-.07-.17-2.18-2.74-4.63-5.18-7.66-6.96-3.46-2.04-7.07-2.34-10.8-.88-1.28.5-2.38,1.3-3.28,2.35-.39.45-.84.52-1.21.22-.39-.33-.4-.8,0-1.27,1.72-1.99,3.93-3.07,6.45-3.55,4.19-.8,7.91.36,11.31,2.83,2.76,2,5.09,4.43,7.11,7.18.58.79.38,1.29-.58,1.57-3,.87-5.71,2.37-8.34,4.03-3.51,2.22-7.27,2.62-11.16,1.29-3.12-1.06-5.24-3.28-6.64-6.25-.07-.15-.14-.3-.26-.55h0Z" class="cls-1"></path>
  <path d="M16.04,47.97c1.28,1.66,2.58,3.13,4.02,4.46.12.11.25.22.33.36.19.32.16.64-.08.92-.24.28-.55.37-.89.22-.15-.06-.28-.17-.4-.28-5.21-4.97-8.94-10.83-10.59-17.95-.22-.95-.36-1.92-.47-2.89-.03-.26.14-.63.34-.8.17-.14.57-.16.77-.05.22.13.41.45.44.71.62,5.09,2.59,9.64,5.45,13.83.04.06.09.11.17.2.13-.12.25-.23.36-.34,3.28-3.38,3.97-7.91,1.85-12.24-.76-1.55-1.79-2.87-3.14-3.93-2.25-1.77-4.33-3.73-6.09-6-.05-.07-.08-.16-.12-.25-.05.02-.09.04-.14.05-.43.75-.87,1.5-1.28,2.26-1.29,2.46-2.33,5.01-2.79,7.77-.69,4.11.38,7.69,3.19,10.73.8.87,1.78,1.5,2.87,1.94.57.24.79.65.6,1.11-.19.46-.63.6-1.2.37-2.73-1.13-4.56-3.19-5.84-5.81-1.73-3.53-1.74-7.16-.67-10.86.94-3.27,2.41-6.27,4.28-9.1.08-.12.17-.25.26-.37.39-.48.98-.48,1.32.03,1.84,2.75,4.24,4.95,6.8,6.99,4.15,3.31,5.87,9.39,3.99,14.24-.63,1.62-1.58,3.03-2.81,4.24-.15.15-.32.26-.51.42h0Z" class="cls-1"></path>
  <path d="M48.02,28.59c-1.44-.06-2.82.11-4.14.62-3.39,1.31-5.37,3.9-6.39,7.33-.49,1.65-.48,3.32-.27,5.01.32,2.58.37,5.16.09,7.75-.02.16-.02.32-.04.54.25-.05.47-.09.68-.14,3.35-.85,6.56-2.05,9.39-4.11,3.09-2.24,4.76-5.31,5.1-9.12.12-1.35-.1-2.67-.6-3.94-.03-.08-.07-.17-.1-.25-.18-.49-.03-.92.39-1.1.42-.19.89-.03,1.05.46.31.97.7,1.95.78,2.95.38,4.92-1.44,8.92-5.25,11.96-3.12,2.49-6.78,3.82-10.59,4.77-.52.13-1.04.23-1.57.33-.75.14-1.18-.31-1.04-1.06.42-2.25.47-4.52.31-6.79-.08-1.23-.24-2.46-.31-3.69-.29-4.91,2.79-11.75,9.93-12.95.8-.13,1.63-.15,2.44-.16.35,0,.48-.11.49-.45.06-1.82.13-3.64.2-5.46,0-.1-.01-.21,0-.32,0-.49.3-.82.75-.84.44-.02.8.28.83.76.04.59.05,1.17.05,1.76-.05,5.68-1.17,11.12-3.68,16.22-.83,1.69-1.83,3.28-2.99,4.76-.15.19-.36.38-.58.45-.34.12-.65-.02-.85-.34-.22-.35-.13-.67.09-1,.76-1.11,1.56-2.2,2.24-3.37,1.83-3.16,2.93-6.6,3.59-10.2.02-.11.01-.23.02-.38h0Z" class="cls-1"></path>
</svg>