<svg viewBox="0 0 56 56" xmlns="http://www.w3.org/2000/svg" data-name="Layer 1" id="Layer_1">
  <defs>
    <style>
      .cls-1 {
        fill: none;
        stroke: #ab8744;
        stroke-linecap: round;
        stroke-miterlimit: 10;
        stroke-width: 1.2px;
      }

      .cls-2 {
        fill: #ab8744;
        stroke-width: 0px;
      }
    </style>
  </defs>
  <path d="M43.59,39.07c9.54.15,7.92-13.12,7.62-15.75-.15-1.51,1.01-2.32,1.97-2.78.71-.3,1.01-1.11.71-1.82-.35-.71-1.26-1.01-1.97-.56-1.31.86-3.13,2.02-3.58,4.49-.71,3.99-.3,6.71-2.07,8.23" class="cls-1"></path>
  <path d="M16.94,22.31s-10.25-5.91-13.83,1.72c-3.89,8.33,3.03,13.17,11.56,15.04" class="cls-1"></path>
  <path d="M37.63,43.76v2.22c0,.4-.25.76-.61.91-1.87.76-7.67,2.57-14.43,0-.35-.15-.61-.5-.61-.91v-1.56" class="cls-1"></path>
  <path d="M38.89,16.41s-2.88,16.3-3.23,23.67c0,0-5.35,2.27-11.41,0-.35-7.37-3.23-23.67-3.23-23.67" class="cls-1"></path>
  <path d="M19.66,14.54c-.1,1.77,2.67,1.26,3.68,1.11,2.17-.35,4.29-1.16,6.51-1.16,2.37,0,4.64.76,6.96,1.16,1.01.15,3.53.61,3.43-1.11-.1-1.77-3.43-2.27-4.69-2.52-3.23-.66-6.51-.76-9.74-.25-1.46.2-6.01.66-6.16,2.78Z" class="cls-1"></path>
  <path d="M29.76,11.41c-1,0-1.82-.81-1.82-1.82s.81-1.82,1.82-1.82,1.82.81,1.82,1.82-.81,1.82-1.82,1.82Z" class="cls-1"></path>
  <path d="M29.61,45.48c-9.2,0-16.66-6.28-16.66-14.03s7.46-14.03,16.66-14.03,16.66,6.28,16.66,14.03-7.46,14.03-16.66,14.03Z" class="cls-1"></path>
  <path d="M32.69,29.28c-.56,0-1.01-.45-1.01-1.01s.45-1.01,1.01-1.01,1.01.45,1.01,1.01-.45,1.01-1.01,1.01Z" class="cls-2"></path>
  <path d="M33.64,32.96c-.56,0-1.01-.45-1.01-1.01s.45-1.01,1.01-1.01,1.01.45,1.01,1.01-.45,1.01-1.01,1.01Z" class="cls-2"></path>
  <path d="M26.98,34.48c-.56,0-1.01-.45-1.01-1.01s.45-1.01,1.01-1.01,1.01.45,1.01,1.01-.45,1.01-1.01,1.01Z" class="cls-2"></path>
  <path d="M27.39,38.36c-.56,0-1.01-.45-1.01-1.01s.45-1.01,1.01-1.01,1.01.45,1.01,1.01-.45,1.01-1.01,1.01Z" class="cls-2"></path>
  <path d="M29.96,31.9c-.56,0-1.01-.45-1.01-1.01s.45-1.01,1.01-1.01,1.01.45,1.01,1.01-.45,1.01-1.01,1.01Z" class="cls-2"></path>
  <path d="M32.69,38.36c-.56,0-1.01-.45-1.01-1.01s.45-1.01,1.01-1.01,1.01.45,1.01,1.01-.45,1.01-1.01,1.01Z" class="cls-2"></path>
  <path d="M26.43,30.59c-.56,0-1.01-.45-1.01-1.01s.45-1.01,1.01-1.01,1.01.45,1.01,1.01-.45,1.01-1.01,1.01Z" class="cls-2"></path>
  <path d="M30.62,35.38c-.56,0-1.01-.45-1.01-1.01s.45-1.01,1.01-1.01,1.01.45,1.01,1.01-.45,1.01-1.01,1.01Z" class="cls-2"></path>
</svg>