<svg xmlns="http://www.w3.org/2000/svg" fill="none" viewBox="0 0 18 18" height="18" width="18">
<g clip-path="url(#clip0_723_5011)">
<path fill="#AB8744" d="M8.46459 4.00095L4.16361 6.15497L0.83605 4.12752C0.599142 3.98324 0.268058 4.02965 0.0985718 4.2313C-0.0709325 4.43379 -0.0164122 4.71475 0.220496 4.85901L3.71376 6.98688V11.0274L0.234453 13.1334C-0.00245526 13.2768 -0.0589449 13.5586 0.110547 13.7611C0.280051 13.9627 0.61015 14.0108 0.848025 13.8665L4.19639 11.8391L8.4786 13.9999L8.46373 17.5478C8.46274 17.7966 8.69767 17.9991 8.99008 18C9.2815 18.0008 9.5194 17.7992 9.52039 17.5511L9.53526 13.9856L13.7373 11.8729L17.159 13.8708C17.4008 14.0117 17.7299 13.9594 17.8945 13.7544C18.06 13.5494 17.9986 13.2692 17.7577 13.1284L14.2862 11.1026V6.98686L17.7795 4.85899C18.0164 4.71472 18.0709 4.43375 17.9014 4.23128C17.7319 4.02963 17.4008 3.98323 17.164 4.1275L13.8681 6.13556L9.52145 3.99927L9.53632 0.452246C9.53731 0.203359 9.30239 0.000866616 9.00997 2.64873e-06C8.71855 -0.000841016 8.48065 0.199964 8.47966 0.448855L8.46459 4.00095ZM10.8515 6.65527C10.3906 6.36418 9.81962 6.27307 9.22288 6.37431C8.44079 6.50677 7.6012 6.986 6.99951 7.75378C6.40576 8.50976 6.18171 9.36867 6.30068 10.0699C6.38989 10.5963 6.67041 11.0401 7.11449 11.3278C7.12043 11.3321 7.12638 11.3363 7.13332 11.3397C7.59326 11.6308 8.16422 11.7219 8.75997 11.6215C9.54305 11.4882 10.3817 11.0089 10.9843 10.2411C11.5771 9.48517 11.8021 8.62626 11.6832 7.92506C11.593 7.39858 11.3134 6.95563 10.8694 6.66708C10.8634 6.66287 10.8575 6.65949 10.8515 6.65527ZM10.4719 7.62387C10.5561 7.74873 10.6087 7.89554 10.6364 8.05332C10.7236 8.5663 10.5373 9.18896 10.1041 9.7416C9.74526 10.1997 9.28037 10.5271 8.80852 10.6764C8.71336 10.706 8.61721 10.7296 8.52304 10.7439C8.93145 10.3567 9.35868 9.80571 9.42607 9.1552C9.50042 8.43468 10.0843 7.90228 10.4719 7.62387ZM9.41122 7.25938C8.94831 7.68123 8.45269 8.30221 8.37238 9.07591C8.3129 9.64879 7.84504 10.1036 7.50502 10.3617C7.42473 10.2394 7.37319 10.096 7.34742 9.94157C7.26019 9.42859 7.44555 8.80592 7.87874 8.25329C8.23758 7.79515 8.70346 7.46863 9.1753 7.31845C9.25361 7.29399 9.33291 7.27372 9.41122 7.25938Z" clip-rule="evenodd" fill-rule="evenodd"></path>
</g>
<defs>
<clipPath id="clip0_723_5011">
<rect fill="white" height="18" width="18"></rect>
</clipPath>
</defs>
</svg>
