<svg viewBox="0 0 56 56" xmlns="http://www.w3.org/2000/svg" data-name="Layer 1" id="Layer_1">
  <defs>
    <style>
      .cls-1 {
        fill: #ab8744;
        stroke-width: 0px;
      }
    </style>
  </defs>
  <path d="M10.33,54c-1.08-.44-1.44-1.25-1.44-2.4.02-11.92.01-23.83.03-35.75,0-.38.12-.8.31-1.14,1.26-2.22,2.56-4.42,3.82-6.63.13-.24.21-.53.21-.81.02-1.3,0-2.61.01-3.91,0-.83.54-1.37,1.36-1.37,8.92,0,17.84,0,26.76,0,.8,0,1.33.54,1.34,1.33,0,1.29-.01,2.57.02,3.86,0,.32.09.67.25.95,1.27,2.23,2.58,4.45,3.85,6.68.15.26.24.6.24.9.01,8.99.01,17.98.01,26.96,0,.12,0,.24,0,.36-.06.43-.32.68-.74.69-.43,0-.69-.25-.76-.67-.03-.18-.01-.37-.01-.56v-26.23h-7.16v36.19c.11,0,.23.02.34.02,2.05,0,4.1,0,6.15,0,.59,0,.67-.08.67-.68,0-1.62,0-3.25,0-4.87,0-.14,0-.27,0-.41.04-.47.35-.76.79-.75.41.01.72.31.72.75.01,1.91.03,3.83,0,5.74-.02.91-.65,1.39-1.41,1.74H10.33ZM40.63,8.72c-.14-.01-.19-.02-.24-.02-8.52,0-17.03,0-25.54,0-.31,0-.44.13-.58.37-1,1.75-2.01,3.48-3.02,5.22-.07.11-.12.23-.22.41h3.3c.77,0,1.14.26,1.13.78,0,.52-.36.75-1.15.75h-3.83v15.61c.67.1,1.31.18,1.94.3,1.66.31,3.08,1.18,4.53,1.97,2.17,1.19,4.48,1.39,6.89,1.05,1.54-.22,2.89-.93,4.2-1.7,2.38-1.41,4.95-1.81,7.67-1.51.37.04.73.09,1.11.14v-15.86h-18.07c-.88,0-1.25-.22-1.26-.75,0-.53.38-.78,1.24-.78,5.98,0,11.95,0,17.93,0,.38,0,.61-.1.8-.45.75-1.34,1.53-2.67,2.3-4,.29-.49.57-.99.89-1.54h0ZM10.43,33.45v18.26c0,.72.05.77.79.77h25.61v-18.77c-1.7-.37-3.39-.41-5.09-.08-1.53.3-2.82,1.11-4.15,1.83-2.85,1.55-5.88,1.78-8.94.95-1.36-.37-2.63-1.12-3.91-1.76-1.35-.68-2.72-1.18-4.31-1.2h0ZM14.82,7.14h26.35v-3.6H14.82v3.6ZM38.97,14.67h6.02c-1.01-1.75-2-3.45-3.01-5.2-1.01,1.75-1.99,3.44-3.01,5.2Z" class="cls-1"></path>
  <path d="M18.36,25.96l1.59-3.43h.95l.65,5.33h-1.14l-.37-3.19-1.24,2.58h-.87l-1.25-2.58-.38,3.19h-1.14l.66-5.33h.94l1.61,3.43ZM22.51,22.53h1.13v5.33h-1.13v-5.33ZM24.89,27.86v-5.33h1.14v4.33h1.99v1h-3.13ZM30.55,25.17l2.5,2.69h-1.47l-1.6-1.81v1.81h-1.14v-5.33h1.14v1.75l1.26-1.75h1.33l-2.02,2.64Z" class="cls-1"></path>
</svg>