<svg xmlns="http://www.w3.org/2000/svg" fill="none" viewBox="0 0 29 29" height="29" width="29">
<path fill="#AB8744" d="M24.4108 7.39209C24.2767 7.20276 24.3214 6.94112 24.5095 6.80698C24.6988 6.67287 24.9604 6.71758 25.0946 6.9056C26.9472 9.49844 27.719 12.5672 27.4718 15.5494C27.2483 18.233 26.1964 20.8454 24.3609 22.9781H25.706C25.9387 22.9781 26.1267 23.1661 26.1267 23.3989C26.1267 23.6316 25.9374 23.8196 25.706 23.8196H23.3971C23.1644 23.8196 22.9764 23.6316 22.9764 23.3989V21.09C22.9764 20.8573 23.1644 20.6693 23.3971 20.6693C23.6298 20.6693 23.8178 20.8573 23.8178 21.09V22.3181C25.4759 20.3432 26.4278 17.9423 26.6329 15.4797C26.8656 12.6883 26.1438 9.8166 24.4108 7.39209ZM12.0486 14.6081C11.8843 14.4437 11.8843 14.1768 12.0486 14.0138C12.213 13.8494 12.4799 13.8494 12.6429 14.0138L13.8723 15.2431L16.3034 12.812C16.4678 12.6476 16.7347 12.6476 16.8977 12.812C17.0621 12.9763 17.0621 13.2432 16.8977 13.4063L14.1694 16.1346C14.0051 16.2989 13.7382 16.2989 13.5738 16.1346L12.0486 14.6081ZM21.5865 9.15283L19.7904 7.36072C19.5774 7.41989 18.4072 8.11281 18.1376 8.26926C17.83 8.44677 17.9588 8.39286 17.2843 8.09176C17.0713 7.99578 16.4823 7.84194 16.3547 7.7144C16.1851 7.50798 15.9498 6.04458 15.7552 5.69482H13.1939C13.0874 5.88547 12.7771 7.15956 12.6719 7.54217C12.5733 7.8998 12.4536 7.73676 11.6923 8.07864C10.9034 8.43233 11.1874 8.48888 10.434 8.05628C10.2052 7.9248 9.36111 7.41991 9.1573 7.35943L7.36519 9.15548L8.04626 10.4046C8.63399 11.4314 8.33158 10.7254 7.8201 12.3979C7.77014 12.5596 7.7754 12.5951 7.61762 12.6503C7.50586 12.6897 7.33362 12.7239 7.21922 12.7581C6.88657 12.8528 5.93332 13.0684 5.69928 13.1933L5.69402 15.7546C5.92018 15.873 7.14035 16.1649 7.54794 16.2753C7.90163 16.3726 7.74779 16.4975 8.08306 17.2562C8.44594 18.0753 8.49987 17.723 8.06465 18.5184C7.89767 18.8248 7.44272 19.5098 7.36254 19.7925L9.15728 21.5846C9.37291 21.5242 9.86205 21.2152 10.0842 21.0824C11.2347 20.3987 10.8232 20.4854 11.7804 20.9049C11.9921 20.9982 12.4496 21.0863 12.5943 21.2296C12.7665 21.44 12.9966 22.8955 13.1938 23.2492L15.7551 23.2545C15.9471 22.9047 16.189 21.4268 16.356 21.2283C16.4954 21.0903 16.9411 21.0009 17.1396 20.9167C18.1639 20.4815 17.663 20.3868 18.8621 21.085C19.0817 21.2139 19.5826 21.5242 19.793 21.5847L21.5838 19.7873C21.5115 19.5243 21.0578 18.8143 20.9027 18.5382C20.453 17.7414 20.503 18.0741 20.8659 17.2536C21.1223 16.6751 21.0868 16.3779 21.334 16.2925C21.6995 16.1649 22.9394 15.9164 23.2484 15.7521L23.2549 13.1908C23.0393 13.079 21.8086 12.7792 21.3971 12.6674C21.0486 12.5728 21.2012 12.4492 20.8659 11.6892C20.507 10.8793 20.4609 11.2093 20.8843 10.4283C21.1262 9.97864 21.3564 9.61172 21.5865 9.15283ZM14.4731 9.93253C11.9644 9.93253 9.93177 11.9653 9.93177 14.4739C9.93177 16.9825 11.9645 19.0153 14.4731 19.0153C16.9818 19.0153 19.0145 16.9825 19.0145 14.4739C19.0145 11.9653 16.9818 9.93253 14.4731 9.93253ZM6.56715 7.29761C6.56715 7.52902 6.37913 7.71836 6.1464 7.71836C5.91367 7.71836 5.72565 7.52902 5.72565 7.29761V5.96963C3.79678 7.94977 2.67524 10.4255 2.36231 12.9803C2.03623 15.6441 2.58583 18.3961 4.01507 20.7654C4.13472 20.964 4.07029 21.223 3.87175 21.3426C3.67321 21.4623 3.41418 21.3979 3.29455 21.2006C1.7667 18.667 1.17766 15.7255 1.52742 12.8789C1.86138 10.1586 3.04998 7.52367 5.09602 5.40951H3.83641C3.60368 5.40951 3.41566 5.22149 3.41566 4.98876C3.41566 4.75603 3.60368 4.56801 3.83641 4.56801H6.14526C6.37799 4.56801 6.56601 4.75603 6.56601 4.98876L6.56715 7.29761ZM7.20483 22.2762C7.43756 22.2762 7.62558 22.4642 7.62558 22.6969C7.62558 22.9297 7.43756 23.1177 7.20483 23.1177H5.86107C7.98059 25.2293 10.6838 26.4021 13.4503 26.6321C16.2693 26.8675 19.1526 26.1272 21.5536 24.4126C21.7429 24.2785 22.0045 24.3232 22.1387 24.5113C22.2728 24.7006 22.2281 24.9622 22.0401 25.0964C19.4735 26.9305 16.3916 27.7208 13.3804 27.471C10.4444 27.2264 7.57412 25.9905 5.31522 23.763V25.0068C5.31522 25.2396 5.1272 25.4276 4.89447 25.4276C4.66174 25.4276 4.47372 25.2396 4.47372 25.0068V22.698C4.47372 22.4652 4.66174 22.2772 4.89447 22.2772L7.20483 22.2762ZM22.9761 3.23993C22.9761 3.0072 23.1641 2.81918 23.3968 2.81918C23.6296 2.81918 23.8176 3.0072 23.8176 3.23993V5.59217L23.8163 5.60006L23.815 5.61058V5.61321L23.8136 5.61978V5.62373L23.8058 5.65528L23.8031 5.65923L23.7979 5.67895L23.7966 5.68421L23.7952 5.68816L23.7939 5.69341L23.7926 5.69736L23.79 5.70262L23.7887 5.70656L23.786 5.71182L23.7834 5.71577L23.7795 5.72234L23.7781 5.72628L23.7755 5.73154L23.7729 5.73549L23.7663 5.74864V5.74995L23.7637 5.7539L23.7611 5.75916L23.7558 5.76704L23.7532 5.7723L23.7505 5.77625L23.7479 5.78151L23.7453 5.78545L23.7413 5.79071L23.7387 5.79466L23.7348 5.79992L23.7321 5.80255C23.7255 5.81043 23.719 5.81832 23.7137 5.82621L23.7085 5.83279L23.6927 5.84856L23.6848 5.85514L23.6769 5.86303L23.6703 5.86829C23.6598 5.87749 23.6493 5.88538 23.6388 5.89327L23.6361 5.8959L23.6309 5.89853C23.623 5.90379 23.6138 5.90905 23.6046 5.91431L23.5993 5.91694L23.5954 5.91957C23.577 5.93008 23.5586 5.93797 23.5402 5.94455L23.5349 5.94718L23.531 5.94849L23.5257 5.95112L23.5218 5.95244L23.4797 5.96295L23.477 5.96164L23.4718 5.96295L23.4613 5.96427H23.4573L23.4508 5.96558H21.0893C20.8579 5.96558 20.6686 5.77625 20.6686 5.54484C20.6686 5.31211 20.8579 5.12409 21.0893 5.12409H22.3187C20.4424 3.54498 18.2021 2.62065 15.9011 2.35241C13.2123 2.03817 10.4405 2.61538 8.06613 4.08273C7.86891 4.20369 7.61119 4.14321 7.48894 3.94598C7.36797 3.74876 7.42845 3.49104 7.62568 3.36879C10.1659 1.79886 13.127 1.1809 15.9972 1.51619C18.5085 1.8094 20.9489 2.83101 22.9789 4.57976L22.9761 3.23993Z" clip-rule="evenodd" fill-rule="evenodd"></path>
</svg>
