<svg xmlns="http://www.w3.org/2000/svg" fill="none" viewBox="0 0 24 24" height="24" width="24">
<path fill="#787878" d="M19.6727 13.9357C19.3655 13.7217 18.9522 13.7324 18.6568 13.9621L13.4532 18.0072L10.5433 17.0983C10.2034 16.9922 10.2809 16.4973 10.6374 16.4973H13.0911C13.5342 16.4973 13.8933 16.143 13.8933 15.7058C13.8933 15.2687 13.5342 14.9144 13.0911 14.9144H8.90596C8.32024 14.9144 7.76983 15.1906 7.42493 15.6577L4 20.2964L8.31936 22.9995L9.92369 20.686L14.2777 20.5704C15.0075 20.551 15.692 20.2172 16.1509 19.6569L19.8436 15.1476C20.1522 14.7708 20.0739 14.2151 19.6727 13.9357Z"></path>
<path fill="#787878" d="M5.65249 9.38598H18.7682C19.1137 9.37447 19.3894 9.09866 19.3894 8.7577V8.63895C19.3894 8.29034 19.106 8.01067 18.7526 8.00684H5.67578C5.32247 8.00684 5.03516 8.29034 5.03516 8.63895V8.7577C5.03516 9.09866 5.31081 9.37447 5.65249 9.38598Z"></path>
<path fill="#787878" d="M6.97779 12.5217H17.4502C17.6035 12.5217 17.7424 12.4327 17.8048 12.2945L18.7717 10.1543H5.65625L6.62316 12.2945C6.68556 12.4327 6.8245 12.5217 6.97779 12.5217Z"></path>
<path fill="#787878" d="M18.7514 7.24068C18.9184 6.9572 19.0116 6.62391 19.0116 6.27147C19.0116 5.21414 18.1768 4.35985 17.1401 4.35985C16.8994 4.35985 16.682 4.40582 16.4723 4.48626C16.2199 3.72391 15.5211 3.17609 14.6902 3.17609C14.4572 3.17609 14.232 3.2259 14.0223 3.30252C13.7739 2.54401 13.075 2 12.2518 2C11.4171 2 10.7182 2.54401 10.4658 3.30252C10.2639 3.2259 10.0348 3.17609 9.80187 3.17609C8.97486 3.17609 8.27598 3.72391 8.01973 4.48626C7.81783 4.40582 7.59263 4.35985 7.35579 4.35985C6.31912 4.35985 5.47656 5.21414 5.47656 6.27147C5.47656 6.62774 5.56977 6.9572 5.73672 7.24068H18.7514Z"></path>
</svg>
