<svg width="62" height="63" viewBox="0 0 62 63" fill="none" xmlns="http://www.w3.org/2000/svg">
<g id="Date of Picking">
<path id="Vector" d="M0 53.6028C0.496991 52.5531 1.32732 52.1306 2.47532 52.2389C2.94825 52.2834 3.42839 52.2462 3.97713 52.2462C3.97713 51.9524 3.97713 51.7189 3.97713 51.4853C3.97713 43.8171 3.97713 36.1489 3.97713 28.4806C3.97713 27.6705 4.2876 27.2709 4.90493 27.2877C5.39349 27.301 5.69072 27.5621 5.76774 28.0388C5.80504 28.2736 5.78699 28.518 5.78699 28.7587C5.78699 36.327 5.78699 43.8954 5.78699 51.4637V52.2473H6.6125C18.8448 52.2473 31.0782 52.2558 43.3104 52.2353C44.7183 52.2329 45.4644 52.6867 45.8399 54.0747C46.2117 55.4458 47.6208 56.3559 48.953 56.2162C50.4752 56.0562 51.5836 55.016 51.7725 53.5571C51.811 53.2609 51.8254 52.9588 51.8254 52.659C51.8279 42.1077 51.8278 31.5564 51.8278 21.0039V20.2563H5.81828C5.80865 20.4561 5.79061 20.6668 5.79061 20.8774C5.7882 22.0391 5.79301 23.1996 5.78699 24.3613C5.78339 25.0654 5.45125 25.4735 4.89771 25.4783C4.33934 25.4832 3.97954 25.0679 3.97954 24.3829C3.97713 19.3378 3.96389 14.2914 3.98676 9.24627C3.99879 6.66414 6.16725 4.50813 8.75089 4.47684C10.8965 4.45035 13.0421 4.46961 15.1877 4.46961C15.4055 4.46961 15.6233 4.46961 15.882 4.46961C15.9145 3.95679 15.9134 3.48009 15.9807 3.01422C16.2081 1.44085 17.45 0.436878 19.0505 0.503087C20.4825 0.562074 21.6702 1.78393 21.7569 3.29952C21.7773 3.65825 21.7605 4.01819 21.7605 4.42387H35.8712C35.8712 4.09403 35.8652 3.74373 35.8712 3.39341C35.9012 1.83931 37.1179 0.553647 38.6016 0.503087C40.267 0.446509 41.5378 1.56605 41.6641 3.22127C41.6943 3.61492 41.669 4.01337 41.669 4.47082H42.4572C47.0492 4.47082 51.6413 4.47082 56.2345 4.47082C59.1034 4.47082 60.7219 5.68666 61.5414 8.45662C61.5522 8.49154 61.5884 8.51922 61.6136 8.54926V57.9281C61.3104 58.6094 61.0793 59.3365 60.687 59.9613C59.9638 61.1133 58.7953 61.6623 57.5221 62.0126H17.3285C16.6474 61.4516 16.5307 60.8208 17.0902 60.4332C17.3273 60.2683 17.6871 60.2213 17.9903 60.2213C28.0541 60.2105 38.1179 60.2128 48.1816 60.2128C48.4018 60.2128 48.6233 60.2201 48.8435 60.2069C50.5884 60.1033 51.9698 58.613 51.7291 57.0288C50.4812 58.01 49.0397 58.0533 47.5558 58.052C33.9638 58.0364 20.3718 58.0424 6.77857 58.0424C6.52826 58.0424 6.27917 58.0424 5.96991 58.0424C6.02767 58.2266 6.04571 58.3229 6.08663 58.4071C6.67628 59.6025 7.66063 60.1912 8.97468 60.208C10.6185 60.2297 12.2623 60.2213 13.9061 60.208C14.3562 60.2045 14.7111 60.3477 14.8748 60.7642C15.0337 61.1687 14.9482 61.5515 14.5836 61.8392C14.5258 61.8849 14.4861 61.9548 14.4392 62.0126H8.06136C8.03007 61.9885 8.00119 61.9524 7.96509 61.944C5.95667 61.4756 4.6787 60.249 4.09265 58.276C4.04813 58.1255 3.81347 57.975 3.63898 57.9305C2.70758 57.6897 1.85199 57.2912 1.23466 56.5557C0.759324 55.9851 0.407941 55.311 0 54.6838V53.6028ZM5.79782 14.3889H51.829C51.829 12.7505 51.8446 11.1532 51.8254 9.55692C51.8013 7.5369 50.5174 6.28615 48.4824 6.28014C46.4174 6.27291 44.3525 6.27773 42.2876 6.28014C42.1118 6.28014 41.9374 6.29819 41.7328 6.30903V8.4506C42.1371 8.4506 42.4993 8.42049 42.8543 8.45784C43.3597 8.51198 43.7123 8.92968 43.6702 9.40404C43.6244 9.90836 43.3357 10.2022 42.823 10.2515C42.6437 10.2683 42.4596 10.2864 42.2827 10.2611C41.7917 10.1925 41.5186 10.3634 41.2587 10.8233C40.2454 12.6097 37.6919 12.8048 36.5306 11.1158C36.0457 10.4104 35.5763 10.2093 34.8074 10.2442C34.2382 10.2707 33.8893 9.86505 33.8941 9.35104C33.8989 8.85267 34.2707 8.48072 34.8254 8.44815C35.1576 8.42894 35.4921 8.44457 35.8182 8.44457V6.31264H21.805V8.44457C22.1637 8.44457 22.4825 8.42894 22.799 8.44815C23.3634 8.48308 23.7196 8.84062 23.7244 9.35104C23.7292 9.87954 23.4006 10.213 22.8183 10.2587C22.6389 10.2731 22.4561 10.284 22.278 10.2635C21.8351 10.213 21.5836 10.3562 21.3477 10.7836C20.2972 12.6952 17.5667 12.7831 16.4368 10.9208C16.1119 10.3851 15.7894 10.1877 15.2202 10.2647C15.1215 10.2779 15.0193 10.2696 14.9194 10.2635C14.3032 10.225 13.9506 9.88434 13.9627 9.34144C13.9735 8.81172 14.3477 8.46981 14.9567 8.44579C15.2671 8.43375 15.58 8.44335 15.8797 8.44335V6.30903C13.4151 6.30903 10.9903 6.22717 8.57521 6.33792C6.98073 6.41135 5.87965 7.63682 5.81467 9.22828C5.74487 10.9256 5.79902 12.6278 5.79902 14.3925L5.79782 14.3889ZM52.5534 60.2128C53.9217 60.2128 55.1431 60.2141 56.3658 60.2128C58.5318 60.2093 59.8086 58.9429 59.8086 56.7857C59.8098 44.815 59.8086 32.8444 59.8086 20.875V20.2515H57.6341C57.6341 20.5415 57.6341 20.798 57.6341 21.0532C57.6341 30.9015 57.6341 40.7498 57.6341 50.5993C57.6341 50.7991 57.6461 51.0014 57.6281 51.2C57.5799 51.7164 57.2141 52.0511 56.7195 52.0511C56.2165 52.0511 55.8711 51.7237 55.8314 51.194C55.8145 50.9749 55.823 50.7534 55.823 50.5343C55.823 40.7053 55.823 30.8774 55.823 21.0484V20.2623H53.6581V21.0833C53.6581 32.7337 53.6509 44.3829 53.6677 56.0333C53.6702 57.4971 53.5787 58.908 52.5547 60.2141L52.5534 60.2128ZM5.80504 18.3663H51.7797V16.2849H5.80504V18.3663ZM1.83153 54.0711C2.28158 55.4687 3.40312 56.2307 4.95546 56.2319C18.0842 56.2355 31.2118 56.2343 44.3405 56.2319C44.5041 56.2319 44.6678 56.2078 44.8218 56.1958C44.5607 55.6565 44.2502 55.193 44.1143 54.6838C43.977 54.1734 43.7412 54.0615 43.2466 54.0615C29.657 54.0747 16.0686 54.0723 2.47894 54.0723H1.83153V54.0711ZM53.6569 14.3937H59.8001C59.8001 12.6314 59.8495 10.91 59.7857 9.19214C59.7291 7.6946 58.6629 6.492 57.1671 6.3632C55.687 6.23559 54.1864 6.33551 52.6076 6.33551C53.5739 7.58747 53.7063 8.99594 53.6665 10.461C53.6305 11.7587 53.6594 13.0575 53.6594 14.3937H53.6569ZM39.8471 6.32106C39.8471 5.3833 39.8543 4.44434 39.8447 3.50657C39.8374 2.79874 39.3958 2.30879 38.7857 2.30397C38.1985 2.29916 37.7087 2.75901 37.7003 3.43194C37.6762 5.38812 37.6762 7.34429 37.6991 9.30049C37.7075 10.0023 38.2226 10.4741 38.8315 10.4381C39.4343 10.4019 39.8387 9.9445 39.8447 9.25596C39.8543 8.27844 39.8471 7.29976 39.8471 6.32227V6.32106ZM17.7809 6.36079C17.7809 7.34189 17.7701 8.32179 17.7846 9.30285C17.7942 9.97463 18.2491 10.4429 18.8471 10.4404C19.4199 10.4381 19.8989 10.0011 19.9061 9.35585C19.9314 7.37439 19.9314 5.39293 19.9085 3.41268C19.9013 2.73975 19.3995 2.28231 18.8111 2.30397C18.2165 2.32564 17.7918 2.79513 17.7834 3.47888C17.7713 4.43952 17.7798 5.40016 17.7809 6.36079ZM59.7869 16.2717H53.6991V18.3675H59.7869V16.2717Z" fill="#AB8744"></path>
<g id="Date">
<path id="Vector_2" d="M43.7848 42.4547H38.7578V35.1177H43.7848V36.2507H40.0448V38.1537H43.7078V39.2867H40.0448V41.3217H43.7848V42.4547Z" fill="#AB8744"></path>
<path id="Vector_3" d="M34.4465 42.4547H33.1595V36.2507H30.9375V35.1177H36.6685V36.2507H34.4465V42.4547Z" fill="#AB8744"></path>
<path id="Vector_4" d="M30.3309 42.4547H28.8679L28.3289 41.0467H24.9629L24.4239 42.4547H22.9609L25.8429 35.1177H27.4489L30.3309 42.4547ZM27.9659 39.9137L26.6459 36.4157L25.3259 39.9137H27.9659Z" fill="#AB8744"></path>
<path id="Vector_5" d="M18.0327 42.4547H15.3047V35.1177H18.0327C20.3207 35.1177 21.8717 36.6357 21.8717 38.7917C21.8717 40.9477 20.3207 42.4547 18.0327 42.4547ZM18.0327 41.3217C19.6277 41.3217 20.5517 40.1777 20.5517 38.7917C20.5517 37.3727 19.6717 36.2507 18.0327 36.2507H16.5917V41.3217H18.0327Z" fill="#AB8744"></path>
</g>
</g>
</svg>
