<svg viewBox="0 0 56 56" xmlns:xlink="http://www.w3.org/1999/xlink" xmlns="http://www.w3.org/2000/svg" data-sanitized-data-name="Layer 1" data-name="Layer 1" id="Layer_1">
  <defs>
    <style>
      .cls-1 {
        clip-path: url(#clippath);
      }

      .cls-2 {
        fill: none;
      }

      .cls-2, .cls-3 {
        stroke-width: 0px;
      }

      .cls-3 {
        fill: #ab8744;
      }
    </style>
    <clipPath id="clippath">
      <rect height="52" width="43.73" y="2" x="6.14" class="cls-2"></rect>
    </clipPath>
  </defs>
  <g class="cls-1">
    <g>
      <path d="M49.84,22.66c-.05-.42-.4-.74-.8-.74-.41,0-.74.31-.79.74-.02.2-.01.41-.01.61,0,7.38,0,14.76,0,22.14.01,0,.03,0,.04,0h1.57c-.01-7.41,0-14.83,0-22.24,0-.17.01-.34,0-.51h0Z" class="cls-3"></path>
      <path d="M48.28,46.43s-.05,0-.07,0c0,0,0,.01,0,.02H7.79V13.44c.09-.02.14-.04.19-.04,2.66,0,5.32,0,7.97,0,.16,0,.38.15.47.29.36.56.65,1.16,1.02,1.72.92,1.41,2.24,2.26,3.98,2.33,2.06.07,4.12.04,6.18.04,2.31,0,4.61.03,6.92-.04,1.78-.05,3.12-.93,4.05-2.38.32-.5.63-1.02.9-1.55.16-.32.37-.43.73-.42,2.48.02,4.96,0,7.45,0h.59v1.46c0,1.4,0,2.81,0,4.21,0,.54.31.82.79.83.47,0,.78-.31.81-.82,0-.07,0-.14,0-.2,0-4.69,0-9.38,0-14.07,0-.19,0-.37-.04-.56-.21-1.2-1.02-1.87-2.17-2.25H8.35c-1.12.36-1.93,1.01-2.15,2.19-.04.21-.05.44-.05.66,0,15.43,0,30.87,0,46.3,0,1.49.79,2.39,2.21,2.85h6.23c.34-.26.64-.54.45-1.02-.18-.47-.59-.51-1.04-.5-1.58.01-3.17,0-4.75,0-1.09,0-1.49-.39-1.49-1.45,0-.99,0-1.99,0-3h40.49v.94c0,.69,0,1.39,0,2.08,0,1.05-.41,1.44-1.51,1.44h-28.2c-.14,0-.28,0-.42,0-.4-.03-.71.11-.85.47-.15.37-.05.7.3.94.04.03.06.08.08.12h30c1.64-.52,2.23-1.64,2.22-3.26,0-1.44,0-2.88-.01-4.31h-1.57ZM34.21,16.22c-4.12.01-8.23,0-12.35,0-1.38,0-2.42-.6-3.12-1.74-.2-.33-.38-.67-.61-1.07h19.64c-.64,1.82-1.89,2.81-3.55,2.81ZM7.75,11.82v-3.03c0-1.29,0-2.57,0-3.86,0-1.02.41-1.41,1.47-1.41,12.51,0,25.03,0,37.54,0,1,0,1.46.38,1.46,1.27.01,2.27,0,4.54,0,6.8,0,.06-.02.13-.03.23H7.75Z" class="cls-3"></path>
      <path d="M42.59,10.44c-1.57-.01-2.79-1.22-2.78-2.75.01-1.47,1.28-2.66,2.84-2.65,1.56,0,2.79,1.23,2.77,2.75-.02,1.49-1.27,2.66-2.83,2.64h0ZM44.04,7.75c0-.73-.64-1.35-1.4-1.37-.76-.02-1.45.64-1.45,1.37s.65,1.35,1.4,1.36c.78.01,1.44-.62,1.44-1.36h0Z" class="cls-3"></path>
      <path d="M31.9,7.72c0-.41,0-.82,0-1.23.01-.42.28-.68.67-.69.4,0,.7.28.7.71.01.84.01,1.67,0,2.51,0,.4-.3.69-.67.7-.39.01-.69-.28-.7-.71-.01-.43,0-.85,0-1.28h0Z" class="cls-3"></path>
      <path d="M36.59,7.78c0,.41,0,.82,0,1.23-.01.4-.3.69-.67.69-.37,0-.69-.28-.69-.67-.01-.87-.01-1.73,0-2.6,0-.38.3-.64.67-.64.38,0,.68.27.7.67.01.44,0,.88,0,1.32h0Z" class="cls-3"></path>
    </g>
  </g>
</svg>