<svg viewBox="0 0 56 56" xmlns="http://www.w3.org/2000/svg" data-name="Layer 1" id="Layer_1">
  <defs>
    <style>
      .cls-1 {
        fill: #ab8744;
        stroke-width: 0px;
      }
    </style>
  </defs>
  <path d="M27.82,29.81c-.61,0-1.12-.52-1.12-1.14s.51-1.14,1.12-1.14,1.12.52,1.12,1.14-.51,1.14-1.12,1.14Z" class="cls-1"></path>
  <g>
    <path d="M27.82,28.67c-.3,0-.56-.26-.56-.57V10.77c0-1.01-.81-1.84-1.8-1.84s-1.8.83-1.8,1.84c0,.31-.25.55-.53.55s-.53-.26-.53-.55c0-1.64,1.3-2.96,2.87-2.96s2.9,1.33,2.9,2.96v17.33c0,.31-.25.57-.53.57Z" class="cls-1"></path>
    <path d="M25.2,15.6h-4.09c-.3,0-.53-.26-.53-.55v-4.29c0-.31.25-.55.53-.55h4.09c.31,0,.53.26.53.55v4.29c0,.31-.25.55-.53.55ZM21.67,14.48h3v-3.17h-3v3.17Z" class="cls-1"></path>
    <path d="M29.12,31.19l6.25,7.2-6.25,3.98v-11.17ZM27.85,27.76v16.91l9.46-6-9.46-10.91Z" class="cls-1"></path>
    <path d="M26.58,31.19v11.2l-6.33-3.85,6.33-7.35ZM27.85,27.76l-9.56,11.09,9.56,5.82v-16.91Z" class="cls-1"></path>
  </g>
  <g>
    <path d="M30.16,22.86c-.3,0-.56-.26-.56-.57V4.96c0-1.01-.81-1.84-1.8-1.84s-1.8.83-1.8,1.84c0,.31-.25.55-.53.55s-.53-.26-.53-.55c0-1.64,1.3-2.96,2.87-2.96s2.9,1.33,2.9,2.96v17.33c0,.31-.25.57-.53.57Z" class="cls-1"></path>
    <path d="M27.54,9.79h-4.09c-.3,0-.53-.26-.53-.55v-4.29c0-.31.25-.55.53-.55h4.09c.31,0,.53.26.53.55v4.29c0,.31-.25.55-.53.55ZM24.01,8.68h3v-3.17h-3v3.17Z" class="cls-1"></path>
    <path d="M31.46,25.38l6.25,7.2-6.25,3.98v-11.17ZM30.19,21.95v16.91l9.46-6-9.46-10.91Z" class="cls-1"></path>
    <path d="M28.92,25.38v11.2l-6.33-3.85,6.33-7.35ZM30.19,21.95l-9.56,11.09,9.56,5.82v-16.91Z" class="cls-1"></path>
  </g>
  <path d="M40.79,38.54c-.94,0-1.63-.18-1.68-.18-.28-.08-.48-.36-.41-.68.08-.29.36-.47.66-.42.03,0,1.12.26,2.31.08,1.47-.23,2.44-1.04,2.82-2.39l1.17-5.79c.18-.94.08-1.64-.31-2.1-.53-.68-1.53-.73-1.93-.73h-1.22c-.31,0-.53-.26-.53-.55s.25-.55.53-.55h1.22c.69,0,1.96.16,2.77,1.14.58.73.76,1.77.53,3.01l-1.17,5.82v.05c-.53,1.82-1.83,2.91-3.76,3.2-.36.05-.71.08-1.02.08Z" class="cls-1"></path>
  <path d="M40.79,35.87c-.43,0-.74-.08-.79-.08-.28-.08-.48-.36-.41-.68.08-.29.36-.49.66-.42,0,0,.43.1.89.03.69-.1.89-.52.97-.81l1.04-4.18-.08-.65s-.33-.21-.61-.21h-.53c-.31,0-.53-.26-.53-.55s.25-.55.53-.55h.53c.36,0,1.02.08,1.45.62.41.49.38,1.12.3,1.58l-1.07,4.23c-.25.91-.92,1.48-1.88,1.64h-.48Z" class="cls-1"></path>
  <path d="M34.23,45.89l-.36-.13-.05-.78c2.52-2.91,4.3-5.9,5.44-9.09,1.04-2.88,1.63-6.11,1.86-10.16.08-1.4.13-2.96.13-4.75,0-.31.25-.55.53-.55s.53.26.53.55c0,1.82-.05,3.4-.13,4.83-.23,4.13-.84,7.48-1.93,10.47-1.19,3.33-3.05,6.42-5.64,9.43l-.41.18h.03Z" class="cls-1"></path>
  <path d="M21.9,45.89l-.41-.18c-2.64-3.07-4.5-6.21-5.69-9.59-1.07-3.04-1.68-6.44-1.88-10.68-.08-1.35-.1-2.81-.1-4.47,0-.31.25-.55.53-.55s.56.26.56.55c0,1.64.03,3.09.1,4.42.2,4.13.79,7.43,1.83,10.37,1.14,3.25,2.95,6.26,5.49,9.22l-.05.78-.36.13h-.03Z" class="cls-1"></path>
  <path d="M28,24.33c-3.69,0-7.14-.29-9.76-.83-2.97-.62-4.42-1.43-4.42-2.52s1.45-1.9,4.42-2.52c2.62-.55,6.08-.83,9.76-.83s7.14.29,9.76.83c2.97.6,4.42,1.43,4.42,2.52s-1.45,1.9-4.42,2.52c-2.62.52-6.08.83-9.76.83ZM28,18.74c-3.61,0-6.99.29-9.56.81-3.36.68-3.56,1.43-3.56,1.43,0,0,.2.75,3.56,1.43,2.54.52,5.92.81,9.56.81s6.99-.29,9.56-.81c3.36-.68,3.56-1.43,3.56-1.43,0,0-.2-.73-3.56-1.43-2.54-.52-5.92-.81-9.56-.81Z" class="cls-1"></path>
  <path d="M28,54c-3.18,0-6.2-.26-9.02-.78-2.49-.44-4.75-1.09-6.71-1.9-1.75-.73-3.23-1.58-4.25-2.47-1.04-.91-1.6-1.84-1.6-2.7,0-.31.25-.55.53-.55s.53.26.53.55c0,.52.46,1.17,1.22,1.87.94.81,2.29,1.61,3.94,2.29,1.88.78,4.07,1.4,6.51,1.84,2.75.49,5.69.75,8.82.75,5.49,0,10.83-.94,15-2.6,1.73-.7,3.18-1.48,4.17-2.31.84-.68,1.32-1.35,1.32-1.84,0-.31.25-.55.53-.55s.53.26.53.55c0,1.69-2.31,3.64-6.18,5.17-4.3,1.71-9.76,2.68-15.4,2.68" class="cls-1"></path>
  <path d="M28,51.58c-5.64,0-10.98-.52-15-1.45-1.98-.47-3.53-1.01-4.65-1.61-1.3-.7-1.93-1.51-1.93-2.39,0-1.22,1.25-2.31,3.74-3.2,2.19-.78,5.26-1.4,8.9-1.79.31-.03.56.18.58.49.03.31-.18.57-.48.62-3.53.39-6.53.99-8.64,1.74-1.88.68-3,1.48-3,2.13,0,.42.48.94,1.37,1.4.99.55,2.52,1.07,4.37,1.51,3.94.91,9.18,1.4,14.74,1.4s10.83-.49,14.74-1.4c1.86-.44,3.38-.96,4.37-1.51.89-.49,1.37-.99,1.37-1.4,0-.68-1.09-1.48-2.95-2.16-2.08-.75-5.06-1.38-8.62-1.74-.31-.03-.51-.31-.48-.62.03-.31.31-.52.61-.49,3.76.39,12.53,1.69,12.53,4.99,0,.88-.66,1.69-1.93,2.39-1.09.6-2.67,1.14-4.65,1.61-4.02.94-9.33,1.45-15,1.45" class="cls-1"></path>
  <path d="M28,49.56c-3.71,0-7.22-.39-9.58-1.07-.28-.08-.46-.39-.38-.68.08-.29.38-.47.66-.39,2.29.65,5.67,1.04,9.3,1.04,3.23,0,6.25-.29,8.52-.83,2.57-.6,3.15-1.3,3.15-1.48,0-.23-.76-1.07-4.14-1.69-.31-.05-.48-.34-.43-.65.05-.31.33-.49.64-.44,3.33.62,5.03,1.56,5.03,2.78,0,.6-.41,1.14-1.25,1.61-.66.36-1.58.7-2.75.96-2.34.55-5.47.86-8.77.86" class="cls-1"></path>
  <path d="M28.08,47.69c-1.58,0-3.08-.23-4.3-.65-1.02-.34-1.86-.83-2.29-1.33l.05-.78.76.05c.53.62,2.57,1.61,5.77,1.61.31,0,.53.26.53.55s-.25.55-.53.55Z" class="cls-1"></path>
  <path d="M28.08,47.69c-.3,0-.53-.23-.53-.55s.25-.55.53-.55c1.86,0,3.18-.31,3.97-.6.99-.34,1.58-.73,1.8-1.01l.76-.05.05.78c-.43.49-1.25.99-2.29,1.33-1.25.42-2.72.65-4.3.65Z" class="cls-1"></path>
</svg>