<svg viewBox="0 0 56 56" xmlns="http://www.w3.org/2000/svg" data-name="Layer 1" id="Layer_1">
  <defs>
    <style>
      .cls-1, .cls-2 {
        fill: #ac8742;
      }

      .cls-1, .cls-2, .cls-3 {
        stroke-width: 0px;
      }

      .cls-2, .cls-3 {
        fill-rule: evenodd;
      }

      .cls-3 {
        fill: #ab8744;
      }
    </style>
  </defs>
  <g>
    <path d="M25.23,12.04c-.1-.23,0-.51.22-.62L44.11,2.17c.39-.19.82-.22,1.23-.08.41.13.73.43.92.8.41.81.07,1.78-.74,2.19h-.03l-10.52,4.29c.34,1.68-.84,3.36-3.08,4.25-.88.35-1.87.56-2.8.56-1.66,0-3.19-.63-3.84-2.12M45.4,3.33l-.38-.32-.49.03-18.2,9.03c.95,1.35,3.29,1.43,5.19.67,1.48-.59,3-1.86,2.41-3.48-.09-.24.03-.51.26-.61l10.9-4.42c.32-.17.46-.57.29-.9Z" class="cls-1"></path>
    <path d="M27.94,7.11c0,.39.31.7.69.7s.7-.31.7-.7-.31-.69-.7-.69-.69.31-.69.69" class="cls-1"></path>
    <path d="M24.98,9.26c0,.39.31.7.7.7s.7-.31.7-.7-.31-.69-.7-.69-.7.31-.7.69" class="cls-1"></path>
    <path d="M24.29,5.23c0,.39.31.7.69.7s.7-.31.7-.7-.31-.7-.7-.7-.69.31-.69.7" class="cls-1"></path>
    <path d="M21.14,11.41c0,.39.31.7.7.7s.69-.31.69-.7-.31-.69-.69-.69-.7.31-.7.69" class="cls-1"></path>
    <path d="M18.63,13.45c0,.39.31.69.7.69s.69-.31.69-.69-.31-.7-.69-.7-.7.31-.7.7" class="cls-1"></path>
    <path d="M19.32,9.05c0,.39.31.7.69.7s.7-.31.7-.7-.31-.7-.7-.7-.69.31-.69.7" class="cls-1"></path>
    <path d="M22.89,14.39c0,.39.31.7.7.7s.7-.31.7-.7-.31-.69-.7-.69-.7.31-.7.69" class="cls-1"></path>
    <path d="M22.2,8.35c0,.39.31.7.69.7s.7-.31.7-.7-.31-.69-.7-.69-.69.31-.69.69" class="cls-1"></path>
  </g>
  <path d="M27.92,15.69c-.18-.18-.48-.3-.72-.3H10.53c-.29,0-.54.12-.72.3-.18.18-.24.37-.24.6l1.5,36.02c.06.96.96,1.68,2.16,1.68h11.24c1.21,0,2.17-.72,2.17-1.68l1.5-36.02c0-.24-.06-.43-.24-.6h.02ZM26.52,26.45l-1.02,25.85c0,.23-.35.56-.94.56h-11.32c-.62,0-.96-.32-.96-.56l-1.08-25-.41-10.7h16.24l-.5,9.86h-.01Z" class="cls-2"></path>
  <path d="M12.08,48.35s7.62-1.7,13.58,0l-.16,3.96s.07.46-.94.56h-11.32s-.87.02-.96-.56l-.19-3.96Z" class="cls-3"></path>
</svg>