<svg xmlns="http://www.w3.org/2000/svg" fill="none" viewBox="0 0 52 49" height="49" width="52">
<rect fill="#FFF1DB" rx="12.8" height="48.2" width="51.2"></rect>
<g clip-path="url(#clip0_531_9725)">
<path fill="#AB8744" d="M13.884 9.44534H26.2304V14.1464C26.2304 14.3658 26.4057 14.5429 26.6227 14.5429H31.2731V15.5166C30.4038 15.5444 29.6036 15.9517 29.0647 16.6085C28.2443 16.3036 27.3118 16.3699 26.5307 16.8242C25.8988 17.193 25.4373 17.7714 25.2047 18.4379L13.8123 18.4391C13.5953 18.4391 13.42 18.6162 13.42 18.8356C13.42 19.0549 13.5953 19.2321 13.8123 19.2321H24.202C23.7071 19.4924 23.2838 19.8925 22.9916 20.4023C22.7174 20.8831 22.5862 21.4206 22.5934 21.9557H13.8122C13.5951 21.9557 13.4198 22.1328 13.4198 22.3522C13.4198 22.5715 13.5951 22.7487 13.8122 22.7487H22.71C22.7303 22.8198 22.7529 22.8921 22.7791 22.962C22.1054 23.526 21.6964 24.3732 21.6964 25.2891C21.6964 25.3505 21.6988 25.412 21.7024 25.4722L13.8119 25.4735C13.5949 25.4735 13.4196 25.6506 13.4196 25.8699C13.4196 26.0893 13.5949 26.2664 13.8119 26.2664H21.8571C22.0348 26.7931 22.3544 27.2607 22.7789 27.6162C22.6191 28.0561 22.5619 28.5272 22.6107 28.99L13.8118 28.9912C13.5948 28.9912 13.4195 29.1684 13.4195 29.3877C13.4195 29.6071 13.5948 29.7842 13.8118 29.7842H22.804C22.8564 29.918 22.9196 30.0493 22.9924 30.1771C23.4455 30.9688 24.217 31.4967 25.0791 31.6461C25.1304 31.9474 25.2258 32.239 25.3617 32.509H13.8118C13.5948 32.509 13.4195 32.6861 13.4195 32.9055C13.4195 33.1248 13.5948 33.302 13.8118 33.302H25.9399C26.1152 33.4743 26.3131 33.6274 26.5314 33.7551C26.6327 33.8142 26.7365 33.8672 26.8426 33.913V36.0135H13.8832C12.438 36.0135 11.2539 34.818 11.2539 33.3562V12.1026C11.2539 10.6408 12.4368 9.44531 13.8832 9.44531L13.884 9.44534ZM29.3441 17.6545C28.6596 17.1399 27.7104 17.0544 26.9258 17.5123C26.14 17.9702 25.7393 18.8439 25.8383 19.6996C24.9917 19.6008 24.1271 20.0045 23.674 20.7986C23.2209 21.5928 23.3056 22.5509 23.8147 23.2426C23.0325 23.5849 22.484 24.3718 22.484 25.2889C22.484 26.206 23.0325 26.9929 23.8147 27.3352C23.3056 28.027 23.2209 28.9862 23.674 29.7792C24.1272 30.5734 24.9917 30.9783 25.8383 30.8783C25.7405 31.7339 26.1412 32.6076 26.9258 33.0655C27.7116 33.5235 28.6596 33.4379 29.3441 32.9233C29.6827 33.7139 30.4614 34.2683 31.3688 34.2683C32.2762 34.2683 33.0549 33.7139 33.3935 32.9233C34.078 33.4367 35.0272 33.5235 35.8118 33.0655C36.5976 32.6076 36.9983 31.7339 36.8993 30.8783C37.7459 30.9771 38.6105 30.5734 39.0636 29.7792C39.5167 28.985 39.432 28.027 38.9229 27.3352C39.7051 26.9929 40.2536 26.206 40.2536 25.2889C40.2536 24.3718 39.7051 23.5849 38.9229 23.2426C39.4308 22.5509 39.5167 21.5916 39.0636 20.7986C38.6104 20.0045 37.7459 19.5996 36.8993 19.6996C36.9971 18.8439 36.5976 17.9702 35.8118 17.5123C35.026 17.0543 34.078 17.1399 33.3935 17.6545C33.0549 16.8639 32.2762 16.3096 31.3688 16.3096C30.4614 16.3096 29.6827 16.8627 29.3441 17.6545ZM35.1071 34.1308C34.6242 34.1959 34.1293 34.1417 33.6702 33.9705C33.1122 34.6514 32.2739 35.0648 31.3676 35.0648C30.4614 35.0648 29.6231 34.6527 29.065 33.9705C28.606 34.1417 28.1111 34.1959 27.6282 34.1308V38.3969C27.6282 38.5367 27.7021 38.656 27.8273 38.7163C27.9513 38.7765 28.0908 38.7609 28.1981 38.6729L31.3677 36.1012L34.5372 38.6729C34.6446 38.7597 34.7841 38.7765 34.9081 38.7163C35.0321 38.656 35.1072 38.5367 35.1072 38.3969L35.1071 34.1308ZM31.3689 19.9393C28.445 19.9393 26.0744 22.3351 26.0744 25.2901C26.0744 28.2452 28.4449 30.6409 31.3689 30.6409C34.2928 30.6409 36.6633 28.2452 36.6633 25.2901C36.6633 22.3351 34.2928 19.9393 31.3689 19.9393ZM28.1493 25.665L30.0476 27.5835C30.2014 27.739 30.4495 27.739 30.6033 27.5835L34.5873 23.5572C34.7411 23.4017 34.7411 23.151 34.5873 22.9956C34.4335 22.8401 34.1854 22.8401 34.0316 22.9956L30.3254 26.7425L28.7049 25.1047C28.5511 24.9492 28.303 24.9492 28.1492 25.1047C27.9966 25.2589 27.9966 25.5107 28.1493 25.665ZM27.0164 9.84177V13.7488H30.8823L27.0164 9.84177ZM14.8511 12.5533C14.2799 12.5533 13.8125 13.0257 13.8125 13.603V14.784C13.8125 15.3612 14.2799 15.8336 14.8511 15.8336H22.7067C23.2779 15.8336 23.7453 15.3612 23.7453 14.784V13.603C23.7453 13.0257 23.2779 12.5533 22.7067 12.5533H14.8511Z" clip-rule="evenodd" fill-rule="evenodd"></path>
</g>
<defs>
<clipPath id="clip0_531_9725">
<rect transform="translate(11.1016 9.59961)" fill="white" height="29" width="29"></rect>
</clipPath>
</defs>
</svg>
