<svg xmlns="http://www.w3.org/2000/svg" fill="none" viewBox="0 0 52 52" height="52" width="52">
<rect fill="#FFF1DB" rx="12.8" height="51.2" width="51.2"></rect>
<path fill="#AB8744" d="M25.6016 9.59961C16.7652 9.59961 9.60156 16.7632 9.60156 25.5996C9.60156 34.436 16.7652 41.5996 25.6016 41.5996C34.438 41.5996 41.6016 34.436 41.6016 25.5996C41.6016 16.7632 34.438 9.59961 25.6016 9.59961ZM11.7355 25.5996C11.7355 17.9418 17.9438 11.7336 25.6016 11.7336C30.3507 11.7336 34.5423 14.122 37.0415 17.7624L13.0936 31.5892C12.2231 29.7762 11.7356 27.7449 11.7356 25.5992L11.7355 25.5996ZM25.6016 39.4656C20.8524 39.4656 16.6608 37.0772 14.1617 33.4368L38.1095 19.61C38.9801 21.423 39.4675 23.4543 39.4675 25.6C39.4675 33.2578 33.2593 39.4661 25.6015 39.4661L25.6016 39.4656ZM29.8599 25.0291C29.9724 25.1611 30.0392 25.3323 30.0392 25.5182V27.7436C30.0392 27.9229 29.9773 28.0876 29.8713 28.2163H25.6C25.4435 28.2163 25.3164 28.3435 25.3164 28.5C25.3164 28.6565 25.4435 28.7837 25.6 28.7837H29.8713C29.9757 28.9141 30.0392 29.0788 30.0392 29.2565V31.4819C30.0392 31.6612 29.9773 31.8259 29.8713 31.9546H27.9002C27.7437 31.9546 27.6166 32.0818 27.6166 32.2383C27.6166 32.3948 27.7437 32.522 27.9002 32.522H29.8713C29.9757 32.6524 30.0392 32.8171 30.0392 32.9948V35.2202C30.0392 35.6375 29.6985 35.9783 29.2811 35.9783H21.9201C21.5028 35.9783 21.162 35.6375 21.162 35.2202V32.9948C21.162 32.8155 21.224 32.6508 21.33 32.522H26.1067C26.2632 32.522 26.3903 32.3948 26.3903 32.2383C26.3903 32.0818 26.2632 31.9546 26.1067 31.9546H21.33C21.2256 31.8242 21.162 31.6596 21.162 31.4819V30.0488L29.8599 25.0275L29.8599 25.0291ZM29.8208 20.9956C29.8811 21.056 29.9268 21.1228 29.9594 21.1945L21.1622 26.273V25.5165C21.1622 25.0992 21.5029 24.7584 21.9203 24.7584C21.5029 24.7584 21.1622 24.4177 21.1622 24.0003V21.5858C21.1622 21.3592 21.2225 21.1538 21.3807 20.994L23.7984 18.5387V17.9306H27.4014V18.5387L29.8192 20.994L29.8208 20.9956ZM22.8905 17.2769V15.446C22.8905 15.3205 22.9932 15.2161 23.1204 15.2161H28.0849C28.2104 15.2161 28.3148 15.3189 28.3148 15.446V17.2769C28.3148 17.4024 28.212 17.5067 28.0849 17.5067H23.1204C22.9948 17.5067 22.8905 17.404 22.8905 17.2769Z" clip-rule="evenodd" fill-rule="evenodd"></path>
</svg>
