<svg xmlns="http://www.w3.org/2000/svg" fill="none" viewBox="0 0 52 52" height="52" width="52">
<rect fill="#FFF1DB" rx="12.8" height="51.2" width="51.1986"></rect>
<path fill="#AB8744" d="M19.5459 34.5644C17.1528 33.4858 15.0967 33.0814 12.771 33.2499V16.8013C12.771 16.6665 12.7036 16.5654 12.6025 16.498C12.4677 16.4305 12.3328 16.4643 12.2317 16.5654C12.0632 16.7339 11.8946 16.8687 11.7261 17.0373C11.6587 17.1047 11.625 17.2058 11.625 17.2732V34.5307C11.625 34.6318 11.6924 34.6993 11.7261 34.8004C11.7935 34.8678 11.8946 34.8678 11.9958 34.8678C14.4226 34.4296 16.8494 34.5644 19.3437 35.2386C19.3774 35.2386 19.4111 35.2386 19.4111 35.2386C19.5459 35.2386 19.6808 35.1711 19.7145 35.0363C19.7819 34.8004 19.7145 34.6318 19.5459 34.5644Z"></path>
<path fill="#AB8744" d="M18.2977 35.8459C15.7024 35.3066 13.1744 35.3403 10.7813 35.9133V19.0265C10.7813 18.858 10.6127 18.6895 10.4442 18.6895C10.3431 18.6895 10.242 18.7569 10.1746 18.8243C10.1409 18.858 10.0734 18.8917 10.006 18.9591C9.8375 19.0939 9.73639 19.1613 9.66897 19.2288C9.60156 19.2962 9.60156 19.3636 9.60156 19.431V37.2615C9.60156 37.3626 9.66898 37.4638 9.73639 37.5312C9.8038 37.5986 9.87121 37.5986 9.93862 37.5986C9.97233 37.5986 10.006 37.5986 10.0397 37.5649C13.1407 36.6548 15.5675 36.3178 18.2303 36.4526C18.3989 36.4526 18.5337 36.3515 18.5674 36.1829C18.5674 36.0144 18.4326 35.8796 18.2977 35.8459Z"></path>
<path fill="#AB8744" d="M13.984 13.5664C13.7818 13.5664 13.6133 13.7349 13.6133 13.9035V32.0036C13.6133 32.0711 13.647 32.1722 13.7144 32.2396C13.7818 32.307 13.8829 32.3407 13.9503 32.3407C13.984 32.3407 13.984 32.3407 13.984 32.3407C17.4895 32.3407 21.4331 34.0597 24.8037 37.0596C24.8711 37.127 24.9385 37.127 25.0059 37.127C25.0734 37.127 25.1071 37.127 25.1408 37.0933C25.2756 37.0259 25.3093 36.9247 25.3093 36.7899V18.656C25.3093 18.5549 25.2419 18.4875 25.2082 18.4201C21.7365 15.3528 17.658 13.5664 13.984 13.5664Z"></path>
<path fill="#AB8744" d="M39.2289 34.8005C39.33 34.8342 39.3974 34.8005 39.4986 34.7331C39.566 34.6657 39.5997 34.5646 39.5997 34.4635V17.2396C39.5997 17.1385 39.5323 17.0711 39.4986 17.0037C39.33 16.8352 39.1615 16.7003 38.993 16.5318C38.8918 16.4644 38.757 16.4307 38.6222 16.4644C38.4874 16.4981 38.4537 16.6329 38.4537 16.7677V33.2163C36.1279 33.0478 34.0719 33.4523 31.6787 34.5309C31.5102 34.5983 31.4428 34.8005 31.5102 34.9353C31.5776 35.0702 31.6787 35.1376 31.8136 35.1376C31.8473 35.1376 31.881 35.1376 31.881 35.1376C34.4089 34.4972 36.8021 34.3623 39.2289 34.8005Z"></path>
<path fill="#AB8744" d="M41.5195 19.262C41.4521 19.1945 41.351 19.0934 41.1824 18.9923C41.115 18.9249 41.0476 18.8912 41.0139 18.8575C40.9465 18.7901 40.8454 18.7227 40.7443 18.7227C40.5757 18.7227 40.4072 18.8912 40.4072 19.0597V35.9128C38.0141 35.3398 35.4524 35.3061 32.8907 35.8454C32.7222 35.8791 32.6211 36.0139 32.6211 36.2161C32.6548 36.3847 32.7896 36.4858 32.9582 36.4858C35.5872 36.3509 38.0478 36.688 41.1487 37.5981C41.1824 37.5981 41.2162 37.6318 41.2499 37.6318C41.3173 37.6318 41.3847 37.5981 41.4521 37.5644C41.5195 37.497 41.5869 37.3958 41.5869 37.2947V19.4642C41.6206 19.3631 41.5869 19.3294 41.5195 19.262Z"></path>
<path fill="#AB8744" d="M37.273 32.3407C37.3404 32.3407 37.4416 32.307 37.509 32.2396C37.5764 32.1722 37.6101 32.0711 37.6101 32.0036V13.9035C37.6101 13.7349 37.4416 13.5664 37.273 13.5664H37.2393C33.5653 13.5664 29.4869 15.3528 26.0152 18.4538C25.9478 18.5212 25.9141 18.6223 25.9141 18.6897V36.7899C25.9141 36.9247 25.9815 37.0259 26.0826 37.0933C26.15 37.127 26.15 37.127 26.2174 37.127C26.2848 37.127 26.3859 37.0933 26.4197 37.0596C29.7903 34.0597 33.7339 32.307 37.273 32.3407Z"></path>
</svg>
