<svg width="56" height="49" viewBox="0 0 56 49" fill="none" xmlns="http://www.w3.org/2000/svg">
<g id="Group">
<path id="Vector" d="M51.1742 38.7588C52.6922 42.403 52.6425 43.4249 50.7511 46.4722C51.0663 46.4722 51.3221 46.4722 51.5769 46.4722C52.6123 46.4755 53.6476 46.4582 54.6818 46.4906C55.2411 46.5079 55.6232 46.9296 55.6427 47.4411C55.661 47.9396 55.2896 48.3841 54.7531 48.4771C54.5717 48.5084 54.3817 48.4976 54.196 48.4976C36.7628 48.4976 19.3295 48.4976 1.89628 48.4976C1.75162 48.4976 1.60479 48.5052 1.46228 48.4901C0.84044 48.4219 0.458268 48.0034 0.480939 47.4249C0.502531 46.8734 0.877146 46.496 1.50331 46.483C2.6833 46.4592 3.8633 46.4733 5.04329 46.4722C5.26569 46.4722 5.48917 46.4722 5.81196 46.4722C3.29759 43.5168 3.27276 40.6133 5.71696 37.658C5.58309 37.5877 5.44922 37.5087 5.30779 37.446C1.93622 35.9451 -0.226196 32.4522 0.0188708 28.9021C0.28661 25.033 2.77615 21.9013 6.4446 20.8643C6.8732 20.7432 7.05674 20.5496 7.16361 20.1116C7.96251 16.8362 9.9997 14.708 13.2169 13.7413C13.639 13.6148 13.7448 13.4331 13.7685 13.0243C13.9855 9.3585 16.935 6.57289 20.5926 6.59343C21.0482 6.5956 21.2091 6.43447 21.3948 6.04842C23.0692 2.56209 25.8621 0.656711 29.7087 0.505319C34.1631 0.330137 38.4642 4.14305 38.9986 8.5864C39.0547 9.0568 39.1066 9.52827 39.1616 10.0008C45.2171 8.73239 50.33 14.2452 48.4601 20.2749C52.4536 21.6969 54.8718 24.5247 55.4904 28.7107C56.1069 32.888 54.5804 36.263 51.1753 38.7588H51.1742ZM35.5007 46.3738C35.6357 46.43 35.6735 46.4592 35.7102 46.4592C39.1692 46.4625 42.6304 46.5501 46.085 46.4387C49.1047 46.3414 50.7996 44.0121 50.0623 41.2459C49.4318 38.8799 47.3104 37.7985 44.7291 38.5274C43.9637 38.7437 43.4282 38.5425 43.2382 37.9694C43.033 37.3476 43.3407 36.848 44.1213 36.5842C45.8853 35.9883 47.59 36.1451 49.2007 37.0751C49.5441 37.273 49.7567 37.2535 50.0687 37.0329C52.9156 35.0259 54.1507 31.878 53.4209 28.4339C52.6252 24.6772 49.3584 21.9121 45.5755 21.8505C44.7982 21.8375 44.0155 21.9878 43.2403 22.097C42.5936 22.1879 42.1283 21.9673 41.9448 21.4223C41.7786 20.9259 42.0225 20.4588 42.6066 20.1863C42.7739 20.1084 42.9542 20.0273 43.1334 20.0143C44.0381 19.9494 44.945 19.864 45.8497 19.8748C46.3118 19.8802 46.4942 19.7537 46.613 19.3136C47.2445 16.9681 46.5903 14.986 44.8446 13.4017C43.0762 11.7981 41.0164 11.3461 38.746 12.2739C37.6135 12.7367 37.0035 12.2966 37.0186 11.0811C37.0305 10.1749 37.0402 9.24712 36.8729 8.36256C35.871 3.05519 29.3179 0.731325 25.2047 4.20036C24.083 5.14656 23.3575 6.36635 22.8641 7.7332C22.5089 8.714 22.3567 8.82755 21.3214 8.64047C20.4339 8.48043 19.5908 8.61776 18.7671 8.93136C17.2621 9.50448 15.701 11.2563 15.8403 13.1974C16.7914 13.3131 17.7533 13.3358 18.6667 13.5585C21.7143 14.3014 24.0344 15.9765 25.2047 19.0011C25.5037 19.7721 25.2954 20.3333 24.6886 20.5593C24.1218 20.7702 23.6209 20.475 23.3337 19.7332C22.9451 18.7297 22.388 17.8364 21.5589 17.1476C19.2809 15.2574 16.6726 14.9297 13.9024 15.6705C11.0329 16.4382 9.23534 18.5372 8.94925 21.3033C8.84993 22.2625 8.66964 22.4485 7.72284 22.6096C3.03309 23.412 0.0210343 29.0924 3.50488 33.5682C4.66328 35.0562 6.206 35.9159 8.0683 36.197C8.58542 36.2749 8.973 36.4987 9.06692 37.0556C9.15977 37.6006 8.90607 37.9586 8.43969 38.2192C8.09746 38.4095 7.76063 38.6215 7.45726 38.868C6.02788 40.0272 5.52479 41.7077 6.18658 43.3114C6.97252 45.2178 8.48395 46.3035 10.4866 46.3846C13.7534 46.5187 17.0289 46.4484 20.3001 46.4603C20.3519 46.4603 20.4048 46.4117 20.4771 46.376C20.4372 46.2711 20.407 46.1748 20.3659 46.084C18.2888 41.4817 16.2149 36.8783 14.1205 32.2836C14.0125 32.0467 13.7685 31.8294 13.5343 31.6985C12.3813 31.0486 11.2099 30.4322 10.0461 29.8007C9.62724 29.5736 9.3174 29.2071 9.46746 28.7486C9.57434 28.422 9.88202 28.0705 10.1908 27.9289C10.4251 27.8218 10.8321 27.9678 11.1117 28.1051C11.9959 28.5409 12.8552 29.0254 13.7858 29.5239C13.8269 29.2709 13.8711 29.0935 13.883 28.914C13.9769 27.4239 14.0708 25.9337 14.1507 24.4425C14.195 23.6229 14.5664 23.1914 15.2346 23.2271C15.8748 23.2617 16.1901 23.6877 16.1426 24.5139C16.0303 26.4604 15.8932 28.4047 15.7917 30.3511C15.7744 30.6896 15.7993 31.0692 15.9353 31.3709C18.1182 36.2435 20.3271 41.1043 22.5143 45.9748C22.6838 46.3533 22.8857 46.4852 23.3024 46.4819C26.4915 46.4636 29.6817 46.4657 32.8709 46.4798C33.2876 46.4819 33.47 46.3846 33.5834 45.9369C34.379 42.7891 35.1639 39.6369 36.061 36.5171C36.576 34.7253 36.8761 32.941 36.7811 31.0767C36.7228 29.9175 36.7671 28.7529 36.7714 27.5915C36.7747 26.8151 37.1525 26.3609 37.7787 26.3652C38.4038 26.3685 38.76 26.8086 38.7633 27.6055C38.7687 28.9962 38.7633 30.3857 38.7665 31.7764C38.7665 31.9527 38.787 32.1289 38.8043 32.3884C39.1465 32.2295 39.4229 32.103 39.6971 31.9721C41.1697 31.266 42.6379 30.5501 44.1159 29.857C44.8597 29.5088 45.6025 29.8786 45.6586 30.6172C45.6996 31.1654 45.3725 31.4855 44.9018 31.7093C42.9607 32.6328 41.0196 33.5574 39.0915 34.5068C38.8615 34.6204 38.5948 34.8561 38.5322 35.0854C37.5066 38.8334 36.5102 42.589 35.4997 46.3727L35.5007 46.3738Z" fill="#AB8744"></path>
<path id="Vector_2" d="M30.2307 22.8302C29.3465 21.4947 28.3382 19.9797 27.3384 18.4593C26.9563 17.8786 26.9833 17.3769 27.3892 17.0027C27.8696 16.5593 28.5487 16.6718 28.9729 17.3001C29.8766 18.6377 30.7618 19.9873 31.6547 21.3325C31.7119 21.4179 31.7702 21.5034 31.8641 21.6418C32.1437 21.3758 32.4104 21.127 32.6705 20.874C33.83 19.7494 34.983 18.6183 36.1479 17.5001C36.6834 16.9854 37.2556 16.953 37.6842 17.3779C38.1398 17.8299 38.0966 18.4009 37.5319 18.9502C34.7714 21.6364 32.012 24.3225 29.2353 26.9913C28.879 27.333 28.7095 27.6477 28.7678 28.1678C28.9017 29.3606 28.9524 30.5631 29.0334 31.7612C29.0474 31.9678 29.0615 32.1765 29.0474 32.3819C29.0097 32.9345 28.6221 33.3119 28.0931 33.3303C27.55 33.3487 27.1225 33.021 27.0772 32.4609C26.9347 30.7058 26.7986 28.9497 26.7242 27.1914C26.7112 26.8756 26.9422 26.4928 27.1679 26.2322C28.1427 25.1065 29.1565 24.0143 30.2296 22.8302H30.2307Z" fill="#AB8744"></path>
<path id="Vector_3" d="M23.8304 32.436C23.8423 32.9789 23.4061 33.4363 22.8674 33.4482C22.3287 33.459 21.8764 33.021 21.8645 32.4771C21.8526 31.9332 22.2866 31.4768 22.8264 31.466C23.3662 31.4552 23.8175 31.8921 23.8293 32.4371L23.8304 32.436Z" fill="#AB8744"></path>
<path id="Vector_4" d="M27.6765 8.55815C28.213 8.55275 28.6665 8.99935 28.6729 9.53788C28.6794 10.0775 28.2357 10.5349 27.6981 10.5403C27.1561 10.5457 26.7146 10.1078 26.7081 9.5595C26.7016 9.01125 27.1356 8.56356 27.6765 8.55815Z" fill="#AB8744"></path>
<path id="Vector_5" d="M12.7303 42.3794C12.7173 42.9038 12.2315 43.3807 11.7241 43.3677C11.1962 43.3548 10.7708 42.8898 10.7794 42.3372C10.7881 41.7857 11.2361 41.3412 11.7673 41.3553C12.2909 41.3694 12.7443 41.8517 12.7313 42.3794H12.7303Z" fill="#AB8744"></path>
<path id="Vector_6" d="M7.43878 26.7099C7.4323 27.2614 6.98858 27.7134 6.46282 27.7059C5.95325 27.6983 5.47716 27.2052 5.48147 26.6894C5.48579 26.153 5.93922 25.7097 6.48226 25.7129C7.03285 25.7162 7.44634 26.1465 7.43986 26.7099H7.43878Z" fill="#AB8744"></path>
<path id="Vector_7" d="M43.2147 16.5021C43.2255 17.0244 42.7656 17.4948 42.2334 17.5056C41.6871 17.5164 41.2412 17.086 41.2326 16.5388C41.2229 15.9884 41.6482 15.545 42.1967 15.5353C42.7268 15.5256 43.204 15.9787 43.2147 16.5021Z" fill="#AB8744"></path>
<path id="Vector_8" d="M13.7267 21.5541C13.7148 22.0937 13.2581 22.5317 12.7183 22.522C12.171 22.5122 11.7618 22.0743 11.7737 21.5109C11.7856 20.9616 12.2368 20.5106 12.7594 20.5258C13.2722 20.5409 13.7375 21.0351 13.7256 21.5531L13.7267 21.5541Z" fill="#AB8744"></path>
<path id="Vector_9" d="M29.047 41.3726C29.0405 41.897 28.5612 42.3761 28.0495 42.3696C27.5302 42.3631 27.0757 41.8851 27.0811 41.3531C27.0865 40.8168 27.5475 40.3539 28.0711 40.3604C28.5914 40.3669 29.0546 40.847 29.0481 41.3737L29.047 41.3726Z" fill="#AB8744"></path>
<path id="Vector_10" d="M43.6981 26.7099C43.1831 26.6926 42.7275 26.2017 42.7405 25.6772C42.7545 25.1333 43.2047 24.7051 43.7499 24.7181C44.2908 24.731 44.7226 25.1874 44.7065 25.7291C44.6913 26.2547 44.2055 26.7262 43.697 26.7099H43.6981Z" fill="#AB8744"></path>
<path id="Vector_11" d="M48.7983 31.4648C49.3262 31.4767 49.7753 31.9482 49.7624 32.477C49.7483 33.0112 49.2852 33.4578 48.7551 33.4481C48.2121 33.4372 47.803 32.9971 47.8127 32.4348C47.8224 31.8736 48.2499 31.454 48.7983 31.4659V31.4648Z" fill="#AB8744"></path>
<path id="Vector_12" d="M45.1406 42.3555C45.1417 42.8918 44.6872 43.3665 44.169 43.3687C43.6454 43.372 43.1995 42.9102 43.1963 42.362C43.1941 41.8137 43.6325 41.3552 44.1615 41.353C44.6861 41.3509 45.1396 41.8148 45.1406 42.3555Z" fill="#AB8744"></path>
</g>
</svg>
