<svg xmlns="http://www.w3.org/2000/svg" fill="none" viewBox="0 0 212 31" height="31" width="212">
<g id="Group 1137">
<path fill="#FFFFFF" d="M6.25143 17.2323C6.25143 14.4436 6.24552 11.8603 6.26327 9.27697C6.26327 9.09557 6.39345 8.8185 6.53942 8.74674C7.5592 8.2544 8.60067 7.80391 9.725 7.29761V15.4861C8.62829 16.0363 7.52369 16.5924 6.25143 17.2303V17.2323Z" id="Vector"></path>
<path fill="#FFFFFF" d="M12.5755 10.7458C13.2185 11.2741 13.8004 11.7505 14.4454 12.2787C13.8103 12.795 13.2284 13.2694 12.5952 13.7837C11.9995 13.2993 11.4196 12.8289 10.7568 12.2887C11.3762 11.7644 11.9403 11.284 12.5755 10.7458Z" id="Vector_2"></path>
<g id="Group 1245">
<path fill="#FFFFFF" d="M48.7921 22.9091C47.1471 21.6314 45.8926 21.456 45.1588 22.361C44.4605 23.2221 44.644 23.9297 45.8511 25.03C44.4822 25.0121 43.1449 23.8799 42.9595 22.5802C42.6222 20.2202 43.7011 19.082 47.2496 18.0893V13.0841C45.8728 12.8449 45.3797 13.2994 45.5415 14.617C44.5966 14.312 43.8826 13.2316 43.9654 12.231C44.0897 10.7499 44.9103 10.0981 47.3029 9.64963C47.3029 8.51743 47.4548 7.3334 47.2398 6.22113C47.1273 5.64108 46.4488 4.97132 45.8728 4.75405C45.4862 4.60854 44.8314 5.18261 44.2179 5.47364C44.4664 4.75605 44.6085 3.8471 45.0602 3.13748C46.2022 1.34748 48.7034 1.40529 49.9026 3.32286C51.3011 5.55736 52.4965 7.92142 53.7727 10.2337C54.7727 12.0436 55.7609 13.8575 56.901 15.9345V6.42245C55.83 5.93609 54.8339 5.4836 53.749 4.99126C54.6366 3.96869 55.4098 3.07967 56.1712 2.20062C58.5579 3.51222 59.3371 3.4285 60.3845 1.79199C61.0374 3.83912 59.769 5.61716 57.0825 6.26299V22.9849L56.7117 23.1184C53.6149 17.6807 50.7429 12.1114 47.5909 6.46631C47.5218 6.84902 47.4567 7.04437 47.4548 7.23971C47.4489 10.6263 47.4587 14.013 47.441 17.4016C47.439 17.9677 47.5672 18.2069 48.1747 18.4322C49.2478 18.8328 50.2242 19.4986 51.3327 20.1026C50.3721 21.165 49.5791 22.04 48.7921 22.9091Z" id="Vector_3"></path>
<path fill="#FFFFFF" d="M95.205 22.295C95.2287 19.7415 95.2661 17.1881 95.2464 14.6347C95.2464 14.4094 94.7474 13.959 94.6724 13.9988C94.2227 14.23 93.7887 14.537 93.4357 14.9018C93.3232 15.0174 93.4692 15.3901 93.4988 15.6612C92.552 15.1928 91.9938 14.2639 92.1023 13.3649C92.2541 12.0793 93.2266 11.2879 95.2227 10.8693C95.2227 9.07334 95.3076 7.25146 95.1932 5.44352C95.1182 4.26747 94.0965 3.95651 92.9347 4.62029C93.2483 3.25886 94.5324 2.34193 96.065 2.38578C97.5463 2.42964 98.5267 3.26284 98.793 4.72195C98.858 5.07875 98.9251 5.44352 98.9251 5.80431C98.933 11.0487 98.931 16.2931 98.9291 21.5375C98.9291 21.697 98.9054 21.8584 98.8975 21.9561C97.6193 22.0638 96.4003 22.1674 95.1794 22.2691L95.205 22.299V22.295Z" id="Vector_4"></path>
<path fill="#FFFFFF" d="M113.832 22.8212C113.348 22.4126 112.893 21.9023 112.334 21.5814C110.565 20.5648 110.149 19.0499 110.346 17.1064C110.506 15.5317 110.352 13.9271 110.401 12.3384C110.411 12.0275 110.648 11.5949 110.908 11.4414C112.35 10.6003 113.843 9.84878 115.291 9.01956C115.774 8.74249 116.104 8.78435 116.504 9.14912C117.479 10.0342 118.496 10.8694 119.471 11.7564C119.619 11.8919 119.682 12.1909 119.684 12.4142C119.7 14.5351 119.715 16.6559 119.67 18.7768C119.662 19.1276 119.435 19.624 119.155 19.7914C117.414 20.8359 115.628 21.8086 113.832 22.8193V22.8212ZM113.774 10.3371C113.693 10.369 113.613 10.4009 113.532 10.4328C113.532 13.0381 113.528 15.6453 113.542 18.2506C113.542 18.424 113.648 18.6433 113.776 18.7629C114.626 19.5622 115.498 20.3376 116.538 21.2824C116.538 18.42 116.542 15.8128 116.528 13.2075C116.528 13.0341 116.416 12.8208 116.287 12.6972C115.461 11.8999 114.615 11.1225 113.774 10.3371Z" id="Vector_5"></path>
<path fill="#FFFFFF" d="M101.288 22.5935C103.452 22.4181 103.898 21.9178 103.898 19.6733C103.898 18.1485 103.898 16.6236 103.898 15.0967C103.898 12.6389 103.823 10.1792 103.929 7.72742C103.981 6.56333 103.633 5.76401 102.722 5.13811C102.509 4.9926 102.324 4.80523 102.057 4.57998C102.884 3.89827 103.673 3.21257 104.507 2.59066C104.661 2.47704 105.075 2.52887 105.247 2.66441C105.941 3.21656 106.604 3.81455 107.241 4.43447C107.393 4.58198 107.454 4.88695 107.454 5.11818C107.466 10.0596 107.474 14.999 107.456 19.9404C107.446 22.4201 106.215 23.4945 103.775 23.1477C102.943 23.0281 102.128 22.763 101.308 22.5636L101.286 22.5915L101.288 22.5935Z" id="Vector_6"></path>
<path fill="#FFFFFF" d="M154.569 6.5918C151.344 9.21499 150.821 13.8415 152.605 16.8873C154.672 20.4194 158.682 21.2068 161.775 18.5537C162.658 17.7962 163.343 16.8015 164.051 15.9923C164.3 18.8746 161.962 21.9164 158.629 22.8811C154.65 24.0313 150.362 21.6533 149.003 17.545C147.494 12.9824 149.983 7.95921 154.571 6.5918H154.569Z" id="Vector_7"></path>
<path fill="#FFFFFF" d="M6.03841 6.64754C5.47625 7.35716 4.79377 8.03687 4.32234 8.84417C2.58852 11.8182 2.94949 15.8128 5.35593 18.3084C7.98526 21.0333 11.6975 20.6665 14.3544 17.7403C14.8969 17.1423 15.3249 16.4347 15.9206 15.6194C15.5379 18.8267 14.3189 21.2525 11.4036 22.4784C8.32059 23.7741 5.43088 23.2558 2.98302 21.0432C-1.46298 17.0267 -0.573385 9.29067 5.94176 6.63159C5.99107 6.61166 6.06405 6.65152 6.03841 6.64754Z" id="Vector_8"></path>
<path fill="#FFFFFF" d="M21.3727 1.70215V2.97787C21.3727 7.99902 21.3865 13.0182 21.3608 18.0393C21.3569 18.9782 21.3786 19.8453 22.4871 20.3516C21.4693 21.1768 20.5679 21.9044 19.627 22.6678C18.7907 21.8804 18.0076 21.1409 17.1851 20.3635C18.0727 20.0366 18.1141 19.325 18.1082 18.5098C18.0786 14.5291 18.1082 10.5465 18.0786 6.56583C18.0747 5.95787 17.8597 5.34991 17.7058 4.55258C18.7374 3.75127 19.9663 2.79648 21.3727 1.70215Z" id="Vector_9"></path>
<path fill="#FFFFFF" d="M131.818 4.03248C132.797 3.3408 134.026 2.47371 135.434 1.47705C135.465 1.99731 135.509 2.36208 135.509 2.72885C135.513 7.66828 135.55 12.6097 135.485 17.5491C135.469 18.7929 135.734 19.7517 136.909 20.4255C136.004 21.2308 135.156 21.9822 134.211 22.8214C133.379 22.0301 132.58 21.2706 131.978 20.6966C132.158 19.9431 132.404 19.381 132.41 18.8149C132.444 14.8701 132.461 10.9234 132.402 6.97859C132.388 6.07562 132.055 5.17863 131.818 4.03248Z" id="Vector_10"></path>
<path fill="#FFFFFF" d="M161.475 0.663574C163.126 0.689487 164.345 1.75192 164.436 3.16917C164.554 4.99703 163.424 6.5558 161.595 6.69932C160.495 6.78503 159.343 6.49002 158.244 6.23887C156.461 5.83223 154.709 5.29603 152.932 4.86348C151.147 4.42894 150.228 5.306 150.484 7.13785C148.65 5.86213 148.942 3.07548 151.031 1.81371C152.378 1.00044 153.77 1.09413 155.197 1.53066C156.727 1.99909 158.258 2.47151 159.8 2.89608C160.295 3.03163 160.856 3.14325 161.337 3.03761C161.749 2.94592 162.302 2.58712 162.404 2.23231C162.505 1.88547 162.136 1.38316 161.933 0.970544C161.872 0.846959 161.674 0.793139 161.475 0.665568V0.663574Z" id="Vector_11"></path>
<path fill="#FFFFFF" d="M2.19984 7.16014C0.521248 6.40069 0.406843 3.24329 2.71861 1.82405C4.06187 0.998818 5.4584 1.09051 6.89043 1.52705C8.42503 1.99547 9.95766 2.4639 11.5041 2.88848C11.9992 3.02402 12.5613 3.14561 13.0426 3.03997C13.4509 2.95027 14.0013 2.58549 14.0999 2.23268C14.1965 1.87986 13.8277 1.38353 13.6245 0.968919C13.5614 0.84334 13.3701 0.781547 13.2064 0.669922C14.5496 0.669922 15.6858 1.44532 16.025 2.56755C16.4314 3.91503 15.8594 5.48377 14.6719 6.21133C13.7665 6.76547 12.7921 6.94885 11.7507 6.68175C9.3738 6.0698 7.00089 5.43593 4.61614 4.85588C2.83893 4.42333 1.88227 5.36417 2.20181 7.16014H2.19984Z" id="Vector_12"></path>
<path fill="#FFFFFF" d="M95.1791 22.2632C95.0726 22.4167 94.9108 22.5562 94.8714 22.7257C94.7333 23.2978 94.394 23.9954 94.5913 24.43C94.7905 24.8665 95.5677 25.3289 96.047 25.2871C98.126 25.1017 100.185 24.707 102.258 24.4459C103.162 24.3323 104.091 24.2665 104.994 24.3403C106.243 24.4419 107.347 25.4824 107.586 26.5927C107.823 27.691 107.203 29.0923 106.16 29.7541C105.833 29.9614 105.464 30.1009 104.978 30.3361C105.16 29.9275 105.316 29.6584 105.401 29.3674C105.641 28.5521 105.18 27.8146 104.351 27.8943C102.761 28.0478 101.187 28.3568 99.6034 28.5701C98.5363 28.7136 97.4612 28.891 96.3902 28.893C94.4335 28.895 93.1908 27.8644 92.8614 26.1243C92.5261 24.3562 93.2953 23.0984 95.2008 22.2931L95.1751 22.2612L95.1791 22.2632Z" id="Vector_13"></path>
<path fill="#FFFFFF" d="M125.668 22.8049C124.696 21.9199 123.82 21.1246 123.023 20.401C123.122 19.8807 123.268 19.4502 123.275 19.0156C123.303 17.3253 123.208 15.627 123.313 13.9427C123.392 12.6769 122.841 11.8178 121.979 11.0145C122.778 10.2849 123.577 9.55538 124.439 8.77002C125.096 9.54542 125.725 10.2869 126.532 11.2397C127.094 10.5919 127.617 10.0158 128.108 9.41187C128.422 9.02716 128.672 8.9833 129.185 9.1647C129.798 9.37997 130.522 9.27831 131.292 9.32017C131.286 10.3089 130.81 11.2696 129.787 11.9832C128.554 12.8424 127.648 12.041 126.546 11.2278C126.546 12.1786 126.546 12.95 126.546 13.7234C126.546 14.9513 126.575 16.1792 126.538 17.405C126.496 18.7286 126.386 20.0522 128.199 20.6242C127.25 21.4435 126.495 22.0953 125.668 22.8049Z" id="Vector_14"></path>
<path fill="#FFFFFF" d="M36.1723 8.77832C37.0382 10.3032 37.8686 11.7663 38.7424 13.3071C37.9495 13.9011 37.1664 14.4872 36.3715 15.0832C35.4799 13.5742 34.6081 12.1032 33.7362 10.6321C33.6494 10.662 33.5646 10.6899 33.4778 10.7198C33.4778 12.7251 33.6238 14.7463 33.4305 16.7316C33.2845 18.2406 34.2333 18.8725 35.0617 19.6937C35.4365 20.0645 35.8054 20.4412 36.2176 20.8538C35.4129 21.5036 34.6199 22.1415 33.7658 22.8312C32.6928 21.8764 31.6099 20.9335 30.5605 19.9548C30.4086 19.8133 30.3554 19.5003 30.3534 19.2671C30.3376 17.0765 30.3317 14.8878 30.3613 12.6972C30.3652 12.4261 30.5132 12.0334 30.7183 11.9118C32.4916 10.8554 34.2925 9.84873 36.1723 8.77832Z" id="Vector_15"></path>
<path fill="#FFFFFF" d="M198.37 20.8481C197.536 21.5178 196.725 22.1716 195.895 22.8374C194.814 21.8627 193.754 20.9218 192.719 19.9591C192.581 19.8315 192.494 19.5763 192.494 19.381C192.478 17.1266 192.47 14.8721 192.504 12.6177C192.508 12.3605 192.709 11.9958 192.926 11.8662C194.674 10.8337 196.447 9.84698 198.315 8.79053C199.163 10.2696 200.019 11.7645 200.907 13.3114C200.07 13.9313 199.285 14.5153 198.52 15.0834C197.623 13.5486 196.751 12.0596 195.879 10.5706C195.796 10.5925 195.715 10.6144 195.632 10.6363C195.632 12.6695 195.78 14.7166 195.585 16.7279C195.429 18.3265 196.488 18.9604 197.346 19.8295C197.67 20.1584 197.999 20.4793 198.372 20.8501L198.37 20.8481Z" id="Vector_16"></path>
<path fill="#FFFFFF" d="M76.3516 20.9479C75.5311 21.6097 74.7657 22.2257 73.9334 22.8974C73.028 22.1559 72.1029 21.4303 71.2271 20.6489C71.0555 20.4955 71.0259 20.1167 71.0239 19.8397C71.0081 17.8483 70.9963 15.855 71.0239 13.8637C71.0377 12.8671 70.6965 12.0956 69.9726 11.406C67.8403 9.37876 68.4932 6.87915 71.2192 6.06787C71.1778 6.6559 70.9371 7.35954 71.1423 7.88577C71.3593 8.4419 71.9352 8.94023 72.4717 9.26514C73.7361 10.0306 74.2707 11.0571 74.1898 12.5541C74.0971 14.2743 74.2233 16.0085 74.1484 17.7307C74.105 18.7513 74.2923 19.5367 75.2391 20.051C75.608 20.2503 75.9058 20.5812 76.3516 20.9459V20.9479Z" id="Vector_17"></path>
<path fill="#FFFFFF" d="M24.7376 8.61088C25.5778 9.54375 26.4043 10.4387 27.1992 11.3616C27.3235 11.5052 27.3551 11.7683 27.3551 11.9756C27.3551 14.828 27.3669 17.6785 27.3235 20.5309C27.2722 23.8996 24.9486 26.0364 21.3804 25.847C23.6823 24.8763 24.134 22.9846 24.1813 20.9355C24.2405 18.3841 24.2247 15.8287 24.1793 13.2752C24.1714 12.8686 23.8815 12.4341 23.6389 12.0693C23.2996 11.559 22.8814 11.1025 22.4692 10.5863C23.2207 9.93245 23.9584 9.28861 24.7376 8.60889V8.61088Z" id="Vector_18"></path>
<path fill="#FFFFFF" d="M75.8037 11.1387C76.7683 10.2756 77.6263 9.5122 78.5475 8.68896C79.3858 9.42848 80.1886 10.1361 81.0959 10.9354C79.8236 11.653 80.0426 12.8032 80.0446 13.8875C80.0446 15.3147 80.086 16.7459 80.0288 18.1711C79.9992 18.9087 80.1965 19.4269 80.7981 19.8595C81.4076 20.296 81.9539 20.8242 82.5279 21.3126C82.4569 21.4123 82.4352 21.4761 82.3899 21.502C81.6324 21.9564 80.8632 22.7717 80.1195 22.7498C79.4292 22.7279 78.8019 21.7491 78.078 21.3046C77.1154 20.7146 76.7604 19.9711 76.8472 18.813C76.9655 17.2283 76.8728 15.6277 76.8787 14.033C76.8827 12.9467 77.0937 11.8005 75.8057 11.1387H75.8037Z" id="Vector_19"></path>
<path fill="#FFFFFF" d="M183.516 10.8978C184.48 10.1284 185.301 9.4726 186.178 8.77295C186.977 9.64403 187.768 10.4732 188.506 11.3463C188.664 11.5337 188.67 11.8865 188.672 12.1636C188.686 13.9237 188.784 15.6937 188.644 17.4419C188.538 18.7794 189.214 19.5189 190.157 20.3162C189.313 21.0976 188.455 21.8949 187.53 22.752C186.709 21.8531 185.916 20.984 185.236 20.2385C185.358 19.491 185.512 18.877 185.547 18.2531C185.599 17.392 185.468 16.515 185.579 15.6658C185.833 13.6885 185.305 12.0799 183.516 10.8978Z" id="Vector_20"></path>
<path fill="#FFFFFF" d="M180.292 8.91365C181.18 9.79071 182.007 10.584 182.799 11.4113C182.922 11.5388 182.912 11.8239 182.914 12.0372C182.934 13.9966 182.959 15.956 182.949 17.9135C182.945 18.7865 182.851 19.6636 183.821 20.1978C182.957 21.0131 182.172 21.7566 181.298 22.5818C180.638 21.8443 179.904 21.029 179.363 20.427C179.527 19.5181 179.691 18.8702 179.75 18.2144C179.809 17.5547 179.715 16.8829 179.772 16.2231C179.949 14.1581 179.793 12.2285 177.76 10.9249C178.679 10.1934 179.466 9.56547 180.289 8.90967L180.292 8.91365Z" id="Vector_21"></path>
<path fill="#FFFFFF" d="M175.592 22.6161C174.906 21.8387 174.146 20.9776 173.586 20.3437C173.783 19.4009 174.014 18.6853 174.067 17.9557C174.142 16.9332 173.973 15.8847 174.111 14.8741C174.347 13.1439 173.56 11.9878 172.235 10.9811C173.028 10.2855 173.789 9.61572 174.7 8.81641C175.523 9.70144 176.336 10.5506 177.109 11.4316C177.229 11.5672 177.194 11.8622 177.194 12.0834C177.2 13.9412 177.221 15.799 177.188 17.6567C177.17 18.6414 177.121 19.6022 178.117 20.1564C177.251 20.9975 176.44 21.7849 175.588 22.6121L175.592 22.6161Z" id="Vector_22"></path>
<path fill="#FFFFFF" d="M167.286 8.83402C168.086 9.75493 168.873 10.64 169.631 11.5529C169.747 11.6924 169.755 11.9516 169.757 12.1549C169.767 13.7774 169.868 15.41 169.731 17.0206C169.601 18.5634 170.065 19.7235 171.347 20.6384C170.56 21.346 169.808 22.0198 169.039 22.7115C168.195 21.8204 167.382 20.9793 166.599 20.1102C166.501 20.0025 166.554 19.7454 166.554 19.558C166.552 17.77 166.501 15.9781 166.574 14.194C166.617 13.1256 166.394 12.2466 165.573 11.5429C165.378 11.3755 165.236 11.1443 165.005 10.8652C165.777 10.1775 166.528 9.50776 167.288 8.83203L167.286 8.83402Z" id="Vector_23"></path>
<path fill="#FFFFFF" d="M207.341 15.2346C207.977 14.4991 208.61 13.7655 209.296 12.9702C210.022 13.5642 210.72 14.0924 211.361 14.6845C211.57 14.8778 211.726 15.2306 211.738 15.5177C211.78 16.6758 211.793 17.8399 211.73 18.998C211.714 19.3089 211.468 19.7136 211.206 19.889C209.9 20.768 208.564 21.6112 207.205 22.4026C206.965 22.5421 206.545 22.4265 206.227 22.3468C206.02 22.2949 205.852 21.9959 205.657 21.984C205.077 21.9501 204.387 21.8225 203.947 22.0836C203.657 22.2551 203.724 23.0404 203.639 23.5029C202.432 22.9806 201.69 20.9674 202.722 19.9946C203.418 19.3388 204.499 18.9641 205.468 18.7727C206.541 18.5615 207.387 19.2711 208.042 20.1202C208.235 20.3694 208.397 20.6445 208.779 20.8717C208.779 19.4066 208.896 17.9256 208.712 16.4824C208.653 16.014 207.817 15.6472 207.336 15.2326H207.338L207.341 15.2346Z" id="Vector_24"></path>
<path fill="#FFFFFF" d="M63.1224 10.4111C63.1224 11.643 63.1224 12.7274 63.1224 13.8097C63.1224 15.1034 63.0947 16.399 63.146 17.6927C63.1579 18.0096 63.3729 18.3744 63.6017 18.6136C64.3295 19.3751 65.1087 20.0867 65.8977 20.8441C65.0732 21.4999 64.2526 22.1517 63.4025 22.8275C62.29 21.8388 61.2071 20.892 60.1478 19.9152C60.0177 19.7956 59.9762 19.5246 59.9743 19.3252C59.9624 17.1366 59.9427 14.9459 59.994 12.7593C60.0019 12.4264 60.2977 11.9878 60.5877 11.7985C61.3471 11.3021 62.1756 10.9174 63.1204 10.4131L63.1224 10.4111Z" id="Vector_25"></path>
<path fill="#FFFFFF" d="M87.5221 10.9651C85.8652 11.5611 86.1138 12.9624 86.1256 14.2819C86.1374 15.7072 86.1414 17.1324 86.1157 18.5576C86.1118 18.8187 86.0349 19.1955 85.8573 19.319C84.9776 19.927 84.0525 20.4692 83.0091 21.117C83.0091 18.4241 82.9755 15.9145 83.0268 13.4069C83.0446 12.5119 82.94 11.7624 81.938 11.2621C82.8946 10.3671 83.7685 9.54983 84.7014 8.67676C85.6404 9.4382 86.526 10.1578 87.5221 10.9631V10.9651Z" id="Vector_26"></path>
<path fill="#FFFFFF" d="M137.71 11.6665C137.852 11.7682 137.886 11.7821 137.904 11.808C139.785 14.6744 141.663 17.5408 143.569 20.447C142.73 21.1925 141.896 21.936 140.977 22.7533C140.45 21.9161 139.945 21.1188 139.448 20.3195C138.367 18.5833 137.306 16.8312 136.199 15.1109C135.884 14.6206 135.868 14.2678 136.241 13.7993C136.771 13.1316 137.215 12.3941 137.71 11.6665Z" id="Vector_27"></path>
<path fill="#FFFFFF" d="M207.339 15.2344C206.544 15.9021 205.751 16.5679 204.913 17.2716C204.848 17.1898 204.785 17.0543 204.68 16.9865C203.047 15.948 202.582 14.445 202.816 12.5713C202.893 11.9514 203.004 11.5707 203.586 11.2537C205.053 10.4524 206.471 9.55545 207.915 8.69434C209.541 9.93816 210.122 9.94614 211.428 8.7342C211.604 9.99995 211.085 10.9089 209.899 11.5747C208.136 12.5653 207.022 11.5228 205.814 10.1096C205.814 11.487 205.649 12.667 205.883 13.7593C206.006 14.3314 206.834 14.748 207.343 15.2344H207.341H207.339Z" id="Vector_28"></path>
<path fill="#FFFFFF" d="M154.65 8.80997C155.652 8.3555 156.747 7.86115 157.906 7.33691C157.972 7.54223 158.056 7.68574 158.058 7.82727C158.068 10.1774 158.08 12.5275 158.049 14.8756C158.045 15.1427 157.855 15.5274 157.638 15.651C156.707 16.1773 155.731 16.6257 154.652 17.1639V8.80997H154.65Z" id="Vector_29"></path>
<path fill="#FFFFFF" d="M65.7912 8.74027C66.6689 10.2811 67.5112 11.7601 68.3909 13.305C67.6078 13.893 66.8583 14.4571 66.0377 15.073C65.0909 13.4525 64.1875 11.9057 63.2388 10.2831C64.0633 9.78477 64.8897 9.28445 65.7912 8.73828V8.74027Z" id="Vector_30"></path>
<path fill="#FFFFFF" d="M139.797 8.59912C140.963 9.59976 142.155 9.74527 143.405 8.80642C142.997 11.9838 140.705 12.9645 138.103 11.0828C138.653 10.2755 139.206 9.4682 139.797 8.59912Z" id="Vector_31"></path>
<path fill="#FFFFFF" d="M165.957 5.81231C166.803 5.03093 167.544 4.34523 168.331 3.61768C168.951 4.31932 169.556 5.00303 170.237 5.77444C169.438 6.50598 168.675 7.20364 167.864 7.94316C167.237 7.24152 166.627 6.5618 165.957 5.81231Z" id="Vector_32"></path>
<path fill="#FFFFFF" d="M159.057 12.2888C159.684 11.7586 160.25 11.2782 160.873 10.75C161.475 11.2443 162.071 11.7327 162.737 12.2809C162.084 12.8131 161.506 13.2835 160.885 13.7898C160.282 13.2955 159.708 12.825 159.057 12.2908V12.2888Z" id="Vector_33"></path>
<path fill="#FFFFFF" d="M101.31 22.5662C101.268 22.4466 101.191 22.325 101.191 22.2054C101.186 15.7411 101.186 9.27876 101.292 2.81445C101.292 9.40633 101.292 15.9982 101.292 22.5921C101.292 22.5941 101.312 22.5662 101.312 22.5662H101.31Z" id="Vector_34"></path>
</g>
</g>
</svg>
