<svg width="138" height="29" viewBox="0 0 138 29" fill="none" xmlns="http://www.w3.org/2000/svg">
<g id="Group 1244">
<g id="_0HqCgq">
<path id="Vector" d="M130.722 0.664107C130.724 2.81875 130.727 4.97393 130.729 7.12857C130.73 7.85532 130.729 8.58153 130.773 9.32854C130.814 9.24856 130.859 9.16965 130.897 9.0886C131.402 8.0382 132.263 7.51834 133.421 7.47995C133.921 7.46342 134.429 7.46875 134.925 7.52953C136.179 7.68363 136.802 8.30427 136.968 9.55515C137.036 10.0633 137.065 10.5799 137.065 11.0929C137.072 15.9791 137.069 20.8653 137.069 25.7515C137.069 25.8757 137.068 26 137.07 26.1242C137.08 26.7443 137.13 26.7971 137.775 26.8488V28.1701H132.132V26.8504C132.201 26.8445 132.27 26.8344 132.338 26.8339C132.565 26.8323 132.689 26.7134 132.718 26.5001C132.739 26.3423 132.754 26.1823 132.754 26.0234C132.756 21.2439 132.756 16.4638 132.754 11.6842C132.754 11.3211 132.742 10.9569 132.713 10.5949C132.68 10.1827 132.517 10.0249 132.102 9.9961C131.916 9.9833 131.726 10.0025 131.54 10.027C131.222 10.0686 131.006 10.2536 130.942 10.5602C130.881 10.8535 130.837 11.1558 130.837 11.4544C130.828 14.7442 130.828 18.0346 130.827 21.3244C130.827 22.9735 130.827 24.6233 130.827 26.2724C130.827 26.7891 130.83 26.7891 131.361 26.8552V28.1653H125.988V26.8477C126.048 26.8424 126.1 26.8371 126.153 26.8328C126.55 26.7982 126.657 26.6947 126.681 26.3076C126.692 26.1487 126.693 25.9888 126.693 25.8288C126.693 18.4419 126.694 11.055 126.69 3.66813C126.69 3.40367 126.677 3.13547 126.63 2.87634C126.573 2.57188 126.439 2.48444 126.121 2.47484C126.041 2.47217 125.96 2.47377 125.879 2.47377C125.798 2.47377 125.718 2.47377 125.618 2.47377V1.12052C126.101 1.07627 126.591 1.02935 127.08 0.986158C128.154 0.892315 129.227 0.801139 130.3 0.706763C130.352 0.702498 130.401 0.678504 130.452 0.663574C130.542 0.663574 130.632 0.663574 130.722 0.663574V0.664107Z" fill="#AB8744"></path>
<path id="Vector_2" d="M117.081 0.664307C117.076 0.769879 117.065 0.875985 117.065 0.981558C117.064 9.28288 117.064 17.5842 117.064 25.8855C117.064 25.9031 117.064 25.9213 117.064 25.9388C117.072 26.5899 117.012 26.913 117.886 26.8394C117.909 26.8373 117.934 26.8559 117.969 26.8687V28.1713H112.307V26.8586C112.83 26.7866 112.835 26.7866 112.835 26.2604C112.836 18.5797 112.836 10.8995 112.836 3.21885C112.836 3.17459 112.834 3.13034 112.833 3.08608C112.815 2.55822 112.727 2.47504 112.19 2.47397C112.083 2.47397 111.977 2.47397 111.853 2.47397V1.11966C112.37 1.0738 112.878 1.02795 113.386 0.984224C114.468 0.891448 115.551 0.800272 116.633 0.706429C116.675 0.702697 116.716 0.678703 116.757 0.664307C116.865 0.664307 116.973 0.664307 117.081 0.664307Z" fill="#AB8744"></path>
<path id="Vector_3" d="M6.52372 19.1102C6.56633 18.7722 6.6111 18.4341 6.65047 18.0955C6.98164 15.2515 7.31119 12.4074 7.64235 9.56388C7.70492 9.02695 7.80416 8.49162 7.82789 7.95309C7.84677 7.52334 7.79014 7.08878 7.74429 6.65849C7.62024 5.49506 7.48702 4.33269 7.35218 3.17086C7.27882 2.53902 7.24161 2.5113 6.51725 2.46064V1.13672H12.0786V2.44038C12.0554 2.45265 12.0403 2.46758 12.0252 2.46758C11.4556 2.47024 11.1471 2.65953 11.2178 3.46838C11.3019 4.4308 11.4303 5.38895 11.5403 6.34871C11.7474 8.16264 11.9551 9.9771 12.1622 11.791C12.3704 13.614 12.5786 15.437 12.7868 17.26C12.8191 17.541 12.8504 17.8225 12.9313 18.111C12.9437 18.0438 12.9615 17.9766 12.968 17.9089C13.1983 15.6514 13.4291 13.3938 13.6573 11.1357C13.8811 8.92191 14.105 6.70808 14.3218 4.49372C14.3606 4.09755 14.3978 3.69712 14.3795 3.30096C14.3509 2.67819 14.1362 2.49583 13.5095 2.47237C13.4744 2.47131 13.4394 2.46384 13.3903 2.45691V1.13992H17.3907V2.44305C17.3675 2.45211 17.3443 2.46811 17.3201 2.46971C16.661 2.50437 16.4992 2.611 16.4048 3.2663C16.2748 4.16954 16.1955 5.0797 16.1011 5.98773C15.907 7.85712 15.7171 9.7265 15.5267 11.5964C15.339 13.4397 15.1529 15.2829 14.9652 17.1262C14.7759 18.978 14.5844 20.8298 14.3957 22.6821C14.2252 24.3489 14.0575 26.0156 13.8876 27.6829C13.8714 27.8408 13.8509 27.9981 13.8304 28.1697H10.1633C9.71295 24.0828 9.26259 19.998 8.81222 15.9126C8.79658 15.911 8.7804 15.9094 8.76476 15.9078C8.28365 19.9943 7.80308 24.0807 7.32143 28.174H3.65379C3.59824 27.668 3.54053 27.1609 3.48659 26.6539C3.2579 24.503 3.02921 22.352 2.80214 20.2011C2.61391 18.4203 2.42945 16.6394 2.24067 14.8585C2.03464 12.9102 1.82267 10.963 1.61879 9.01415C1.42624 7.17143 1.24016 5.32817 1.05084 3.48545C1.03359 3.31802 1.01902 3.14953 0.990976 2.98371C0.925713 2.59448 0.798425 2.48784 0.399299 2.47611C0.302214 2.47344 0.205669 2.47611 0.0756836 2.47611V1.14152H5.73518V2.46544C5.66992 2.46971 5.60897 2.47291 5.54856 2.47824C5.18018 2.51183 4.99841 2.66432 4.99356 3.0333C4.98763 3.46572 5.02215 3.90027 5.06314 4.33216C5.37597 7.65077 5.69581 10.9683 6.01187 14.2869C6.16451 15.8929 6.31391 17.4989 6.46439 19.1049C6.48435 19.1065 6.5043 19.1086 6.52426 19.1102H6.52372Z" fill="#AB8744"></path>
<path id="Vector_4" d="M37.9518 26.8413V28.1663H32.4698V26.8733C32.4881 26.8616 32.4951 26.8536 32.5032 26.8525C33.1758 26.7523 33.1909 26.7357 33.1909 26.0484C33.1909 21.1526 33.1914 16.2574 33.1882 11.3616C33.1882 11.0608 33.1645 10.7596 33.1353 10.4599C33.1089 10.1859 32.9466 10.0248 32.6645 10.0003C31.8382 9.92833 31.5626 10.1965 31.5 10.8321C31.4698 11.1403 31.4563 11.4511 31.4563 11.7609C31.4531 16.5767 31.4536 21.3926 31.4531 26.2084C31.4531 26.2351 31.4531 26.2617 31.4531 26.2884C31.4606 26.764 31.4924 26.7992 31.98 26.8514V28.1706H26.6005V26.8562C26.6625 26.8477 26.7224 26.8381 26.7828 26.8312C27.1053 26.7949 27.2245 26.6947 27.2854 26.3764C27.3119 26.2383 27.3146 26.0943 27.3146 25.953C27.3162 20.7202 27.3162 15.4874 27.3146 10.2552C27.3146 10.0963 27.3081 9.93473 27.2784 9.77957C27.1927 9.33168 27.0632 9.21705 26.5864 9.15253C26.5864 8.75103 26.5816 8.34474 26.5934 7.93951C26.5951 7.89259 26.6868 7.81154 26.7418 7.80728C28.273 7.68997 29.8048 7.58067 31.3366 7.47083C31.3625 7.46923 31.3894 7.47883 31.4417 7.48736V9.28316C31.4617 9.28956 31.4822 9.29649 31.5022 9.30289C31.5469 9.21491 31.5933 9.128 31.6359 9.03896C32.1262 8.01736 32.9449 7.48256 34.0878 7.47723C34.6234 7.47456 35.1671 7.49802 35.694 7.586C36.5425 7.72783 37.077 8.25356 37.3164 9.06882C37.3456 9.16799 37.3752 9.26663 37.4092 9.3802C37.5295 9.15893 37.6206 8.94405 37.7517 8.7569C38.4081 7.82007 39.3158 7.38125 40.4712 7.45164C40.8023 7.4719 41.1373 7.47243 41.4641 7.51988C42.7656 7.7097 43.3508 8.31221 43.4829 9.61321C43.5336 10.1149 43.5525 10.6215 43.553 11.1264C43.5579 16.0132 43.5563 20.8999 43.5563 25.7866C43.5563 25.8933 43.5552 25.9994 43.5568 26.106C43.5682 26.7299 43.6323 26.797 44.2763 26.8488V28.1706H38.7118V26.853C38.7911 26.8445 38.8682 26.8344 38.9464 26.828C39.1546 26.8104 39.2781 26.6947 39.311 26.4979C39.3342 26.3588 39.338 26.2159 39.338 26.0746C39.339 21.1612 39.3396 16.2478 39.3358 11.3344C39.3358 11.0342 39.3121 10.7324 39.2792 10.4333C39.2522 10.1843 39.0996 10.0307 38.8401 10.0051C37.8984 9.9134 37.6023 10.2227 37.5484 10.9473C37.5252 11.2565 37.5246 11.5674 37.5031 11.8766C37.4923 12.0254 37.5834 12.2099 37.352 12.3005C37.3116 12.3165 37.324 12.4807 37.324 12.5767C37.3229 16.0265 37.3229 19.4768 37.3229 22.9266C37.3229 23.9375 37.3218 24.9485 37.324 25.9599C37.324 26.1194 37.3267 26.2809 37.3547 26.4366C37.4108 26.7469 37.6514 26.8317 37.9507 26.8402L37.9518 26.8413Z" fill="#AB8744"></path>
<path id="Vector_5" d="M85.3893 14.8936H81.8241C81.8241 14.9954 81.8241 15.0898 81.8241 15.1842C81.8241 18.5454 81.8225 21.9072 81.8263 25.2685C81.8263 25.5783 81.843 25.8897 81.8819 26.1968C81.9396 26.6601 82.1434 26.8254 82.6154 26.834C82.7389 26.8361 82.8624 26.834 83.0005 26.834V28.1675H76.2461V26.738C76.4537 26.738 76.6576 26.7444 76.861 26.7369C77.3205 26.7193 77.4931 26.5476 77.5093 26.1003C77.5131 26.0027 77.512 25.9051 77.512 25.8076C77.5109 18.4281 77.5103 11.0492 77.505 3.6698C77.505 3.41493 77.4688 3.15686 77.4208 2.90573C77.3674 2.62633 77.1743 2.4829 76.8842 2.4781C76.6781 2.47491 76.4721 2.47757 76.2461 2.47757V1.14512H83.0021V2.47597C82.8274 2.47597 82.6596 2.47224 82.4919 2.47651C82.0464 2.48877 81.87 2.62207 81.7977 3.05822C81.7503 3.34561 81.7368 3.64047 81.7362 3.93266C81.7319 6.99267 81.7335 10.0527 81.7335 13.1122C81.7335 13.1729 81.7395 13.2343 81.7443 13.3153H85.3861C85.3925 13.2684 85.4039 13.2263 85.4039 13.1847C85.4012 9.98283 85.399 6.78099 85.3915 3.57915C85.3909 3.35948 85.364 3.13553 85.317 2.92066C85.2502 2.613 85.0878 2.49197 84.7653 2.47864C84.5614 2.47011 84.3564 2.47704 84.1396 2.47704V1.13818H90.8066V2.47864C90.5769 2.47864 90.3546 2.47064 90.133 2.48024C89.7926 2.49517 89.64 2.62527 89.5898 2.95531C89.5564 3.17392 89.537 3.39627 89.5364 3.61754C89.5332 10.8727 89.5327 18.1279 89.5364 25.3826C89.5364 25.6647 89.5618 25.951 89.6179 26.2272C89.6939 26.6025 89.8752 26.7305 90.2592 26.7396C90.4366 26.7438 90.6141 26.7401 90.8061 26.7401V28.0752H84.1412V26.7406C84.3111 26.7406 84.4789 26.7428 84.6466 26.7406C85.0743 26.7337 85.2561 26.6009 85.3284 26.1797C85.3807 25.8758 85.4001 25.5628 85.4001 25.2541C85.4049 21.8838 85.4033 18.5134 85.4028 15.1431C85.4028 15.0653 85.3942 14.9869 85.3888 14.8941L85.3893 14.8936Z" fill="#AB8744"></path>
<path id="Vector_6" d="M54.5932 28.1628V26.8655C55.1795 26.7818 55.2992 26.7258 55.3003 26.0214C55.3068 20.7449 55.3041 15.4684 55.3036 10.1919C55.3036 10.1034 55.3009 10.0144 55.2938 9.92586C55.2491 9.36387 55.0484 9.17939 54.4821 9.17672C54.4028 9.17672 54.3241 9.17672 54.2275 9.17672V7.81494C55.9578 7.6955 57.6816 7.5766 59.4356 7.45557V9.27963C59.4518 9.28336 59.468 9.28709 59.4841 9.29029C59.5176 9.22364 59.5532 9.15806 59.5839 9.08981C59.9906 8.17965 60.6874 7.61552 61.6923 7.53075C62.3751 7.47316 63.0784 7.4689 63.7559 7.56114C64.8777 7.7131 65.4365 8.34334 65.5832 9.5089C65.6495 10.0352 65.6754 10.5694 65.6765 11.1005C65.6835 15.9958 65.6803 20.891 65.6808 25.7863C65.6808 25.9105 65.6798 26.0348 65.683 26.1585C65.6981 26.721 65.738 26.7668 66.3049 26.8628V28.167H60.6524V26.8623C60.668 26.8548 60.6826 26.842 60.6982 26.841C61.2899 26.8063 61.3665 26.7237 61.367 26.0758C61.3687 23.1491 61.3676 20.2229 61.3676 17.2962C61.3676 15.4695 61.3724 13.6422 61.3638 11.8155C61.3616 11.3826 61.3395 10.9464 61.2818 10.5177C61.2322 10.1503 61.0569 10.0261 60.6815 9.99038C59.914 9.9168 59.5796 10.1711 59.4809 10.9304C59.4458 11.2018 59.4437 11.4785 59.4437 11.7531C59.4415 16.5951 59.4415 21.437 59.441 26.2795C59.441 26.3328 59.4415 26.3861 59.4426 26.4389C59.448 26.7994 59.4685 26.8191 59.8471 26.8346C59.8827 26.8362 59.9183 26.8415 59.9701 26.8463V28.1622H54.5932V28.1628Z" fill="#AB8744"></path>
<path id="Vector_7" d="M26.3466 18.5358C26.2781 19.6667 26.1999 21.3666 26.0629 23.0616C25.9831 24.0517 25.7496 25.0195 25.3494 25.9403C24.6687 27.5042 23.4508 28.3162 21.7481 28.4362C21.0199 28.4874 20.294 28.4607 19.5836 28.265C18.2234 27.8902 17.3992 26.9683 16.9041 25.71C16.4904 24.6596 16.3092 23.559 16.2089 22.4447C15.9764 19.8699 15.9985 17.2897 16.1128 14.7112C16.1738 13.3382 16.3092 11.9706 16.7336 10.6498C17.4515 8.41683 18.8722 7.41868 21.2535 7.45867C22.2038 7.47467 23.1127 7.63036 23.9147 8.17156C24.7868 8.76074 25.2636 9.62291 25.584 10.5843C26.0085 11.8581 26.1519 13.1804 26.2237 14.5086C26.2857 15.6592 26.297 16.812 26.3472 18.5358H26.3466ZM22.1165 17.9173C22.1024 17.9173 22.0879 17.9173 22.0738 17.9173C22.0738 16.0735 22.0949 14.2292 22.0647 12.3859C22.0507 11.5206 21.9654 10.6536 21.8603 9.79354C21.7988 9.2918 21.5598 9.1521 21.0582 9.1809C20.7082 9.20116 20.4854 9.37018 20.4212 9.78607C20.3215 10.4323 20.2201 11.0871 20.2174 11.7386C20.199 15.8602 20.199 19.9824 20.2174 24.104C20.2201 24.7555 20.3182 25.4108 20.4245 26.0555C20.5 26.5124 20.7368 26.6521 21.2082 26.6425C21.5944 26.6351 21.7831 26.4874 21.8619 26.0416C21.9433 25.5804 22.0129 25.1117 22.0221 24.6446C22.0658 22.4025 22.0873 20.1599 22.1165 17.9178V17.9173Z" fill="#AB8744"></path>
<path id="Vector_8" d="M110.912 24.3097H112.114C112.086 25.3143 112.124 26.3087 111.758 27.2572C111.418 28.1349 110.695 28.4798 109.815 28.5236C109.227 28.5529 108.631 28.5108 108.044 28.451C107.356 28.3812 106.927 27.9701 106.724 27.3249C106.656 27.1069 106.591 26.8877 106.51 26.6211C106.47 26.699 106.445 26.7374 106.429 26.7789C105.978 27.944 105.08 28.4788 103.858 28.5433C102.468 28.6169 101.593 28.073 101.051 26.8061C100.693 25.9701 100.551 25.0855 100.507 24.1892C100.425 22.5496 100.419 20.9111 100.688 19.2817C100.941 17.7519 101.73 16.613 103.179 15.9817C104.046 15.6032 104.943 15.2896 105.832 14.9591C105.992 14.8993 106.054 14.8295 106.053 14.6578C106.043 13.3456 106.051 12.0329 106.033 10.7207C106.029 10.3965 105.977 10.0665 105.897 9.75187C105.805 9.39036 105.554 9.15416 105.161 9.10404C104.534 9.02406 103.928 9.08804 103.314 9.3573C103.402 9.43675 103.472 9.49913 103.542 9.56312C104.176 10.1496 104.57 10.8689 104.66 11.7178C104.739 12.468 104.412 13.2752 103.255 13.481C102.272 13.6559 101.62 13.2896 101.27 12.3624C100.998 11.6404 100.925 10.895 101.083 10.1395C101.263 9.28052 101.768 8.65082 102.542 8.22906C103.213 7.86276 103.946 7.70173 104.7 7.61749C105.561 7.52151 106.422 7.50498 107.278 7.64735C108.921 7.92034 109.826 8.87689 110.011 10.541C110.062 10.9979 110.081 11.4608 110.081 11.9209C110.088 16.4968 110.087 21.0727 110.09 25.6486C110.09 25.8432 110.111 26.0378 110.123 26.2324C110.136 26.4254 110.219 26.5497 110.435 26.5571C110.652 26.5646 110.813 26.4931 110.839 26.2623C110.872 25.9632 110.898 25.663 110.909 25.3622C110.921 25.0183 110.911 24.6734 110.911 24.3102L110.912 24.3097ZM106.126 15.8068C105.494 16.1278 104.981 16.5277 104.792 17.2097C104.689 17.5834 104.59 17.9721 104.583 18.3555C104.547 20.4025 104.531 22.4494 104.533 24.4969C104.533 24.8434 104.622 25.1991 104.725 25.5345C104.816 25.8315 105.054 25.9413 105.385 25.9258C105.75 25.9088 105.948 25.7893 106.024 25.4673C106.091 25.1852 106.132 24.8904 106.133 24.6008C106.141 21.7461 106.14 18.8914 106.14 16.0366C106.14 15.9695 106.132 15.9017 106.126 15.8068Z" fill="#AB8744"></path>
<path id="Vector_9" d="M98.2098 21.8607H99.734C99.734 22.1358 99.7329 22.4067 99.734 22.6781C99.7394 23.8218 99.7534 24.9655 99.5096 26.0932C99.1903 27.5712 98.5129 28.2281 96.9995 28.4611C96.0901 28.6014 95.1721 28.6046 94.2644 28.4313C92.8491 28.1615 91.9575 27.2828 91.4263 26.0026C90.9861 24.9431 90.785 23.8277 90.6658 22.6978C90.388 20.0628 90.3837 17.4224 90.5676 14.7825C90.6722 13.2778 90.8664 11.7828 91.4225 10.3618C91.8567 9.25169 92.5071 8.32019 93.6808 7.85951C94.4122 7.57265 95.1813 7.5092 95.9574 7.55826C96.3404 7.58279 96.7282 7.63024 97.1003 7.72088C98.3036 8.01361 98.9902 8.84433 99.3985 9.94591C99.7939 11.0128 99.9595 12.1277 100.029 13.2512C100.112 14.5863 100.129 15.9257 100.174 17.2635C100.176 17.3317 100.165 17.4011 100.158 17.5029H94.6042C94.5961 17.5978 94.5864 17.6586 94.5869 17.7199C94.609 19.7498 94.6139 21.7802 94.6667 23.8095C94.6829 24.4238 94.7865 25.0455 94.9305 25.6448C95.0988 26.3454 95.506 26.6163 96.2373 26.636C96.4887 26.6429 96.7411 26.6456 96.9914 26.6291C97.5539 26.5928 97.8667 26.3731 97.9924 25.8298C98.1073 25.3318 98.1796 24.8173 98.2012 24.3075C98.2346 23.5024 98.2103 22.6952 98.2103 21.8602L98.2098 21.8607ZM96.404 15.8628C96.404 13.9763 96.4072 12.1235 96.4002 10.2712C96.3992 10.0248 96.3727 9.77155 96.3075 9.53535C96.2665 9.38765 96.1597 9.20903 96.0308 9.14292C95.575 8.91098 95.0459 9.13972 94.9332 9.63559C94.8199 10.1341 94.7385 10.6476 94.7169 11.1573C94.6549 12.6279 94.6301 14.0995 94.5907 15.5706C94.588 15.6644 94.5907 15.7588 94.5907 15.8628H96.404Z" fill="#AB8744"></path>
<path id="Vector_10" d="M54.0958 17.4224H48.7238C48.7173 17.5099 48.7076 17.5781 48.7076 17.6464C48.7108 19.5355 48.6968 21.4251 48.7286 23.3137C48.7405 24.0191 48.8144 24.731 48.9401 25.4257C49.0824 26.2111 49.4724 26.4996 50.2814 26.5412C50.5765 26.5561 50.8742 26.5502 51.1692 26.5316C51.7652 26.4932 52.0942 26.2586 52.2134 25.6768C52.3332 25.0893 52.3903 24.4862 52.4297 23.8869C52.4691 23.286 52.4524 22.6813 52.461 22.0783C52.4626 21.9823 52.4702 21.8869 52.4756 21.7744H53.8978C53.9135 21.8026 53.9291 21.817 53.9291 21.832C53.948 23.2513 53.9502 24.6696 53.6233 26.065C53.3191 27.3649 52.5511 28.1823 51.1719 28.3636C50.214 28.4894 49.2545 28.5177 48.3025 28.3268C46.966 28.0586 46.1041 27.2332 45.5809 26.0224C45.1106 24.9341 44.9051 23.7835 44.7843 22.6179C44.5135 20.009 44.5054 17.3942 44.6829 14.7794C44.7864 13.2566 44.9736 11.7423 45.5362 10.3032C45.6742 9.9497 45.8436 9.60259 46.0405 9.27787C46.6224 8.31865 47.4816 7.73694 48.5992 7.54712C49.3575 7.41862 50.1207 7.42182 50.879 7.55085C52.0743 7.754 52.8574 8.44982 53.3013 9.5466C53.6853 10.4952 53.8666 11.4928 53.928 12.5005C54.0246 14.075 54.0537 15.6538 54.1103 17.231C54.112 17.2822 54.1023 17.3345 54.0947 17.423L54.0958 17.4224ZM50.6061 15.8623C50.6137 15.7797 50.6255 15.7109 50.6255 15.6421C50.6175 13.9668 50.6137 12.291 50.5948 10.6157C50.591 10.2899 50.5446 9.96143 50.4875 9.63938C50.4168 9.23895 50.2523 9.10192 49.8877 9.08059C49.4239 9.0534 49.1855 9.1755 49.0738 9.56526C48.9794 9.89531 48.8996 10.2392 48.8856 10.5799C48.8138 12.2712 48.7658 13.9631 48.7108 15.6554C48.7087 15.7226 48.7222 15.7903 48.7286 15.8623H50.6067H50.6061Z" fill="#AB8744"></path>
<path id="Vector_11" d="M117.909 7.63404C118.059 7.63404 118.199 7.63244 118.341 7.63404C119.128 7.64364 119.764 7.32852 120.125 6.64923C120.478 5.98754 120.765 5.28585 121.011 4.57777C121.245 3.90167 121.39 3.19519 121.579 2.48657H123.018V7.63085H125.584V9.16378H123.025C123.025 9.28429 123.025 9.37759 123.025 9.47037C123.025 14.7458 123.025 20.0218 123.027 25.2972C123.027 25.5713 123.042 25.8475 123.073 26.1194C123.11 26.4383 123.254 26.5529 123.573 26.555C123.889 26.5572 124.039 26.4457 124.077 26.1253C124.115 25.8091 124.131 25.4892 124.133 25.1703C124.139 24.0799 124.136 22.989 124.136 21.8986C124.136 21.8027 124.136 21.7067 124.136 21.5942H125.482C125.489 21.6592 125.502 21.7264 125.502 21.7936C125.502 22.9997 125.523 24.2058 125.487 25.4108C125.469 25.9717 125.385 26.5412 125.247 27.0856C125.072 27.7707 124.569 28.1877 123.873 28.3295C122.82 28.5444 121.763 28.5188 120.729 28.2202C119.613 27.8976 119.164 27.0429 119.028 25.9893C118.956 25.4284 118.936 24.8595 118.91 24.2937C118.679 19.3398 118.873 14.3832 118.809 9.42825C118.808 9.35787 118.809 9.28748 118.809 9.18724H117.909V7.63298V7.63404Z" fill="#AB8744"></path>
<path id="Vector_12" d="M68.5808 28.1748H67.2599V21.8634H68.8866C68.9201 22.4393 68.9325 23.0135 68.9918 23.583C69.0598 24.2335 69.1256 24.8898 69.2717 25.5254C69.4665 26.3705 69.8769 26.6483 70.7534 26.6451C70.9594 26.6446 71.1671 26.6355 71.3709 26.6099C71.8898 26.5454 72.1886 26.2479 72.2862 25.7424C72.4879 24.7032 72.4016 23.6784 71.9712 22.7197C71.5543 21.792 71.0624 20.894 70.5565 20.0089C69.7728 18.636 68.9071 17.3078 68.1553 15.9188C67.4638 14.6418 67.055 13.2582 67.0636 11.794C67.0668 11.2235 67.1321 10.6391 67.2745 10.0872C67.597 8.83796 68.419 8.01151 69.6827 7.67346C70.7183 7.39673 71.7803 7.28903 72.8051 7.69852C73.2862 7.89047 73.7145 8.21146 74.1923 8.48872C74.2565 8.24985 74.3336 7.96299 74.4172 7.65373H75.5618V13.6863H74.0278C73.9836 13.2454 73.9431 12.7991 73.8935 12.3533C73.8266 11.7545 73.7608 11.1558 73.6772 10.5591C73.6492 10.3597 73.5834 10.1619 73.5095 9.97313C73.3736 9.62762 73.1201 9.38449 72.7436 9.33757C72.3903 9.29384 72.0252 9.26665 71.6741 9.30717C71.1439 9.36849 70.8505 9.7268 70.7663 10.3128C70.6169 11.3568 70.8175 12.3608 71.276 13.2848C71.7997 14.34 72.4049 15.3584 73.0192 16.3656C73.7786 17.6101 74.5844 18.8263 75.1572 20.1726C75.7559 21.5787 76.0963 23.0375 76.0332 24.5683C76.0148 25.0162 75.9447 25.4705 75.8277 25.9034C75.4183 27.4204 74.2409 28.3583 72.6498 28.4345C72.1417 28.459 71.625 28.4313 71.1196 28.3689C70.3607 28.2756 69.7345 27.9088 69.2243 27.3452C69.0544 27.158 68.9492 27.166 68.8473 27.3921C68.7362 27.6395 68.6682 27.9066 68.5787 28.1743L68.5808 28.1748Z" fill="#AB8744"></path>
<path id="Vector_13" d="M66.6014 8.54847C66.315 8.23335 66.0529 7.94489 65.7886 7.6543C66.5275 6.93129 67.2524 6.22267 67.9913 5.49966C67.7011 5.32477 67.4525 5.18561 67.2152 5.02991C66.7842 4.74679 66.4158 4.39968 66.1521 3.95552C65.6974 3.18985 65.7794 2.37886 66.3673 1.77848C67.0501 1.0816 67.8624 0.9451 68.6865 1.38925C69.899 2.04242 70.46 3.62548 69.9373 4.93607C69.6774 5.5887 69.2669 6.14802 68.7799 6.65029C68.4455 6.99581 68.0949 7.32745 67.7313 7.64364C67.3754 7.95342 66.9946 8.23548 66.6014 8.54847Z" fill="#AB8744"></path>
</g>
</g>
</svg>
