<svg xmlns="http://www.w3.org/2000/svg" fill="none" viewBox="0 0 47 47" height="47" width="47">
<circle stroke-width="2" stroke="#AB8744" r="22.1211" cy="23.1211" cx="23.1211"></circle>
<path fill="#AB8744" d="M25.2822 19.5691H16.9082L14.0272 16.676L18.2161 12.467L25.2822 19.5691ZM24.2985 26.9117L29.0165 28.069C29.1731 28.1076 29.3215 28.0621 29.4327 27.9516C29.5427 27.8411 29.5852 27.6906 29.5468 27.5373L28.3955 22.7951C28.3735 22.7137 28.3391 22.6488 28.2787 22.588L26.3786 20.6782L18.006 20.6768L24.0949 26.7945C24.1512 26.8553 24.2202 26.8897 24.2985 26.9117ZM10.1008 12.7309L14.2869 8.52189L13.7992 8.03166C12.3855 6.61068 10.5444 7.18515 9.61447 8.12418C8.48789 9.25655 8.48789 11.1056 9.61447 12.2409L10.1008 12.7309ZM18.6918 9.88892L16.8522 8.04258C16.7065 7.8962 16.4647 7.8962 16.3191 8.04258L9.62558 14.7705C9.47995 14.9168 9.47995 15.1599 9.62558 15.3063L11.4652 17.1554C11.6109 17.3017 11.8485 17.3017 11.9983 17.1554L18.6918 10.4247C18.8374 10.2783 18.8374 10.0395 18.6918 9.88892ZM32.4158 34.2183C34.0576 35.8685 34.0576 38.5709 32.4158 40.2211C30.774 41.8713 28.0879 41.8713 26.4436 40.2211C24.8018 38.5709 24.8018 35.871 26.4436 34.2183L29.0802 30.7576C29.1653 30.6472 29.2862 30.5864 29.4277 30.5864C29.5693 30.5864 29.6902 30.6472 29.7753 30.7576L32.4158 34.2183ZM31.461 37.0492C31.461 36.7454 31.2164 36.4955 30.91 36.4955H29.9827V35.5633C29.9827 35.2568 29.7381 35.0096 29.4317 35.0096C29.1267 35.0096 28.8808 35.2554 28.8808 35.5633V36.4982H27.9534C27.6484 36.4982 27.4025 36.7482 27.4025 37.052C27.4025 37.3586 27.647 37.6057 27.9534 37.6057H28.8808V38.5379C28.8808 38.8444 29.1253 39.0916 29.4317 39.0916C29.7367 39.0916 29.9827 38.8458 29.9827 38.5379V37.6057H30.91C31.215 37.603 31.461 37.3572 31.461 37.0492ZM25.4529 32.7433C25.4529 32.4368 25.2043 32.1896 24.902 32.1896H23.9719V31.2574C23.9719 30.9509 23.7232 30.7037 23.421 30.7037C23.116 30.7037 22.87 30.9536 22.87 31.2574V32.1896H21.9427C21.6377 32.1896 21.3917 32.4354 21.3917 32.7433C21.3917 33.0499 21.6363 33.2971 21.9427 33.2971H22.87V34.232C22.87 34.5386 23.1146 34.7857 23.421 34.7857C23.726 34.7857 23.9719 34.5399 23.9719 34.232V33.2971H24.8993C25.2043 33.2957 25.4529 33.0499 25.4529 32.7433ZM36.9207 32.1923H35.9933V31.2602C35.9933 30.9536 35.7487 30.7064 35.4424 30.7064C35.1373 30.7064 34.8914 30.9564 34.8914 31.2602V32.1923H33.9641C33.659 32.1923 33.4131 32.4381 33.4131 32.7461C33.4131 33.0527 33.6618 33.2999 33.9641 33.2999H34.8914V34.2347C34.8914 34.5413 35.1401 34.7885 35.4424 34.7885C35.7474 34.7885 35.9933 34.5427 35.9933 34.2347V33.2999H36.9207C37.2257 33.2999 37.4716 33.054 37.4716 32.7461C37.4716 32.4395 37.2229 32.1923 36.9207 32.1923Z"></path>
<line stroke-width="2" stroke="#AB8744" y2="37.382" x2="6.289" y1="6.28816" x1="37.3829"></line>
</svg>
