<svg width="53" height="53" viewBox="0 0 53 53" fill="none" xmlns="http://www.w3.org/2000/svg">
<g id="Group">
<path id="Vector" d="M24.6719 0.456055C25.8906 0.456055 27.1094 0.456055 28.3281 0.456055C29.1609 0.571009 29.9978 0.659514 30.8245 0.806005C36.6583 1.8406 41.6105 4.52118 45.6273 8.88233C49.0438 12.5914 51.2071 16.9444 52.0917 21.921C52.2532 22.8315 52.3649 23.7522 52.5 24.6677V28.33C52.3883 29.1489 52.303 29.9719 52.1608 30.7847C51.1411 36.6322 48.4781 41.6007 44.1292 45.6342C40.4181 49.0758 36.0601 51.2517 31.0734 52.1388C30.1634 52.3006 29.2432 52.4094 28.3281 52.5427H24.6719C24.0727 52.4644 23.4714 52.3942 22.8732 52.3057C18.1414 51.6058 13.8798 49.799 10.1728 46.7624C5.19625 42.6861 2.08539 37.4786 0.912344 31.1347C0.740703 30.2069 0.636094 29.2659 0.5 28.331V24.6688C0.575156 24.0838 0.642187 23.4978 0.727499 22.9139C1.46281 17.8661 3.44836 13.3757 6.79078 9.52017C10.833 4.85688 15.8908 1.94334 21.9754 0.857887C22.8702 0.698171 23.773 0.589321 24.6719 0.457072V0.456055ZM2.23164 26.4694C2.21234 39.854 13.1151 50.797 26.4807 50.8082C39.8321 50.8184 50.7592 39.8804 50.7684 26.4948C50.7775 13.1316 39.9063 2.22717 26.5366 2.18953C13.1862 2.15189 2.25094 13.0756 2.23063 26.4694H2.23164Z" fill="#AB8744"></path>
<path id="Vector_2" d="M48.1699 26.4906C48.1994 38.4571 38.427 48.2425 26.4853 48.2069C14.4989 48.1703 4.85352 38.507 4.82915 26.51C4.80477 14.5374 14.5802 4.74592 26.5117 4.79068C38.4961 4.83544 48.1405 14.4987 48.1699 26.4906ZM36.3054 25.6086C37.6927 25.6086 39.0811 25.5944 40.4684 25.6158C41.0534 25.6249 41.5105 25.5293 41.9949 25.0888C43.1182 24.0644 44.3471 23.1539 45.5496 22.218C45.8187 22.0084 45.8736 21.8172 45.7913 21.4937C43.3416 11.7805 33.7145 5.23727 23.8041 6.76831C15.5684 8.04094 10.1388 12.8172 7.44438 20.7063C7.03712 21.8986 7.07165 21.9047 8.04564 22.6768C9.08056 23.4967 10.1409 24.2892 11.1209 25.1712C11.5008 25.513 11.8461 25.6178 12.3184 25.6158C15.2972 25.6015 18.276 25.6025 21.2538 25.6168C21.6377 25.6188 21.9231 25.5059 22.2065 25.2567C23.1591 24.4164 24.1311 23.5995 25.0929 22.7714C26.0598 21.9382 26.9342 21.9342 27.9001 22.7633C28.8761 23.6015 29.8389 24.4561 30.8383 25.2658C31.0749 25.4581 31.4314 25.5873 31.7361 25.5944C33.2585 25.627 34.782 25.6097 36.3054 25.6097V25.6086ZM19.6075 27.5293L19.5222 27.3889C17.2045 27.3889 14.8879 27.4001 12.5713 27.3808C11.968 27.3757 11.4947 27.4622 10.997 27.9159C9.88696 28.9301 8.6743 29.8325 7.48196 30.7531C7.17626 30.9891 7.12954 31.2048 7.22298 31.5609C9.84532 41.5477 19.703 47.9902 29.848 46.1265C37.7222 44.6799 42.9293 39.9749 45.5161 32.3838C45.9569 31.0909 45.9213 31.0827 44.8793 30.2567C43.885 29.4683 42.8582 28.7134 41.9228 27.8589C41.5034 27.4764 41.1093 27.3747 40.5852 27.3798C38.3854 27.4001 36.1856 27.3879 33.9867 27.3889C33.81 27.3889 33.6333 27.4042 33.2839 27.4194C33.5409 27.63 33.6942 27.7307 33.8171 27.8599C34.4062 28.4784 34.4763 29.3431 33.9949 30.0502C33.5856 30.6524 32.9873 30.8589 32.2856 30.8579C28.8842 30.8549 25.4839 30.8569 22.0826 30.8559C21.5585 30.8559 21.0324 30.8732 20.5094 30.8498C19.7141 30.8152 19.122 30.4439 18.8143 29.6931C18.5248 28.9871 18.7097 28.3025 19.3241 27.7195C19.4064 27.6422 19.5131 27.5903 19.6075 27.5263V27.5293ZM20.482 29.0329H32.5222C30.5427 27.335 28.6476 25.7033 26.7352 24.0908C26.6387 24.0095 26.3411 24.0268 26.2365 24.1153C24.3383 25.7185 22.4553 27.3401 20.482 29.0319V29.0329ZM9.99462 26.5171C8.91095 25.6432 7.8679 24.8019 6.7436 23.8945C6.53642 25.6758 6.50595 27.3431 6.76188 29.098C7.86993 28.2129 8.9079 27.3838 9.99462 26.5171ZM46.2484 29.098C46.4667 27.3136 46.4921 25.6514 46.2291 23.9047C45.1139 24.7958 44.08 25.6229 43.0065 26.4815C44.0912 27.3564 45.1261 28.1916 46.2484 29.098Z" fill="#AB8744"></path>
<path id="Vector_3" d="M26.4498 13.4753C25.0787 13.4753 23.7086 13.4773 22.3375 13.4753C21.6774 13.4743 21.3158 13.1701 21.3087 12.6228C21.3016 12.0684 21.6591 11.7469 22.3121 11.7469C25.1041 11.7439 27.8961 11.7439 30.689 11.7469C31.3421 11.7469 31.6996 12.0684 31.6925 12.6228C31.6854 13.1701 31.3238 13.4743 30.6636 13.4753C29.259 13.4784 27.8544 13.4753 26.4498 13.4753Z" fill="#AB8744"></path>
<path id="Vector_4" d="M26.5164 20.4246C25.1118 20.4246 23.7072 20.4307 22.3036 20.4216C21.7125 20.4175 21.3753 20.15 21.3185 19.682C21.2453 19.0849 21.6282 18.679 22.2975 18.6759C24.0231 18.6688 25.7496 18.6739 27.4752 18.6739C28.5578 18.6739 29.6415 18.6678 30.7242 18.6769C31.3264 18.682 31.691 19.0228 31.6931 19.5487C31.6951 20.0818 31.3488 20.3972 30.7313 20.4226C30.6134 20.4277 30.4946 20.4246 30.3758 20.4246C29.09 20.4246 27.8042 20.4246 26.5185 20.4246H26.5164Z" fill="#AB8744"></path>
<path id="Vector_5" d="M26.5215 8.27291C27.0781 8.27291 27.6357 8.26172 28.1922 8.27596C28.7376 8.2902 29.1225 8.66864 29.1154 9.14779C29.1073 9.62897 28.7163 10.0044 28.175 10.0094C27.0608 10.0206 25.9467 10.0196 24.8336 10.0094C24.2882 10.0044 23.8992 9.63711 23.887 9.15491C23.8748 8.65745 24.2699 8.28613 24.8518 8.27393C25.4084 8.26172 25.966 8.27087 26.5225 8.27087V8.27291H26.5215Z" fill="#AB8744"></path>
<path id="Vector_6" d="M26.5012 16.9453C25.9446 16.9453 25.387 16.9545 24.8305 16.9433C24.2769 16.9321 23.8961 16.5791 23.8859 16.0938C23.8758 15.5974 24.282 15.2159 24.8528 15.2129C25.9497 15.2057 27.0466 15.2057 28.1434 15.2129C28.7162 15.2169 29.1215 15.5943 29.1144 16.0908C29.1073 16.575 28.7244 16.9311 28.1719 16.9433C27.6153 16.9545 27.0577 16.9463 26.5012 16.9463V16.9453Z" fill="#AB8744"></path>
<path id="Vector_7" d="M26.5058 41.254C25.1184 41.254 23.7301 41.2571 22.3427 41.253C21.6744 41.251 21.319 40.9539 21.3088 40.4066C21.2986 39.8349 21.6622 39.5236 22.3559 39.5236C25.1479 39.5216 27.9398 39.5267 30.7328 39.5195C31.1959 39.5185 31.5372 39.6965 31.659 40.1442C31.7708 40.5541 31.6611 40.9377 31.2528 41.136C31.0659 41.2266 30.8313 41.2469 30.618 41.2489C29.2469 41.2581 27.8768 41.254 26.5058 41.254Z" fill="#AB8744"></path>
<path id="Vector_8" d="M26.5515 32.5742C27.9054 32.5742 29.2592 32.5701 30.612 32.5752C31.328 32.5782 31.6855 32.8702 31.6906 33.4328C31.6957 34.0106 31.3138 34.3229 30.5856 34.324C27.8444 34.326 25.1033 34.326 22.3621 34.324C21.7243 34.324 21.3556 34.0391 21.313 33.5345C21.2642 32.9557 21.6248 32.5844 22.2869 32.5782C23.7078 32.5671 25.1297 32.5752 26.5505 32.5742H26.5515Z" fill="#AB8744"></path>
<path id="Vector_9" d="M26.4493 44.7256C25.909 44.7256 25.3687 44.7358 24.8294 44.7226C24.2728 44.7083 23.895 44.3563 23.8869 43.8711C23.8777 43.3746 24.283 42.9921 24.8548 42.9871C25.9516 42.9789 27.0495 42.9789 28.1464 42.9871C28.7182 42.9911 29.1234 43.3736 29.1153 43.8711C29.1072 44.3553 28.7283 44.7093 28.1718 44.7226C27.598 44.7358 27.0241 44.7256 26.4503 44.7256H26.4493Z" fill="#AB8744"></path>
<path id="Vector_10" d="M26.4878 37.7864C25.9312 37.7864 25.3737 37.7956 24.8171 37.7844C24.2799 37.7732 23.8858 37.3978 23.8848 36.9177C23.8838 36.4355 24.2687 36.0611 24.8151 36.056C25.9455 36.0448 27.0769 36.0438 28.2073 36.057C28.7425 36.0631 29.1315 36.4629 29.1132 36.9421C29.0959 37.408 28.7191 37.7722 28.2083 37.7844C27.6344 37.7976 27.0606 37.7874 26.4868 37.7874L26.4878 37.7864Z" fill="#AB8744"></path>
</g>
</svg>
