<svg width="98" height="26" viewBox="0 0 98 26" fill="none" xmlns="http://www.w3.org/2000/svg">
<g id="Group 1242">
<path id="Vector" d="M55.6466 0.663574V8.75143C56.0027 8.60406 56.2946 8.47553 56.593 8.36255C58.843 7.50538 61.0352 7.4448 63.0963 8.87833C64.3899 9.77807 65.2564 11.0241 65.7247 12.492C66.7338 15.6555 66.4766 18.7386 64.7526 21.6065C63.314 23.9996 61.0459 25.1629 58.3071 25.4634C55.8197 25.7368 53.3867 25.3185 50.9678 24.8011C50.8672 24.7798 50.7336 24.5907 50.7336 24.4793C50.7336 18.2433 50.7493 12.0082 50.7485 5.77221C50.7485 5.28673 50.6759 4.79551 50.5828 4.31821C50.4072 3.42011 49.8902 2.82738 48.9413 2.67264C48.8473 2.65709 48.7319 2.65463 48.6667 2.59978C48.5505 2.50072 48.4054 2.37382 48.3872 2.24365C48.3757 2.16014 48.5579 1.98167 48.6758 1.95874C50.5984 1.58951 52.5235 1.23911 54.4486 0.883802C54.8246 0.814213 55.2013 0.745443 55.6466 0.663574ZM55.7661 17.0153H55.7166C55.762 19.2471 55.8098 21.4788 55.8502 23.7106C55.8551 23.9807 55.8889 24.196 56.2212 24.2353C57.3433 24.3688 58.3615 24.1387 59.0458 23.2005C59.5132 22.5595 59.9164 21.8448 60.2074 21.1088C61.0253 19.0383 61.0945 16.8638 60.9206 14.6788C60.8274 13.5039 60.5248 12.3717 59.9098 11.3508C58.9856 9.81737 57.8074 9.372 56.0695 9.85011C55.8444 9.91233 55.7603 10.0016 55.7612 10.2365C55.7686 12.4961 55.7661 14.7557 55.7661 17.0145V17.0153Z" fill="white"></path>
<path id="Vector_2" d="M0.773438 1.99186V1.14697H20.1654C20.1943 1.70941 20.2363 2.27431 20.2495 2.84003C20.2841 4.29648 20.2858 5.75375 20.3451 7.20938C20.3633 7.64902 20.2429 7.86925 19.8026 7.91673C19.6559 7.93229 19.5133 7.98714 19.3261 8.03463C19.2544 7.84551 19.1884 7.67276 19.1233 7.4992C18.7144 6.39806 18.2337 5.33622 17.4686 4.42174C16.7777 3.59568 15.8815 3.10037 14.8658 2.78845C14.7891 2.76471 14.7042 2.75734 14.6234 2.75652C13.0446 2.74588 11.4658 2.73687 9.88695 2.7295C9.82099 2.7295 9.75503 2.74588 9.6528 2.7598C9.62477 3.14376 9.58025 3.51954 9.572 3.89696C9.51677 6.60601 9.46647 9.31506 9.42113 12.0241C9.41206 12.5653 9.42608 12.5841 9.9628 12.5612C10.8672 12.5227 11.7725 12.4801 12.6736 12.395C13.2796 12.3377 13.7858 12.0118 14.076 11.4952C14.4058 10.9074 14.7116 10.2828 14.8749 9.63599C14.9887 9.18734 15.1626 9.08255 15.5575 9.13577C15.6499 9.14805 15.7439 9.1505 15.8609 9.15951V17.1696C15.6218 17.1589 15.386 17.1794 15.17 17.1237C15.0686 17.0975 14.9746 16.9363 14.9301 16.8175C14.7397 16.31 14.6201 15.7704 14.3802 15.2891C13.9391 14.4049 13.2565 13.8375 12.1839 13.8441C11.4303 13.849 10.6759 13.79 9.92157 13.7614C9.77482 13.7556 9.62724 13.7614 9.42772 13.7614C9.42772 14.0594 9.42031 14.3025 9.42855 14.5449C9.49698 16.558 9.53325 18.5736 9.6561 20.5835C9.70144 21.3179 9.90673 22.0539 10.126 22.7629C10.3264 23.4113 10.8095 23.8305 11.5078 23.968C11.897 24.0441 12.2836 24.1367 12.6719 24.2161C13.2812 24.3405 13.3068 24.3765 13.1839 25.0364H0.77756V24.2881C1.19968 24.2046 1.63829 24.1186 2.07772 24.031C2.85683 23.8755 3.42158 23.426 3.64418 22.6843C3.86514 21.9483 4.08114 21.1779 4.09763 20.4182C4.18255 16.4991 4.23119 12.5784 4.23119 8.65765C4.23119 7.30108 4.08527 5.94205 3.94758 4.59039C3.90059 4.12947 3.72416 3.66281 3.51804 3.242C3.14786 2.48635 2.4545 2.18426 1.64406 2.10239C1.37199 2.07455 1.10075 2.03443 0.774262 1.99268L0.773438 1.99186Z" fill="white"></path>
<path id="Vector_3" d="M34.9042 16.1436C34.8662 18.6447 34.3946 20.7438 32.9518 22.5204C31.4513 24.3673 29.4966 25.3498 27.0966 25.4832C25.8113 25.5552 24.5449 25.5184 23.3165 25.1074C21.1399 24.3788 19.6344 22.915 18.8017 20.8216C17.7959 18.2926 17.7234 15.69 18.575 13.1095C19.773 9.47942 22.9331 7.43351 26.9457 7.55386C29.1346 7.62017 31.068 8.25465 32.5949 9.87566C33.8464 11.2044 34.4952 12.8131 34.7582 14.5872C34.8481 15.1914 34.8745 15.8054 34.905 16.1427L34.9042 16.1436ZM23.3099 16.4473C23.2703 17.826 23.3453 19.3455 23.7279 20.8339C23.9999 21.8932 24.3264 22.9346 25.1377 23.7353C25.9638 24.5499 27.1691 24.5892 27.9631 23.7541C28.3646 23.3317 28.7422 22.802 28.9005 22.2551C29.1973 21.2317 29.4149 20.1683 29.5065 19.1081C29.6969 16.9082 29.6961 14.701 29.2459 12.5225C28.9978 11.3239 28.5954 10.1876 27.6671 9.31322C26.794 8.49126 25.5079 8.515 24.7634 9.44831C24.3825 9.92642 24.0947 10.5118 23.8985 11.0931C23.328 12.7796 23.2909 14.5389 23.309 16.4481L23.3099 16.4473Z" fill="white"></path>
<path id="Vector_4" d="M83.2954 15.6603C83.0102 15.6603 82.8626 15.6603 82.7142 15.6603C79.8731 15.6627 77.0329 15.6644 74.1918 15.6685C73.8348 15.6685 73.4754 15.6627 73.1233 15.7078C73.0178 15.7209 72.8471 15.9018 72.8529 15.9976C72.9263 17.2461 73.0351 18.4905 73.505 19.6727C74.3971 21.9175 76.5143 23.2438 79.0182 23.1423C80.1237 23.0973 81.1617 22.8713 82.0802 22.2278C82.1577 22.173 82.2442 22.1034 82.3316 22.0952C82.4743 22.0821 82.7043 22.0666 82.7463 22.1386C82.8172 22.2598 82.8403 22.5152 82.7604 22.5987C82.3201 23.0621 81.8807 23.541 81.3711 23.9225C77.1763 27.0581 69.6961 25.7818 68.1618 19.0857C67.6621 16.9072 67.785 14.7082 68.6391 12.5951C69.8931 9.49145 72.7391 7.597 76.2167 7.55442C79.6654 7.51185 82.048 9.37847 82.8543 12.8129C83.067 13.72 83.1445 14.6582 83.2954 15.6595V15.6603ZM78.1146 14.2489C78.0057 13.2206 77.9637 12.2685 77.7864 11.3409C77.6644 10.6998 77.4336 10.0506 77.112 9.48244C76.6182 8.60808 75.6766 8.48282 74.9165 9.15087C74.576 9.44969 74.2421 9.82711 74.0772 10.2365C73.7351 11.0871 73.4828 11.9762 73.242 12.8628C73.1142 13.3352 73.0879 13.8354 73.0071 14.3815C74.7318 14.3365 76.3568 14.2947 78.1137 14.2489H78.1146Z" fill="white"></path>
<path id="Vector_5" d="M96.5392 10.6302C96.5392 11.2565 96.5153 11.8845 96.5483 12.5091C96.5673 12.8784 96.3076 12.8882 96.0858 12.9561C95.8368 13.0323 95.8112 12.8219 95.7321 12.6647C95.3067 11.8165 94.9431 10.9258 94.422 10.139C93.7443 9.11565 92.6956 8.64572 91.459 8.67847C90.3938 8.70712 89.613 9.28594 89.2964 10.2078C88.9023 11.3564 89.1192 12.4371 90.0104 13.0896C90.6881 13.5857 91.4499 13.9762 92.2026 14.361C93.0172 14.7777 93.8631 15.1347 94.6974 15.5137C98.8584 17.4065 97.7487 22.7289 95.0495 24.3351C93.7658 25.0981 92.3889 25.4674 90.9148 25.5263C88.937 25.6049 87.0094 25.3102 85.114 24.7559C84.6861 24.6307 84.5261 24.4055 84.5245 23.9684C84.5195 22.6347 84.4915 21.3002 84.447 19.9666C84.4371 19.6645 84.5319 19.5179 84.8188 19.4508C85.1362 19.3763 85.1865 19.6137 85.269 19.8078C85.6903 20.8008 86.1536 21.7726 86.8799 22.5897C87.9806 23.8292 89.3508 24.322 90.9824 23.9217C92.0394 23.6622 92.6231 22.8729 92.8333 21.8791C93.0691 20.7648 92.6866 19.8029 91.6593 19.2355C90.7771 18.7484 89.843 18.348 88.9114 17.9575C87.8594 17.5171 86.8255 17.0799 86.0118 16.2325C85.0051 15.1846 84.6803 13.9328 84.8254 12.5501C85.0843 10.0907 86.6648 8.34117 89.3607 7.78528C90.6007 7.52984 91.9305 7.56259 93.2051 7.65428C94.1994 7.72551 95.1731 8.08901 96.1559 8.32152C96.3875 8.37637 96.4807 8.50327 96.4733 8.75379C96.4543 9.37927 96.4675 10.0047 96.4675 10.631C96.4914 10.631 96.5153 10.631 96.5384 10.631L96.5392 10.6302Z" fill="white"></path>
<path id="Vector_6" d="M45.3297 25.0407H35.1493C35.0422 24.3555 35.038 24.3317 35.6753 24.2228C36.7826 24.0329 37.2995 23.6514 37.4083 22.2179C37.6664 18.8195 37.6408 15.4162 37.4834 12.0137C37.4718 11.7566 37.4273 11.4987 37.3729 11.2474C37.1445 10.1856 36.8032 9.86954 35.7149 9.68615C35.6069 9.66814 35.4816 9.6706 35.3967 9.61411C35.2813 9.53715 35.1205 9.41189 35.123 9.31038C35.1254 9.19821 35.2722 9.01728 35.386 8.98945C36.1304 8.81097 36.8832 8.66197 37.6342 8.5097C39.1504 8.2035 40.6674 7.90141 42.1844 7.59931C42.2504 7.58621 42.3204 7.5903 42.4251 7.58375V11.2736L42.5117 11.3063C42.6502 11.0828 42.7953 10.8634 42.9256 10.635C43.4516 9.71153 44.0963 8.88547 44.9917 8.28783C46.202 7.4806 47.5021 7.25628 48.9045 7.74504C49.2393 7.86129 49.3522 7.99228 49.2038 8.36397C48.6654 9.71235 48.165 11.0755 47.6332 12.4771C47.3859 12.3674 47.1814 12.2691 46.9712 12.1848C45.6405 11.651 44.3074 11.466 42.9569 12.1332C42.5249 12.3461 42.3138 12.6195 42.3246 13.1435C42.3814 15.9066 42.3872 18.6705 42.4309 21.4344C42.4383 21.9068 42.5142 22.3841 42.6098 22.8483C42.7615 23.5859 43.2001 24.0607 43.9867 24.1582C44.2455 24.1901 44.5036 24.2278 44.7633 24.2474C45.4418 24.2973 45.4426 24.2941 45.3305 25.0407H45.3297Z" fill="white"></path>
</g>
</svg>
