<svg width="77" height="27" viewBox="0 0 77 27" fill="none" xmlns="http://www.w3.org/2000/svg">
<g id="Group 1243">
<path id="Vector" d="M19.2295 25.9866V20.4542H21.7142V12.1521H19.2373V6.61719H30.2276V10.3158L30.3515 10.3867C30.4153 10.2893 30.4707 10.1849 30.5444 10.0953C32.3682 7.8754 34.7545 6.83892 37.6225 6.79445C39.254 6.76931 40.8548 6.90467 42.3651 7.57309C44.4033 8.4742 45.4841 10.0566 45.7122 12.2269C45.7559 12.6414 45.7656 13.061 45.7663 13.478C45.7715 15.6644 45.7689 17.8508 45.7689 20.0372V20.4317H47.9571C47.8893 20.2473 47.8221 20.0843 47.7687 19.9167C46.7929 16.8305 46.9943 13.8809 48.908 11.1737C50.0487 9.56031 51.647 8.4871 53.4936 7.81094C57.0251 6.51792 60.6251 6.28136 64.2486 7.40163C66.3957 8.06554 68.1152 9.31988 69.2096 11.3116C69.7968 12.3803 70.1078 13.5315 70.2407 14.7904C67.7332 15.063 65.2393 15.3344 62.7285 15.6071C62.6581 15.0663 62.6034 14.5474 62.5187 14.0337C62.4717 13.75 62.3955 13.4671 62.2977 13.1963C61.7854 11.7847 60.6251 11.1556 59.0034 11.3967C57.5818 11.6081 56.737 12.3365 56.4183 13.7855C56.0129 15.627 55.9966 17.4982 56.402 19.3372C56.9248 21.7092 59.7224 22.6774 61.7143 21.2245C62.3537 20.7585 62.6842 20.1152 62.7852 19.3475C62.8061 19.1896 62.8191 19.0304 62.8367 18.8634H70.3235C70.3294 19.5931 70.1201 20.2557 69.8809 20.908C68.8869 23.612 66.8747 25.2286 64.1208 25.9151C60.1851 26.8968 56.3049 26.7105 52.5804 24.9972C50.6464 24.1077 49.1368 22.7425 48.1552 20.8461C48.1415 20.8191 48.1193 20.7959 48.0392 20.6844C48.0392 20.8758 48.0392 20.9834 48.0392 21.0917C48.0392 22.6245 48.0333 24.1573 48.045 25.6895C48.047 25.948 47.9662 26.013 47.7133 26.013C43.3715 26.006 39.0298 26.0085 34.688 26.0072C34.5928 26.0072 34.4983 25.995 34.3908 25.9873V20.4607H36.9824C36.9824 20.3015 36.9824 20.1868 36.9824 20.072C36.9824 18.3575 36.9511 16.6416 36.9902 14.9277C37.0398 12.7471 35.5028 12.098 33.9541 12.1786C31.8578 12.2881 30.5268 13.7178 30.5229 15.7895C30.5203 17.2256 30.5229 18.6617 30.5229 20.0978C30.5229 20.2022 30.5229 20.3073 30.5229 20.4491H33.1608V25.9853H19.2301L19.2295 25.9866Z" fill="white"></path>
<path id="Vector_2" d="M18.2717 6.6117H14.9566V20.4462H18.2723V25.9876H0.453613V20.4533H3.76354V6.61299H0.455569V0.663574H18.2723V6.6117H18.2717Z" fill="white"></path>
<path id="Vector_3" d="M76.0753 22.9512C76.0675 24.6929 74.6374 26.0968 72.8808 26.0871C71.1267 26.0774 69.6966 24.6523 69.7051 22.9235C69.7136 21.189 71.1469 19.7883 72.9088 19.7935C74.6713 19.7986 76.0832 21.2064 76.0753 22.9512Z" fill="white"></path>
</g>
</svg>
