<svg width="24" height="24" viewBox="0 0 24 24" fill="none" xmlns="http://www.w3.org/2000/svg">
<circle opacity="0.6" cx="12" cy="12" r="11.25" stroke="black" stroke-width="1.5"></circle>
<g clip-path="url(#clip0_1426_22088)">
<path d="M17.2176 6.09501C14.9934 6.84688 12.3432 10.6724 9.80282 14.6012C8.72469 12.615 7.58253 11.9518 6.40155 12.6313C6.25578 12.7151 6.15975 12.8757 6.14774 13.0563C6.13573 13.2388 6.21062 13.4151 6.3461 13.5232C7.20243 14.2069 8.09079 15.4189 9.14722 17.3376V17.337C9.33587 17.6851 9.67885 17.8976 10.0481 17.8951H10.0653C10.446 17.8914 10.7947 17.6639 10.9793 17.3001C12.0072 15.2627 13.1361 13.2889 14.3612 11.387C15.365 9.82697 16.4843 8.35881 17.7075 6.99817C17.8722 6.82192 17.9025 6.54443 17.7807 6.33067C17.667 6.11755 17.4326 6.01939 17.2176 6.09501Z" fill="#666666"></path>
</g>
<defs>
<clipPath id="clip0_1426_22088">
<rect width="12" height="12" fill="white" transform="translate(6 6)"></rect>
</clipPath>
</defs>
</svg>
