<svg width="65" height="64" viewBox="0 0 65 64" fill="none" xmlns="http://www.w3.org/2000/svg">
<g id="img_fd_ic_2" clip-path="url(#clip0_2068_4739)">
<path id="Vector" d="M20.9678 48.5063C21.3899 45.9757 21.7803 43.6381 22.172 41.299C22.3921 39.9901 22.5993 38.6772 22.8448 37.3734C22.949 36.8217 22.8091 36.4423 22.3996 36.045C19.9135 33.6301 17.4439 31.1961 15.0061 28.7298C14.6945 28.4148 14.3358 27.7602 14.4643 27.4812C14.6347 27.1083 15.2362 26.7959 15.6941 26.7238C19.1874 26.1748 22.6947 25.7093 26.188 25.1589C26.5199 25.1062 26.9015 24.6999 27.0693 24.3604C28.6005 21.2795 30.073 18.1703 31.6105 15.0933C31.8267 14.6612 32.3456 14.035 32.6457 14.0761C33.0793 14.1366 33.5841 14.6509 33.8106 15.0997C35.357 18.1728 36.8473 21.2744 38.3301 24.3797C38.587 24.9185 38.8947 25.1448 39.5154 25.2258C42.9884 25.681 46.4537 26.1954 49.9127 26.7444C50.2713 26.801 50.7991 27.1739 50.8461 27.4671C50.9071 27.84 50.6592 28.3852 50.3705 28.677C47.9326 31.1421 45.4618 33.5749 42.9794 35.9948C42.5344 36.4295 42.3715 36.8127 42.4936 37.4774C43.1155 40.867 43.6827 44.2668 44.2003 47.6743C44.2689 48.1257 44.0846 48.8008 43.7679 49.0682C43.5161 49.2804 42.8142 49.1582 42.4275 48.9576C39.6133 47.5034 36.8003 46.0413 34.0497 44.4713C33.0373 43.8939 32.2667 43.8541 31.2367 44.4455C28.5445 45.9912 25.776 47.4005 23.0368 48.8612C22.7608 49.0091 22.4849 49.1788 22.1873 49.2598C21.5629 49.4321 20.9563 48.9345 20.9703 48.5037L20.9678 48.5063ZM18.02 28.3672C20.0356 30.5608 22.1275 32.8767 24.2691 35.1423C24.7777 35.6811 24.9901 36.2058 24.8629 36.9233C24.5616 38.6361 24.2741 40.3514 23.9969 42.068C23.7693 43.4812 23.5646 44.8981 23.3255 46.4721C23.8151 46.229 24.1241 46.085 24.4242 45.9243C26.7768 44.6693 29.1511 43.4528 31.4694 42.1348C32.3405 41.6398 33.0195 41.6616 33.8843 42.1451C36.5345 43.629 39.2343 45.0255 42.0269 46.5145C41.4763 43.3062 40.9638 40.2228 40.4094 37.147C40.2618 36.3305 40.3738 35.7017 41.0134 35.1038C42.8548 33.382 44.6466 31.6075 46.4511 29.8472C46.8924 29.4164 47.307 28.9587 47.8119 28.4328C44.5754 27.9647 41.4546 27.4979 38.3275 27.0723C37.6446 26.9797 37.2034 26.7328 36.9033 26.059C36.1822 24.4453 35.3773 22.8714 34.6053 21.2808C33.9924 20.0207 33.3782 18.7605 32.7054 17.3808C31.2494 20.3215 29.848 23.1119 28.4898 25.9241C28.1325 26.6647 27.6251 26.981 26.8277 27.0877C23.7604 27.4992 20.7019 27.9724 18.0213 28.3659L18.02 28.3672Z" fill="#AB8744"></path>
<path id="Vector_2" d="M60.9493 29.1656C59.0583 28.8712 56.9663 28.4957 54.8592 28.2437C54.0605 28.1486 53.6383 27.8078 53.3089 27.1122C52.4061 25.2065 51.4498 23.3266 50.4413 21.2872C50.0356 22.123 49.6898 22.8071 49.3693 23.5028C49.087 24.1149 48.6317 24.4118 48.0112 24.1276C47.3677 23.8319 47.3536 23.2622 47.6334 22.6747C48.2298 21.4209 48.8034 20.1531 49.4583 18.9316C49.6388 18.5934 50.0903 18.1626 50.3841 18.187C50.7529 18.2179 51.2285 18.5985 51.4116 18.9572C52.5167 21.1214 53.5748 23.3111 54.5959 25.5189C54.8999 26.1748 55.2279 26.5283 56.0075 26.6209C58.3983 26.9051 60.7789 27.2857 63.1531 27.6947C63.5893 27.7705 64.2022 28.0791 64.3154 28.4224C64.4273 28.7581 64.1094 29.3791 63.8004 29.6942C62.0798 31.4507 60.3172 33.166 58.5394 34.8646C58.1045 35.2799 57.971 35.658 58.088 36.2739C58.5356 38.6348 58.9438 41.0046 59.2796 43.3834C59.3533 43.9042 59.2248 44.6667 58.8866 44.9637C58.6246 45.1939 57.826 44.9959 57.3733 44.7696C55.2699 43.7177 53.1958 42.6055 51.1319 41.4752C50.6384 41.2052 50.2607 41.1615 49.761 41.461C48.8466 42.0089 47.8738 42.455 46.9467 42.9822C46.3287 43.3346 45.8327 43.2162 45.5148 42.6273C45.2134 42.0706 45.4169 41.5575 45.9574 41.2553C47.3283 40.4928 48.7003 39.7251 50.1107 39.0436C50.3968 38.9048 50.8966 39.0436 51.2285 39.2031C53.1475 40.1212 55.0448 41.083 57.1279 42.1194C56.8875 40.5649 56.6726 39.1787 56.4577 37.7912C56.4144 37.5096 56.4081 37.2139 56.3127 36.9516C55.6692 35.1809 56.3064 33.9452 57.6785 32.7661C58.9057 31.7104 59.8848 30.3589 60.9493 29.1644V29.1656Z" fill="#AB8744"></path>
<path id="Vector_3" d="M14.7858 21.5879C13.8524 23.4653 12.9216 25.1793 12.142 26.9628C11.66 28.0648 10.9504 28.511 9.79191 28.619C7.87546 28.7978 5.97428 29.1308 4.23334 29.3764C5.22145 30.4745 6.20192 31.6537 7.27522 32.7402C9.34426 34.8349 9.35826 34.8117 8.83686 37.7152C8.57616 39.1708 8.35107 40.6341 8.08402 42.2439C8.45916 42.0897 8.70842 42.0074 8.93987 41.8891C10.6999 40.9928 12.4675 40.1107 14.2059 39.1746C14.7414 38.8866 15.1686 38.8892 15.6862 39.1875C16.8536 39.8612 18.0451 40.4926 19.2354 41.1252C19.8726 41.4635 20.2668 41.9418 19.8815 42.6478C19.5013 43.3434 18.8908 43.3177 18.2716 42.9152C18.1927 42.8638 18.1049 42.8291 18.021 42.7866C16.963 42.2465 15.9036 41.2822 14.8469 41.286C13.7875 41.2898 12.7295 42.2556 11.674 42.8059C10.34 43.5016 9.03016 44.2499 7.66436 44.8761C7.24343 45.069 6.59868 45.096 6.20446 44.898C5.95648 44.7745 5.85093 44.0686 5.9107 43.6597C6.27441 41.1909 6.67753 38.7258 7.1328 36.2725C7.24724 35.6578 7.11754 35.2785 6.68643 34.8618C4.9226 33.1517 3.17275 31.426 1.46742 29.658C1.17111 29.3506 0.882439 28.718 1.00579 28.3978C1.13678 28.0558 1.73955 27.7549 2.17066 27.6971C4.55889 27.3794 6.95603 27.1287 9.35189 26.8831C9.94452 26.8226 10.2802 26.5629 10.5384 26.0087C11.5748 23.7778 12.6405 21.5584 13.7519 19.3647C13.9542 18.9661 14.4272 18.4518 14.7718 18.4556C15.133 18.4594 15.606 18.9545 15.8235 19.3518C16.4606 20.5104 16.996 21.7281 17.5709 22.9226C17.8493 23.5 17.8837 24.0697 17.2542 24.3963C16.584 24.7434 16.1338 24.3988 15.84 23.7572C15.5285 23.0795 15.189 22.4147 14.7871 21.5918L14.7858 21.5879Z" fill="#AB8744"></path>
<path id="Vector_4" d="M29.1089 7.12619C28.5862 7.56339 28.1183 7.95558 27.6045 8.38506C26.385 6.90503 25.2073 5.47644 23.9688 3.97585C24.4558 3.55537 24.9149 3.15933 25.454 2.69385C26.6736 4.17258 27.8639 5.6166 29.1089 7.12619Z" fill="#AB8744"></path>
<path id="Vector_5" d="M37.6321 8.40703C37.0726 7.9377 36.6415 7.57508 36.1328 7.14818C37.3485 5.67072 38.5401 4.22285 39.7812 2.71582C40.3014 3.15044 40.7707 3.54134 41.2882 3.97339C40.0471 5.47785 38.8491 6.93086 37.6321 8.40703Z" fill="#AB8744"></path>
<path id="Vector_6" d="M27.5587 54.9268C28.103 55.3871 28.5506 55.7677 29.058 56.1972C27.8283 57.6901 26.638 59.1328 25.4121 60.6206C24.9047 60.1949 24.4545 59.8181 23.9141 59.3655C25.1209 57.8958 26.3022 56.4569 27.5587 54.9281V54.9268Z" fill="#AB8744"></path>
<path id="Vector_7" d="M41.2857 59.367C40.7529 59.8145 40.3014 60.1938 39.7812 60.6297C38.5605 59.1484 37.3702 57.7044 36.1328 56.2038C36.6326 55.7794 37.0802 55.4001 37.6258 54.9385C38.8414 56.4108 40.033 57.851 41.2857 59.367Z" fill="#AB8744"></path>
<path id="Vector_8" d="M31.7266 0.5H33.5184V6.16936H31.7266V0.5Z" fill="#AB8744"></path>
<path id="Vector_9" d="M31.7109 57.1104H33.5294V62.7836H31.7109V57.1104Z" fill="#AB8744"></path>
</g>
<defs>
<clipPath id="clip0_2068_4739">
<rect width="63.6618" height="62.6087" fill="white" transform="translate(0.976562 0.5)"></rect>
</clipPath>
</defs>
</svg>
