<svg width="40" height="40" viewBox="0 0 40 40" fill="none" xmlns="http://www.w3.org/2000/svg">
<path id="Vector" d="M19.61 0C14.28 0 13.61 0.02 11.52 0.12C9.42999 0.22 8.01001 0.55 6.76001 1.03C5.47001 1.53 4.38001 2.2 3.29001 3.29C2.20001 4.38 1.53 5.47 1.03 6.76C0.539999 8.01 0.209995 9.43 0.119995 11.52C0.0299951 13.61 0 14.28 0 19.61C0 24.94 0.0199951 25.6 0.119995 27.7C0.219995 29.79 0.549999 31.21 1.03 32.46C1.53 33.75 2.20001 34.84 3.29001 35.93C4.38001 37.02 5.47001 37.69 6.76001 38.19C8.01001 38.68 9.42999 39.01 11.52 39.1C13.61 39.2 14.28 39.22 19.61 39.22C24.94 39.22 25.6 39.2 27.7 39.1C29.79 39 31.21 38.67 32.46 38.19C33.75 37.69 34.84 37.02 35.93 35.93C37.02 34.84 37.69 33.75 38.19 32.46C38.67 31.21 39 29.79 39.1 27.7C39.19 25.61 39.22 24.94 39.22 19.61C39.22 14.28 39.2 13.61 39.1 11.52C39 9.43 38.67 8.01 38.19 6.76C37.69 5.47 37.02 4.38 35.93 3.29C34.84 2.2 33.75 1.53 32.46 1.03C31.21 0.55 29.78 0.21 27.7 0.12C25.61 0.02 24.94 0 19.61 0ZM17.85 3.53C18.37 3.53 18.95 3.53 19.61 3.53C24.85 3.53 25.47 3.55 27.54 3.64C29.45 3.73 30.49 4.05 31.18 4.32C32.1 4.68 32.75 5.1 33.43 5.79C34.12 6.48 34.54 7.13 34.9 8.05C35.17 8.74 35.49 9.78 35.58 11.69C35.67 13.76 35.69 14.38 35.69 19.61C35.69 24.84 35.67 25.47 35.58 27.53C35.49 29.44 35.17 30.48 34.9 31.17C34.54 32.09 34.12 32.74 33.43 33.42C32.74 34.11 32.09 34.53 31.18 34.89C30.49 35.16 29.45 35.48 27.54 35.57C25.47 35.66 24.85 35.68 19.61 35.68C14.37 35.68 13.75 35.66 11.68 35.57C9.76999 35.48 8.73001 35.16 8.04001 34.89C7.12001 34.53 6.47 34.11 5.78 33.42C5.09 32.73 4.67 32.08 4.31 31.17C4.04 30.48 3.72 29.44 3.63 27.53C3.54 25.46 3.51999 24.84 3.51999 19.6C3.51999 14.36 3.54 13.74 3.63 11.68C3.72 9.77 4.04 8.73 4.31 8.04C4.67 7.12 5.09 6.47 5.78 5.78C6.47 5.09 7.12001 4.67 8.04001 4.31C8.73001 4.04 9.76999 3.72 11.68 3.63C13.49 3.55 14.19 3.52 17.85 3.52V3.53ZM30.08 6.79C28.78 6.79 27.73 7.84 27.73 9.14C27.73 10.44 28.78 11.49 30.08 11.49C31.38 11.49 32.43 10.44 32.43 9.14C32.43 7.84 31.38 6.79 30.08 6.79ZM19.61 9.54C14.05 9.54 9.54001 14.05 9.54001 19.61C9.54001 25.17 14.05 29.68 19.61 29.68C25.17 29.68 29.68 25.17 29.68 19.61C29.68 14.05 25.17 9.54 19.61 9.54ZM19.61 13.07C23.22 13.07 26.15 16 26.15 19.61C26.15 23.22 23.22 26.15 19.61 26.15C16 26.15 13.07 23.22 13.07 19.61C13.07 16 16 13.07 19.61 13.07Z" fill="#AB8744"></path>
</svg>
