<svg width="52" height="62" viewBox="0 0 52 62" fill="none" xmlns="http://www.w3.org/2000/svg">
<g id="Invoice">
<path id="Vector" d="M34.5139 0.5C34.854 0.824914 35.2013 1.1439 35.5345 1.47593C38.652 4.58989 41.766 7.70741 44.8812 10.8237C44.9927 10.9352 45.1598 11.0289 45.2049 11.1641C45.3163 11.4937 45.5202 11.9052 45.4087 12.1673C45.2985 12.4293 44.854 12.7068 44.5528 12.7104C41.3927 12.7471 38.2312 12.7471 35.0697 12.7211C33.952 12.7115 33.2798 11.9076 33.2751 10.6578C33.2656 8.16751 33.2715 5.67729 33.2715 3.18825C33.2715 2.91433 33.2715 2.6404 33.2715 2.3226H1.83142V59.3925H43.7409C43.7409 59.1636 43.7409 58.9348 43.7409 58.7048C43.7409 55.8398 43.7456 52.9737 43.7373 50.1087C43.7362 49.5881 43.8488 49.1541 44.4142 49.0119C45.0247 48.8589 45.519 49.2799 45.526 49.9712C45.5391 51.4333 45.5309 52.8954 45.5309 54.3587C45.5309 55.8018 45.4751 57.2462 45.5486 58.6858C45.6067 59.8301 45.2641 60.6792 44.2352 61.2152H1.31934C0.312947 60.697 -0.00118203 59.8811 3.36499e-06 58.7534C0.0272674 40.1573 0.0272674 21.5602 3.36499e-06 2.96413C-0.00118203 1.83642 0.310576 1.0182 1.31934 0.501186C12.3838 0.501186 23.4494 0.501186 34.5139 0.501186V0.5ZM42.1382 10.9139C39.8042 8.58016 37.4311 6.20735 35.1243 3.90093V10.9139H42.1382Z" fill="#AB8744"></path>
<path id="Vector_2" d="M28.4413 46.972C21.9027 46.972 15.3641 46.972 8.82549 46.972C6.84944 46.972 5.71146 45.8276 5.71146 43.8402C5.71146 39.6115 5.71028 35.383 5.71146 31.1543C5.71146 29.2119 6.86129 28.0427 8.79349 28.0427C21.9098 28.0391 35.0274 28.0391 48.1437 28.0427C50.0818 28.0427 51.2221 29.2037 51.2221 31.1519C51.2221 35.4007 51.2234 39.6484 51.2221 43.8971C51.2221 45.8348 50.0724 46.972 48.1164 46.972C41.5577 46.972 35.0001 46.972 28.4413 46.972ZM28.5065 29.8689C21.9857 29.8689 15.466 29.8689 8.94521 29.8689C7.79301 29.8689 7.50023 30.1571 7.50023 31.2943C7.49904 35.4244 7.50023 39.5558 7.50023 43.6861C7.50023 44.8718 7.65549 46.9708 8.82549 46.972C21.8268 46.972 34.8282 46.972 47.8284 46.972C48.9996 46.972 49.4417 44.8659 49.4417 43.6991C49.4417 39.5879 49.4417 35.4778 49.4417 31.3666C49.4417 30.1452 49.1679 29.8701 47.9493 29.8701C41.4688 29.8701 34.9882 29.8701 28.5065 29.8701V29.8689Z" fill="#AB8744"></path>
<path id="Vector_3" d="M43.7449 20.4146C43.7449 18.8957 43.7413 17.3766 43.7461 15.8564C43.7485 15.1662 44.0816 14.7547 44.6173 14.7453C45.178 14.7357 45.5324 15.1662 45.5324 15.8825C45.5348 18.9016 45.536 21.9206 45.5324 24.9385C45.5324 25.6192 45.1898 26.0354 44.6481 26.0449C44.0898 26.0556 43.7497 25.6643 43.7461 24.9717C43.739 23.4527 43.7437 21.9337 43.7437 20.4134L43.7449 20.4146Z" fill="#AB8744"></path>
<path id="Vector_4" d="M10.5 48.2491H11.8584V42.5655H10.5V48.2491ZM17.0339 42.5655V45.6259L15.3583 42.5655H14.1301V48.2491H15.4885V45.1474L17.2048 48.2491H18.3923V42.5655H17.0339ZM21.839 48.2491H23.0347L24.751 42.5655H23.3194L22.4409 46.0301L21.5462 42.5655H20.1309L21.839 48.2491ZM26.0457 45.4114C26.0457 47.0117 27.3146 48.3233 28.9007 48.3233C30.495 48.3233 31.7639 47.0117 31.7639 45.4114C31.7639 43.8028 30.495 42.4912 28.9007 42.4912C27.3146 42.4912 26.0457 43.8028 26.0457 45.4114ZM27.4203 45.4114C27.4203 44.5617 28.0711 43.8771 28.9007 43.8771C29.7223 43.8771 30.3974 44.5617 30.3974 45.4114C30.3974 46.261 29.7223 46.9375 28.9007 46.9375C28.0711 46.9375 27.4203 46.261 27.4203 45.4114ZM33.7184 48.2491H35.0768V42.5655H33.7184V48.2491ZM41.1553 46.228C40.8869 46.657 40.4314 46.9375 39.8864 46.9375C39.0567 46.9375 38.406 46.261 38.406 45.4114C38.406 44.5617 39.0567 43.8771 39.8864 43.8771C40.4151 43.8771 40.8869 44.1658 41.1472 44.5947L41.7491 44.1658C42.0419 43.9595 42.3348 43.7698 42.2778 43.7946C41.7572 43.0027 40.895 42.4912 39.8864 42.4912C38.3003 42.4912 37.0314 43.8028 37.0314 45.4114C37.0314 47.0117 38.3003 48.3233 39.8864 48.3233C40.895 48.3233 41.7491 47.8119 42.2697 47.02L41.1553 46.228ZM47.8254 48.2491V47.0447H45.4747V46.0383H47.4756V44.8587H45.4747V43.7698H47.7522V42.5655H44.1163V48.2491H47.8254Z" fill="#AB8744"></path>
</g>
</svg>
