<svg width="59" height="68" viewBox="0 0 59 68" fill="none" xmlns="http://www.w3.org/2000/svg">
<g clip-path="url(#clip0_2068_4754)">
<path d="M0.00210118 67.0616C0.00210118 66.3926 -0.00701854 65.7809 0.0127409 65.1693C0.0157808 65.0834 0.152577 64.9704 0.252894 64.9267C0.348651 64.8845 0.476327 64.9146 0.590324 64.9146C3.81719 64.9146 7.04405 64.9146 10.2709 64.9146C10.6458 64.9146 10.8338 64.7283 10.8348 64.3557C10.8348 44.2878 10.8348 24.22 10.8318 4.15211C10.8318 3.25267 10.9519 2.41049 11.5431 1.67979C12.3624 0.665847 13.8291 0.240987 15.1408 0.662834C16.3659 1.05756 17.2521 2.18902 17.3174 3.46812C17.3524 4.15061 17.2414 4.02254 17.9345 4.25757C21.0656 5.3152 24.2879 5.50504 27.5604 5.23385C30.0729 5.02443 32.5382 4.54081 35.0066 4.05418C37.7942 3.50428 40.5834 2.94683 43.3892 2.50239C45.9777 2.09259 48.5935 1.94344 51.2185 2.19806C53.4711 2.41651 55.6492 2.92876 57.7452 3.783C58.496 4.08883 58.5006 4.07829 58.5006 4.90541V32.1371C58.3364 32.0844 58.2224 32.0573 58.116 32.0106C56.6569 31.3778 55.1749 30.8174 53.6078 30.4904C51.4115 30.0324 49.1969 29.9209 46.9656 30.0716C44.02 30.2705 41.1321 30.8415 38.2426 31.4095C35.5782 31.9322 32.9061 32.4249 30.2234 32.8362C27.6197 33.2355 24.9932 33.4042 22.3561 33.1315C20.7556 32.9658 19.1854 32.6494 17.6503 32.1703C17.5682 32.1447 17.4831 32.1341 17.3539 32.107C17.3463 32.2667 17.3341 32.3993 17.3341 32.5319C17.3341 43.1684 17.3341 53.8035 17.325 64.4401C17.325 64.8288 17.4405 64.9252 17.819 64.9237C21.096 64.9101 24.3746 64.9162 27.6516 64.9162C28.1821 64.9162 28.1836 64.9162 28.1836 65.4299C28.1836 65.8563 28.1669 66.2841 28.1897 66.709C28.2049 66.9998 28.0878 67.0962 27.8157 67.0631C27.7413 67.054 27.6638 67.0631 27.5878 67.0631C18.5911 67.0631 9.59301 67.0631 0.596403 67.0631H0.00210118V67.0616ZM56.321 29.0336C56.321 28.8136 56.321 28.6569 56.321 28.5017C56.321 25.7552 56.321 23.0072 56.321 20.2606C56.321 15.4697 56.3179 10.6772 56.327 5.8862C56.327 5.5653 56.2419 5.4056 55.9121 5.2911C53.9985 4.63121 52.0301 4.27264 50.0132 4.17019C47.1404 4.02405 44.3042 4.35098 41.4908 4.89336C38.5649 5.45833 35.6526 6.10165 32.7176 6.6169C30.7675 6.9589 28.7931 7.22557 26.8187 7.3702C23.8243 7.59016 20.8544 7.34158 17.9573 6.48282C17.7704 6.42707 17.5789 6.3879 17.3281 6.32764V6.87152C17.3281 11.0478 17.3281 15.2256 17.3281 19.4019C17.3281 22.7767 17.3296 26.1499 17.3235 29.5247C17.3235 29.7959 17.3843 29.9435 17.6746 30.046C19.038 30.5251 20.4379 30.855 21.8682 31.0358C24.0751 31.316 26.3004 31.3356 28.4936 31.0102C31.453 30.5718 34.3987 30.0279 37.3337 29.4449C40.2338 28.8678 43.1232 28.2561 46.081 28.0287C49.0936 27.7981 52.0697 27.9383 55.0047 28.6931C55.4151 28.7985 55.827 28.907 56.3179 29.0351L56.321 29.0336ZM12.9992 34.1002C12.9992 44.1462 12.9992 54.1907 12.9992 64.2367C12.9992 64.3497 13.0099 64.4627 12.9977 64.5757C12.9704 64.8469 13.1026 64.9252 13.3549 64.9177C13.785 64.9056 14.2152 64.9162 14.6453 64.9146C15.1697 64.9146 15.1712 64.9131 15.1712 64.3934C15.1712 44.2773 15.1712 24.1627 15.1712 4.04665C15.1712 3.88394 15.1712 3.71972 15.1454 3.56002C15.0451 2.95738 14.6499 2.64702 14.0313 2.67113C13.4355 2.69373 13.0494 3.06435 13.0068 3.66548C12.9932 3.8523 12.9992 4.04213 12.9992 4.22895C12.9992 14.186 12.9992 24.1431 12.9992 34.1017V34.1002Z" fill="#AB8744"></path>
</g>
<defs>
<clipPath id="clip0_2068_4754">
<rect width="58.5" height="66.569" fill="white" transform="translate(0 0.5)"></rect>
</clipPath>
</defs>
</svg>
