<svg width="53" height="54" viewBox="0 0 53 54" fill="none" xmlns="http://www.w3.org/2000/svg">
<g id="Layer_1" clip-path="url(#clip0_2068_4761)">
<g id="fdYulG">
<path id="Vector" d="M27.4405 42.4846V11.5195C26.4818 11.7106 25.5457 11.8186 24.6592 12.0887C19.1793 13.7484 15.7554 17.4458 14.1581 22.9172C14.0196 23.3929 13.8419 23.8063 13.3233 23.9288C12.5195 24.1178 11.8954 23.4241 12.1145 22.5662C12.2777 21.9347 12.4616 21.3011 12.7034 20.6967C15.0445 14.8181 19.2475 11.1082 25.4382 9.77256C26.3867 9.56692 27.3806 9.54614 28.3559 9.49214C29.1411 9.45059 29.5234 9.8598 29.5234 10.6595C29.5275 14.1513 29.5317 17.6411 29.5172 21.1329C29.5172 21.4902 29.6247 21.6896 29.9305 21.8599C31.1434 22.5392 32.344 23.2454 33.4371 23.8769C34.2182 23.4635 34.9269 23.1 35.6212 22.7095C35.7183 22.6555 35.803 22.481 35.8051 22.3605C35.8175 20.7714 35.8237 19.1803 35.7989 17.5912C35.7968 17.4209 35.6212 17.1945 35.4642 17.0927C34.0921 16.2057 32.7077 15.3416 31.3253 14.4712C30.8851 14.195 30.5814 13.8377 30.7012 13.281C30.8624 12.5332 31.6249 12.2299 32.315 12.6495C33.2986 13.2478 34.2657 13.8751 35.241 14.4879C35.4001 14.5876 35.5613 14.6831 35.772 14.8119C35.7886 14.6457 35.8134 14.5211 35.8134 14.3965C35.8154 13.1688 35.8134 11.9433 35.8154 10.7156C35.8175 9.94705 36.1977 9.49837 36.8383 9.49006C37.485 9.48383 37.8735 9.92835 37.8756 10.6907C37.8776 12.0388 37.8756 13.3869 37.8756 14.8036C38.0264 14.7288 38.1421 14.681 38.2475 14.6166C39.3117 13.9519 40.3676 13.2727 41.4421 12.6246C41.9814 12.2985 42.5724 12.4563 42.8761 12.9528C43.1799 13.4492 43.0311 14.0142 42.498 14.3881C42.4277 14.438 42.3534 14.4795 42.281 14.5252C40.9441 15.3707 39.6134 16.2244 38.2661 17.0553C37.9872 17.2277 37.8632 17.4022 37.8673 17.7491C37.888 19.3714 37.8756 20.9958 37.8756 22.4852C38.6257 22.965 39.2931 23.4012 39.9729 23.8146C40.0721 23.8748 40.2643 23.8707 40.3676 23.8146C41.7582 23.0273 43.1448 22.2317 44.5168 21.4154C44.6553 21.3323 44.7668 21.0934 44.7751 20.921C44.8598 19.2468 44.9198 17.5725 44.9879 15.8983C45.0169 15.2024 45.3971 14.789 46.0128 14.789C46.6451 14.789 47.0646 15.2357 47.046 15.9461C47.015 17.1197 46.9551 18.2933 46.9096 19.469C46.9034 19.6331 46.9096 19.7993 46.9096 20.0403C47.9283 19.4545 48.8913 18.8999 49.8542 18.3453C50.0773 18.2165 50.2964 18.0794 50.5216 17.9568C51.1415 17.6161 51.7428 17.7387 52.0466 18.2622C52.3627 18.8022 52.1871 19.3756 51.563 19.7453C50.7055 20.2542 49.8377 20.7444 48.976 21.243C48.6516 21.4299 48.3313 21.621 47.9573 21.8412C48.1329 21.9451 48.259 22.024 48.3912 22.0946C49.3769 22.6181 50.3666 23.1353 51.3523 23.6588C52.1375 24.0742 52.3834 24.6185 52.0631 25.2229C51.7614 25.7942 51.1622 25.898 50.41 25.5034C49.0256 24.7763 47.637 24.0597 46.267 23.3077C45.9157 23.1146 45.6657 23.1332 45.331 23.3327C44.0643 24.0929 42.7811 24.8283 41.4958 25.5553C41.2293 25.7069 41.1838 25.8482 41.2189 26.1639C41.2851 26.758 41.2623 27.3666 41.2148 27.9649C41.1941 28.2162 41.1838 28.3678 41.4297 28.5091C42.8038 29.2881 44.1655 30.094 45.5459 30.8647C45.6967 30.9478 45.9777 30.9187 46.143 30.8335C47.5957 30.0899 49.0318 29.3171 50.4823 28.5693C50.7179 28.4489 51.001 28.3471 51.2572 28.3595C51.7593 28.3845 52.0796 28.7064 52.1706 29.1987C52.2573 29.6723 52.061 30.0525 51.6395 30.2789C50.5981 30.8418 49.5463 31.3902 48.4987 31.9448C48.3354 32.0321 48.1763 32.1255 47.9407 32.2585C49.0028 32.8733 50.005 33.4529 51.0072 34.0345C51.2304 34.1633 51.4577 34.2858 51.6726 34.4292C52.1892 34.774 52.3338 35.3141 52.059 35.8209C51.7841 36.3236 51.1849 36.5064 50.6373 36.2052C49.5711 35.6132 48.5193 34.9921 47.4634 34.3835C47.3022 34.29 47.139 34.2007 46.9014 34.0677C46.9014 34.2713 46.8972 34.4126 46.9014 34.5538C46.9489 35.7274 47.0068 36.9011 47.044 38.0747C47.0687 38.8391 46.6803 39.2982 46.0376 39.3106C45.3867 39.3231 45.0127 38.8973 44.9838 38.1245C44.9198 36.4669 44.8557 34.8093 44.7772 33.1538C44.771 33.0063 44.6904 32.7986 44.5788 32.7321C43.1034 31.8576 41.6157 31.0018 40.2395 30.2062C39.4212 30.6798 38.6856 31.1056 37.8756 31.5751C37.8756 33.1517 37.8673 34.8425 37.89 36.5355C37.8921 36.6913 38.0636 36.8948 38.2103 36.9904C39.6258 37.9044 41.0516 38.8017 42.4753 39.7012C42.8782 39.9546 43.091 40.3139 43.0063 40.7896C42.9278 41.2341 42.6426 41.5748 42.1963 41.6164C41.9008 41.6434 41.5495 41.5395 41.2871 41.3837C40.1692 40.7128 39.0741 40.0024 37.9148 39.2712C37.8962 39.4498 37.8735 39.5765 37.8735 39.7012C37.8714 40.9454 37.8735 42.1897 37.8714 43.4339C37.8694 44.161 37.485 44.6055 36.8631 44.6138C36.2184 44.6242 35.8134 44.1713 35.8092 43.4173C35.803 42.225 35.8092 41.0327 35.8092 39.8403C35.8092 39.6762 35.8092 39.5101 35.8092 39.2546C34.774 39.9089 33.8193 40.5113 32.8626 41.1116C32.6581 41.2404 32.4576 41.3733 32.2469 41.4855C31.6951 41.7825 31.1083 41.6392 30.8169 41.1407C30.5256 40.6442 30.6434 40.0896 31.1662 39.7427C31.9534 39.2192 32.7614 38.7269 33.5611 38.2222C34.2016 37.8192 34.8484 37.4245 35.4745 37.0028C35.6212 36.9031 35.7927 36.7017 35.7948 36.5459C35.8175 34.8529 35.8092 33.16 35.8092 31.5709C35.0096 31.1056 34.2739 30.6798 33.4619 30.2083C32.2882 30.8875 31.005 31.6145 29.7424 32.379C29.6061 32.462 29.5296 32.7466 29.5296 32.9398C29.5172 36.361 29.5213 39.7842 29.5193 43.2054C29.5193 44.3479 29.2073 44.6387 28.0708 44.6138C20.6071 44.458 14.0444 39.1424 12.1124 31.5688C11.943 30.9041 12.2157 30.3454 12.7695 30.1854C13.4018 30.0026 13.9308 30.3495 14.1271 31.1015C14.8834 33.995 16.3215 36.4835 18.4912 38.5338C20.8964 40.8062 23.7562 42.1087 27.0335 42.4909C27.1512 42.5054 27.2711 42.4909 27.4323 42.4909L27.4405 42.4846ZM36.83 29.4542C38.1938 29.4625 39.2518 28.4073 39.2497 27.0426C39.2476 25.6965 38.2103 24.6496 36.8734 24.6413C35.5282 24.633 34.4702 25.6654 34.4558 26.999C34.4413 28.3782 35.4724 29.4459 36.83 29.4542ZM29.573 24.0389V30.0566C30.5215 29.5082 31.4183 29.0055 32.2964 28.4696C32.4101 28.399 32.4783 28.1726 32.4845 28.0168C32.5051 27.3687 32.5072 26.7206 32.4845 26.0725C32.4804 25.9167 32.406 25.6924 32.2902 25.6218C31.4121 25.0879 30.5173 24.5831 29.573 24.0389Z" fill="#AB8744"></path>
<path id="Vector_2" d="M7.8398 22.0826C7.83153 22.7099 7.23849 23.2251 6.60826 23.0859C4.65143 22.6539 2.7008 22.2031 0.752234 21.7357C0.217051 21.6069 -0.092901 21.0378 0.0248806 20.5289C0.148861 19.9929 0.690244 19.6149 1.23163 19.7354C3.15333 20.1633 5.07296 20.5995 6.99053 21.0482C7.51745 21.1707 7.846 21.6028 7.8398 22.0826Z" fill="#AB8744"></path>
<path id="Vector_3" d="M6.79695 30.9893C7.3094 30.9913 7.7578 31.3819 7.83219 31.8908C7.90658 32.3935 7.56356 32.8982 7.00565 33.0395C6.15845 33.2534 5.30505 33.4362 4.45371 33.6315C3.38541 33.8745 2.31711 34.1238 1.24675 34.3544C0.692966 34.4728 0.159849 34.1196 0.0276028 33.5796C-0.0963778 33.0727 0.207375 32.489 0.736359 32.3623C2.70145 31.8908 4.67275 31.4483 6.64197 30.9976C6.69156 30.9872 6.74529 30.9913 6.79695 30.9893Z" fill="#AB8744"></path>
<path id="Vector_4" d="M6.63001 45.7252C5.9977 45.7169 5.66502 45.478 5.52038 45.0543C5.36127 44.591 5.48525 44.1714 5.88406 43.8536C7.06807 42.9085 8.24795 41.9613 9.4299 41.012C9.75225 40.7544 10.0663 40.4844 10.3949 40.2351C10.9239 39.8363 11.5541 39.884 11.9116 40.339C12.2794 40.8084 12.2009 41.4316 11.6864 41.8491C10.2027 43.0518 8.71288 44.2483 7.21478 45.4344C7.01021 45.5964 6.73952 45.6733 6.63001 45.7252Z" fill="#AB8744"></path>
<path id="Vector_5" d="M16.4926 0.5C16.6455 0.62671 17.0443 0.807429 17.1993 1.11278C18.0837 2.85972 18.9164 4.63367 19.7492 6.40554C20.0199 6.98093 19.8112 7.57294 19.307 7.82013C18.7573 8.08601 18.1829 7.88867 17.8915 7.28628C17.0443 5.53934 16.2013 3.79032 15.3809 2.03091C15.0317 1.28104 15.4966 0.518695 16.4926 0.502077V0.5Z" fill="#AB8744"></path>
<path id="Vector_6" d="M5.30469 9.33449C5.57331 9.0146 5.75722 8.67809 6.03824 8.48699C6.41431 8.23149 6.83172 8.3582 7.18093 8.63655C8.06946 9.3428 8.95798 10.0532 9.84238 10.7636C10.4458 11.2476 11.0512 11.7316 11.6504 12.2239C12.1918 12.6705 12.2869 13.2895 11.8984 13.7652C11.5327 14.2139 10.9024 14.2658 10.3796 13.8504C8.86913 12.6518 7.36277 11.4491 5.87707 10.2215C5.64977 10.0324 5.53612 9.70216 5.30469 9.33242V9.33449Z" fill="#AB8744"></path>
<path id="Vector_7" d="M15.2656 52.4323C15.2966 52.343 15.3462 52.1249 15.4413 51.9276C16.2389 50.2513 17.0406 48.577 17.8486 46.9048C18.1792 46.2194 18.7268 45.9909 19.3053 46.2713C19.8426 46.533 20.0162 47.1354 19.7103 47.7794C18.8921 49.5035 18.0676 51.2234 17.2349 52.9413C16.9869 53.4523 16.5261 53.6828 16.0653 53.5727C15.5818 53.4585 15.2698 53.0638 15.2677 52.4323H15.2656Z" fill="#AB8744"></path>
<path id="Vector_8" d="M13.6186 27.0325C13.6269 27.5685 13.162 28.0608 12.6247 28.0836C12.0544 28.1065 11.5709 27.6432 11.5626 27.0637C11.5543 26.4821 12.0193 26.0085 12.5937 26.0147C13.133 26.0209 13.6083 26.4925 13.6186 27.0325Z" fill="#AB8744"></path>
</g>
</g>
<defs>
<clipPath id="clip0_2068_4761">
<rect width="52.2" height="53.1" fill="white" transform="translate(0 0.5)"></rect>
</clipPath>
</defs>
</svg>
