<svg xmlns="http://www.w3.org/2000/svg" fill="none" viewBox="0 0 49 41" height="41" width="49">
<g clip-path="url(#clip0_834_3686)">
<path fill="#AB8744" d="M33.878 0.40631L35.1624 2.88814L37.8234 3.39101C38.3345 3.48698 38.6741 3.99564 38.5837 4.52731C38.5468 4.74228 38.4453 4.92655 38.3032 5.06669L36.4652 7.06481L36.8306 9.86141C36.8989 10.3969 36.5372 10.8922 36.0224 10.9632C35.8323 10.99 35.6478 10.9555 35.4872 10.8749L33.0477 9.6541L30.6081 10.8749C30.1394 11.109 29.5747 10.9056 29.3496 10.418C29.2628 10.2319 29.2388 10.0303 29.2684 9.84029L29.6301 7.06865L27.7571 5.03216C27.3991 4.64059 27.4138 4.0187 27.7903 3.64634C27.9397 3.49854 28.1243 3.41217 28.3162 3.38529L30.9348 2.892L32.2172 0.410178C32.4627 -0.06584 33.0366 -0.244331 33.4942 0.010937C33.664 0.104991 33.7932 0.247027 33.878 0.410178L33.878 0.40631ZM42.2817 8.93409L43.5642 11.4159L46.2251 11.9188C46.7363 12.0148 47.0758 12.5234 46.9854 13.0551C46.9522 13.2509 46.8636 13.4217 46.7418 13.556L44.8707 15.5945L45.2342 18.3872C45.3025 18.9227 44.9408 19.418 44.426 19.489C44.2359 19.5159 44.0514 19.4813 43.8908 19.4007L41.4513 18.1799L39.0117 19.4007C38.543 19.6349 37.9783 19.4314 37.7532 18.9439C37.6665 18.7577 37.6425 18.5561 37.672 18.3661L38.0337 15.5926L36.1625 13.5599C35.8045 13.1702 35.8174 12.5503 36.192 12.1779C36.3304 12.0397 36.5002 11.9552 36.6755 11.9226L39.3365 11.4178L40.6209 8.936C40.8663 8.45998 41.4402 8.28149 41.8978 8.53676C42.0676 8.63082 42.1968 8.77285 42.2816 8.936L42.2817 8.93409ZM9.6563 33.9425C9.6563 34.4857 9.23372 34.9253 8.71149 34.9253C8.18925 34.9253 7.76667 34.4857 7.76667 33.9425V31.6162C7.76667 31.073 8.18925 30.6334 8.71149 30.6334C9.23372 30.6334 9.6563 31.073 9.6563 31.6162V33.9425ZM32.0182 23.7947H24.9467C24.4244 23.7947 24.0019 23.3551 24.0019 22.8119C24.0019 22.2687 24.4245 21.8292 24.9467 21.8292H32.0182C32.8024 21.8292 33.3708 21.3014 33.6292 20.6891C33.7159 20.4818 33.7694 20.2687 33.7805 20.0672C33.7915 19.8906 33.7712 19.7274 33.7214 19.595C33.6347 19.3704 33.3966 19.2092 32.9722 19.2092H22.6364C22.1142 19.2092 21.6916 18.7696 21.6916 18.2264C21.6916 18.0787 21.723 17.9385 21.7784 17.8119C22.2932 16.5277 22.6844 15.2091 22.9427 13.877C23.2066 12.5181 23.3413 11.1284 23.3432 9.73682C23.3395 9.28959 23.1642 8.88267 22.8837 8.58902C22.6032 8.29727 22.212 8.11493 21.7802 8.11493C21.3484 8.11493 20.9572 8.29535 20.6785 8.58711C20.3962 8.88078 20.2227 9.28771 20.2227 9.73682C20.2227 12.2474 19.1894 14.4874 17.6725 16.4509C16.3235 18.1995 14.589 19.7236 12.8837 21.0192V33.3939C13.8193 33.5744 14.67 33.9967 15.5613 34.4362C16.6925 34.9966 17.8994 35.5955 19.3239 35.5955H29.1817C29.9512 35.5955 30.5029 35.0849 30.752 34.488C30.8369 34.2846 30.8867 34.0715 30.8978 33.8661C30.907 33.6876 30.8886 33.5206 30.8314 33.3709C30.7262 33.1329 30.4826 32.9736 30.06 32.9736H23.2007C22.6784 32.9736 22.2559 32.5341 22.2559 31.9909C22.2559 31.4477 22.6785 31.0081 23.2007 31.0081H30.0709C30.8552 30.9966 31.4199 30.4707 31.6763 29.8622C31.7631 29.6511 31.8166 29.4361 31.8295 29.2346C31.8406 29.058 31.8221 28.8968 31.7723 28.7663C31.6856 28.5455 31.4475 28.3862 31.0249 28.3862H23.9332C23.4109 28.3862 22.9884 27.9467 22.9884 27.4035C22.9884 26.8603 23.4109 26.4207 23.9332 26.4207H31.0358C31.8275 26.4092 32.3958 25.8756 32.6579 25.2595C32.7464 25.0503 32.8 24.8372 32.811 24.6357C32.8221 24.4591 32.8037 24.2979 32.7538 24.1693C32.6708 23.9524 32.4364 23.7969 32.0175 23.7969L32.0182 23.7947ZM10.1268 37.8927H4.75508C4.00215 37.8927 3.31202 37.5702 2.81008 37.0501C2.30815 36.528 2 35.812 2 35.0289V19.7693C2 18.9804 2.31002 18.2645 2.80824 17.7443C3.30649 17.2261 3.99663 16.9036 4.75323 16.9036H10.125C10.8834 16.9036 11.5717 17.2261 12.07 17.7443C12.3338 18.0188 12.5442 18.347 12.6845 18.7136C13.9651 17.6752 15.2052 16.5063 16.1998 15.2184C17.4639 13.5792 18.3275 11.7404 18.3275 9.73267C18.3275 8.74801 18.7132 7.85356 19.3388 7.19905C19.9662 6.54646 20.8279 6.1453 21.7765 6.1453C22.7286 6.1453 23.5923 6.54838 24.216 7.19714C24.8416 7.84781 25.2273 8.74417 25.2273 9.73464C25.2217 11.2568 25.0741 12.775 24.7862 14.2587C24.5888 15.2741 24.3286 16.2703 24.0057 17.2415H32.9705C34.2973 17.2415 35.1074 17.919 35.471 18.8653C35.6278 19.2742 35.6906 19.7252 35.6629 20.1821C35.6371 20.6139 35.5319 21.0573 35.3566 21.4719C35.1204 22.0343 34.7532 22.5602 34.2715 22.9691C34.3638 23.115 34.4413 23.2724 34.5059 23.4393C34.6627 23.8482 34.7236 24.3012 34.6959 24.758C34.6682 25.1918 34.5631 25.6332 34.3859 26.0478C34.146 26.6141 33.7714 27.1458 33.2824 27.5584C33.3765 27.7081 33.4559 27.8675 33.5205 28.0364C33.6773 28.449 33.74 28.902 33.7105 29.3569C33.6847 29.7888 33.5795 30.2302 33.4024 30.6468C33.1643 31.2053 32.799 31.7293 32.321 32.1362C32.4132 32.2802 32.4926 32.4337 32.559 32.5969L32.583 32.6545C32.7399 33.0633 32.8026 33.5163 32.7786 33.9712C32.7546 34.3992 32.6513 34.8426 32.4778 35.2611C31.9593 36.501 30.8041 37.5605 29.1783 37.5605H19.3206C17.4716 37.5605 16.0636 36.8619 14.746 36.2093C14.0965 35.8868 13.4709 35.5778 12.8564 35.405C12.7752 36.0423 12.491 36.6143 12.0703 37.0538C11.5683 37.574 10.88 37.8945 10.1271 37.8945L10.1268 37.8927ZM4.75508 35.9272H10.1268C10.3667 35.9272 10.5826 35.8274 10.7358 35.6661C10.8926 35.503 10.9905 35.2784 10.9905 35.0289V19.7673C10.9905 19.5197 10.8926 19.2951 10.7358 19.132C10.5789 18.9688 10.363 18.8671 10.1268 18.8671H4.75508C4.51703 18.8671 4.30112 18.9688 4.1461 19.132C3.98924 19.2951 3.89144 19.5197 3.89144 19.7673V35.0269C3.89144 35.2764 3.9874 35.501 4.14241 35.6603C4.29926 35.8254 4.51701 35.9252 4.75507 35.9252L4.75508 35.9272Z"></path>
</g>
<defs>
<clipPath id="clip0_834_3686">
<rect fill="white" height="41" width="49"></rect>
</clipPath>
</defs>
</svg>
