<svg width="34" height="33" viewBox="0 0 34 33" fill="none" xmlns="http://www.w3.org/2000/svg">
<path id="Vector" fill-rule="evenodd" clip-rule="evenodd" d="M11.25 10.39H17.96V13.85H18.06C19 12.17 21.28 10.39 24.69 10.39C31.78 10.39 33.09 14.8 33.09 20.54V32.67H26.09V21.89C26.09 19.42 26.04 16.24 22.45 16.24C18.86 16.24 18.25 18.93 18.25 21.71V32.69H11.25V10.39ZM7.27997 3.64C7.27997 5.65 5.64995 7.28 3.63995 7.28C1.62995 7.28 0 5.65 0 3.64C0 1.63 1.62995 0 3.63995 0C5.64995 0 7.27997 1.63 7.27997 3.64ZM0.00994873 10.39H7.27997V32.67H0.00994873V10.39Z" fill="#AB8744"></path>
</svg>
