<svg width="57" height="55" viewBox="0 0 57 55" fill="none" xmlns="http://www.w3.org/2000/svg">
<g id="LstJTR">
<g id="Group">
<path id="Vector" d="M56.271 14.2944C56.1963 14.1967 56.1413 14.0512 56.0413 14.0098C55.7401 13.8845 55.3763 13.6615 55.1213 13.738C54.8378 13.824 54.6037 14.1723 54.4311 14.4547C54.3333 14.614 54.3981 14.8699 54.3981 15.0812C54.3981 26.531 54.3981 37.9808 54.3981 49.4306C54.3981 51.5681 53.3056 52.6235 51.0931 52.6235C43.9863 52.6235 36.8784 52.6235 29.7716 52.6235H29.0836C29.0836 51.9492 29.0649 51.3037 29.1012 50.6612C29.1077 50.5497 29.3254 50.4075 29.4748 50.3522C31.7841 49.4985 34.1647 48.9899 36.6509 49.0069C41.5034 49.0398 46.2922 49.5707 51.0052 50.6995C52.0647 50.9532 52.5263 50.6018 52.5263 49.5389C52.5274 36.4783 52.5263 23.4187 52.5263 10.3581C52.5263 9.51929 52.3296 9.28993 51.4624 9.07544C46.5934 7.86919 41.6331 7.34995 36.619 7.32447C33.6965 7.3096 30.8861 7.92122 28.1812 9.00748C27.4426 9.30373 27.1799 9.74758 27.181 10.5057C27.1975 21.637 27.1931 32.7682 27.1931 43.8995C27.1931 44.1278 27.1931 44.355 27.1931 44.6873C26.9337 44.5546 26.748 44.4633 26.5655 44.3656C21.758 41.7991 16.856 39.4259 11.6738 37.6336C11.3803 37.5316 11.2385 37.4063 11.2385 37.0718C11.2484 25.604 11.2462 14.1372 11.2473 2.66937C11.2473 2.5823 11.2616 2.49629 11.2759 2.33808C11.488 2.41347 11.6705 2.46975 11.8474 2.54089C16.1449 4.27169 20.2512 6.36669 24.2519 8.6592C24.4717 8.78556 24.6894 8.91935 24.9235 9.01704C25.4016 9.21666 25.8797 9.07013 26.1193 8.673C26.3633 8.26844 26.2831 7.78849 25.8489 7.49967C25.3224 7.14927 24.763 6.84452 24.209 6.53552C19.9456 4.15064 15.5767 1.97175 10.9747 0.253693C10.8615 0.211219 10.7648 0.13052 10.6604 0.0678711C10.4406 0.0678711 10.2207 0.0678711 10.0009 0.0678711C9.50084 0.371557 9.36235 0.814343 9.36235 1.37075C9.37224 13.4937 9.37004 25.6157 9.37004 37.7387C9.37004 38.5935 9.51073 38.8143 10.3098 39.0851C16.2537 41.1015 21.8394 43.8474 27.2964 46.8556C27.5316 46.9852 27.7844 47.1147 28.046 47.1667C28.4835 47.2527 28.9275 46.9406 29.0209 46.4988C29.0759 46.2419 29.0748 45.9722 29.0748 45.7078C29.077 34.2399 29.0814 22.7721 29.0627 11.3042C29.0627 10.7712 29.2254 10.5387 29.7397 10.3634C32.2699 9.50017 34.8561 9.07756 37.5489 9.14127C41.7551 9.24002 45.9032 9.73696 50.0138 10.5843C50.5238 10.6894 50.6678 10.8699 50.6678 11.3764C50.6502 23.6056 50.6546 35.8337 50.6546 48.0629V48.7223C49.9874 48.5938 49.3719 48.4728 48.7553 48.3571C44.3193 47.5224 39.846 47.0659 35.3254 47.2379C33.0052 47.326 30.7707 47.8941 28.6175 48.7287C28.2537 48.8699 27.9471 48.8869 27.5745 48.7606C23.6859 47.4364 19.6884 46.9979 15.5745 47.2708C12.242 47.4917 8.95348 47.927 5.64628 48.6915C5.63529 48.4813 5.6188 48.2976 5.6188 48.115C5.6177 35.8688 5.621 23.6215 5.60671 11.3754C5.60671 10.888 5.73531 10.6639 6.25628 10.6523C6.50468 10.647 6.76297 10.5663 6.99598 10.4728C7.44112 10.2955 7.64775 9.94296 7.54993 9.4938C7.45431 9.05526 7.13886 8.7314 6.65855 8.78874C5.88148 8.88218 5.09893 9.01173 4.35483 9.23684C4.09984 9.31435 3.92179 9.70723 3.76791 9.9865C3.69098 10.1256 3.74373 10.3337 3.74373 10.51C3.74373 23.4824 3.74373 36.4539 3.74373 49.4263C3.74373 49.5506 3.73714 49.6748 3.74703 49.798C3.80198 50.5519 4.28339 50.9033 5.04947 50.7366C6.42225 50.4372 7.78403 50.0815 9.16671 49.833C12.6696 49.2023 16.2087 48.9113 19.7698 49.0409C22.2164 49.1301 24.5805 49.7045 26.8953 50.4552C27.0227 50.4967 27.1733 50.6899 27.1799 50.8195C27.2107 51.3992 27.1931 51.9811 27.1931 52.6267H26.5567C19.3939 52.6267 12.2321 52.6267 5.06925 52.6267C3.00733 52.6267 1.87196 51.5309 1.87196 49.5421C1.87196 38.0742 1.87196 26.6064 1.87196 15.1385C1.87196 14.9793 1.87196 14.82 1.87086 14.6607C1.86646 14.1818 1.64884 13.8388 1.16084 13.7082C0.713501 13.5882 0.380474 13.7794 0.12878 14.1319C0.0881157 14.1892 0.0430489 14.2434 0.000183105 14.2986V50.3968C0.317825 51.1359 0.537647 51.9354 0.976189 52.6012C1.7005 53.7002 2.88423 54.1876 4.17678 54.4318H52.0944C52.9286 54.2386 53.7387 54.0071 54.4366 53.4804C55.4862 52.6872 56.0171 51.6233 56.271 50.3968C56.271 38.363 56.271 26.3282 56.271 14.2944Z" fill="#AB8744"></path>
<path id="Vector_2" d="M38.8799 32.6113C37.5038 32.7483 35.7617 32.9214 34.0185 33.0987C33.8746 33.1136 33.7306 33.1518 33.591 33.1922C33.0381 33.3504 32.7524 33.774 32.8601 34.2689C32.9634 34.7435 33.4327 35.0206 33.9955 34.9516C35.0825 34.8189 36.1673 34.6426 37.2587 34.5725C39.9438 34.4005 42.5905 34.7116 45.2118 35.2638C45.3723 35.2978 45.5328 35.3349 45.6943 35.3636C46.2604 35.4645 46.7187 35.2054 46.8407 34.7201C46.966 34.2179 46.7121 33.7624 46.1505 33.6275C45.2997 33.4236 44.4413 33.2261 43.5742 33.1115C42.1442 32.9224 40.7033 32.8014 38.8777 32.6113H38.8799Z" fill="#AB8744"></path>
<path id="Vector_3" d="M33.8419 40.3529C34.8949 40.2351 35.9434 40.0705 36.9996 40.0068C39.8694 39.8337 42.6996 40.1416 45.4968 40.7586C45.5682 40.7745 45.6375 40.801 45.7089 40.8127C46.2673 40.904 46.7322 40.629 46.8454 40.1427C46.9619 39.6436 46.6992 39.1807 46.1398 39.0532C42.0368 38.1241 37.9086 37.7801 33.7364 38.5966C33.6474 38.6136 33.5572 38.6328 33.4726 38.6635C32.9967 38.8409 32.7571 39.2603 32.8648 39.719C32.9626 40.1353 33.3704 40.4188 33.8419 40.3529Z" fill="#AB8744"></path>
<path id="Vector_4" d="M33.7054 18.6488C34.6231 18.5267 35.4343 18.3908 36.2509 18.3165C39.3778 18.0319 42.4597 18.3494 45.513 19.0131C45.7537 19.0651 46.034 19.0863 46.2637 19.0184C46.6968 18.8899 46.9034 18.548 46.8682 18.1137C46.8287 17.6199 46.489 17.3598 46.0153 17.2759C44.6491 17.0338 43.2884 16.7428 41.9113 16.5889C39.2108 16.2873 36.507 16.2788 33.8285 16.832C33.7043 16.8575 33.5779 16.8841 33.4603 16.9276C32.98 17.106 32.7898 17.4575 32.8612 17.9353C32.9261 18.3664 33.3174 18.6478 33.7054 18.6478V18.6488Z" fill="#AB8744"></path>
<path id="Vector_5" d="M38.7359 27.1445C37.1224 27.324 35.5089 27.5034 33.8954 27.6861C33.8053 27.6967 33.7163 27.7232 33.6294 27.7487C33.0491 27.9122 32.77 28.2924 32.8568 28.7957C32.9403 29.2799 33.3679 29.5676 33.9625 29.5029C34.9605 29.3935 35.953 29.2321 36.952 29.1503C39.7679 28.921 42.5366 29.2756 45.2843 29.8427C45.3734 29.8607 45.4613 29.8862 45.5514 29.9032C46.2549 30.0327 46.7242 29.8002 46.8451 29.265C46.9693 28.716 46.6626 28.2573 45.9735 28.1416C44.2644 27.856 42.5487 27.599 40.8308 27.3686C40.1449 27.2762 39.4448 27.2836 38.7502 27.2443C38.7447 27.2114 38.7403 27.1785 38.7348 27.1456L38.7359 27.1445Z" fill="#AB8744"></path>
<path id="Vector_6" d="M33.8513 24.0474C34.7757 23.9401 35.6978 23.8106 36.6244 23.7299C39.5876 23.4729 42.5035 23.8138 45.393 24.4317C45.5172 24.4583 45.6425 24.488 45.77 24.4997C46.3416 24.5528 46.7427 24.299 46.8482 23.8244C46.9603 23.32 46.7043 22.891 46.1316 22.7466C45.4425 22.5735 44.7424 22.4355 44.0411 22.3176C40.8482 21.7835 37.6454 21.6264 34.4328 22.1509C34.1272 22.2008 33.8184 22.2529 33.5238 22.3442C33.0193 22.5013 32.7764 22.8953 32.8577 23.3625C32.9358 23.8138 33.3205 24.0898 33.8524 24.0474H33.8513Z" fill="#AB8744"></path>
<path id="Vector_7" d="M15.1569 31.804C14.5777 31.7945 14.2644 32.0111 14.126 32.4241C13.9853 32.8446 14.1413 33.1876 14.5161 33.4318C14.6206 33.5008 14.7415 33.5486 14.858 33.5985C17.4452 34.7081 20.0336 35.8178 22.622 36.9263C22.8045 37.0049 22.9891 37.0813 23.1782 37.1461C23.6519 37.3086 24.0201 37.1376 24.2476 36.7437C24.4905 36.3221 24.3949 35.9229 24.0036 35.6075C23.9201 35.5406 23.8277 35.478 23.7288 35.4355C21.0624 34.2792 18.396 33.1239 15.7262 31.9739C15.513 31.8815 15.2767 31.8391 15.158 31.804H15.1569Z" fill="#AB8744"></path>
<path id="Vector_8" d="M14.0696 16.5664C14.2047 16.7087 14.396 17.0708 14.696 17.2035C17.4361 18.4151 20.1938 19.5906 22.9503 20.7681C23.5372 21.0187 24.0406 20.8637 24.2714 20.4018C24.5066 19.9282 24.3451 19.41 23.7856 19.1648C21.0247 17.9543 18.2582 16.7544 15.4775 15.5874C14.7587 15.2859 14.0959 15.6979 14.0706 16.5654L14.0696 16.5664Z" fill="#AB8744"></path>
<path id="Vector_9" d="M13.9986 27.386C14.2162 27.6047 14.4174 27.954 14.7207 28.0878C17.4443 29.2909 20.1844 30.4589 22.9233 31.6301C23.5113 31.8818 24.0235 31.7437 24.2587 31.3041C24.517 30.8221 24.3467 30.2795 23.7663 30.0257C21.0384 28.8322 18.3027 27.6525 15.5582 26.494C14.9185 26.2243 14.4602 26.3676 14.2118 26.8041C14.1349 26.94 14.1019 27.0982 13.9986 27.386Z" fill="#AB8744"></path>
<path id="Vector_10" d="M14.0775 11.1621C14.2192 11.3023 14.4248 11.6473 14.7292 11.7822C17.4363 12.9789 20.1599 14.1395 22.8813 15.3064C23.4968 15.5708 24.0189 15.4434 24.2618 14.9836C24.5167 14.5026 24.3409 13.9664 23.7551 13.7094C21.0095 12.5085 18.2596 11.3182 15.4953 10.1587C14.7545 9.84754 14.0632 10.2797 14.0764 11.161L14.0775 11.1621Z" fill="#AB8744"></path>
<path id="Vector_11" d="M14.0721 22.0098C14.2084 22.1521 14.4019 22.511 14.7019 22.6437C17.442 23.8542 20.1996 25.0286 22.9562 26.2041C23.5442 26.4547 24.0487 26.2965 24.274 25.8314C24.5048 25.3546 24.34 24.8439 23.7794 24.5975C21.0361 23.3945 18.2883 22.1988 15.5241 21.0382C14.7613 20.7176 14.0908 21.1189 14.071 22.0077L14.0721 22.0098Z" fill="#AB8744"></path>
</g>
</g>
</svg>
