<svg xmlns="http://www.w3.org/2000/svg" fill="none" viewBox="0 0 24 24" height="24" width="24">
<g clip-path="url(#clip0_811_4940)">
<path fill="#787878" d="M4.96737 16.2725C4.96737 15.0625 6.29434 13.8525 6.29434 13.8525C6.29434 13.8525 7.61715 15.0625 7.61715 16.2725C7.61715 16.8489 7.31574 17.3153 7.00178 17.6497C7.47481 17.5749 7.91853 17.4033 8.2869 17.0029C9.2455 15.9689 9.40876 13.7205 8.81016 12.4533C8.64271 12.6513 8.50459 12.8846 8.31202 13.0693L8.30783 13.0738C8.02318 13.3421 7.59203 13.0693 7.6255 12.6777C7.67573 12.1233 7.57946 11.5997 7.19854 11.0938C7.0269 10.8605 6.8176 10.6625 6.59156 10.491C6.56225 10.4733 6.29434 10.3282 6.29434 10.3018C6.29434 10.3061 6.38645 12.1674 5.13899 12.6997C4.26831 13.0693 3.63621 13.9097 3.46876 14.8777C3.3348 15.6653 3.43526 16.5189 4.14271 17.1569C4.54877 17.5266 5.08876 17.6982 5.63294 17.7025C5.30225 17.3638 4.96737 16.8753 4.96737 16.2725Z"></path>
<path fill="#787878" d="M11.8281 10.2403C13.485 10.2403 14.8281 8.82848 14.8281 7.08694C14.8281 5.34539 13.485 3.93359 11.8281 3.93359C10.1713 3.93359 8.82812 5.34539 8.82812 7.08694C8.82812 8.82848 10.1713 10.2403 11.8281 10.2403Z"></path>
<path fill="#787878" d="M4.29351 5.62465C4.41124 5.62465 4.52816 5.57266 4.61073 5.47146C6.42087 3.25922 9.05146 1.99035 11.8284 1.99035C14.1987 1.99035 16.479 2.92519 18.2194 4.58212L17.1914 4.60801C16.96 4.61381 16.7773 4.81533 16.7826 5.05832C16.7883 5.29766 16.9743 5.48779 17.2012 5.48779C17.2044 5.48779 17.2077 5.48779 17.211 5.48758L19.2337 5.43687C19.2718 5.43591 19.3057 5.42232 19.3405 5.41144L19.3422 5.41104C19.5181 5.35531 19.6469 5.18892 19.6425 4.98656L19.5942 2.86047C19.5885 2.62113 19.4025 2.431 19.1756 2.431C19.1724 2.431 19.1691 2.431 19.1658 2.43121C18.9345 2.43701 18.7517 2.63854 18.757 2.88152L18.7809 3.92969C16.8875 2.12731 14.4066 1.11035 11.8284 1.11035C8.807 1.11035 5.94504 2.49072 3.97629 4.89783C3.82544 5.08195 3.84547 5.35975 4.02044 5.5183C4.09974 5.58963 4.19663 5.62465 4.29351 5.62465Z"></path>
<path fill="#787878" d="M20.0558 17.8827C19.8698 17.7375 19.6081 17.7789 19.47 17.9736C17.8148 20.3156 15.2766 21.7776 12.5062 21.9852C10.1378 22.1622 7.80317 21.4 5.95642 19.8776L6.98009 19.7751C7.21024 19.7519 7.37908 19.5372 7.357 19.2953C7.33533 19.0536 7.13462 18.8746 6.90079 18.8989L4.88666 19.1007C4.65651 19.1239 4.48768 19.3385 4.50975 19.5804L4.70148 21.6975C4.72192 21.9252 4.90424 22.0958 5.11763 22.0958C5.13071 22.0958 5.1442 22.0952 5.15769 22.0939C5.38784 22.0709 5.55667 21.856 5.5346 21.6141L5.44012 20.5709C7.25922 22.0692 9.51464 22.8903 11.8325 22.8903C12.0765 22.8903 12.321 22.8813 12.5658 22.863C15.5795 22.6372 18.3409 21.0463 20.142 18.4982C20.2798 18.3032 20.2414 18.0277 20.0558 17.8827Z"></path>
<path fill="#787878" d="M17.8596 16.8755V16.5807C17.8596 14.8295 17.1857 13.2455 16.0931 12.0971C15.4442 11.4151 14.6447 10.8871 13.7531 10.5703C13.188 10.9223 12.5266 11.1203 11.8275 11.1203C11.1243 11.1203 10.4671 10.9223 9.90193 10.5703C9.60055 10.6759 9.31171 10.8079 9.03125 10.9619L9.55867 12.0619C10.1573 13.3291 10.1573 15.4323 9.40379 16.8755H17.8596Z"></path>
</g>
<defs>
<clipPath id="clip0_811_4940">
<rect transform="translate(3 1)" fill="white" height="22" width="18"></rect>
</clipPath>
</defs>
</svg>
