<svg xmlns="http://www.w3.org/2000/svg" fill="none" viewBox="0 0 48 48" height="48" width="48">
<g clip-path="url(#clip0_834_3679)">
<path fill="#AB8744" d="M11.3866 3.22834C13.43 2.80646 15.6267 3.57777 16.9328 5.37607C17.6338 6.34125 17.9747 7.45987 17.979 8.56785C16.8923 8.7937 15.729 8.69143 14.6381 8.20776C12.6075 7.3022 11.3973 5.31427 11.3866 3.22834ZM22.0377 5.93859C23.15 4.01248 22.9603 1.6943 21.7437 -0.00195312C19.841 0.858829 18.5178 2.77217 18.5178 4.99452C18.5178 6.1877 18.8992 7.2935 19.5469 8.19268C20.5569 7.73672 21.4412 6.97196 22.0377 5.93859ZM33.3603 8.20779C35.3908 7.30223 36.601 5.31432 36.6117 3.22839C34.5683 2.80652 32.3716 3.57782 31.0655 5.37612C30.3645 6.3413 30.0236 7.45992 30.0193 8.5679C31.106 8.79375 32.2694 8.69146 33.3603 8.20779ZM28.4512 8.19288C29.0989 7.29375 29.4803 6.1879 29.4803 4.99471C29.4803 2.77242 28.1571 0.85695 26.2544 -0.00175884C25.0378 1.69428 24.8482 4.01246 25.9604 5.93879C26.557 6.97215 27.4391 7.73906 28.4512 8.19288ZM40.4152 22.2045C41.4528 22.5966 42.6183 22.6797 43.771 22.3707C45.9187 21.7954 47.4251 20.0206 47.7639 17.9623C45.81 17.2251 43.5217 17.6427 41.9493 19.2152C41.1056 20.059 40.5941 21.1094 40.4152 22.2045ZM31.4834 38.6663C30.3328 38.3531 29.1673 38.4298 28.1276 38.8176C28.3001 39.9128 28.8072 40.9653 29.6468 41.8134C31.2107 43.3922 33.499 43.8205 35.4548 43.0939C35.1266 41.0336 33.6289 39.2523 31.4834 38.6663ZM43.7686 24.0007C42.6543 23.5724 41.4867 23.5341 40.415 23.8153C40.4789 24.9233 40.8773 26.0206 41.6295 26.9474C43.0293 28.6754 45.2623 29.3295 47.282 28.799C47.1606 26.7152 45.8459 24.7933 43.7706 23.9985L43.7686 24.0007ZM40.3809 30.2625C39.1941 30.3861 38.1351 30.8825 37.3084 31.6198C37.8666 32.5786 38.721 33.3755 39.812 33.8613C41.8425 34.7668 44.1287 34.3364 45.6881 32.9493C44.6334 31.1468 42.5923 30.0303 40.3827 30.2625H40.3809ZM36.1685 32.7597C35.5208 33.6588 35.1394 34.7646 35.1394 35.9578C35.1394 38.1801 36.4625 40.0956 38.3652 40.9543C39.5819 39.2583 39.7715 36.9401 38.6593 35.0137C38.0627 33.9804 37.1806 33.2135 36.1685 32.7597ZM4.22721 22.3704C5.37992 22.6793 6.54539 22.5962 7.58301 22.2042C7.40404 21.109 6.89268 20.0586 6.04892 19.2148C4.47648 17.6424 2.18814 17.2248 0.234375 17.962C0.573151 20.0223 2.07948 21.7951 4.22721 22.3704ZM11.8276 32.7597C10.8176 33.2156 9.93338 33.9805 9.33681 35.0139C8.22458 36.94 8.41423 39.2582 9.63084 40.9545C11.5336 40.0937 12.8567 38.1803 12.8567 35.958C12.8567 34.7648 12.4753 33.6588 11.8276 32.7597ZM10.6877 31.6198C9.86099 30.8825 8.80205 30.3861 7.61525 30.2625C5.40359 30.0303 3.36239 31.1468 2.30983 32.9493C3.8695 34.3364 6.15572 34.7668 8.18601 33.8613C9.27692 33.3755 10.1292 32.5764 10.6895 31.6198H10.6877ZM6.36877 26.9493C7.1209 26.0225 7.51936 24.9231 7.58328 23.8172C6.51158 23.5338 5.34392 23.5743 4.22961 24.0026C2.15432 24.7994 0.83972 26.7192 0.718248 28.803C2.73812 29.3314 4.9711 28.6773 6.37079 26.9515L6.36877 26.9493ZM16.5131 38.6657C14.3675 39.2516 12.8697 41.0328 12.5416 43.0932C14.4975 43.8219 16.7859 43.3915 18.3496 41.8127C19.1891 40.9647 19.6962 39.9121 19.8688 38.8169C18.829 38.4291 17.6637 38.3525 16.5131 38.6657ZM42.7544 10.577L42.7203 10.5429C42.2026 10.0251 41.41 9.94842 40.8027 10.3596C36.3773 13.3554 31.6833 19.9307 23.9962 19.9307C16.3091 19.9307 11.6149 13.3553 7.18963 10.3596C6.5845 9.9484 5.78977 10.0251 5.27203 10.5429L5.23794 10.577C4.65839 11.1565 4.64776 12.094 5.21237 12.6885C13.8758 21.797 21.4953 33.7206 22.7651 46.9283C22.8248 47.5398 23.3319 48.0022 23.9476 48.0022H24.0478C24.6635 48.0022 25.1707 47.5398 25.2303 46.9283C26.4981 33.7179 34.1174 21.797 42.7831 12.6885C43.3477 12.094 43.337 11.1565 42.7575 10.577H42.7544ZM19.3124 14.3142C19.3124 16.8945 21.4175 18.9974 23.9956 18.9974C26.5759 18.9974 28.6788 16.8923 28.6788 14.3142C28.6788 11.7339 26.5737 9.63097 23.9956 9.63097C21.4154 9.63097 19.3124 11.7361 19.3124 14.3142Z" clip-rule="evenodd" fill-rule="evenodd"></path>
</g>
<defs>
<clipPath id="clip0_834_3679">
<rect fill="white" height="48" width="48"></rect>
</clipPath>
</defs>
</svg>
