<svg xmlns="http://www.w3.org/2000/svg" fill="none" viewBox="0 0 24 20" height="20" width="24">
<path fill="#AB8744" d="M6.94496 9.02568H6.94903L10.0039 9.66046C10.2316 9.70929 10.4539 9.78361 10.667 9.8822C11.3736 9.52674 11.9581 8.94313 12.3378 8.2137C12.7175 7.48426 12.8734 6.6458 12.7835 5.8166C12.6936 4.98739 12.3624 4.20929 11.8366 3.59204C11.3108 2.97478 10.617 2.54954 9.85301 2.37628C9.08902 2.20302 8.29343 2.29049 7.57844 2.62636C6.86345 2.96222 6.26516 3.52953 5.86795 4.24826C5.47075 4.96699 5.29467 5.80087 5.36456 6.63228C5.43445 7.46369 5.74679 8.25066 6.25751 8.8822L6.94496 9.02568ZM7.88056 3.22133C7.96047 3.14426 8.06571 3.10419 8.17322 3.10989C8.28072 3.1156 8.38173 3.16661 8.45412 3.25176L11.8426 7.22568C11.8791 7.26737 11.9076 7.31644 11.9261 7.37002C11.9447 7.42359 11.9531 7.48059 11.9509 7.53768C11.9486 7.59477 11.9357 7.6508 11.9129 7.70249C11.8901 7.75418 11.8579 7.8005 11.8182 7.83872C11.7434 7.91091 11.6464 7.95115 11.5456 7.95176C11.4887 7.95257 11.4324 7.94016 11.3804 7.91539C11.3284 7.89061 11.2821 7.85407 11.2446 7.80829L7.85208 3.83872C7.77963 3.75263 7.74197 3.63941 7.7473 3.52375C7.75264 3.4081 7.80054 3.29939 7.88056 3.22133ZM6.35106 4.71263C6.43098 4.63557 6.53622 4.59549 6.64373 4.6012C6.75123 4.6069 6.85224 4.65792 6.92462 4.74307L10.3131 8.71698C10.3857 8.80184 10.4239 8.914 10.4193 9.02889C10.4148 9.14378 10.3678 9.25206 10.2887 9.33002C10.2134 9.40412 10.1144 9.44457 10.0121 9.44307C9.95571 9.44286 9.89996 9.43041 9.84822 9.4065C9.79648 9.38258 9.74982 9.34769 9.71106 9.30394L6.32259 5.33002C6.25024 5.24388 6.21265 5.13069 6.21798 5.01507C6.22331 4.89945 6.27114 4.79075 6.35106 4.71263ZM3.73547 9.23872C3.57981 9.20794 3.42191 9.19194 3.26361 9.19089C2.65422 9.19163 2.06691 9.43478 1.61607 9.873C1.16523 10.3112 0.883149 10.9131 0.824765 11.5614C0.766382 12.2098 0.935879 12.8581 1.30024 13.3802C1.66461 13.9023 2.19774 14.2607 2.79581 14.3857L5.45208 14.9379L6.39174 9.79437L3.73547 9.23872ZM4.24801 13.7952C4.22208 13.7945 4.19624 13.7916 4.17073 13.7865L2.95039 13.5344C2.73922 13.4907 2.53819 13.403 2.35881 13.2762C2.17944 13.1493 2.02524 12.9859 1.90507 12.7953C1.7849 12.6046 1.70111 12.3905 1.65851 12.1652C1.61592 11.9399 1.61534 11.7078 1.65683 11.4822C1.66414 11.4235 1.68261 11.3669 1.71111 11.3161C1.73961 11.2653 1.77753 11.2212 1.82254 11.1866C1.86756 11.152 1.91871 11.1276 1.97287 11.1149C2.02703 11.1022 2.08304 11.1014 2.13748 11.1127C2.19191 11.124 2.24361 11.1471 2.2894 11.1805C2.33519 11.2139 2.37411 11.2569 2.40377 11.307C2.43342 11.3571 2.45318 11.4131 2.46184 11.4717C2.4705 11.5302 2.46787 11.59 2.45412 11.6474C2.41322 11.8769 2.45853 12.1143 2.58022 12.3083C2.64042 12.4049 2.71832 12.4874 2.80921 12.551C2.9001 12.6145 3.00209 12.6576 3.10903 12.6779L4.3253 12.9344C4.42383 12.9557 4.51148 13.0153 4.57132 13.1017C4.63116 13.1881 4.65895 13.295 4.64935 13.402C4.63975 13.509 4.59342 13.6084 4.51931 13.681C4.4452 13.7536 4.34855 13.7943 4.24801 13.7952ZM10.7492 15.2622C10.4827 15.4555 10.1829 15.5903 9.86727 15.6587C9.55164 15.7272 9.22643 15.7279 8.91052 15.6609L6.25222 15.107L7.17317 10.0535C7.19433 10.0271 7.21223 9.99784 7.22645 9.96655L9.84896 10.5161C10.165 10.5818 10.4657 10.7134 10.7341 10.9034C11.0025 11.0934 11.2332 11.3381 11.4131 11.6234C11.593 11.9088 11.7185 12.2292 11.7825 12.5664C11.8465 12.9036 11.8477 13.251 11.786 13.5887V13.5922C11.725 13.93 11.6019 14.2515 11.424 14.5381C11.246 14.8247 11.0166 15.0708 10.7492 15.2622ZM23.2959 10.1705C23.2949 11.7722 22.888 13.3438 22.1184 14.7183C21.3488 16.0927 20.2452 17.2186 18.9249 17.9764C17.6046 18.7343 16.1169 19.0957 14.6199 19.0223C13.1228 18.9489 11.6724 18.4434 10.4225 17.5596C10.3347 17.4949 10.2742 17.3959 10.254 17.284C10.2337 17.172 10.2555 17.0561 10.3145 16.9611C10.3735 16.8661 10.465 16.7997 10.5693 16.7762C10.6737 16.7526 10.7825 16.7738 10.8724 16.8352C11.9187 17.574 13.1221 18.0195 14.3717 18.131C15.6213 18.2425 16.8771 18.0163 18.0235 17.4732C19.1699 16.9302 20.1701 16.0876 20.9321 15.0232C21.6941 13.9588 22.1934 12.7066 22.3841 11.3819C22.5748 10.0572 22.4507 8.70249 22.0233 7.44246C21.5959 6.18243 20.8789 5.05752 19.9382 4.17123C18.9976 3.28494 17.8635 2.66573 16.6403 2.37058C15.4171 2.07543 14.1441 2.11381 12.9385 2.4822C12.8357 2.51084 12.7265 2.49541 12.6343 2.43918C12.542 2.38296 12.474 2.29041 12.4448 2.18131C12.4155 2.0722 12.4273 1.95519 12.4777 1.85527C12.528 1.75535 12.613 1.68044 12.7143 1.64655C13.9492 1.2688 15.2493 1.20261 16.5122 1.45319C17.7751 1.70377 18.9663 2.26428 19.9921 3.09058C21.0178 3.91688 21.8501 4.98642 22.4234 6.21498C22.9967 7.44353 23.2954 8.79757 23.2959 10.1705ZM15.4084 3.83307V9.92002L18.6073 11.91C18.6535 11.9388 18.6938 11.9771 18.7261 12.0225C18.7584 12.068 18.782 12.1199 18.7956 12.1751C18.8092 12.2303 18.8124 12.2879 18.8052 12.3444C18.7979 12.401 18.7803 12.4555 18.7534 12.5048C18.7264 12.5541 18.6906 12.5973 18.6481 12.6318C18.6055 12.6663 18.557 12.6915 18.5054 12.706C18.4537 12.7205 18.3999 12.724 18.3469 12.7163C18.294 12.7085 18.243 12.6897 18.1969 12.6609L14.7954 10.5452C14.7337 10.5072 14.6824 10.4524 14.6467 10.3865C14.611 10.3206 14.5922 10.2458 14.592 10.1696V3.83307C14.592 3.71776 14.6349 3.60717 14.7112 3.52563C14.7874 3.44409 14.8909 3.39829 14.9988 3.39829C15.1067 3.39829 15.2101 3.44409 15.2864 3.52563C15.3627 3.60717 15.4056 3.71776 15.4056 3.83307H15.4084Z"></path>
</svg>
