<svg xmlns="http://www.w3.org/2000/svg" fill="none" viewBox="0 0 18 18" height="18" width="18">
<path stroke-linejoin="round" stroke-linecap="round" stroke-width="1.125" stroke="#AB8744" d="M9.06684 9L8.99219 16.2289"></path>
<path stroke-linejoin="round" stroke-linecap="round" stroke-width="1.125" stroke="#AB8744" d="M15.4609 12.3284V5.6723C15.4609 5.57269 15.4345 5.47486 15.3843 5.38882C15.3341 5.30279 15.2619 5.23162 15.1752 5.18261L9.26897 1.84429C9.18453 1.79657 9.08918 1.77148 8.99219 1.77148C8.89519 1.77148 8.79985 1.79657 8.7154 1.84429L2.80915 5.18261C2.72244 5.23162 2.65029 5.30279 2.60009 5.38882C2.54989 5.47486 2.52344 5.57269 2.52344 5.6723V12.3284C2.52344 12.428 2.54989 12.5258 2.60009 12.6119C2.65029 12.6979 2.72244 12.7691 2.80915 12.8181L8.7154 16.1564C8.79985 16.2041 8.89519 16.2292 8.99219 16.2292C9.08918 16.2292 9.18453 16.2041 9.26897 16.1564L15.1752 12.8181C15.2619 12.7691 15.3341 12.6979 15.3843 12.6119C15.4345 12.5258 15.4609 12.428 15.4609 12.3284V12.3284Z"></path>
<path stroke-linejoin="round" stroke-linecap="round" stroke-width="1.125" stroke="#AB8744" d="M15.3845 5.38749L9.06743 8.99966L2.60156 5.38672"></path>
<path stroke-linejoin="round" stroke-linecap="round" stroke-width="1.125" stroke="#AB8744" d="M12.4454 10.442V7.06702L5.92188 3.42188"></path>
</svg>
