<svg width="58" height="42" viewBox="0 0 58 42" fill="none" xmlns="http://www.w3.org/2000/svg">
<g id="pgeJX2">
<g id="Group">
<path id="Vector" d="M0 33.7651C0.619424 32.6447 1.34556 32.4582 2.44907 33.1167C3.61895 33.8146 4.60534 34.7054 5.50064 35.7154C6.16691 36.4666 6.85531 37.2216 7.64 37.8484C9.58676 39.4002 12.4002 39.281 14.2116 37.5794C15.1473 36.7013 15.9775 35.7167 16.8598 34.784C18.3303 33.2309 20.1 32.2717 22.3032 32.1448C24.9617 31.9912 27.1141 32.9937 28.8969 34.8538C29.6842 35.6748 30.4247 36.5414 31.251 37.3231C33.6207 39.5677 36.7438 39.4586 38.9808 37.0858C39.7733 36.2445 40.5319 35.3728 41.3427 34.5493C44.5933 31.2464 49.7686 31.3149 53.0492 34.7143C53.5841 35.2688 54.0708 35.8664 54.616 36.4107C55.147 36.9411 55.6974 37.4588 56.2869 37.9245C57.1536 38.611 57.3852 39.3723 56.8634 40.0651C56.3325 40.7706 55.4489 40.8188 54.5718 40.093C53.7819 39.4396 53.057 38.7074 52.3231 37.9918C51.6529 37.3396 51.0621 36.5998 50.3412 36.0085C48.2747 34.3171 45.4379 34.4249 43.5106 36.2597C42.6348 37.0947 41.8515 38.0222 41.0225 38.9041C38.7361 41.3403 35.95 42.1461 32.6837 41.2794C31.169 40.8772 29.9705 39.9611 28.9112 38.8635C28.0823 38.0057 27.3041 37.0972 26.4322 36.2851C24.2903 34.2943 21.2868 34.3158 19.1839 36.3397C18.1793 37.3066 17.31 38.408 16.2924 39.3596C12.8713 42.5572 7.9419 42.3567 4.73027 38.951C3.78812 37.9524 2.80172 36.9932 1.82053 36.0314C1.61363 35.8283 1.32083 35.7129 1.10481 35.5162C0.720926 35.166 0.36697 34.7853 0 34.4186C0 34.2004 0 33.9834 0 33.7651Z" fill="#AB8744"></path>
<path id="Vector_2" d="M0 2.42121C0.796402 1.33252 1.37679 1.2272 2.55317 1.93904C3.70353 2.63439 4.6652 3.52514 5.54619 4.52248C6.19945 5.26097 6.87873 6.00073 7.65171 6.61233C9.60368 8.15655 12.4158 8.02967 14.2259 6.32429C15.1603 5.44369 15.9918 4.46031 16.8728 3.52641C18.8131 1.46829 21.1997 0.591489 24.0495 0.974691C26.021 1.23989 27.58 2.24357 28.9138 3.62538C29.7037 4.44381 30.4442 5.31172 31.2705 6.09462C33.6181 8.3177 36.7373 8.21365 38.9626 5.86496C39.7446 5.03892 40.4773 4.16593 41.2867 3.36653C44.6844 0.00653505 49.5682 0.0344506 52.9959 3.41348C54.2217 4.62272 55.2459 6.01976 56.689 7.02852C57.272 7.43583 57.2785 8.29486 56.8426 8.84556C56.3988 9.4064 55.5257 9.58658 54.9479 9.11964C54.05 8.39384 53.2106 7.59698 52.3726 6.80266C51.6412 6.10858 51.0062 5.30665 50.2241 4.67602C48.2617 3.09499 45.4418 3.20919 43.6069 4.93106C42.6973 5.78375 41.8879 6.73795 41.0355 7.649C38.7517 10.0878 35.9682 10.9024 32.6993 10.0396C31.1846 9.63988 29.9822 8.72628 28.9216 7.62997C28.0927 6.77221 27.3171 5.86115 26.4426 5.05033C24.2708 3.03662 21.2882 3.06961 19.154 5.12647C18.2951 5.95378 17.5287 6.87118 16.7049 7.73402C14.2298 10.3289 10.8295 11.0724 7.55151 9.72616C6.39985 9.25287 5.459 8.48519 4.63137 7.58683C3.40033 6.25197 2.22524 4.86762 0.60511 3.93499C0.342245 3.78526 0.199101 3.43886 0 3.18381C0 2.93004 0 2.67626 0 2.42248V2.42121Z" fill="#AB8744"></path>
<path id="Vector_3" d="M0 23.5356C0.674079 22.4304 1.37028 22.2807 2.52064 22.976C3.62155 23.6409 4.57151 24.467 5.40825 25.43C5.92487 26.0251 6.4532 26.6139 7.02578 27.1557C9.37204 29.3724 12.5642 29.2506 14.7608 26.8804C15.5337 26.0467 16.2833 25.1915 17.0758 24.3743C20.2848 21.0638 25.5851 21.0841 28.8839 24.6446C29.6699 25.4922 30.4325 26.3639 31.2731 27.157C33.635 29.3813 36.7972 29.2506 39.0081 26.8791C39.8461 25.9795 40.6582 25.0557 41.5339 24.1941C44.6948 21.0841 49.8025 21.1742 53.0375 24.5025C54.2243 25.7231 55.2602 27.0821 56.689 28.0795C57.2707 28.4855 57.2772 29.3496 56.8413 29.8978C56.3988 30.4523 55.5243 30.6261 54.9453 30.1731C54.1228 29.5285 53.3433 28.8256 52.5899 28.1048C51.9679 27.5085 51.4408 26.8169 50.8149 26.2256C48.4595 23.9987 45.2869 24.1117 43.0825 26.4781C42.2952 27.3232 41.5352 28.1949 40.7284 29.0222C37.4947 32.3366 32.1944 32.2503 28.9203 28.6949C28.163 27.8714 27.4199 27.0314 26.6105 26.2586C24.2226 23.9772 21.0409 24.099 18.7974 26.52C17.962 27.4209 17.1461 28.3408 16.269 29.2024C13.1237 32.2934 7.88204 32.2059 4.74978 28.7773C4.30474 28.2901 3.88571 27.7749 3.40033 27.3283C2.63255 26.6228 1.80882 25.9757 1.03194 25.279C0.659765 24.9453 0.342245 24.5545 0 24.1891C0 23.9708 0 23.7538 0 23.5356H0Z" fill="#AB8744"></path>
<path id="Vector_4" d="M0 12.6521C0.709214 11.5469 1.36508 11.4098 2.52975 12.1128C3.61374 12.7675 4.55329 13.5796 5.37702 14.53C5.90405 15.1391 6.448 15.7405 7.03359 16.2937C9.36293 18.494 12.5342 18.3861 14.7295 16.0463C15.5337 15.1898 16.3002 14.3016 17.1227 13.4629C20.3499 10.1663 25.6475 10.2539 28.9333 13.8207C29.8638 14.8307 30.7799 15.875 31.8379 16.748C33.8029 18.3696 36.6384 18.2351 38.4915 16.493C39.4141 15.6263 40.2339 14.6582 41.1019 13.7369C43.5887 11.0951 47.1101 10.3452 50.3946 11.7714C52.003 12.4706 53.1325 13.7319 54.2946 14.9614C54.9713 15.6783 55.7013 16.3534 56.4535 16.9929C57.1692 17.602 57.354 18.3937 56.8348 19.0383C56.3468 19.6461 55.4384 19.7413 54.754 19.1728C53.9367 18.4927 53.1638 17.7593 52.4012 17.0208C51.8481 16.4853 51.368 15.8763 50.8084 15.3472C48.4738 13.1406 45.3182 13.2395 43.1124 15.5768C42.3316 16.4041 41.5847 17.2619 40.7987 18.0841C37.5858 21.4378 32.266 21.4251 28.9503 17.857C28.163 17.0107 27.4004 16.1389 26.5624 15.3433C24.2174 13.119 21.0266 13.2497 18.8274 15.6187C17.9789 16.5323 17.1539 17.47 16.2612 18.3417C13.1094 21.42 7.89896 21.3249 4.78102 17.9369C4.32165 17.437 3.89092 16.9079 3.39252 16.4485C2.62474 15.743 1.79711 15.0997 1.02023 14.4031C0.649354 14.0694 0.338341 13.6722 0 13.3043C0 13.086 0 12.869 0 12.6508V12.6521Z" fill="#AB8744"></path>
</g>
</g>
</svg>
