<svg id="Layer_1" data-sanitized-data-name="Layer 1" data-name="Layer 1" xmlns="http://www.w3.org/2000/svg" xmlns:xlink="http://www.w3.org/1999/xlink" viewBox="0 0 56 56">
  <defs>
    <style>
      .cls-1 {
        clip-path: url(#clippath);
      }

      .cls-2 {
        fill: none;
      }

      .cls-2, .cls-3 {
        stroke-width: 0px;
      }

      .cls-3 {
        fill: #ab8744;
      }
    </style>
    <clipPath id="clippath">
      <rect class="cls-2" x="4.6" y="2" width="46.8" height="52"></rect>
    </clipPath>
  </defs>
  <g class="cls-1">
    <g>
      <path class="cls-3" d="M24.3,54c-10.78,0-19.7-5.6-19.7-8.44,0-3.26,9.91-4.95,19.7-4.95s19.7,1.7,19.7,4.95c0,2.85-8.92,8.44-19.7,8.44ZM24.3,41.83c-11.26,0-18.45,2.2-18.45,3.72,0,1.7,7.87,7.21,18.45,7.21s18.45-5.52,18.45-7.21c0-1.52-7.2-3.72-18.45-3.72Z"></path>
      <path class="cls-3" d="M24.3,50.51c-9.79,0-19.7-1.7-19.7-4.95s9.91-4.95,19.7-4.95,19.7,1.7,19.7,4.95-9.91,4.95-19.7,4.95ZM24.3,41.83c-11.26,0-18.45,2.2-18.45,3.72s7.2,3.72,18.45,3.72,18.45-2.2,18.45-3.72-7.2-3.72-18.45-3.72Z"></path>
      <path class="cls-3" d="M29.54,49.67h-11.18l-2.4-3.98c-1.25-2.05-2.18-4.17-2.81-6.34-.48-1.52-.79-3.1-.97-4.66-.14-.99-.22-2.05-.22-3.26v-5.54h24v5.54c0,1.4-.1,2.75-.32,4.06-.22,1.5-.56,2.87-.97,4.17-.63,2.07-1.55,4.09-2.72,6.01l-2.4,3.96-.02.04ZM19.07,48.42h9.75l2.04-3.37c1.11-1.81,1.98-3.74,2.6-5.73.42-1.27.71-2.55.93-4,.2-1.27.3-2.53.3-3.88v-4.31H13.2v4.31c0,1.13.06,2.14.2,3.1.18,1.5.48,3,.93,4.46.59,2.07,1.51,4.09,2.7,6.06l2.04,3.37v-.02Z"></path>
      <path class="cls-3" d="M24.84,49.67h-1.8c-2.89,0-5.59-1.52-7.08-3.98-1.25-2.05-2.18-4.17-2.81-6.34l-.24-.8,22,.35-.24.78c-.63,2.09-1.57,4.11-2.72,6.01-1.49,2.44-4.2,3.96-7.1,3.96l-.02.02ZM14.59,39.83c.59,1.77,1.41,3.55,2.44,5.24,1.25,2.09,3.55,3.37,6.01,3.37h1.8c2.46,0,4.76-1.29,6.03-3.37.97-1.58,1.74-3.24,2.34-4.95l-18.61-.29Z"></path>
      <path class="cls-3" d="M20.85,15.9c-.48,0-.85-.37-.85-.84s.38-.84.85-.84.85.37.85.84-.38.84-.85.84ZM20.85,14.67c-.22,0-.42.18-.42.41,0,.45.81.45.81,0,0-.21-.18-.41-.42-.41h.02Z"></path>
      <path class="cls-3" d="M23.59,20.64c-.48,0-.85-.37-.85-.84s.38-.84.85-.84.85.37.85.84-.38.84-.85.84ZM23.59,19.41c-.22,0-.42.18-.42.41,0,.45.81.45.81,0,0-.21-.18-.41-.42-.41h.02Z"></path>
      <path class="cls-3" d="M26.64,29.14c-.48,0-.85-.37-.85-.84s.38-.84.85-.84.85.37.85.84-.38.84-.85.84ZM26.64,27.91c-.22,0-.42.18-.42.41,0,.45.81.45.81,0,0-.21-.18-.41-.42-.41h.02Z"></path>
      <path class="cls-3" d="M21.07,26.78c-.48,0-.85-.37-.85-.84s.38-.84.85-.84.85.37.85.84-.38.84-.85.84ZM21.07,25.55c-.22,0-.42.18-.42.41,0,.45.81.45.81,0,0-.21-.18-.41-.42-.41h.02Z"></path>
      <path class="cls-3" d="M28.66,20.43c-.48,0-.85-.37-.85-.84s.38-.84.85-.84.85.37.85.84-.38.84-.85.84ZM28.66,19.2c-.22,0-.42.18-.42.41,0,.45.81.45.81,0,0-.21-.18-.41-.42-.41h.02Z"></path>
      <path class="cls-3" d="M18.34,21.07c-.48,0-.85-.37-.85-.84s.38-.84.85-.84.85.37.85.84-.38.84-.85.84ZM18.34,19.84c-.22,0-.42.18-.42.41,0,.45.81.45.81,0,0-.21-.18-.41-.42-.41h.02Z"></path>
      <path class="cls-3" d="M30.63,17.85c-1.88,0-3.27-1.01-4-1.7-.3-.27-.44-.68-.36-1.09.08-.39.34-.72.69-.9L48.94,2.12c.36-.16.69-.16.99-.02.3.14.52.37.63.66l.77,2.16c.1.29.08.64-.06.92-.14.27-.42.49-.73.57l-14.71,6.71c-.2,1.46-1.15,3.88-3.87,4.56-.48.12-.91.18-1.33.18h-.02ZM27.24,14.69l.26.57c.87.8,2.3,1.68,4.16,1.21,2.78-.68,2.95-3.67,2.95-3.8v-.37l15.5-7.06-.69-1.99-21.92,11.99-.26-.57v.02Z"></path>
      <path class="cls-3" d="M33.28,43.16l-.75-.99c6.12-4.48,8.56-7.84,7.45-10.26-.99-2.13-4.48-1.68-4.52-1.68l-.18-1.23c.18-.02,4.44-.58,5.83,2.38,1.88,4.02-3.57,8.64-7.83,11.76v.02Z"></path>
      <path class="cls-3" d="M34.69,39.46l-.83-.94.71-.6c1.88-1.62,4.24-3.63,3.49-5.05-.57-1.11-2.5-.55-2.52-.53l-.38-1.19c.12-.04,2.95-.88,4,1.15,1.21,2.3-1.45,4.56-3.79,6.55l-.71.6h.02Z"></path>
    </g>
  </g>
</svg>