<svg viewBox="0 0 56 56" xmlns="http://www.w3.org/2000/svg" data-name="Layer 1" id="Layer_1">
  <defs>
    <style>
      .cls-1 {
        fill: #a38344;
        stroke-width: 0px;
      }
    </style>
  </defs>
  <path d="M37.08,11.41c1.18.16,2.32.21,3.41.49,3.69.95,5.98,3.44,6.97,7.02,1.78,6.47.59,12.41-3.63,17.65-.66.81-.89,1.52-.92,2.55-.17,4.86-1.57,9.33-4.53,13.23-.3.4-.7.73-1.09,1.05-.52.41-1.12.61-1.8.6-6.74,0-13.48,0-20.21,0-.81,0-1.48-.26-2.08-.76-1.44-1.22-2.33-2.83-3.1-4.52-1.27-2.77-2.11-5.67-2.32-8.73-.16-2.32.27-4.58,1-6.76.8-2.4,1.66-4.81,2.72-7.1,1.06-2.26,1.55-4.58,1.67-7.04.12-2.64.32-5.26.51-7.89.05-.7-.04-1.27-.48-1.86-.92-1.22-1.76-2.52-2.63-3.78-.43-.63-.38-1,.18-1.51.59-.54,1.2-1.06,1.75-1.62.44-.44.88-.53,1.47-.33,2.26.78,4.53,1.58,6.81,2.28.79.24,1.66.31,2.5.38,4.32.35,8.64.68,12.95,1.02.47.04.94.07,1.4.12.9.1,1.22.69.8,1.48-.35.67-.68,1.36-1.1,1.99-.46.7-.35,1.39-.24,2.05h0ZM36.49,24.28c-.18.08-.36.15-.54.23-2.2.94-4.48,1.31-6.87.87-1.65-.3-3.1-1.02-4.52-1.87-3.2-1.94-6.49-1.89-9.79-.24-.23.11-.42.37-.52.61-.34.79-.65,1.61-.96,2.4-.84,2.09-1.75,4.14-2.5,6.27-.86,2.44-1.44,4.95-1.26,7.57.18,2.51.83,4.89,1.81,7.19.63,1.47,1.35,2.87,2.39,4.09.5.59,1.07.86,1.87.85,6.53-.03,13.07-.02,19.61,0,.61,0,1.09-.19,1.49-.63.22-.24.44-.48.63-.74,1.47-2.03,2.41-4.3,3.08-6.69.62-2.2.97-4.45.65-6.74-.66-4.68-2.66-8.9-4.57-13.19h0ZM15.43,10.76c-.23,3.52-.46,6.99-.69,10.54.25-.09.43-.15.59-.21,1.29-.49,2.63-.77,4.01-.8,2.36-.05,4.51.65,6.49,1.91,3.18,2.01,6.48,2.05,9.85.5.32-.15.38-.3.35-.65-.18-2.11-.31-4.21-.46-6.32-.12-1.66-.23-3.3-.33-4.98H15.43ZM12.32,5.01c.83,1.21,1.67,2.39,2.46,3.59.21.3.43.41.79.41,3.6,0,7.18,0,10.78,0h8.72c.19,0,.46-.06.55-.19.25-.36.43-.77.69-1.25-1.18-.1-2.26-.21-3.35-.28-3.42-.26-6.83-.53-10.25-.8-.73-.06-1.49-.11-2.18-.32-1.89-.58-3.75-1.25-5.63-1.88-.97-.33-1.83-.08-2.57.74h0ZM37.39,16.74c.04.7.06,1.36.13,2.03.13,1.34.21,2.7.45,4.03.17.87.56,1.7.9,2.54.79,1.92,1.63,3.82,2.44,5.72,0,0,.06-.02.07-.05,1.8-3.59,2.24-7.3.94-11.15-.66-1.94-2.27-3.32-4.93-3.12ZM42.51,35.46c.16-.19.25-.29.34-.4,3.39-4.74,4.48-9.93,2.93-15.59-.85-3.12-2.81-5.25-6.06-5.96-.81-.18-1.66-.19-2.56-.27.06.67.1,1.18.14,1.73h.75c2.71.12,4.64,1.39,5.75,3.87.62,1.4.88,2.89.97,4.41.2,3.57-.69,6.86-2.59,9.88-.09.14-.16.34-.13.49.12.58.27,1.15.45,1.83Z" class="cls-1"></path>
</svg>