<svg id="Layer_1" data-sanitized-data-name="Layer 1" data-name="Layer 1" xmlns="http://www.w3.org/2000/svg" viewBox="0 0 56 56">
  <defs>
    <style>
      .cls-1, .cls-2 {
        fill: #ac8742;
      }

      .cls-1, .cls-2, .cls-3 {
        stroke-width: 0px;
      }

      .cls-2, .cls-3 {
        fill-rule: evenodd;
      }

      .cls-3 {
        fill: #ab8744;
      }
    </style>
  </defs>
  <g>
    <path class="cls-1" d="M25.27,12.24c-.1-.23,0-.5.22-.61L43.91,2.49c.38-.19.81-.22,1.21-.08.4.13.72.42.91.79.4.8.07,1.76-.73,2.16h-.03l-10.39,4.24c.34,1.66-.83,3.31-3.04,4.2-.87.35-1.84.55-2.76.55-1.64,0-3.15-.62-3.79-2.09M45.18,3.63l-.37-.32-.48.03-17.97,8.92c.94,1.33,3.24,1.41,5.13.66,1.46-.58,2.96-1.83,2.38-3.43-.09-.24.03-.5.26-.6l10.76-4.37c.32-.17.45-.56.29-.89Z"></path>
    <path class="cls-1" d="M27.94,7.37c0,.38.31.69.68.69s.69-.31.69-.69-.31-.68-.69-.68-.68.31-.68.68"></path>
    <path class="cls-1" d="M25.02,9.49c0,.38.31.69.69.69s.69-.31.69-.69-.31-.68-.69-.68-.69.31-.69.68"></path>
    <path class="cls-1" d="M24.34,5.52c0,.38.31.69.68.69s.69-.31.69-.69-.31-.69-.69-.69-.68.31-.68.69"></path>
    <path class="cls-1" d="M21.22,11.61c0,.38.31.69.69.69s.68-.31.68-.69-.31-.68-.68-.68-.69.31-.69.68"></path>
    <path class="cls-1" d="M18.75,13.64c0,.38.31.68.69.68s.68-.31.68-.68-.31-.69-.68-.69-.69.31-.69.69"></path>
    <path class="cls-1" d="M19.43,9.29c0,.38.31.69.68.69s.69-.31.69-.69-.31-.69-.69-.69-.68.31-.68.69"></path>
    <path class="cls-1" d="M22.95,14.56c0,.38.31.69.69.69s.69-.31.69-.69-.31-.68-.69-.68-.69.31-.69.68"></path>
    <path class="cls-1" d="M22.27,8.6c0,.38.31.69.68.69s.69-.31.69-.69-.31-.68-.69-.68-.68.31-.68.68"></path>
  </g>
  <path class="cls-2" d="M27.92,15.85c-.18-.18-.47-.3-.71-.3H10.75c-.29,0-.53.12-.71.3-.18.18-.24.36-.24.59l1.48,35.57c.06.95.95,1.66,2.13,1.66h11.1c1.19,0,2.14-.71,2.14-1.66l1.48-35.57c0-.24-.06-.42-.24-.59h.02ZM26.54,26.47l-1.01,25.53c0,.23-.35.55-.93.55h-11.17c-.61,0-.95-.32-.95-.55l-1.07-24.69-.4-10.56h16.04l-.49,9.73h-.01Z"></path>
  <path class="cls-3" d="M12.28,48.1s7.53-1.68,13.41,0l-.16,3.91s.07.45-.93.55h-11.17s-.86.02-.95-.55l-.19-3.91Z"></path>
</svg>