<svg viewBox="0 0 56 56" xmlns="http://www.w3.org/2000/svg" data-name="Layer 1" id="Layer_1">
  <defs>
    <style>
      .cls-1 {
        fill: #a38344;
        stroke-width: 0px;
      }
    </style>
  </defs>
  <path d="M37.09,11.42c1.17.16,2.32.21,3.41.49,3.69.95,5.98,3.44,6.96,7.02,1.79,6.46.6,12.41-3.63,17.65-.66.81-.89,1.52-.92,2.54-.16,4.86-1.57,9.32-4.53,13.24-.3.4-.7.73-1.09,1.04-.52.42-1.12.61-1.81.61-6.73,0-13.48,0-20.21,0-.81,0-1.48-.26-2.08-.76-1.44-1.22-2.33-2.83-3.1-4.52-1.27-2.77-2.11-5.67-2.31-8.73-.16-2.32.27-4.58,1-6.75.8-2.4,1.65-4.82,2.72-7.11,1.05-2.26,1.55-4.58,1.66-7.04.12-2.63.32-5.26.52-7.89.05-.7-.04-1.28-.48-1.86-.91-1.23-1.76-2.51-2.63-3.77-.43-.63-.38-.99.18-1.51.59-.54,1.19-1.05,1.75-1.62.44-.44.88-.54,1.47-.33,2.26.78,4.53,1.57,6.81,2.28.79.25,1.66.32,2.5.39,4.32.36,8.64.68,12.95,1.01.47.04.93.07,1.4.12.9.1,1.22.69.8,1.48-.36.67-.68,1.36-1.09,1.99-.46.7-.36,1.39-.25,2.05ZM36.5,24.29c-.18.08-.36.15-.54.23-2.2.94-4.48,1.31-6.86.86-1.64-.31-3.1-1.01-4.51-1.87-3.21-1.94-6.49-1.89-9.79-.24-.22.11-.42.38-.53.62-.35.79-.65,1.6-.96,2.4-.83,2.09-1.76,4.15-2.5,6.27-.86,2.44-1.44,4.95-1.26,7.58.18,2.51.83,4.9,1.82,7.2.63,1.46,1.35,2.87,2.39,4.09.5.59,1.07.86,1.88.85,6.53-.03,13.07-.02,19.6,0,.62,0,1.09-.18,1.48-.63.22-.24.44-.49.63-.74,1.47-2.03,2.4-4.3,3.08-6.69.62-2.2.97-4.45.65-6.73-.66-4.69-2.66-8.91-4.57-13.19h0ZM15.44,10.77c-.23,3.52-.46,7-.69,10.55.26-.09.43-.15.6-.21,1.29-.49,2.63-.77,4.01-.8,2.36-.05,4.5.65,6.48,1.91,3.18,2.02,6.47,2.05,9.85.51.32-.15.38-.31.35-.66-.17-2.11-.31-4.21-.46-6.32-.11-1.65-.22-3.31-.34-4.98H15.44ZM12.33,5.02c.83,1.21,1.66,2.39,2.46,3.58.21.31.43.42.79.41,3.59,0,7.18,0,10.77,0h8.72c.19,0,.46-.05.56-.18.26-.36.44-.77.69-1.25-1.17-.1-2.26-.2-3.36-.29-3.42-.27-6.83-.53-10.25-.8-.73-.06-1.49-.11-2.18-.32-1.89-.59-3.75-1.25-5.63-1.89-.97-.33-1.83-.08-2.57.74h0ZM37.41,16.76c.04.7.06,1.36.13,2.03.13,1.34.21,2.7.45,4.02.16.87.56,1.71.9,2.53.79,1.92,1.62,3.82,2.43,5.73,0,0,.06-.02.07-.05,1.81-3.58,2.24-7.3.94-11.14-.66-1.94-2.27-3.33-4.93-3.12ZM42.52,35.47c.16-.19.26-.29.34-.41,3.39-4.74,4.48-9.93,2.93-15.58-.85-3.12-2.81-5.24-6.07-5.96-.8-.18-1.66-.19-2.56-.28.05.67.1,1.18.14,1.73h.75c2.71.11,4.65,1.39,5.75,3.87.63,1.4.88,2.89.97,4.41.2,3.56-.69,6.86-2.58,9.88-.09.14-.16.34-.13.49.12.58.28,1.15.45,1.84h0Z" class="cls-1"></path>
</svg>