<svg viewBox="0 0 56 56" xmlns:xlink="http://www.w3.org/1999/xlink" xmlns="http://www.w3.org/2000/svg" data-name="Layer 1" id="Layer_1">
  <defs>
    <style>
      .cls-1 {
        clip-path: url(#clippath);
      }

      .cls-2 {
        fill: none;
      }

      .cls-2, .cls-3 {
        stroke-width: 0px;
      }

      .cls-3 {
        fill: #ab8744;
      }

      .cls-4 {
        clip-path: url(#clippath-1);
      }
    </style>
    <clipPath id="clippath">
      <rect height="52" width="52" y="2" x="2" class="cls-2"></rect>
    </clipPath>
    <clipPath id="clippath-1">
      <rect height="45.94" width="43.1" y="4.78" x="7.39" class="cls-2"></rect>
    </clipPath>
  </defs>
  <g class="cls-1">
    <g class="cls-4">
      <g>
        <path d="M50.22,23.19c-.02-.44-.28-.67-.71-.68-.95,0-1.9.03-2.84-.01-1.61-.06-2.81-.83-3.57-2.33-.17-.33-.15-.58.09-.89,1.55-2,3.07-4.02,4.59-6.04.16-.21.3-.51.29-.76-.08-2.01-.19-4.01-.29-6.01-.03-.59-.18-.74-.76-.77-.02,0-.04,0-.07,0-.39.52-.83,1.01-1.29,1.48-.03.04-.06.07-.08.11-4.03,5.08-8.07,10.16-12.09,15.26-.22.28-.44.41-.8.41-7.43-.01-14.86,0-22.29,0-.15,0-.29-.01-.44-.02l-.07-.12c.07-.03.15-.05.21-.1.86-.74,1.71-1.48,2.57-2.22.8-.69,1.61-1.36,2.38-2.08.17-.16.26-.5.24-.74-.02-.17-.28-.42-.45-.43-.22-.02-.51.1-.69.26-2.16,1.84-4.31,3.69-6.44,5.56-.17.15-.28.45-.28.69-.02,2.34-.01,4.68-.01,7.02,0,.75.19.95.92.95,2.19,0,4.37,0,6.56,0,.95,0,1.76.63,2,1.57.04.17-.02.45-.13.57-3,3.05-6.01,6.08-9.01,9.13-.18.18-.32.51-.32.77-.03,1.98-.01,3.95-.01,5.93,0,.9.13,1.03,1.01,1.03,8.18,0,16.36,0,24.54.01.61,0,1-.17,1.38-.68,5.29-6.86,10.6-13.7,15.9-20.55.17-.22.28-.57.27-.85-.07-1.82-.17-3.63-.27-5.45h0ZM34.09,24.01c0-.12.09-.26.17-.37,4.06-5.12,8.12-10.23,12.18-15.35,0-.01.02-.02.07-.06.02.11.05.21.06.3.06,1.18.13,2.37.17,3.55,0,.2-.06.44-.18.6-4.09,5.4-8.18,10.78-12.28,16.17-.04.05-.08.09-.21.24,0-1.77,0-3.43,0-5.08h0ZM16.91,35.55c.03.18.06.29.06.4,0,1.55.01,3.1,0,4.65-.01,1.44-.89,2.32-2.28,2.32-1.65,0-3.3,0-5.08,0,2.48-2.5,4.86-4.9,7.3-7.37h0ZM32.77,49.35H8.7v-5.1h5.95c2.1,0,3.56-1.4,3.61-3.55.05-2.26.06-4.52.02-6.78-.03-2.02-1.52-3.5-3.48-3.52-1.86-.02-3.73,0-5.6,0h-.52v-6.07h24.08v6.07h-.5c-1.8,0-3.61.05-5.41-.02-1.91-.07-3.7,1.42-3.66,3.77.03,2.12.03,4.24,0,6.36-.03,2.5,1.93,3.85,3.67,3.77,1.92-.09,3.85-.02,5.78-.02.03,0,.06.01.12.03v5.07h0ZM32.77,42.93c-2.02-.02-4.03,0-6.05,0-1.28,0-2.19-.9-2.2-2.21-.02-2.26-.02-4.52,0-6.78,0-1.32.9-2.22,2.18-2.22,2.15,0,4.31-.01,6.46,0,.43,0,.71-.13.97-.48,2.53-3.35,5.07-6.69,7.61-10.03.07-.1.16-.18.27-.3,1.36,2.5,3.53,3.15,6.21,2.89-.38.49-.67.87-.96,1.24-4.61,5.85-9.23,11.71-13.84,17.56-.18.23-.36.33-.65.33h0ZM49.05,28.88c-4.93,6.37-9.86,12.73-14.8,19.09-.03.03-.07.05-.17.13,0-.93.07-1.82-.02-2.68-.11-1.12.27-1.95.96-2.8,4.56-5.7,9.06-11.45,13.58-17.18.1-.13.21-.26.4-.48.08,1.27.15,2.42.2,3.56,0,.12-.08.27-.16.37h0Z" class="cls-3"></path>
        <path d="M45,5.6c-1.74-.09-3.48-.19-5.22-.28-3.49-.18-6.99-.38-10.48-.54-.27-.01-.6.11-.82.29-.98.81-1.93,1.65-2.89,2.48-.94.81-1.88,1.62-2.81,2.43-.45.39-.4,1.04.11,1.16.23.06.58-.06.77-.22,1.53-1.29,3.06-2.57,4.54-3.92.73-.66,1.43-1.11,2.44-.85.39.1.82.04,1.23.06,2.82.15,5.65.29,8.47.45,1.26.07,2.52.14,3.81.21.28-.43.56-.86.85-1.28h0Z" class="cls-3"></path>
      </g>
    </g>
  </g>
</svg>