<svg xmlns="http://www.w3.org/2000/svg" fill="none" viewBox="0 0 46 46" height="46" width="46">
<g clip-path="url(#clip0_834_3667)">
<path fill="#AB8744" d="M41.4031 40.3348H38.4669L39.4456 39.3663C48.4988 30.4084 48.4988 15.8821 39.4456 6.92424C34.0137 1.5495 26.2818 -0.823132 18.7456 0.6295C17.9137 0.774763 17.3265 1.59792 17.5222 2.42108C17.669 3.24424 18.5009 3.82529 19.3328 3.63161C25.8414 2.42108 32.5456 4.45476 37.2435 9.10318C45.0733 16.8506 45.0733 29.44 37.2435 37.1874L36.2648 38.1558V35.2021C36.2648 34.3306 35.5797 33.6527 34.6988 33.6527C33.8179 33.6527 33.1328 34.3306 33.1328 35.2021V41.8358C33.1328 42.2716 33.3286 42.659 33.5733 42.9495C33.8669 43.24 34.2584 43.3853 34.6988 43.3853H41.4031C42.2839 43.3853 42.969 42.7074 42.969 41.8358C42.969 41.0127 42.235 40.3348 41.4031 40.3348Z"></path>
<path fill="#AB8744" d="M26.7213 42.8041C20.2128 44.0146 13.5085 41.9809 8.81065 37.3325C0.980864 29.5851 0.980864 16.9956 8.81065 9.24827L9.78937 8.27985V11.1851C9.78937 11.6209 9.98512 12.0083 10.2298 12.2988C10.5234 12.5893 10.9149 12.7346 11.3064 12.7346C12.1872 12.7346 12.8724 12.0567 12.8724 11.1851V4.55143C12.8724 3.72827 12.1383 3.00195 11.3064 3.00195H4.60214C3.72129 3.00195 3.03618 3.67985 3.03618 4.55143C3.03618 5.42301 3.72129 6.1009 4.60214 6.1009H7.53831L6.55959 7.06932C-2.44467 16.0272 -2.44467 30.602 6.60852 39.5114C12.0404 44.8862 19.7724 47.2588 27.3085 45.8062C28.1404 45.6609 28.7277 44.8377 28.5319 44.0146C28.3851 43.1914 27.6021 42.6588 26.7213 42.8041Z"></path>
<path fill="#AB8744" d="M27.5033 17.7706C25.6927 18.8358 21.3863 21.7411 18.1565 24.9369C14.7799 28.2779 12.431 31.8611 11.648 32.9264C11.0118 33.7979 11.4033 35.0085 12.431 35.3474C13.165 35.5895 13.948 35.2506 14.2905 34.5727C14.8288 33.5074 15.8076 31.8127 17.0799 29.9243C19.6246 30.7474 23.0501 32.0548 27.699 27.5516C33.5225 21.9348 34.5012 15.059 34.6969 12.3474C34.7459 11.8148 34.3544 11.379 33.8161 11.379C30.831 11.2337 22.8054 11.0885 16.7863 16.9958C12.1863 21.499 12.9693 24.4527 13.8501 25.76C17.0799 22.3222 22.0225 19.7558 27.5033 17.7706Z"></path>
</g>
<defs>
<clipPath id="clip0_834_3667">
<rect fill="white" height="46" width="46"></rect>
</clipPath>
</defs>
</svg>
