<svg xmlns="http://www.w3.org/2000/svg" fill="none" viewBox="0 0 513 51" height="51" width="513">
<g clip-path="url(#clip0_2426_4835)">
<path fill="#004A2B" d="M84.8248 24.4973H94.4802V20.728H84.8248V16.7452H95.3401V12.8996H80.4799V33.2871H95.8229V29.3805H84.8248V24.4973ZM109.129 12.8996H104.226L97.0298 33.2871H101.676L103.019 29.1516H110.14L111.453 33.2871H116.265L109.129 12.8996ZM104.256 25.3976L106.64 18.0881L108.963 25.3976H104.256ZM62.1195 16.7452H68.0938V33.2871H72.5594V16.7452H78.5035V12.8996H62.1195V16.7452ZM192.09 29.3805V24.4973H201.745V20.728H192.09V16.7452H202.605V12.8996H187.745V33.2871H203.088V29.3805H192.09ZM126.479 16.3942C127.882 16.3942 128.953 16.8215 129.662 17.6608C130.054 18.1338 130.386 18.8511 130.658 19.7819L130.688 19.8887H135.093V19.7361C135.018 18.4543 134.55 17.1725 133.705 15.9059C132.151 13.6626 129.677 12.5181 126.328 12.5181C123.823 12.5181 121.742 13.3727 120.112 15.0361C118.257 16.9588 117.306 19.7209 117.306 23.246C117.306 26.5116 118.136 29.1211 119.765 30.9981C121.41 32.875 123.688 33.8212 126.539 33.8212C128.847 33.8212 130.778 33.1192 132.257 31.7305C133.735 30.3419 134.671 28.5107 135.033 26.298L135.063 26.1301H130.658L130.628 26.2369C130.356 27.2441 130.024 28.0223 129.617 28.5107C128.908 29.4263 127.836 29.8993 126.464 29.8993C125.091 29.8993 124.005 29.35 123.145 28.2665C122.27 27.1678 121.817 25.5044 121.817 23.2917C121.817 21.079 122.239 19.3394 123.069 18.1491C123.899 16.9588 125.03 16.3637 126.449 16.3637L126.479 16.3942ZM174.635 28.2055L171.15 13.0065L171.12 12.8996H164.829V33.2871H168.977V19.553C168.977 19.1563 168.977 18.6069 168.977 17.9049C168.977 17.7981 168.977 17.7066 168.977 17.615L172.447 33.2871H176.702L180.202 17.5997C180.202 17.6913 180.202 17.7981 180.202 17.9049C180.202 18.6069 180.202 19.1563 180.202 19.553V33.2871H184.351V12.8996H178.12L174.635 28.2055ZM149.667 20.5602H142.229V12.8996H137.824V33.2871H142.229V24.3142H149.667V33.2871H154.072V12.8996H149.667V20.5602ZM31.6598 9.31354C31.7202 9.08464 31.8861 8.91678 32.1275 8.85574L34.1189 8.41319C34.3452 8.36741 34.4961 8.23007 34.5866 8.01643L35.3711 6.10893C35.4616 5.89529 35.6578 5.74269 35.8991 5.72743C36.1556 5.71217 36.3668 5.81899 36.4875 6.04789L37.5134 7.81805C37.619 8.01643 37.8 8.13851 38.0263 8.15377L40.0479 8.32163C40.2893 8.33689 40.4854 8.48949 40.576 8.71839C40.6665 8.9473 40.6212 9.19146 40.4553 9.37458L39.0975 10.9006C38.9466 11.0684 38.9014 11.2821 38.9466 11.511L39.4143 13.51C39.4747 13.7389 39.4143 13.9831 39.2182 14.1357C39.0221 14.2883 38.7958 14.3188 38.5695 14.2273L36.7138 13.388C36.5026 13.2964 36.2914 13.3117 36.0802 13.4337L34.3603 14.5172C34.2547 14.5783 34.1491 14.6088 34.0435 14.6088C33.9379 14.6088 33.8172 14.5783 33.7116 14.5172C33.5155 14.3799 33.3948 14.151 33.4249 13.9068L33.6211 11.862C33.6362 11.6331 33.5607 11.4194 33.3797 11.2668L31.8409 9.9392C31.6598 9.7866 31.5693 9.54244 31.6447 9.29828L31.6598 9.31354ZM26.0024 2.78224C26.0325 2.66016 26.1231 2.5686 26.2588 2.53808L27.149 2.3397C27.2244 2.32444 27.2847 2.27866 27.3149 2.20236L27.6619 1.36305C27.7072 1.24097 27.8278 1.16467 27.9485 1.14941C28.0843 1.14941 28.205 1.21045 28.2654 1.31727L28.718 2.09554C28.718 2.09554 28.8085 2.20236 28.899 2.20236L29.8042 2.27866C29.94 2.27866 30.0456 2.37022 30.0908 2.4923C30.1361 2.61438 30.121 2.75172 30.0305 2.85854L29.427 3.52998C29.427 3.52998 29.3516 3.66732 29.3818 3.74362L29.593 4.6287C29.6231 4.75078 29.593 4.88812 29.4874 4.97968C29.3818 5.07124 29.2611 5.0865 29.1404 5.04072L28.3106 4.67448C28.3106 4.67448 28.1597 4.64396 28.0843 4.68974L27.33 5.16281C27.33 5.16281 27.2093 5.20859 27.149 5.20859C27.0886 5.20859 27.0283 5.19333 26.9679 5.16281C26.8623 5.08651 26.802 4.96442 26.817 4.82708L26.9076 3.92674C26.9076 3.85044 26.8925 3.77414 26.8321 3.72836L26.1532 3.13322C26.0476 3.04166 26.0024 2.91958 26.0476 2.78224H26.0024ZM57.0957 47.0211V45.1899C57.0957 36.1102 57.0957 27.0304 57.0957 17.966V17.9202V17.4166V16.9283L56.613 16.9588C56.5677 16.9588 55.4815 17.0351 55.1948 17.0656C55.059 17.0656 54.9383 17.0962 54.8026 17.1114C54.6819 17.1114 53.475 17.1725 52.5245 17.203V16.1653C52.5245 15.5244 52.5245 14.8987 52.5245 14.2578C52.5245 13.9984 52.5245 13.6016 52.5245 13.5863V12.8996L51.906 13.1743C51.8758 13.1743 51.7702 13.2354 51.6495 13.2811C51.3628 13.388 51.3628 13.388 51.3478 13.4032C51.2421 13.449 51.1516 13.4948 51.0611 13.5253C50.337 13.8 49.6128 14.0594 48.8886 14.3341C48.1796 14.5935 47.4705 14.8529 46.7765 15.1276C46.0524 15.4023 45.3433 15.6617 44.6192 15.9364H44.5588L44.4985 15.9822C43.714 16.2721 42.9446 16.5621 42.1601 16.852C41.4812 17.1114 40.8023 17.3556 40.1083 17.615L39.882 17.6913C37.8453 18.5001 37.0759 19.0952 36.8949 20.5754C36.7289 21.9183 37.1061 23.7343 37.8755 25.3976L37.9207 25.5044C38.4488 26.6337 39.0975 28.0376 40.1535 29.0143C40.9984 29.8078 41.8131 30.4792 42.6126 31.0744C42.5976 31.0744 42.5825 31.0744 42.5523 31.0591C42.4467 31.0133 42.3411 30.9981 42.2355 30.9981C42.145 30.9981 42.0695 30.9981 41.9941 31.0438C41.5113 31.1964 41.2096 31.6085 41.1945 32.1578C41.1945 32.4478 41.1945 32.7377 41.1945 33.0276C41.2549 33.8517 41.3906 34.691 41.6169 35.5303C41.9639 36.8274 42.326 37.8956 42.7635 38.857C42.7032 38.8875 42.6428 38.9333 42.5825 38.9791C42.3864 39.1469 42.2807 39.4063 42.2958 39.6658C42.2958 39.681 42.2958 39.6963 42.2958 39.7115C42.2958 39.7878 42.2958 39.8947 42.326 40.0167C42.4014 40.3677 42.4769 40.8408 42.5372 41.3444C42.3109 40.6882 42.0695 40.0625 41.8282 39.5589C41.7376 39.3758 41.6471 39.1774 41.5566 38.9943L41.4359 38.7349C41.3454 38.5365 41.1794 38.3839 40.9682 38.3076L37.9811 37.2089C37.8906 37.1784 37.8 37.1631 37.6944 37.1631C37.4531 37.1631 37.2268 37.2699 37.0608 37.4531C37.0306 37.4836 37.0005 37.5141 36.9703 37.5446C36.9703 37.5141 36.9703 37.4988 36.9854 37.4683V37.392C37.091 37.0716 36.9854 36.7206 36.7289 36.5222L36.4423 36.278C36.4423 36.278 36.4875 36.1865 36.5177 36.1407L36.6384 35.8965C37.1212 34.8894 37.619 33.8517 37.8453 32.7072C37.9207 32.3409 37.966 31.9442 37.9962 31.4253C38.0263 30.937 38.0565 30.4182 38.0414 29.8993C38.0113 28.8464 37.785 27.8697 37.5285 26.8931C37.2268 25.7028 36.8194 24.131 36.4724 22.5593C36.4121 22.2846 36.3517 22.0404 36.3065 21.7963C36.2009 21.3079 36.1104 20.8501 35.9595 20.255C35.8086 19.6598 35.3108 19.1105 34.9034 18.7442C34.5715 18.439 34.1944 18.1796 33.8323 17.9812L33.8625 17.9355L33.259 17.7066C33.0176 17.615 32.7762 17.5234 32.5499 17.4319H32.5198C32.2331 17.3098 31.9465 17.203 31.6447 17.0962C30.4378 16.6384 29.2158 16.1958 28.0089 15.738C26.5757 15.2039 25.1274 14.6698 23.6941 14.1357C23.3471 14.0136 23.0152 13.8763 22.6682 13.7542C22.5023 13.6932 22.3514 13.6474 22.2006 13.6016C22.0648 13.5558 21.929 13.51 21.7631 13.449C21.7027 13.4337 21.2652 13.2506 21.2199 13.2201L20.6165 12.9454V13.6321C20.6165 13.6321 20.5863 14.0594 20.5863 14.2273C20.5863 14.8835 20.5863 15.5396 20.5863 16.1653V16.2416V16.913V17.1267L16.4677 16.9741H16V17.3861V47.4026C16 47.4026 16 47.5094 16 47.5552V47.9672L16.4073 48.013C16.4073 48.013 17.1315 48.0893 17.3427 48.1046C17.388 48.1046 17.6595 48.1198 18.5798 48.1656C19.3643 48.2114 20.541 48.2724 20.6617 48.2724C20.7523 48.2724 20.8428 48.2877 20.9333 48.3029C21.0238 48.3029 21.0992 48.3182 21.1898 48.3335C21.401 48.364 21.6122 48.3792 21.8234 48.4098C22.1553 48.4555 22.5476 48.4861 22.9096 48.5318C23.0756 48.5471 23.2566 48.5624 23.4226 48.5776C23.6036 48.5929 23.7997 48.6081 23.9959 48.6387C24.192 48.6539 24.3881 48.6844 24.5692 48.715C24.7351 48.7302 24.9161 48.7607 25.0972 48.776C25.2782 48.7913 25.4743 48.8218 25.6554 48.837C25.8213 48.8523 25.9722 48.8676 26.1382 48.8828C26.3645 48.9133 26.6058 48.9439 26.8321 48.9591C26.9981 48.9744 27.149 49.0049 27.3149 49.0202C27.4054 49.0202 27.511 49.0354 27.6015 49.0507C27.677 49.0507 27.7675 49.0659 27.8429 49.0812C27.9938 49.0965 28.1447 49.1117 28.2955 49.127C28.552 49.1575 28.8236 49.188 29.0951 49.2185C29.2611 49.2338 29.4421 49.2491 29.6081 49.2643C29.8042 49.2796 30.0003 49.3101 30.2115 49.3254C30.4076 49.3406 30.5887 49.3711 30.7848 49.4017C30.9508 49.4169 31.1318 49.4474 31.3128 49.4627C31.4939 49.478 31.69 49.5085 31.871 49.5237C32.037 49.539 32.2029 49.5543 32.3689 49.5695C32.5952 49.6 32.8366 49.6306 33.0629 49.6458H33.078C33.2288 49.6611 33.3948 49.6916 33.5456 49.7069C33.6512 49.7069 33.7418 49.7221 33.8474 49.7374C33.9228 49.7374 34.0133 49.7526 34.0888 49.7679L34.3905 49.7984C34.7073 49.8289 35.0392 49.8747 35.356 49.9052C35.7181 49.951 36.0802 49.9663 36.4423 49.9663C36.6233 49.9663 36.8194 49.9663 37.0005 49.951C37.2418 49.9358 37.4832 49.9052 37.7397 49.8747C37.8755 49.8595 37.9962 49.8442 38.1319 49.8289C38.313 49.8137 38.494 49.7832 38.66 49.7679C38.8259 49.7526 38.9919 49.7374 39.1578 49.7221C39.354 49.7069 39.5652 49.6763 39.7613 49.6458H39.7764C39.9725 49.6153 40.1686 49.6 40.3497 49.5695C40.5156 49.5543 40.6967 49.539 40.8626 49.5085C41.0286 49.4932 41.1945 49.478 41.3605 49.4474C41.5566 49.4322 41.7527 49.4017 41.9488 49.3864C42.145 49.3559 42.3562 49.3406 42.5674 49.3101C42.7484 49.2948 42.9144 49.2796 43.0803 49.2491C43.2463 49.2338 43.4424 49.2185 43.6234 49.188C43.8497 49.1575 44.0911 49.127 44.3174 49.1117C44.4834 49.0965 44.6342 49.0659 44.8002 49.0507C44.8907 49.0507 44.9963 49.0354 45.0868 49.0202C45.1774 49.0202 45.2528 49.0049 45.3433 48.9896C45.4942 48.9744 45.63 48.9591 45.7808 48.9439H45.811C46.0675 48.9133 46.339 48.8828 46.6106 48.8523C46.7765 48.837 46.9425 48.8218 47.1084 48.8065C47.2895 48.7913 47.5007 48.7607 47.7119 48.7455C47.9382 48.715 48.1494 48.6997 48.3757 48.6692C48.5266 48.6539 48.6624 48.6387 48.8132 48.6081C48.9188 48.6081 49.0244 48.5776 49.1149 48.5776C49.1904 48.5776 49.2658 48.5624 49.3563 48.5471C49.5072 48.5318 49.6731 48.5166 49.824 48.4861C50.0805 48.4555 50.352 48.425 50.6236 48.3945C50.7896 48.3792 50.9706 48.364 51.1365 48.3487C51.3327 48.3335 51.5288 48.3029 51.74 48.2877C51.9361 48.2724 52.1473 48.2419 52.3284 48.2114C52.4189 48.2114 53.1732 48.1656 53.7616 48.1503C54.6668 48.1046 55.2401 48.0893 55.3608 48.074H55.406C55.4815 48.074 55.572 48.0588 55.6474 48.0435C55.7078 48.0435 55.753 48.0435 55.8134 48.0283L56.4923 47.9672L56.8996 47.9214V47.5094C56.8996 47.5094 56.8996 47.0058 56.8996 46.9753L57.0957 47.0211ZM20.5863 43.4197C20.5863 43.5418 20.5863 43.8165 20.5863 43.8318V44.137L20.873 44.2438C21.235 44.3811 21.6575 44.549 22.0799 44.7168C22.5325 44.9 23.0002 45.0831 23.3924 45.2204H23.4226C23.7545 45.3578 24.0864 45.4798 24.4334 45.6019C25.1274 45.8613 25.8213 46.1208 26.5153 46.3802L26.8623 46.5175L28.6123 47.1737H28.6274C28.9895 47.311 29.3516 47.4484 29.7287 47.6162C29.3667 47.5705 29.0197 47.5399 28.6576 47.4942C28.4464 47.4636 28.2201 47.4484 28.0089 47.4179C27.6015 47.3721 27.1942 47.3263 26.7718 47.2805H26.7567L26.2136 47.2195L24.4183 47.0211L23.9204 46.9601L23.7092 46.9295C23.3471 46.8838 22.9851 46.8532 22.623 46.8075L22.2006 46.7617H22.1553C21.7329 46.7159 21.2803 46.6549 20.8428 46.6091C20.6768 46.5938 20.2091 46.5786 19.4548 46.548C18.9117 46.5328 18.2479 46.5023 18.097 46.487C17.9763 46.4717 17.8406 46.4565 17.7199 46.4412C17.7199 46.1665 17.7048 44.9457 17.6897 42.1531C17.6897 39.681 17.6897 36.3391 17.6746 32.7682C17.6746 26.4353 17.6746 19.4767 17.7048 18.7595C17.75 18.7595 17.7802 18.7595 17.8255 18.7595H17.8406C17.9612 18.7595 19.6962 18.8511 20.5712 18.8968C20.5712 18.8968 20.5712 19.0189 20.5712 19.08C20.5712 19.7667 20.5712 20.4381 20.5712 21.1248V21.7963V23.5664C20.5712 29.6857 20.5712 36.629 20.5712 43.4045L20.5863 43.4197ZM24.539 43.8165L24.3278 43.7402C23.664 43.496 23.0152 43.2519 22.3514 43.0077C22.3363 43.0077 22.3062 42.9924 22.276 42.9772C22.276 42.9772 22.276 42.9772 22.2609 42.9772V15.4023C22.2609 15.4023 22.3213 15.4176 22.3665 15.4328C22.4721 15.4633 22.5777 15.5091 22.6833 15.5396C23.3471 15.7838 23.9959 16.028 24.6597 16.2721L25.3687 16.5315L26.455 16.9436C27.2998 17.264 28.1597 17.5845 29.0046 17.9049C30.0757 18.3017 31.1469 18.6985 32.218 19.0952L32.3085 19.1257L32.6706 19.2631C33.3495 19.5225 34.2094 20.3465 34.2849 20.6212C34.4207 21.1858 34.5263 21.6284 34.6168 22.1015C34.662 22.3456 34.7224 22.605 34.7827 22.8797C35.1448 24.4668 35.5371 26.0538 35.8539 27.2593C36.0802 28.1444 36.2914 29.0143 36.3216 29.8841C36.3216 30.3419 36.3065 30.8149 36.2763 31.2575C36.2461 31.7 36.2009 32.0357 36.1556 32.3409C35.9746 33.2565 35.522 34.2027 35.0845 35.103L34.9638 35.3472C34.8883 35.4998 34.8129 35.6676 34.7224 35.8355C34.6771 35.9118 34.647 35.9881 34.6017 36.0796C34.4207 36.4306 34.5112 36.8579 34.8129 37.1173L35.1901 37.4378C35.0543 37.9261 34.8883 38.506 34.7224 39.0859C34.5564 39.681 34.4056 40.2456 34.2849 40.6729V40.7034C34.1642 41.0697 34.0284 41.5275 34.1038 42.0768C34.1491 42.3515 34.3151 42.5957 34.5715 42.7178C34.6771 42.7788 34.8129 42.7941 34.9336 42.7941C35.0845 42.7941 35.2353 42.7483 35.3711 42.672C35.7181 42.4583 35.9142 42.1837 36.05 41.9853C36.0651 41.9548 36.0802 41.9395 36.1104 41.909C36.4272 41.4817 36.744 40.9018 37.0608 40.3372C37.3474 39.8336 37.6341 39.3148 37.8755 38.9791L40.0027 39.7573C40.0932 39.9252 40.1686 40.1083 40.2592 40.2914C40.5307 40.856 40.8324 41.6953 41.1191 42.5194C41.4359 43.435 41.7678 44.3659 42.1148 45.0526C42.2807 45.3883 42.4769 45.6935 42.673 45.9834L42.5976 46.0139C41.8885 46.2734 41.1794 46.548 40.4704 46.8075C40.2742 46.8838 40.0932 46.9448 39.8971 47.0211C39.3389 47.2347 38.7656 47.4484 38.1923 47.6468C37.785 47.7994 37.4531 47.8757 37.1513 47.8909C37.091 47.8909 37.0457 47.8909 36.9854 47.8909C36.7742 47.9062 36.5479 47.9214 36.3367 47.9214C35.8237 47.9214 35.2806 47.8146 34.6922 47.5857C34.0586 47.3416 33.4099 47.1127 32.7762 46.8685C32.2935 46.6854 31.8107 46.5175 31.3279 46.3344C30.6189 46.075 29.8947 45.8003 29.1856 45.5409H29.1555C28.2955 45.2052 27.4507 44.9 26.5907 44.5795C25.8817 44.3201 25.1877 44.0607 24.4786 43.786L24.539 43.8165ZM48.4662 34.3247C48.5718 34.3247 48.6624 34.3553 48.768 34.3705C48.7981 34.3705 48.8434 34.3705 48.8736 34.3705C49.0848 34.3705 49.2809 34.2942 49.4318 34.1569C49.6128 33.989 49.7184 33.7601 49.7184 33.5007V33.4549C49.7184 33.1192 49.5072 32.8293 49.2055 32.6919L49.13 32.6614C49.13 32.6614 48.9943 32.6004 48.9339 32.5851C48.074 32.2341 46.9425 31.7458 45.8563 31.1507C44.2571 30.2656 42.8842 29.2584 41.3001 27.7782C40.4854 27.0152 39.9122 25.7791 39.4445 24.7872L39.3992 24.6804C38.7505 23.2765 38.4337 21.8268 38.5544 20.7891C38.5996 20.4381 38.6147 20.3008 38.8712 20.1024C39.2333 19.8124 40.0329 19.4462 41.4208 18.9426L41.7829 18.8053L42.2053 18.6527L42.5825 18.5001C44.1666 17.9049 45.7507 17.3098 47.3347 16.7299C48.3606 16.3484 49.3865 15.9669 50.4275 15.5854L50.699 15.4786C50.699 15.4786 50.7896 15.4481 50.8197 15.4328V42.9924C50.8197 42.9924 50.6839 43.0535 50.6085 43.0687C50.4426 43.145 50.2615 43.2061 50.0805 43.2824C49.0697 43.6639 48.0589 44.0301 47.0632 44.4116H47.033C46.4295 44.6405 45.8261 44.8694 45.2377 45.0831L44.8153 45.2357C44.8153 45.2357 44.8153 45.1441 44.8002 45.1136C44.7549 44.7779 44.7097 44.4116 44.6493 44.0607C44.5437 43.5418 44.4381 42.7635 44.3325 42.0005C44.2722 41.5427 44.2118 41.0849 44.1364 40.6577C44.1515 40.6577 44.1666 40.6577 44.1817 40.6577C44.4532 40.6577 44.7097 40.5203 44.8605 40.3067C45.0416 40.0473 45.0718 39.681 44.9058 39.3911C44.8605 39.3148 44.8153 39.2385 44.77 39.1622C44.6946 39.0248 44.6192 38.8875 44.5437 38.7654C44.0308 37.743 43.6084 36.568 43.201 35.0877C43.02 34.401 42.8993 33.7296 42.8389 33.0582C43.5933 33.3634 44.3174 33.5617 44.9058 33.7143C45.7959 33.9432 46.7011 34.0806 47.5761 34.2179L47.7572 34.2484C47.9835 34.279 48.2098 34.3095 48.4361 34.34L48.4662 34.3247ZM47.5309 47.1127C47.3649 47.1279 47.1839 47.1584 46.9877 47.1737C46.7916 47.189 46.5955 47.2195 46.4145 47.2347C46.2485 47.25 46.0826 47.2653 45.9166 47.2805C45.645 47.311 45.3735 47.3416 45.117 47.3721C45.0114 47.3721 44.8907 47.4026 44.7851 47.4179C44.7248 47.4179 44.6795 47.4179 44.6192 47.4331C44.5136 47.4331 44.423 47.4636 44.3174 47.4636C44.0157 47.4942 43.6687 47.5399 43.3066 47.5705L43.5631 47.4789C43.8648 47.3721 44.1666 47.25 44.4683 47.1432C45.8713 46.6243 47.2744 46.1055 48.6624 45.5714L49.4318 45.2815L49.5374 45.2357C49.99 45.0678 50.5331 44.8694 51.0762 44.6711C51.4986 44.5185 51.8758 44.3811 52.2228 44.259L52.5094 44.1522V43.8318C52.5094 43.8318 52.5094 43.3892 52.5094 43.3434V43.2824V18.8358L55.1797 18.729H55.1948H55.2099H55.3608C55.3759 19.3699 55.3909 24.009 55.406 32.4935C55.406 38.5213 55.406 45.663 55.3759 46.3954C55.225 46.3954 54.697 46.4412 54.184 46.4565C53.0224 46.5175 52.1021 46.5633 51.8758 46.5938C51.6947 46.6091 51.4986 46.6396 51.3176 46.6549C51.1365 46.6701 50.9404 46.6854 50.7594 46.7159C50.5029 46.7464 50.2314 46.7769 49.9749 46.8075C49.7184 46.838 49.4619 46.8685 49.2206 46.899C49.0244 46.9143 48.8283 46.9448 48.6473 46.9601C48.4813 46.9753 48.2852 46.9906 48.1042 47.0211C47.908 47.0364 47.727 47.0669 47.5309 47.0974V47.1127ZM44.3929 20.9722C42.3411 20.9722 40.6665 22.6356 40.6665 24.6651C40.6665 26.6947 42.3411 28.3581 44.3929 28.3581C46.4446 28.3581 48.1192 26.6947 48.1192 24.6651C48.1192 22.6356 46.4446 20.9722 44.3929 20.9722ZM46.4446 24.6651C46.4446 25.7639 45.5244 26.6642 44.3929 26.6642C43.2614 26.6642 42.3411 25.7639 42.3411 24.6651C42.3411 23.5664 43.2614 22.6661 44.3929 22.6661C45.5244 22.6661 46.4446 23.5664 46.4446 24.6651ZM209.424 20.2092C207.448 20.2092 205.849 18.5764 205.849 16.5773C205.849 14.5783 207.448 12.9607 209.424 12.9607C211.401 12.9607 213 14.5935 213 16.5773C213 18.5611 211.386 20.2092 209.424 20.2092ZM209.424 13.51C207.735 13.51 206.377 14.8835 206.377 16.5773C206.377 18.2712 207.735 19.6598 209.424 19.6598C211.114 19.6598 212.457 18.2712 212.457 16.5773C212.457 14.8835 211.099 13.51 209.424 13.51ZM208.368 15.6922V17.7981H207.991V15.6922H207.343V15.3565H209.032V15.6922H208.368ZM211.129 17.7981V16.1653L210.571 17.3556H210.299L209.726 16.1653V17.7981H209.364V15.3565H209.726L210.435 16.8673L211.129 15.3565H211.491V17.7981H211.129ZM75.2599 39.1317V40.7187H72.6198V48.0588H70.7641V40.7187H68.1089V39.1317H75.2599ZM80.7363 47.25C80.1932 47.9367 79.3484 48.2877 78.232 48.2877C77.1156 48.2877 76.2707 47.9367 75.7276 47.25C75.1845 46.5633 74.8978 45.7393 74.8978 44.7626C74.8978 43.786 75.1694 42.9924 75.7276 42.2905C76.2858 41.5885 77.1156 41.2375 78.232 41.2375C79.3484 41.2375 80.1932 41.5885 80.7363 42.2905C81.2794 42.9924 81.5661 43.8165 81.5661 44.7626C81.5661 45.7087 81.2945 46.5633 80.7363 47.25ZM79.3785 46.2886C79.6501 45.9376 79.7859 45.4188 79.7859 44.7626C79.7859 44.1064 79.6501 43.5876 79.3785 43.2366C79.107 42.8856 78.7298 42.7025 78.232 42.7025C77.7341 42.7025 77.3419 42.8856 77.0854 43.2366C76.8138 43.5876 76.6781 44.1064 76.6781 44.7626C76.6781 45.4188 76.8138 45.9376 77.0854 46.2886C77.3569 46.6549 77.7341 46.8227 78.232 46.8227C78.7298 46.8227 79.107 46.6396 79.3785 46.2886ZM86.3334 39.1317H88.174V46.4565H92.5793V48.0588H86.3334V39.1317ZM97.9199 41.5885C98.3725 41.8022 98.7497 42.1226 99.0514 42.5652C99.3229 42.9619 99.4889 43.4045 99.5643 43.9233C99.6096 44.2285 99.6247 44.6558 99.6247 45.2357H94.8724C94.9026 45.8919 95.1289 46.3649 95.5513 46.6243C95.8078 46.7922 96.1246 46.8685 96.4867 46.8685C96.8789 46.8685 97.1957 46.7617 97.4371 46.5633C97.5729 46.4565 97.6936 46.3039 97.7841 46.1055H99.5191C99.4738 46.5023 99.2626 46.899 98.8854 47.2958C98.2971 47.9367 97.4824 48.2572 96.4263 48.2572C95.5513 48.2572 94.797 47.9825 94.1332 47.4484C93.4694 46.9143 93.1375 46.0292 93.1375 44.8084C93.1375 43.6639 93.4392 42.7941 94.0427 42.1837C94.6461 41.5733 95.4155 41.2681 96.3811 41.2681C96.9544 41.2681 97.4673 41.3749 97.9199 41.5733V41.5885ZM95.3703 43.084C95.1289 43.3282 94.978 43.6792 94.9177 44.1064H97.8595C97.8294 43.6486 97.6785 43.2976 97.4069 43.0687C97.1354 42.8398 96.8035 42.7178 96.3962 42.7178C95.9586 42.7178 95.6117 42.8398 95.3854 43.0993L95.3703 43.084ZM103.079 44.0454C103.396 43.9996 103.623 43.9538 103.758 43.8928C104 43.786 104.12 43.6181 104.12 43.4045C104.12 43.1298 104.03 42.9467 103.834 42.8398C103.653 42.733 103.366 42.6872 103.004 42.6872C102.597 42.6872 102.31 42.7941 102.144 42.9924C102.023 43.145 101.948 43.3434 101.903 43.6029H100.258C100.288 43.023 100.454 42.5499 100.741 42.1837C101.194 41.6038 101.978 41.3138 103.079 41.3138C103.804 41.3138 104.437 41.4512 104.995 41.7411C105.554 42.0311 105.825 42.5652 105.825 43.3587V46.3802C105.825 46.5938 105.825 46.838 105.825 47.1432C105.825 47.3721 105.87 47.5247 105.931 47.601C105.991 47.6773 106.067 47.7536 106.187 47.7994V48.0588H104.332C104.286 47.9214 104.241 47.7994 104.226 47.6773C104.211 47.5552 104.196 47.4331 104.181 47.2805C103.939 47.5399 103.668 47.7536 103.366 47.9367C103.004 48.1503 102.582 48.2572 102.114 48.2572C101.526 48.2572 101.028 48.0893 100.635 47.7383C100.243 47.3873 100.047 46.9143 100.047 46.2886C100.047 45.4798 100.364 44.8847 100.982 44.5337C101.329 44.3353 101.827 44.198 102.491 44.1064L103.079 44.0301V44.0454ZM104.12 44.8389C104.015 44.9 103.894 44.961 103.789 45.0068C103.683 45.0526 103.532 45.0831 103.336 45.1289L102.944 45.2052C102.582 45.2662 102.325 45.3425 102.159 45.4341C101.888 45.5867 101.752 45.8308 101.752 46.1665C101.752 46.4565 101.827 46.6701 101.993 46.8075C102.159 46.9448 102.355 47.0058 102.597 47.0058C102.974 47.0058 103.306 46.899 103.623 46.6854C103.939 46.4717 104.105 46.075 104.105 45.4951V44.8542L104.12 44.8389ZM110.924 41.2986C110.924 41.2986 111 41.2986 111.075 41.2986V43.0687C110.97 43.0687 110.879 43.0535 110.789 43.0382C110.698 43.0382 110.638 43.0382 110.593 43.0382C109.914 43.0382 109.446 43.2671 109.205 43.7097C109.069 43.9691 109.008 44.3506 109.008 44.8847V48.0435H107.289V41.4512H108.918V42.5957C109.174 42.1531 109.416 41.8479 109.612 41.6953C109.929 41.4207 110.351 41.2833 110.864 41.2833C110.894 41.2833 110.924 41.2833 110.94 41.2833L110.924 41.2986ZM117.336 41.8327C117.759 42.1837 117.97 42.7788 117.97 43.6029V48.0435H116.22V44.0301C116.22 43.6792 116.175 43.4197 116.084 43.2366C115.918 42.9009 115.601 42.733 115.134 42.733C114.56 42.733 114.168 42.9772 113.957 43.4808C113.851 43.7402 113.791 44.0759 113.791 44.4879V48.0588H112.086V41.4664H113.731V42.4278C113.942 42.0921 114.153 41.8479 114.349 41.6953C114.696 41.4359 115.149 41.2986 115.677 41.2986C116.341 41.2986 116.899 41.4817 117.321 41.8327H117.336ZM119.479 49.4932C119.826 49.4017 120.067 49.2338 120.233 49.0049C120.399 48.776 120.489 48.4555 120.504 48.0588H119.463V46.2428H121.304V47.8146C121.304 48.0893 121.274 48.3792 121.198 48.6692C121.123 48.9591 120.987 49.2338 120.791 49.4474C120.58 49.6763 120.338 49.8595 120.052 49.9815C119.765 50.1036 119.569 50.1647 119.463 50.1647V49.4932H119.479ZM126.509 39.1317H128.349V46.4565H132.755V48.0588H126.509V39.1317ZM135.606 40.6729H133.871V39.0859H135.606V40.6729ZM133.886 41.4512H135.621V48.0435H133.886V41.4512ZM141.279 41.4512H143.104L140.751 48.0435H138.955L136.617 41.4512H138.533L139.891 46.3191L141.279 41.4512ZM148.324 41.5885C148.777 41.8022 149.154 42.1226 149.455 42.5652C149.727 42.9619 149.893 43.4045 149.968 43.9233C150.014 44.2285 150.029 44.6558 150.029 45.2357H145.277C145.307 45.8919 145.533 46.3649 145.955 46.6243C146.212 46.7922 146.529 46.8685 146.891 46.8685C147.283 46.8685 147.6 46.7617 147.841 46.5633C147.977 46.4565 148.098 46.3039 148.188 46.1055H149.923C149.878 46.5023 149.667 46.899 149.29 47.2958C148.701 47.9367 147.887 48.2572 146.83 48.2572C145.955 48.2572 145.201 47.9825 144.537 47.4484C143.873 46.9143 143.542 46.0292 143.542 44.8084C143.542 43.6639 143.843 42.7941 144.447 42.1837C145.05 41.5733 145.82 41.2681 146.785 41.2681C147.358 41.2681 147.871 41.3749 148.324 41.5733V41.5885ZM145.774 43.084C145.533 43.3282 145.382 43.6792 145.322 44.1064H148.264C148.233 43.6486 148.083 43.2976 147.811 43.0687C147.54 42.8398 147.208 42.7178 146.8 42.7178C146.363 42.7178 146.031 42.8398 145.789 43.0993L145.774 43.084ZM154.555 44.3201C154.811 43.9386 155.249 43.5571 155.852 43.1756L156.033 43.0535C155.777 42.7635 155.581 42.4583 155.445 42.1684C155.309 41.8632 155.234 41.5427 155.234 41.2223C155.234 40.5661 155.445 40.0625 155.882 39.6963C156.32 39.33 156.878 39.1469 157.572 39.1469C158.206 39.1469 158.734 39.33 159.141 39.7115C159.548 40.093 159.76 40.5661 159.76 41.146C159.76 41.6648 159.639 42.0921 159.382 42.4278C159.141 42.7483 158.764 43.0535 158.296 43.3434L159.563 44.9C159.714 44.6863 159.82 44.4574 159.895 44.2133C159.971 43.9691 160.016 43.7097 160.016 43.435H161.525C161.495 43.9844 161.374 44.5185 161.132 45.0831C161.012 45.3883 160.801 45.7393 160.514 46.1208L162.113 48.0588H160.046L159.428 47.2958C159.126 47.5705 158.854 47.7841 158.598 47.9214C158.145 48.1656 157.602 48.2877 157.014 48.2877C156.109 48.2877 155.4 48.0283 154.902 47.4942C154.389 46.9601 154.147 46.3649 154.147 45.724C154.147 45.1899 154.283 44.7321 154.54 44.3506L154.555 44.3201ZM156.229 46.4565C156.471 46.7006 156.788 46.8227 157.165 46.8227C157.451 46.8227 157.723 46.7617 157.964 46.6243C158.221 46.5023 158.417 46.3497 158.583 46.1971L156.938 44.1675C156.501 44.4574 156.214 44.7016 156.078 44.9305C155.943 45.1441 155.867 45.3883 155.867 45.6477C155.867 45.9376 155.988 46.2123 156.229 46.4565ZM156.984 41.6801C157.059 41.8022 157.225 42.0005 157.466 42.3057C157.708 42.1379 157.889 41.9853 157.994 41.8785C158.206 41.6648 158.311 41.4207 158.311 41.1612C158.311 40.9781 158.251 40.8103 158.13 40.6577C158.01 40.5051 157.813 40.444 157.572 40.444C157.421 40.444 157.27 40.4898 157.135 40.5661C156.923 40.6882 156.818 40.8866 156.818 41.1612C156.818 41.3291 156.878 41.497 156.999 41.6648L156.984 41.6801ZM171.859 39.33C172.478 39.5284 172.975 39.9099 173.368 40.4593C173.669 40.9018 173.881 41.3901 174.001 41.8937C174.107 42.4126 174.167 42.9009 174.167 43.374C174.167 44.5642 173.926 45.5714 173.458 46.3954C172.825 47.5094 171.829 48.0588 170.501 48.0588H166.699V39.1317H170.501C171.044 39.1317 171.497 39.208 171.874 39.33H171.859ZM168.48 40.6729V46.5023H170.184C171.059 46.5023 171.663 46.075 172.01 45.2052C172.191 44.7321 172.297 44.1675 172.297 43.5113C172.297 42.6109 172.161 41.909 171.874 41.4207C171.587 40.9323 171.029 40.6882 170.199 40.6882H168.495L168.48 40.6729ZM179.025 41.2986C179.025 41.2986 179.101 41.2986 179.176 41.2986V43.0687C179.07 43.0687 178.98 43.0535 178.889 43.0382C178.799 43.0382 178.738 43.0382 178.693 43.0382C178.014 43.0382 177.547 43.2671 177.305 43.7097C177.169 43.9691 177.109 44.3506 177.109 44.8847V48.0435H175.389V41.4512H177.019V42.5957C177.275 42.1531 177.516 41.8479 177.713 41.6953C178.029 41.4207 178.452 41.2833 178.95 41.2833C178.98 41.2833 179.01 41.2833 179.025 41.2833V41.2986ZM184.426 41.5885C184.879 41.8022 185.256 42.1226 185.558 42.5652C185.829 42.9619 185.995 43.4045 186.071 43.9233C186.116 44.2285 186.131 44.6558 186.131 45.2357H181.379C181.409 45.8919 181.635 46.3649 182.058 46.6243C182.314 46.7922 182.631 46.8685 182.993 46.8685C183.385 46.8685 183.702 46.7617 183.943 46.5633C184.079 46.4565 184.2 46.3039 184.29 46.1055H186.025C185.98 46.5023 185.769 46.899 185.392 47.2958C184.803 47.9367 183.989 48.2572 182.933 48.2572C182.058 48.2572 181.303 47.9825 180.639 47.4484C179.976 46.9143 179.644 46.0292 179.644 44.8084C179.644 43.6639 179.945 42.7941 180.549 42.1837C181.152 41.5733 181.922 41.2681 182.887 41.2681C183.461 41.2681 183.973 41.3749 184.426 41.5733V41.5885ZM181.876 43.084C181.635 43.3282 181.484 43.6792 181.424 44.1064H184.366C184.336 43.6486 184.185 43.2976 183.913 43.0687C183.642 42.8398 183.31 42.7178 182.902 42.7178C182.465 42.7178 182.133 42.8398 181.892 43.0993L181.876 43.084ZM189.571 44.0454C189.887 43.9996 190.114 43.9538 190.249 43.8928C190.491 43.786 190.612 43.6181 190.612 43.4045C190.612 43.1298 190.521 42.9467 190.325 42.8398C190.144 42.733 189.857 42.6872 189.495 42.6872C189.088 42.6872 188.801 42.7941 188.635 42.9924C188.515 43.145 188.439 43.3434 188.394 43.6029H186.749C186.78 43.023 186.946 42.5499 187.232 42.1837C187.685 41.6038 188.469 41.3138 189.571 41.3138C190.295 41.3138 190.928 41.4512 191.487 41.7411C192.045 42.0311 192.316 42.5652 192.316 43.3587V46.3802C192.316 46.5938 192.316 46.838 192.316 47.1432C192.316 47.3721 192.362 47.5247 192.422 47.601C192.482 47.6773 192.558 47.7536 192.678 47.7994V48.0588H190.823C190.778 47.9214 190.732 47.7994 190.717 47.6773C190.702 47.5552 190.687 47.4331 190.672 47.2805C190.431 47.5399 190.159 47.7536 189.857 47.9367C189.495 48.1503 189.073 48.2572 188.605 48.2572C188.017 48.2572 187.519 48.0893 187.127 47.7383C186.734 47.4026 186.538 46.9143 186.538 46.2886C186.538 45.4798 186.855 44.8847 187.474 44.5337C187.821 44.3353 188.318 44.198 188.982 44.1064L189.571 44.0301V44.0454ZM190.612 44.8389C190.506 44.9 190.385 44.961 190.28 45.0068C190.174 45.0526 190.023 45.0831 189.827 45.1289L189.435 45.2052C189.073 45.2662 188.816 45.3425 188.65 45.4341C188.379 45.5867 188.243 45.8308 188.243 46.1665C188.243 46.4565 188.318 46.6701 188.484 46.8075C188.65 46.9448 188.846 47.0058 189.088 47.0058C189.465 47.0058 189.797 46.899 190.114 46.6854C190.431 46.4717 190.596 46.075 190.596 45.4951V44.8542L190.612 44.8389ZM201.942 41.4817C202.228 41.5885 202.47 41.7869 202.696 42.0768C202.877 42.3057 202.998 42.5957 203.073 42.9314C203.118 43.1603 203.133 43.4808 203.133 43.9081V48.0588H201.368V43.8623C201.368 43.6181 201.323 43.4045 201.248 43.2519C201.097 42.9467 200.81 42.7941 200.403 42.7941C199.935 42.7941 199.603 42.9924 199.422 43.3892C199.332 43.6029 199.286 43.847 199.286 44.1522V48.074H197.566V44.1522C197.566 43.7555 197.521 43.4808 197.446 43.2977C197.295 42.9772 197.023 42.8246 196.601 42.8246C196.118 42.8246 195.786 42.9772 195.62 43.2977C195.53 43.4808 195.485 43.7555 195.485 44.1064V48.074H193.75V41.4817H195.409V42.4431C195.62 42.1074 195.816 41.8632 196.013 41.7106C196.344 41.4512 196.767 41.3291 197.295 41.3291C197.793 41.3291 198.2 41.4359 198.502 41.6648C198.743 41.8632 198.939 42.1379 199.06 42.4583C199.286 42.0768 199.558 41.7869 199.89 41.6038C200.237 41.4207 200.629 41.3291 201.067 41.3291C201.353 41.3291 201.64 41.3901 201.911 41.497L201.942 41.4817Z"></path>
</g>
<g clip-path="url(#clip1_2426_4835)">
<path fill="#8FD3F4" d="M325.613 2.979H233.388V48.3198H325.613V2.979Z"></path>
<path fill="#211E1F" d="M326 2.58545H233V48.7134H326V2.58545Z"></path>
<path fill="white" d="M258.423 15.462L260.378 10.6824L260.507 10.7386C261.024 10.9635 261.43 11.3759 261.633 11.9007C261.854 12.4255 261.836 13.0066 261.633 13.5314L259.677 18.311L259.548 18.2548C258.478 17.8049 257.98 16.5491 258.423 15.462ZM261.909 20.3166L262.002 20.4103L265.599 16.7553C266.411 15.9306 266.411 14.5623 265.599 13.7376L265.507 13.6438L261.909 17.2989C261.098 18.1236 261.098 19.4919 261.909 20.3166ZM263.311 23.1843L263.367 23.3155L268.071 21.3475C268.588 21.1413 268.994 20.7289 269.215 20.2041C269.436 19.6793 269.436 19.0982 269.215 18.5734L269.16 18.4422L264.455 20.4103C263.385 20.8601 262.869 22.0972 263.311 23.1843ZM286.335 27.8702H283.439V26.4645H286.28V25.2274H283.439V23.9153H286.335V22.6783H282.129V29.0886H286.335V27.8515V27.8702ZM249.161 19.5293C249.696 19.5293 250.231 19.3232 250.637 18.9108L250.729 18.8171L247.132 15.1621C246.745 14.7685 246.21 14.5435 245.656 14.5435C245.103 14.5435 244.568 14.7685 244.162 15.1621L244.069 15.2558L247.667 18.9108C248.073 19.3232 248.608 19.5293 249.161 19.5293ZM246.671 22.6033C246.947 22.6033 247.206 22.5471 247.464 22.4346C247.981 22.2097 248.386 21.8161 248.608 21.2912L248.663 21.16L243.959 19.1732C243.442 18.9483 242.87 18.9483 242.354 19.1732C241.837 19.3981 241.431 19.7917 241.21 20.3166L241.155 20.4478L245.859 22.4346C246.117 22.5471 246.394 22.6033 246.671 22.6033ZM251.615 32.4062L251.486 32.35L249.53 37.1296C249.309 37.6544 249.309 38.2354 249.53 38.7603C249.752 39.2851 250.139 39.6975 250.656 39.9224L250.785 39.9786L252.74 35.199C252.962 34.6742 252.962 34.0931 252.74 33.5683C252.537 33.0435 252.132 32.6311 251.615 32.4062ZM249.254 30.3444L249.161 30.2507L245.564 33.9057C244.752 34.7304 244.752 36.0987 245.564 36.9234L245.656 37.0171L249.254 33.3621C250.065 32.5374 250.065 31.1691 249.254 30.3444ZM247.851 29.1073C248.073 28.5825 248.073 28.0014 247.851 27.4766L247.796 27.3454L243.092 29.3135C242.022 29.7633 241.505 31.0004 241.948 32.0875L242.003 32.2188L246.708 30.2507C247.224 30.0258 247.63 29.6321 247.851 29.1073ZM247.63 24.3277V24.1965H242.538C241.376 24.1965 240.435 25.1524 240.435 26.3333V26.4645H245.527C246.689 26.4645 247.63 25.5085 247.63 24.3277ZM287.59 22.697V26.5394C287.59 28.2451 288.568 29.2198 290.247 29.2198C291.925 29.2198 292.885 28.2451 292.885 26.5207V22.6783H291.556V26.4832C291.556 27.4017 291.077 27.9452 290.247 27.9452C289.416 27.9452 288.918 27.4204 288.918 26.4832V22.6783H287.59V22.697ZM299.379 20.5602H297.829L300.301 14.1312H302.035L304.489 20.5602H302.939L302.533 19.4544H299.766L299.36 20.5602H299.379ZM300.172 18.2173H302.164L301.168 15.4432L300.172 18.2173ZM303.327 26.6707L304.655 29.1073H303.142L301.998 26.8393H301.131V29.1073H299.821V22.697H302.589C303.788 22.697 304.581 23.5405 304.581 24.7775C304.581 25.9209 303.936 26.502 303.308 26.6894M303.253 24.7588C303.253 24.2715 302.902 23.9153 302.404 23.9153H301.131V25.6023H302.404C302.902 25.6023 303.253 25.2649 303.253 24.7588ZM314.599 19.3232H311.481V17.9174H314.525V16.6803H311.481V15.3683H314.599V14.1312H310.061V20.5602H314.599V19.3232ZM305.836 20.5602H307.256V15.387H309.083V14.1312H303.991V15.387H305.836V20.5602ZM286.243 19.3044H283.587V14.1312H282.166V20.5602H286.243V19.3044ZM288.512 14.1312H287.092V20.5602H288.512V14.1312ZM297.017 29.1073V23.9528H298.715V22.697H293.973V23.9528H295.689V29.1073H297.017ZM250.527 11.4696C250.01 11.2447 249.438 11.2447 248.921 11.4696L248.792 11.5258L250.729 16.3054C250.951 16.8303 251.338 17.2426 251.855 17.4675C252.113 17.58 252.39 17.6362 252.667 17.6362C252.943 17.6362 253.202 17.58 253.46 17.4675L253.589 17.4113L251.652 12.6317C251.43 12.1069 251.043 11.6945 250.527 11.4696ZM291.483 16.1367L293.198 20.5415L293.826 20.5602L295.541 16.1367V20.5602H296.962V14.1312H295.006L293.494 18.0299L291.999 14.1499L290.062 14.1312V20.5602H291.483V16.1367ZM262.002 31.1316C261.448 31.1316 260.913 31.3566 260.526 31.7502L260.433 31.8439L264.031 35.4989C264.437 35.9112 264.972 36.1174 265.507 36.1174C266.042 36.1174 266.577 35.9112 267.001 35.4989L267.093 35.4052L263.496 31.7502C263.09 31.3378 262.574 31.1316 262.002 31.1316ZM295.136 39.435H295.818V38.048H297.368V37.392H295.818V36.7172H297.405V36.0612H295.136V39.4163V39.435ZM292.626 39.435H293.309V36.0799H292.626V39.435ZM288.457 36.736H289.398V39.435H290.081V36.736H291.021V36.0799H288.457V36.736ZM299.047 39.435H299.729V36.0799H299.047V39.435ZM286.317 38.1605L287.129 39.435H286.317L285.598 38.2355H285.21V39.435H284.527V36.0799H285.93C286.575 36.0799 287.018 36.5298 287.018 37.1483C287.018 37.6919 286.704 38.0293 286.335 38.1417M286.299 37.1671C286.299 36.9047 286.114 36.736 285.856 36.736H285.21V37.5982H285.856C286.133 37.5982 286.299 37.4295 286.299 37.1671ZM301.537 39.435H303.806V38.779H302.22V38.048H303.77V37.392H302.22V36.7172H303.806V36.0612H301.537V39.4163V39.435ZM254.604 33.4183H254.475V38.5916C254.475 39.7724 255.415 40.7284 256.578 40.7284H256.707V35.5551C256.707 34.3743 255.766 33.4183 254.604 33.4183ZM308.419 37.7669C308.419 38.7415 307.718 39.435 306.721 39.435H305.522V36.0799H306.721C307.718 36.0799 308.419 36.7735 308.419 37.7481M307.718 37.7669C307.718 37.1483 307.33 36.736 306.721 36.736H306.205V38.7978H306.721C307.404 38.7978 307.718 38.2917 307.718 37.7669ZM312.533 22.697V29.1073H316.333V27.8515H313.861V22.697H312.551H312.533ZM275.912 33.0247H316.388V32.2375H275.912V33.0247ZM307.644 22.697H309.267L311.536 29.1073H310.097L309.728 28.0202H307.146L306.777 29.1073H305.338L307.625 22.697H307.644ZM308.455 23.9903L307.533 26.7644H309.378L308.455 23.9903ZM262.555 29.3697L262.5 29.5009L267.204 31.4878C267.462 31.6002 267.739 31.6564 268.016 31.6564C268.846 31.6564 269.621 31.1691 269.953 30.3444L270.008 30.2132L265.304 28.2264C264.234 27.7765 262.998 28.2826 262.555 29.3697ZM259.308 33.1934C258.792 32.9685 258.22 32.9685 257.703 33.1934L257.574 33.2497L259.511 38.0293C259.732 38.5541 260.12 38.9665 260.636 39.1914C260.895 39.3038 261.171 39.3601 261.448 39.3601C261.725 39.3601 261.983 39.3038 262.241 39.1914L262.371 39.1351L260.433 34.3555C260.212 33.8307 259.825 33.4183 259.308 33.1934ZM280.524 39.435H282.793V38.779H281.207V38.048H282.756V37.392H281.207V36.7172H282.793V36.0612H280.524V39.4163V39.435ZM254.604 9.93262H254.475V15.1058C254.475 16.2867 255.415 17.2426 256.578 17.2426H256.707V12.0694C256.707 10.8885 255.766 9.93262 254.604 9.93262ZM278.329 38.4416C278.181 38.6853 277.904 38.8352 277.609 38.8352C277.056 38.8352 276.631 38.3854 276.631 37.7669C276.631 37.1483 277.037 36.6985 277.609 36.6985C277.904 36.6985 278.181 36.8484 278.329 37.0921L278.384 37.1858L278.974 36.8672L278.901 36.7547C278.587 36.2861 278.144 36.0425 277.591 36.0425C276.631 36.0425 275.912 36.7922 275.912 37.7669C275.912 38.7415 276.631 39.4913 277.591 39.4913C278.144 39.4913 278.587 39.2476 278.901 38.779L278.974 38.6666L278.384 38.3479L278.329 38.4416ZM276.668 24.9275L279.417 29.1073H280.672V22.697H279.362V26.7269L276.705 22.697H275.377V29.1073H276.687V24.9275H276.668ZM263.533 26.3333V26.4645H268.625C269.787 26.4645 270.728 25.5085 270.728 24.3277V24.1965H265.636C264.474 24.1965 263.533 25.1524 263.533 26.3333ZM278.329 20.6727C279.528 20.6727 280.45 20.1479 281.041 19.0982V19.0607L279.842 18.461V18.4984C279.546 19.0607 278.974 19.3981 278.329 19.3981C277.24 19.3981 276.429 18.5172 276.429 17.3363C276.429 16.1555 277.24 15.2745 278.329 15.2745C278.956 15.2745 279.546 15.6307 279.823 16.1742V16.2117L281.059 15.6119V15.5744C280.635 14.8622 279.842 14 278.329 14C276.392 14 274.99 15.4057 274.99 17.3363C274.99 19.2669 276.392 20.6727 278.329 20.6727Z"></path>
</g>
<g clip-path="url(#clip2_2426_4835)">
<path fill="white" d="M447.409 0.5H346V50.799H447.409V0.5Z"></path>
<path fill="#055657" d="M381.29 45.9756H351.517V4.97607H376.707V6.59071H353.119V44.361H381.29V45.9756Z"></path>
<path fill="#055657" d="M441.588 45.9756H411.814V44.361H439.986V6.59071H416.398V4.97607H441.588V45.9756Z"></path>
<path fill="#055657" d="M437.33 8.71617C437.553 8.8388 437.715 9.02275 437.837 9.22713C437.958 9.45196 438.019 9.69722 438.019 9.96292C438.019 10.2286 437.958 10.4943 437.837 10.6987C437.715 10.9235 437.553 11.087 437.33 11.2097C437.106 11.3323 436.863 11.3936 436.599 11.3936C436.336 11.3936 436.072 11.3323 435.869 11.2097C435.646 11.087 435.484 10.9031 435.362 10.6987C435.241 10.4739 435.18 10.2286 435.18 9.96292C435.18 9.69722 435.241 9.45196 435.362 9.22713C435.484 9.00231 435.646 8.8388 435.869 8.71617C436.092 8.59354 436.336 8.53223 436.599 8.53223C436.863 8.53223 437.106 8.59354 437.33 8.71617ZM437.411 10.8213C437.614 10.5965 437.715 10.3308 437.715 9.98336C437.715 9.6359 437.614 9.34976 437.411 9.14538C437.208 8.92056 436.924 8.81837 436.599 8.81837C436.275 8.81837 435.991 8.92056 435.788 9.14538C435.585 9.3702 435.484 9.6359 435.484 9.98336C435.484 10.3308 435.585 10.6169 435.788 10.8213C435.991 11.0462 436.275 11.1483 436.599 11.1483C436.924 11.1483 437.208 11.0462 437.411 10.8213ZM437.147 9.96292C437.147 9.96292 437.005 10.106 436.904 10.1264L437.289 10.7191H436.843L436.498 10.1673H436.376V10.7396H436.011V9.22713H436.681C436.843 9.22713 436.964 9.26801 437.066 9.34976C437.167 9.43152 437.208 9.55415 437.208 9.69722C437.208 9.81985 437.188 9.9016 437.127 9.98336M436.397 9.86073H436.681C436.681 9.86073 436.782 9.86073 436.802 9.81985C436.843 9.79941 436.863 9.75853 436.863 9.69722C436.863 9.65634 436.863 9.61546 436.802 9.57459C436.762 9.55415 436.721 9.53371 436.681 9.53371H436.397V9.86073Z"></path>
<path fill="#055657" d="M379.059 4.19938C379.242 3.85193 379.506 3.58623 379.85 3.38184C380.195 3.1979 380.58 3.0957 381.006 3.0957C381.534 3.0957 381.98 3.23877 382.365 3.52491C382.73 3.81105 382.994 4.17894 383.116 4.66946H381.919C381.838 4.48552 381.696 4.34245 381.534 4.24026C381.371 4.13806 381.189 4.09719 380.986 4.09719C380.662 4.09719 380.378 4.21982 380.175 4.44464C379.972 4.66946 379.871 4.99648 379.871 5.38481C379.871 5.77314 379.972 6.07972 380.175 6.32498C380.378 6.5498 380.641 6.67243 380.986 6.67243C381.189 6.67243 381.371 6.63156 381.534 6.52936C381.696 6.42717 381.818 6.2841 381.919 6.10016H383.116C382.994 6.59068 382.73 6.95857 382.365 7.24471C381.98 7.53085 381.534 7.65348 381.006 7.65348C380.58 7.65348 380.195 7.55129 379.85 7.36734C379.506 7.18339 379.242 6.89726 379.059 6.57024C378.877 6.22279 378.775 5.83446 378.775 5.38481C378.775 4.93516 378.877 4.54683 379.059 4.19938Z"></path>
<path fill="#055657" d="M385.408 4.03608V4.93537H386.868V5.77335H385.408V6.75439H387.051V7.63325H384.333V3.15723H387.051V4.03608H385.408Z"></path>
<path fill="#055657" d="M390.66 7.63325L389.748 5.93686H389.484V7.63325H388.409V3.15723H390.214C390.559 3.15723 390.863 3.21854 391.107 3.34117C391.35 3.4638 391.533 3.62731 391.654 3.85213C391.776 4.05652 391.837 4.30178 391.837 4.56748C391.837 4.87406 391.756 5.13976 391.593 5.36458C391.431 5.5894 391.188 5.75291 390.863 5.8551L391.898 7.63325H390.681H390.66ZM389.484 5.18063H390.153C390.356 5.18063 390.498 5.13976 390.6 5.03756C390.701 4.93537 390.742 4.7923 390.742 4.6288C390.742 4.46529 390.701 4.32222 390.6 4.22003C390.498 4.11783 390.356 4.07696 390.153 4.07696H389.484V5.18063Z"></path>
<path fill="#055657" d="M396.218 3.15723V4.03608H395.041V7.63325H393.966V4.03608H392.79V3.15723H396.218Z"></path>
<path fill="#055657" d="M398.327 3.15723H397.252V7.63325H398.327V3.15723Z"></path>
<path fill="#055657" d="M402.667 3.15723V4.03608H400.862V4.97625H402.201V5.81423H400.862V7.63325H399.787V3.15723H402.667Z"></path>
<path fill="#055657" d="M404.817 3.15723H403.742V7.63325H404.817V3.15723Z"></path>
<path fill="#055657" d="M407.353 4.03608V4.93537H408.793V5.77335H407.353V6.75439H408.976V7.63325H406.258V3.15723H408.976V4.03608H407.353Z"></path>
<path fill="#055657" d="M413.214 3.44337C413.559 3.62731 413.843 3.89301 414.025 4.22003C414.208 4.54704 414.309 4.95581 414.309 5.38502C414.309 5.81423 414.208 6.20256 414.025 6.55001C413.843 6.89746 413.559 7.16316 413.214 7.34711C412.869 7.53106 412.464 7.63325 411.997 7.63325H410.334V3.15723H411.997C412.464 3.15723 412.869 3.25942 413.214 3.44337ZM412.869 6.34562C413.092 6.1208 413.214 5.79379 413.214 5.38502C413.214 4.97625 413.092 4.64923 412.869 4.42441C412.646 4.19959 412.322 4.07696 411.916 4.07696H411.409V6.67264H411.916C412.322 6.67264 412.646 6.55001 412.869 6.32519"></path>
<path fill="#055657" d="M364.071 13.3352C364.862 12.9673 365.694 12.6607 366.546 12.4563C371.778 11.1687 376.261 12.211 379.263 16.8914C379.912 17.8929 381.068 19.5484 381.311 20.7134C381.96 23.7792 381.514 27.0085 379.993 29.6859C378.046 33.14 374.476 36.0014 370.622 36.0218C366.647 36.0423 362.733 33.8554 360.4 30.8305C358.048 27.7851 358.048 25.3325 358.149 21.6536C358.25 17.7499 360.786 14.868 364.051 13.3147M363.767 12.3337C363.443 12.4972 363.118 12.6811 362.794 12.8651C361.556 13.6009 360.319 14.2958 359.528 15.5425C357.622 18.5674 356.851 22.3485 357.358 25.8844C358.433 33.4262 367.499 39.9051 374.699 35.797C375.166 35.5313 375.632 35.2656 376.099 34.9999C378.228 33.7736 379.79 31.7298 380.926 29.5837C381.514 28.4596 382.102 27.2537 382.264 25.9661C382.447 24.5354 382.467 22.9821 382.325 21.5514C382.325 21.4492 382.305 21.3675 382.285 21.2653C382.122 20.0594 381.635 19.1192 381.128 18.036C379.749 15.0315 376.241 12.3337 373.077 11.4957C371.981 11.2096 370.846 11.0869 369.73 11.046C368.716 11.0052 367.621 11.2504 366.607 11.3731C365.613 11.4957 364.68 11.8636 363.787 12.3132"></path>
<path fill="#E87F39" d="M362.895 22.1646C363.077 20.5091 363.564 19.5689 364.294 18.6492C365.105 17.6272 366.14 16.8097 367.397 16.4214C371.494 15.1337 376.139 18.1382 376.788 22.3894C376.95 23.4113 376.788 24.3106 376.686 25.3325C376.686 25.4552 376.686 25.5982 376.727 25.68C376.889 25.9252 378.674 25.5574 378.998 25.496C379.607 25.3938 380.377 25.1895 380.438 24.4537C380.621 22.6347 380.438 20.6726 379.445 19.0988C378.329 17.2798 376.93 15.5834 375.084 14.4797C370.642 11.7818 364.517 13.1308 361.15 16.9732C359.913 18.3835 359.082 20.5908 359.203 22.512C360.42 22.3894 361.637 22.2872 362.874 22.1646"></path>
<path fill="#F1C892" d="M363.99 22.1239C364.68 20.7341 365.187 19.7326 366.201 18.9764C368.31 17.3822 371.271 17.5457 373.259 19.2625C374.172 20.0596 374.882 21.102 375.247 22.2669C375.429 22.8597 375.531 23.4728 375.531 24.086C375.531 24.3925 375.531 25.7415 375.531 25.7415C375.348 25.7415 374.638 25.578 374.476 25.5167C374.253 25.4349 373.523 25.3736 373.401 25.1488C373.381 25.1079 373.401 25.0466 373.401 25.0057C373.462 24.3108 373.604 23.5954 373.523 22.9005C373.3 21.0406 371.596 19.2625 369.669 19.3442C368.777 19.3851 368.006 19.8143 367.377 20.4275C366.931 20.8771 366.546 21.429 366.282 22.0012C366.242 22.083 366.221 22.1648 366.16 22.2261C365.897 22.5326 365.532 22.3896 365.207 22.3078C365.065 22.2669 364.092 22.0217 364.031 22.1443"></path>
<path fill="#EBB34C" d="M367.397 22.5124C367.742 21.3679 368.919 20.7343 370.054 20.673C370.785 20.6321 371.555 20.816 372.123 21.327C372.529 21.6949 372.772 22.2059 372.874 22.7577C372.975 23.2482 372.934 23.6979 372.772 24.1884C372.671 24.495 372.529 24.9446 372.225 25.0059C371.92 25.0672 371.636 24.8424 371.352 24.7198C370.764 24.4541 370.318 24.2088 369.689 23.9023C368.939 23.5548 368.188 23.3504 367.377 23.0643C367.276 23.0234 367.316 22.7577 367.377 22.5329"></path>
<path fill="#099695" d="M359.062 23.1256V24.4336L359.224 25.987L359.528 26.9067L359.69 27.0702C359.812 27.1928 360.522 26.9067 360.664 26.8454C361.211 26.6614 361.759 26.5592 362.347 26.4979C364.233 26.3549 366.12 26.5388 367.965 26.9271C369.344 27.2133 370.642 27.7651 371.961 28.2147C373.178 28.6235 374.476 28.8688 375.774 28.9301C376.828 28.971 377.985 28.971 378.999 28.6644C379.566 28.5009 379.79 27.9082 379.911 27.3768C379.992 26.9476 380.053 26.4979 380.195 26.1096C378.613 26.7432 377.376 26.5592 375.632 26.4162C374.151 26.2935 372.549 25.987 371.15 25.476C369.669 24.9242 368.351 23.984 366.789 23.5752C365.531 23.2891 364.335 22.9008 363.057 22.8599C361.698 22.819 360.42 22.819 359.082 23.146"></path>
<path fill="#39ACAA" d="M359.974 27.8878C359.832 27.5403 362.245 26.9885 362.529 26.968C364.294 26.7228 366.079 27.1928 367.742 27.8264C369.445 28.4805 371.413 29.2571 373.218 29.6455C375.246 30.0747 377.132 30.6061 378.755 29.482C378.795 29.4615 378.836 29.482 378.836 29.5433C378.836 29.5841 378.795 29.625 378.775 29.6659C378.653 29.8498 378.593 30.0134 378.349 30.3199C377.842 30.9944 377.335 31.5258 376.808 32.0981L376.057 32.793C375.571 33.12 372.549 32.1185 371.474 31.6076C369.973 30.9126 368.857 29.9316 367.356 29.2571C365.511 28.3987 363.138 28.1943 361.191 28.787L360.521 28.9914C360.521 28.9914 360.481 28.9914 360.461 28.971L360.014 27.9082L359.974 27.8878Z"></path>
<path fill="#6BB8BF" d="M361.11 30.013C362.428 29.6042 364.071 28.9093 365.369 29.5838C366.302 30.0743 367.093 30.667 368.006 31.1984C368.472 31.4641 368.939 31.7094 369.405 31.9546C370.196 32.3429 371.008 32.67 371.819 33.0174C372.61 33.3649 373.442 33.6919 374.334 33.7736C374.577 33.7736 374.841 33.7736 375.064 33.7328C374.861 33.7941 374.638 33.978 374.435 34.0802C374.03 34.305 373.624 34.5503 373.198 34.7138C371.17 35.4496 368.919 35.2452 366.931 34.4481C365.937 34.0598 365.004 33.5284 364.112 32.9357C363.28 32.3634 362.368 31.7707 361.698 30.994C361.638 30.9327 361.049 30.0334 361.09 30.013"></path>
<path fill="#E87F39" d="M411.814 40.9067H381.29V49.2865H411.814V40.9067Z"></path>
<path fill="white" d="M387.801 45.4032C387.963 45.628 388.065 45.8732 388.065 46.1594C388.065 46.5682 387.923 46.8952 387.639 47.12C387.355 47.3653 386.969 47.4674 386.462 47.4674H384.231V42.6235H386.402C386.888 42.6235 387.274 42.7257 387.558 42.971C387.842 43.1958 387.963 43.5024 387.963 43.8907C387.963 44.1769 387.882 44.4221 387.74 44.6061C387.598 44.79 387.395 44.9331 387.152 44.9944C387.436 45.0557 387.659 45.1988 387.821 45.4236M385.388 44.5856H386.158C386.341 44.5856 386.503 44.5447 386.604 44.463C386.706 44.3812 386.767 44.2586 386.767 44.0951C386.767 43.9316 386.706 43.809 386.604 43.7068C386.503 43.625 386.361 43.5841 386.158 43.5841H385.388V44.6061V44.5856ZM386.706 46.3638C386.807 46.282 386.868 46.1389 386.868 45.9754C386.868 45.8119 386.807 45.6689 386.706 45.5667C386.584 45.4645 386.442 45.4236 386.239 45.4236H385.388V46.4864H386.26C386.462 46.4864 386.604 46.4455 386.706 46.3433"></path>
<path fill="white" d="M391.553 47.4674L390.559 45.6484H390.275V47.4674H389.099V42.6235H391.066C391.451 42.6235 391.776 42.6848 392.04 42.8279C392.303 42.971 392.506 43.1345 392.648 43.3798C392.79 43.6046 392.851 43.8703 392.851 44.1564C392.851 44.4834 392.749 44.7696 392.587 45.0148C392.405 45.2601 392.141 45.444 391.796 45.5462L392.912 47.4674H391.593H391.553ZM390.275 44.79H391.005C391.228 44.79 391.37 44.7287 391.492 44.6265C391.593 44.5243 391.654 44.3812 391.654 44.1769C391.654 43.9929 391.593 43.8498 391.492 43.7476C391.39 43.6455 391.228 43.5841 391.005 43.5841H390.275V44.79Z"></path>
<path fill="white" d="M396.908 46.609H395.123L394.839 47.4674H393.622L395.366 42.6235H396.725L398.469 47.4674H397.232L396.948 46.609H396.908ZM396.604 45.6893L396.015 43.9112L395.427 45.6893H396.604Z"></path>
<path fill="white" d="M403.519 47.4674H402.343L400.396 44.463V47.4674H399.22V42.6235H400.396L402.343 45.6075V42.6235H403.519V47.4674Z"></path>
<path fill="white" d="M407.901 42.9097C408.286 43.1141 408.57 43.4002 408.773 43.7681C408.975 44.136 409.077 44.5448 409.077 45.0353C409.077 45.5258 408.975 45.9346 408.773 46.3025C408.57 46.6703 408.266 46.9565 407.88 47.1609C407.495 47.3653 407.049 47.4674 406.562 47.4674H404.757V42.6235H406.562C407.069 42.6235 407.515 42.7257 407.88 42.9301M407.535 46.0776C407.779 45.8324 407.901 45.4849 407.901 45.0353C407.901 44.5856 407.779 44.2382 407.535 43.9929C407.292 43.7477 406.947 43.625 406.501 43.625H405.953V46.4455H406.501C406.947 46.4455 407.292 46.3229 407.535 46.0776Z"></path>
<path fill="#055657" d="M393.602 19.0378C393.419 19.3648 393.156 19.6305 392.77 19.8349C392.405 20.0393 391.939 20.1415 391.391 20.1415H390.377V22.5941H388.734V15.7881H391.412C391.959 15.7881 392.405 15.8903 392.77 16.0742C393.136 16.2582 393.419 16.5239 393.602 16.8509C393.785 17.1779 393.886 17.5662 393.886 17.9954C393.886 18.3633 393.805 18.7517 393.622 19.0787M391.979 18.5882C392.142 18.4451 392.203 18.2203 392.203 17.9546C392.203 17.6889 392.121 17.464 391.979 17.321C391.817 17.1779 391.594 17.0961 391.27 17.0961H390.377V18.813H391.27C391.574 18.813 391.817 18.7312 391.979 18.5882Z"></path>
<path fill="#055657" d="M397.049 21.286H399.219V22.5736H395.406V15.7676H397.049V21.286Z"></path>
<path fill="#055657" d="M405.223 21.3677H402.708L402.302 22.5736H400.578L403.032 15.7676H404.939L407.393 22.5736H405.649L405.243 21.3677H405.223ZM404.797 20.0801L403.965 17.5866L403.134 20.0801H404.797Z"></path>
<path fill="#055657" d="M409.807 22.3894C409.442 22.2463 409.117 22.001 408.874 21.674C408.63 21.347 408.509 20.9791 408.509 20.5295H410.253C410.273 20.7747 410.375 20.9791 410.517 21.1017C410.659 21.2448 410.861 21.3061 411.085 21.3061C411.308 21.3061 411.531 21.2448 411.673 21.1426C411.815 21.02 411.876 20.8769 411.876 20.6725C411.876 20.509 411.815 20.366 411.713 20.2638C411.592 20.1411 411.45 20.0594 411.308 19.9981C411.085 19.8959 410.841 19.8141 410.598 19.7528C410.233 19.6506 409.868 19.5075 409.523 19.344C409.239 19.201 408.996 18.9966 408.813 18.7513C408.61 18.4856 408.509 18.1382 408.509 17.709C408.509 17.0754 408.732 16.5848 409.198 16.2169C409.645 15.8491 410.253 15.6855 410.983 15.6855C411.713 15.6855 412.322 15.8695 412.788 16.2169C413.255 16.5848 413.498 17.0754 413.518 17.709H411.734C411.734 17.4841 411.632 17.3206 411.49 17.198C411.348 17.0754 411.145 17.014 410.922 17.014C410.72 17.014 410.557 17.0754 410.436 17.1776C410.314 17.2797 410.253 17.4433 410.253 17.6476C410.253 17.8725 410.354 18.036 410.557 18.1586C410.76 18.2812 411.085 18.4243 411.511 18.5469C411.876 18.6696 412.241 18.8126 412.585 18.9761C412.869 19.1192 413.113 19.3236 413.295 19.5689C413.498 19.8346 413.6 20.1616 413.6 20.5703C413.6 20.9382 413.498 21.3061 413.316 21.6331C413.113 21.9397 412.829 22.2054 412.464 22.3894C412.099 22.5733 411.652 22.6755 411.145 22.6755C410.638 22.6755 410.212 22.5937 409.807 22.4302"></path>
<path fill="#055657" d="M419.968 15.7676V17.0961H418.163V22.5736H416.52V17.0961H414.735V15.7676H419.968Z"></path>
<path fill="#055657" d="M423.112 15.7676H421.469V22.5736H423.112V15.7676Z"></path>
<path fill="#055657" d="M425.14 17.3615C425.424 16.8505 425.829 16.4213 426.357 16.1352C426.864 15.8491 427.452 15.6855 428.121 15.6855C428.932 15.6855 429.602 15.9104 430.19 16.3191C430.758 16.7483 431.143 17.3206 431.326 18.0564H429.521C429.399 17.7907 429.196 17.5659 428.953 17.4024C428.689 17.2593 428.405 17.1776 428.101 17.1776C427.594 17.1776 427.188 17.3615 426.864 17.709C426.56 18.0564 426.397 18.5469 426.397 19.1396C426.397 19.7324 426.56 20.2024 426.864 20.5703C427.168 20.9178 427.594 21.1017 428.101 21.1017C428.405 21.1017 428.689 21.0404 428.953 20.8769C429.196 20.7338 429.399 20.4886 429.521 20.2229H431.326C431.143 20.9587 430.758 21.5309 430.19 21.9602C429.622 22.3894 428.932 22.5937 428.121 22.5937C427.472 22.5937 426.884 22.4507 426.357 22.1441C425.85 21.858 425.424 21.4288 425.14 20.9178C424.856 20.3864 424.714 19.7937 424.714 19.1192C424.714 18.4447 424.856 17.852 425.14 17.3206"></path>
<path fill="#055657" d="M394.778 33.263H393.136L390.377 29.0527V33.263H388.734V26.457H390.377L393.136 30.6674V26.457H394.778V33.263Z"></path>
<path fill="#055657" d="M398.286 27.7855V29.1549H400.497V30.4425H398.286V31.9345H400.781V33.263H396.644V26.457H400.781V27.7855H398.286Z"></path>
<path fill="#055657" d="M404.148 26.4365V30.5038C404.148 30.9125 404.249 31.2191 404.452 31.4439C404.655 31.6688 404.939 31.771 405.324 31.771C405.709 31.771 406.014 31.6688 406.216 31.4439C406.419 31.2191 406.521 30.9125 406.521 30.5038V26.4365H408.164V30.5038C408.164 31.1169 408.042 31.6279 407.778 32.0367C407.535 32.4454 407.17 32.7724 406.744 32.9973C406.318 33.2017 405.831 33.3243 405.283 33.3243C404.736 33.3243 404.269 33.2221 403.864 33.0177C403.438 32.8133 403.093 32.4863 402.87 32.0775C402.627 31.6483 402.505 31.1374 402.505 30.5242V26.457H404.148V26.4365Z"></path>
<path fill="#055657" d="M414.857 26.4365V27.765H413.072V33.263H411.409V27.765H409.624V26.4365H414.857Z"></path>
<path fill="#055657" d="M419.805 33.263L418.406 30.6878H418V33.263H416.357V26.457H419.116C419.643 26.457 420.11 26.5592 420.475 26.7432C420.86 26.9271 421.124 27.1928 421.326 27.5198C421.509 27.8468 421.61 28.2352 421.61 28.6031C421.61 29.0323 421.489 29.4615 421.225 29.8089C420.982 30.1564 420.596 30.4221 420.11 30.5652L421.671 33.263H419.805ZM418 29.5228H419.014C419.319 29.5228 419.542 29.441 419.684 29.298C419.826 29.1549 419.907 28.9301 419.907 28.6644C419.907 28.3987 419.826 28.1943 419.684 28.0512C419.542 27.9082 419.298 27.8264 419.014 27.8264H418V29.5228Z"></path>
<path fill="#055657" d="M427.513 32.0572H424.998L424.592 33.263H422.868L425.322 26.457H427.229L429.683 33.263H427.939L427.533 32.0572H427.513ZM427.087 30.7695L426.255 28.2761L425.424 30.7695H427.087Z"></path>
<path fill="#055657" d="M432.725 31.9753H434.895V33.263H431.082V26.4365H432.725V31.9753Z"></path>
</g>
<g clip-path="url(#clip3_2426_4835)">
<path fill="#161616" d="M478.27 30.0234H483.883C485.816 30.0234 487.043 28.8491 487.043 27.0272C487.043 24.8431 485.275 24.2394 483.385 24.2394H478.27V30.0234ZM478.27 22.3626H482.756C485.297 22.3626 486.335 21.4517 486.335 19.6956C486.335 17.3798 484.689 17.0506 482.756 17.0506H478.27V22.3626ZM476.038 15.1738H482.148C483.64 15.1738 485.595 15.1738 486.601 15.7774C487.705 16.436 488.578 17.6323 488.578 19.2676C488.578 21.0456 487.639 22.3846 486.081 23.0102V23.0541C488.158 23.4712 489.285 25.0187 489.285 27.082C489.285 29.5405 487.518 31.8783 484.17 31.8783H476.038V15.1519V15.1738Z"></path>
<path fill="#161616" d="M482.203 8.88477C474.06 8.88477 467.453 15.448 467.453 23.5368C467.453 31.6256 474.06 38.1889 482.203 38.1889C490.346 38.1889 496.953 31.6256 496.953 23.5368C496.953 15.448 490.346 8.88477 482.203 8.88477ZM495.009 23.5478C495.009 30.572 489.274 36.2682 482.203 36.2682C475.132 36.2682 469.398 30.572 469.398 23.5478C469.398 16.5236 475.132 10.8274 482.203 10.8274C489.274 10.8274 495.009 16.5236 495.009 23.5478Z"></path>
<path fill="#161616" d="M496.931 41.2842H467.486V43.2049H496.931V41.2842Z"></path>
<path fill="#161616" d="M495.098 38.8696C495.142 38.7598 495.208 38.672 495.285 38.5952C495.363 38.5184 495.462 38.4635 495.562 38.4086C495.672 38.3647 495.783 38.3428 495.904 38.3428C496.026 38.3428 496.136 38.3647 496.247 38.4086C496.346 38.4525 496.445 38.5074 496.523 38.5952C496.6 38.672 496.666 38.7598 496.711 38.8696C496.755 38.9793 496.777 39.0891 496.777 39.2208C496.777 39.3525 496.755 39.4623 496.711 39.572C496.666 39.6818 496.6 39.7696 496.523 39.8464C496.445 39.9232 496.357 39.9891 496.247 40.033C496.136 40.0769 496.026 40.0988 495.904 40.0988C495.783 40.0988 495.672 40.0769 495.562 40.033C495.451 39.9891 495.363 39.9342 495.285 39.8464C495.208 39.7696 495.142 39.6818 495.098 39.572C495.053 39.4623 495.031 39.3525 495.031 39.2208C495.031 39.0891 495.053 38.9793 495.098 38.8696ZM495.241 39.5171C495.274 39.6049 495.33 39.6927 495.396 39.7586C495.462 39.8244 495.539 39.8793 495.628 39.9122C495.716 39.9452 495.816 39.9671 495.915 39.9671C496.015 39.9671 496.114 39.9452 496.202 39.9122C496.291 39.8683 496.368 39.8244 496.434 39.7586C496.501 39.6927 496.545 39.6159 496.589 39.5171C496.622 39.4293 496.644 39.3306 496.644 39.2208C496.644 39.111 496.622 39.0232 496.589 38.9245C496.556 38.8367 496.501 38.7598 496.434 38.683C496.368 38.6172 496.291 38.5623 496.202 38.5294C496.114 38.4964 496.026 38.4745 495.915 38.4745C495.805 38.4745 495.716 38.4964 495.628 38.5294C495.539 38.5733 495.462 38.6172 495.396 38.683C495.33 38.7489 495.274 38.8257 495.241 38.9245C495.208 39.0123 495.186 39.111 495.186 39.2208C495.186 39.3306 495.208 39.4293 495.241 39.5171ZM495.959 38.705C496.081 38.705 496.169 38.7269 496.225 38.7818C496.28 38.8367 496.313 38.9025 496.313 39.0013C496.313 39.0891 496.291 39.1549 496.236 39.2098C496.18 39.2537 496.114 39.2757 496.037 39.2867L496.335 39.7366H496.169L495.893 39.2976H495.727V39.7366H495.562V38.7159H495.959V38.705ZM495.893 39.1659C495.893 39.1659 495.959 39.1659 495.992 39.1659C496.026 39.1659 496.048 39.1659 496.081 39.144C496.103 39.133 496.125 39.111 496.136 39.0891C496.147 39.0671 496.158 39.0342 496.158 38.9903C496.158 38.9574 496.158 38.9245 496.136 38.9135C496.125 38.8915 496.103 38.8806 496.081 38.8696C496.059 38.8586 496.037 38.8476 496.004 38.8476C495.981 38.8476 495.948 38.8476 495.926 38.8476H495.716V39.1769H495.882L495.893 39.1659Z"></path>
<path fill="#161616" d="M471.055 2.44254C470.989 2.33279 470.901 2.23401 470.79 2.14621C470.691 2.0584 470.569 1.99255 470.437 1.94865C470.304 1.90475 470.171 1.8828 470.028 1.8828C469.763 1.8828 469.542 1.93768 469.354 2.03645C469.166 2.13523 469.022 2.27791 468.912 2.44254C468.801 2.61815 468.713 2.80473 468.658 3.02423C468.602 3.24374 468.58 3.46325 468.58 3.69373C468.58 3.92421 468.602 4.13274 468.658 4.34127C468.713 4.5498 468.79 4.73638 468.912 4.91199C469.022 5.07662 469.177 5.2193 469.354 5.31808C469.542 5.41685 469.763 5.47173 470.028 5.47173C470.381 5.47173 470.669 5.36198 470.867 5.14247C471.066 4.92296 471.188 4.63761 471.232 4.2864H472.37C472.337 4.61566 472.26 4.91199 472.138 5.18637C472.016 5.44978 471.851 5.68026 471.641 5.86684C471.442 6.05342 471.199 6.1961 470.923 6.29488C470.646 6.39366 470.348 6.44854 470.017 6.44854C469.608 6.44854 469.243 6.38268 468.912 6.24C468.591 6.09733 468.315 5.91074 468.083 5.65831C467.862 5.41685 467.685 5.12052 467.564 4.79126C467.464 4.44005 467.409 4.08884 467.409 3.69373C467.409 3.29862 467.464 2.93643 467.586 2.5962C467.707 2.25596 467.873 1.95963 468.105 1.70719C468.326 1.45476 468.602 1.25721 468.934 1.11453C469.254 0.971847 469.63 0.89502 470.039 0.89502C470.337 0.89502 470.613 0.938921 470.867 1.01575C471.133 1.10355 471.365 1.22428 471.563 1.37793C471.773 1.54256 471.939 1.74012 472.072 1.9706C472.204 2.21206 472.293 2.47547 472.326 2.78278H471.188C471.166 2.65107 471.122 2.53034 471.055 2.42059"></path>
<path fill="#161616" d="M475.088 3.38622C474.966 3.24354 474.767 3.17769 474.513 3.17769C474.348 3.17769 474.204 3.21061 474.093 3.26549C473.983 3.32037 473.895 3.39719 473.828 3.47402C473.762 3.56182 473.718 3.64962 473.685 3.73743C473.663 3.83621 473.64 3.91303 473.64 3.98986H475.364C475.32 3.72645 475.231 3.51792 475.099 3.38622M473.895 5.40568C474.049 5.55933 474.281 5.63616 474.58 5.63616C474.79 5.63616 474.977 5.58128 475.132 5.47153C475.287 5.36178 475.375 5.25202 475.419 5.13129H476.347C476.193 5.59226 475.972 5.92152 475.662 6.11907C475.353 6.31663 474.977 6.41541 474.546 6.41541C474.248 6.41541 473.972 6.37151 473.729 6.27273C473.486 6.17395 473.276 6.04225 473.11 5.86664C472.944 5.69104 472.812 5.47153 472.723 5.23007C472.635 4.98861 472.591 4.71423 472.591 4.4179C472.591 4.12156 472.635 3.86913 472.734 3.6167C472.834 3.36427 472.966 3.15574 473.132 2.98013C473.309 2.80452 473.519 2.66185 473.751 2.55209C473.994 2.45331 474.259 2.39844 474.557 2.39844C474.889 2.39844 475.176 2.46429 475.419 2.58502C475.662 2.70575 475.861 2.88135 476.016 3.08988C476.171 3.29841 476.281 3.53987 476.358 3.81425C476.425 4.08864 476.458 4.374 476.436 4.67033H473.651C473.663 5.01057 473.751 5.263 473.917 5.40568"></path>
<path fill="#161616" d="M477.894 2.48599V3.19938H477.905C477.95 3.07865 478.027 2.9689 478.104 2.87012C478.193 2.77134 478.281 2.68354 478.392 2.60671C478.502 2.54086 478.613 2.47501 478.745 2.44208C478.867 2.39818 478.999 2.38721 479.132 2.38721C479.198 2.38721 479.275 2.39818 479.364 2.42013V3.39694C479.364 3.39694 479.253 3.37499 479.187 3.37499C479.121 3.37499 479.055 3.36401 478.988 3.36401C478.789 3.36401 478.635 3.39694 478.491 3.46279C478.358 3.52864 478.248 3.61644 478.171 3.7262C478.093 3.83595 478.027 3.96765 477.994 4.11033C477.961 4.25301 477.939 4.41764 477.939 4.59325V6.31637H476.878V2.48599H477.883H477.894Z"></path>
<path fill="#161616" d="M482.203 2.48616V3.18858H481.43V5.08731C481.43 5.26292 481.463 5.38365 481.518 5.43852C481.574 5.4934 481.695 5.52633 481.872 5.52633C481.927 5.52633 481.993 5.52633 482.049 5.52633C482.104 5.52633 482.159 5.51535 482.203 5.50438V6.31655C482.115 6.32753 482.016 6.3385 481.905 6.34948C481.795 6.34948 481.684 6.34948 481.585 6.34948C481.419 6.34948 481.264 6.3385 481.121 6.31655C480.977 6.2946 480.844 6.2507 480.734 6.18485C480.623 6.11899 480.535 6.03119 480.469 5.91046C480.402 5.78973 480.369 5.63608 480.369 5.4495V3.18858H479.729V2.48616H480.369V1.34473H481.43V2.49714H482.203V2.48616Z"></path>
<path fill="#161616" d="M483.883 6.31647H482.822V2.48609H483.883V6.31647ZM482.822 1.02637H483.883V1.89342H482.822V1.02637Z"></path>
<path fill="#161616" d="M484.303 3.19974V2.49732H484.933V2.20098C484.933 1.86075 485.043 1.58636 485.253 1.36686C485.463 1.14735 485.794 1.0376 486.225 1.0376C486.325 1.0376 486.413 1.0376 486.512 1.04857C486.601 1.04857 486.7 1.05955 486.789 1.07052V1.86075C486.667 1.84977 486.535 1.8388 486.402 1.8388C486.258 1.8388 486.159 1.87172 486.093 1.93757C486.026 2.00343 486.004 2.11318 486.004 2.27781V2.50829H486.733V3.21071H486.004V6.33868H484.944V3.21071H484.314L484.303 3.19974Z"></path>
<path fill="#161616" d="M488.501 6.31647H487.44V2.48609H488.501V6.31647ZM487.44 1.02637H488.501V1.89342H487.44V1.02637Z"></path>
<path fill="#161616" d="M491.373 3.38622C491.252 3.24354 491.053 3.17769 490.799 3.17769C490.633 3.17769 490.489 3.21061 490.379 3.26549C490.268 3.32037 490.18 3.39719 490.114 3.47402C490.047 3.56182 490.003 3.64962 489.97 3.73743C489.948 3.83621 489.926 3.91303 489.926 3.98986H491.649C491.605 3.72645 491.517 3.51792 491.384 3.38622M490.169 5.40568C490.324 5.55933 490.556 5.63616 490.854 5.63616C491.064 5.63616 491.252 5.58128 491.406 5.47153C491.561 5.36178 491.661 5.25202 491.694 5.13129H492.622C492.478 5.59226 492.246 5.92152 491.937 6.11907C491.627 6.31663 491.252 6.41541 490.821 6.41541C490.523 6.41541 490.246 6.37151 490.003 6.27273C489.76 6.17395 489.55 6.04225 489.385 5.86664C489.219 5.69104 489.086 5.47153 488.998 5.23007C488.909 4.98861 488.865 4.71423 488.865 4.4179C488.865 4.12156 488.909 3.86913 489.009 3.6167C489.108 3.36427 489.241 3.15574 489.407 2.98013C489.583 2.80452 489.793 2.66185 490.025 2.55209C490.268 2.45331 490.534 2.39844 490.832 2.39844C491.163 2.39844 491.451 2.46429 491.694 2.58502C491.937 2.70575 492.136 2.88135 492.29 3.08988C492.445 3.29841 492.555 3.53987 492.633 3.81425C492.699 4.08864 492.732 4.374 492.71 4.67033H489.926C489.937 5.01057 490.025 5.263 490.191 5.40568"></path>
<path fill="#161616" d="M495.86 3.93483C495.827 3.79215 495.782 3.66045 495.705 3.55069C495.628 3.44094 495.539 3.35314 495.429 3.27631C495.318 3.21046 495.175 3.17753 494.998 3.17753C494.821 3.17753 494.677 3.21046 494.556 3.27631C494.434 3.34216 494.346 3.44094 494.269 3.55069C494.202 3.66045 494.147 3.79215 494.114 3.93483C494.081 4.07751 494.07 4.23116 494.07 4.38482C494.07 4.5275 494.092 4.68115 494.125 4.82383C494.158 4.96651 494.213 5.10919 494.291 5.21894C494.368 5.33967 494.468 5.42747 494.578 5.5043C494.7 5.58113 494.832 5.61405 494.998 5.61405C495.175 5.61405 495.318 5.58113 495.429 5.51528C495.55 5.44942 495.639 5.35065 495.705 5.24089C495.771 5.12016 495.827 4.98846 495.849 4.84578C495.882 4.69213 495.893 4.54945 495.893 4.38482C495.893 4.22019 495.882 4.07751 495.849 3.92385M495.904 5.83356C495.782 6.04209 495.617 6.19575 495.418 6.28355C495.219 6.37135 494.987 6.41525 494.733 6.41525C494.445 6.41525 494.191 6.36038 493.97 6.25062C493.749 6.14087 493.573 5.98722 493.429 5.80064C493.285 5.61405 493.175 5.39455 493.109 5.14212C493.031 4.90066 492.998 4.63725 492.998 4.37384C492.998 4.11043 493.031 3.86898 493.109 3.62752C493.175 3.38606 493.285 3.17753 493.429 2.99095C493.573 2.80437 493.749 2.66169 493.959 2.55194C494.169 2.44218 494.423 2.38731 494.711 2.38731C494.943 2.38731 495.153 2.43121 495.362 2.52999C495.572 2.62877 495.727 2.77144 495.849 2.95803H495.86V1.02637H496.92V6.31648H495.915V5.82259H495.904V5.83356Z"></path>
<path fill="#161616" d="M470.072 46.9804C470.017 46.6072 469.663 46.3328 469.254 46.3328C468.514 46.3328 468.238 46.9584 468.238 47.606C468.238 48.2535 468.514 48.8571 469.254 48.8571C469.763 48.8571 470.039 48.5169 470.105 48.023H470.901C470.812 48.9559 470.171 49.5486 469.254 49.5486C468.094 49.5486 467.409 48.6925 467.409 47.6169C467.409 46.5413 468.094 45.6523 469.254 45.6523C470.083 45.6523 470.768 46.1353 470.867 46.9913H470.072V46.9804Z"></path>
<path fill="#161616" d="M472.624 48.967C473.132 48.967 473.287 48.5389 473.287 48.1109C473.287 47.6828 473.132 47.2438 472.624 47.2438C472.116 47.2438 471.972 47.6719 471.972 48.1109C471.972 48.5499 472.127 48.967 472.624 48.967ZM472.624 46.6841C473.475 46.6841 474.027 47.2438 474.027 48.1109C474.027 48.9779 473.475 49.5267 472.624 49.5267C471.773 49.5267 471.221 48.9669 471.221 48.1109C471.221 47.2548 471.773 46.6841 472.624 46.6841Z"></path>
<path fill="#161616" d="M474.492 46.7499H475.199V47.2548C475.331 46.9146 475.707 46.6841 476.06 46.6841C476.116 46.6841 476.171 46.6841 476.226 46.706V47.3975C476.16 47.3865 476.049 47.3755 475.961 47.3755C475.42 47.3755 475.221 47.7706 475.221 48.2426V49.4608H474.48V46.7609L474.492 46.7499Z"></path>
<path fill="#161616" d="M478.546 48.1106C478.546 47.6826 478.37 47.2436 477.894 47.2436C477.419 47.2436 477.254 47.6716 477.254 48.1106C477.254 48.5496 477.419 48.9667 477.905 48.9667C478.392 48.9667 478.546 48.5496 478.546 48.1106ZM476.524 46.7497H477.232V47.0899C477.408 46.8046 477.707 46.6729 478.038 46.6729C478.889 46.6729 479.276 47.3533 479.276 48.1216C479.276 48.846 478.878 49.5155 478.082 49.5155C477.762 49.5155 477.453 49.3728 477.265 49.1094V50.3935H476.524V46.7497Z"></path>
<path fill="#161616" d="M480.922 48.967C481.43 48.967 481.585 48.5389 481.585 48.1109C481.585 47.6828 481.43 47.2438 480.922 47.2438C480.413 47.2438 480.27 47.6719 480.27 48.1109C480.27 48.5499 480.425 48.967 480.922 48.967ZM480.922 46.6841C481.772 46.6841 482.325 47.2438 482.325 48.1109C482.325 48.9779 481.772 49.5267 480.922 49.5267C480.071 49.5267 479.519 48.9669 479.519 48.1109C479.519 47.2548 480.071 46.6841 480.922 46.6841Z"></path>
<path fill="#161616" d="M482.8 46.7499H483.507V47.2548H483.518C483.651 46.9146 484.026 46.6841 484.38 46.6841C484.435 46.6841 484.49 46.6841 484.545 46.706V47.3975C484.479 47.3865 484.369 47.3755 484.28 47.3755C483.739 47.3755 483.54 47.7706 483.54 48.2426V49.4608H482.8V46.7609V46.7499Z"></path>
<path fill="#161616" d="M486.491 48.1328C486.369 48.2426 486.104 48.2426 485.872 48.2865C485.64 48.3304 485.43 48.4072 485.43 48.6816C485.43 48.956 485.651 49.0218 485.883 49.0218C486.469 49.0218 486.491 48.5609 486.491 48.3962V48.1219V48.1328ZM484.767 47.5841C484.811 46.8926 485.43 46.6841 486.049 46.6841C486.59 46.6841 487.242 46.8048 487.242 47.4524V48.8572C487.242 49.0987 487.264 49.3511 487.341 49.4608H486.579C486.557 49.373 486.535 49.2852 486.524 49.1974C486.292 49.4389 485.938 49.5267 485.607 49.5267C485.088 49.5267 484.679 49.2743 484.679 48.7145C484.679 48.0999 485.143 47.9572 485.607 47.8914C486.06 47.8255 486.491 47.8365 486.491 47.5402C486.491 47.2438 486.27 47.178 486.005 47.178C485.717 47.178 485.541 47.2877 485.507 47.5841H484.767Z"></path>
<path fill="#161616" d="M488.733 46.7499H489.274V47.2438H488.733V48.5828C488.733 48.8352 488.799 48.9011 489.042 48.9011C489.119 48.9011 489.197 48.9011 489.274 48.8791V49.4608C489.152 49.4828 488.987 49.4828 488.832 49.4828C488.379 49.4828 487.981 49.373 487.981 48.8462V47.2548H487.528V46.7609H487.981V45.9487H488.722V46.7609L488.733 46.7499Z"></path>
<path fill="#161616" d="M489.849 46.7499H490.589V49.4499H489.849V46.7499ZM490.589 46.3329H489.849V45.7183H490.589V46.3329Z"></path>
<path fill="#161616" d="M492.49 48.967C492.998 48.967 493.153 48.5389 493.153 48.1109C493.153 47.6828 492.998 47.2438 492.49 47.2438C491.982 47.2438 491.838 47.6719 491.838 48.1109C491.838 48.5499 491.993 48.967 492.49 48.967ZM492.49 46.6841C493.352 46.6841 493.893 47.2438 493.893 48.1109C493.893 48.9779 493.341 49.5267 492.49 49.5267C491.639 49.5267 491.087 48.9669 491.087 48.1109C491.087 47.2548 491.639 46.6841 492.49 46.6841Z"></path>
<path fill="#161616" d="M494.379 46.7497H495.086V47.1228H495.097C495.285 46.8155 495.616 46.6729 495.926 46.6729C496.721 46.6729 496.92 47.1119 496.92 47.7814V49.4386H496.18V47.9131C496.18 47.4741 496.047 47.2545 495.705 47.2545C495.296 47.2545 495.13 47.4741 495.13 48.0228V49.4386H494.39V46.7387L494.379 46.7497Z"></path>
<path fill="#161616" d="M478.27 30.0234H483.883C485.816 30.0234 487.043 28.8491 487.043 27.0272C487.043 24.8431 485.275 24.2394 483.385 24.2394H478.27V30.0234ZM478.27 22.3626H482.756C485.297 22.3626 486.335 21.4517 486.335 19.6956C486.335 17.3798 484.689 17.0506 482.756 17.0506H478.27V22.3626ZM476.038 15.1738H482.148C483.64 15.1738 485.595 15.1738 486.601 15.7774C487.705 16.436 488.578 17.6323 488.578 19.2676C488.578 21.0456 487.639 22.3846 486.081 23.0102V23.0541C488.158 23.4712 489.285 25.0187 489.285 27.082C489.285 29.5405 487.518 31.8783 484.17 31.8783H476.038V15.1519V15.1738Z"></path>
<path fill="#161616" d="M482.203 8.88477C474.06 8.88477 467.453 15.448 467.453 23.5368C467.453 31.6256 474.06 38.1889 482.203 38.1889C490.346 38.1889 496.953 31.6256 496.953 23.5368C496.953 15.448 490.346 8.88477 482.203 8.88477ZM495.009 23.5478C495.009 30.572 489.274 36.2682 482.203 36.2682C475.132 36.2682 469.398 30.572 469.398 23.5478C469.398 16.5236 475.132 10.8274 482.203 10.8274C489.274 10.8274 495.009 16.5236 495.009 23.5478Z"></path>
<path fill="#161616" d="M496.931 41.2842H467.486V43.2049H496.931V41.2842Z"></path>
<path fill="#161616" d="M495.098 38.8696C495.142 38.7598 495.208 38.672 495.285 38.5952C495.363 38.5184 495.462 38.4635 495.562 38.4086C495.672 38.3647 495.783 38.3428 495.904 38.3428C496.026 38.3428 496.136 38.3647 496.247 38.4086C496.346 38.4525 496.445 38.5074 496.523 38.5952C496.6 38.672 496.666 38.7598 496.711 38.8696C496.755 38.9793 496.777 39.0891 496.777 39.2208C496.777 39.3525 496.755 39.4623 496.711 39.572C496.666 39.6818 496.6 39.7696 496.523 39.8464C496.445 39.9232 496.357 39.9891 496.247 40.033C496.136 40.0769 496.026 40.0988 495.904 40.0988C495.783 40.0988 495.672 40.0769 495.562 40.033C495.451 39.9891 495.363 39.9342 495.285 39.8464C495.208 39.7696 495.142 39.6818 495.098 39.572C495.053 39.4623 495.031 39.3525 495.031 39.2208C495.031 39.0891 495.053 38.9793 495.098 38.8696ZM495.241 39.5171C495.274 39.6049 495.33 39.6927 495.396 39.7586C495.462 39.8244 495.539 39.8793 495.628 39.9122C495.716 39.9452 495.816 39.9671 495.915 39.9671C496.015 39.9671 496.114 39.9452 496.202 39.9122C496.291 39.8683 496.368 39.8244 496.434 39.7586C496.501 39.6927 496.545 39.6159 496.589 39.5171C496.622 39.4293 496.644 39.3306 496.644 39.2208C496.644 39.111 496.622 39.0232 496.589 38.9245C496.556 38.8367 496.501 38.7598 496.434 38.683C496.368 38.6172 496.291 38.5623 496.202 38.5294C496.114 38.4964 496.026 38.4745 495.915 38.4745C495.805 38.4745 495.716 38.4964 495.628 38.5294C495.539 38.5733 495.462 38.6172 495.396 38.683C495.33 38.7489 495.274 38.8257 495.241 38.9245C495.208 39.0123 495.186 39.111 495.186 39.2208C495.186 39.3306 495.208 39.4293 495.241 39.5171ZM495.959 38.705C496.081 38.705 496.169 38.7269 496.225 38.7818C496.28 38.8367 496.313 38.9025 496.313 39.0013C496.313 39.0891 496.291 39.1549 496.236 39.2098C496.18 39.2537 496.114 39.2757 496.037 39.2867L496.335 39.7366H496.169L495.893 39.2976H495.727V39.7366H495.562V38.7159H495.959V38.705ZM495.893 39.1659C495.893 39.1659 495.959 39.1659 495.992 39.1659C496.026 39.1659 496.048 39.1659 496.081 39.144C496.103 39.133 496.125 39.111 496.136 39.0891C496.147 39.0671 496.158 39.0342 496.158 38.9903C496.158 38.9574 496.158 38.9245 496.136 38.9135C496.125 38.8915 496.103 38.8806 496.081 38.8696C496.059 38.8586 496.037 38.8476 496.004 38.8476C495.981 38.8476 495.948 38.8476 495.926 38.8476H495.716V39.1769H495.882L495.893 39.1659Z"></path>
<path fill="#161616" d="M471.055 2.44254C470.989 2.33279 470.901 2.23401 470.79 2.14621C470.691 2.0584 470.569 1.99255 470.437 1.94865C470.304 1.90475 470.171 1.8828 470.028 1.8828C469.763 1.8828 469.542 1.93768 469.354 2.03645C469.166 2.13523 469.022 2.27791 468.912 2.44254C468.801 2.61815 468.713 2.80473 468.658 3.02423C468.602 3.24374 468.58 3.46325 468.58 3.69373C468.58 3.92421 468.602 4.13274 468.658 4.34127C468.713 4.5498 468.79 4.73638 468.912 4.91199C469.022 5.07662 469.177 5.2193 469.354 5.31808C469.542 5.41685 469.763 5.47173 470.028 5.47173C470.381 5.47173 470.669 5.36198 470.867 5.14247C471.066 4.92296 471.188 4.63761 471.232 4.2864H472.37C472.337 4.61566 472.26 4.91199 472.138 5.18637C472.016 5.44978 471.851 5.68026 471.641 5.86684C471.442 6.05342 471.199 6.1961 470.923 6.29488C470.646 6.39366 470.348 6.44854 470.017 6.44854C469.608 6.44854 469.243 6.38268 468.912 6.24C468.591 6.09733 468.315 5.91074 468.083 5.65831C467.862 5.41685 467.685 5.12052 467.564 4.79126C467.464 4.44005 467.409 4.08884 467.409 3.69373C467.409 3.29862 467.464 2.93643 467.586 2.5962C467.707 2.25596 467.873 1.95963 468.105 1.70719C468.326 1.45476 468.602 1.25721 468.934 1.11453C469.254 0.971847 469.63 0.89502 470.039 0.89502C470.337 0.89502 470.613 0.938921 470.867 1.01575C471.133 1.10355 471.365 1.22428 471.563 1.37793C471.773 1.54256 471.939 1.74012 472.072 1.9706C472.204 2.21206 472.293 2.47547 472.326 2.78278H471.188C471.166 2.65107 471.122 2.53034 471.055 2.42059"></path>
<path fill="#161616" d="M475.088 3.38622C474.966 3.24354 474.767 3.17769 474.513 3.17769C474.348 3.17769 474.204 3.21061 474.093 3.26549C473.983 3.32037 473.895 3.39719 473.828 3.47402C473.762 3.56182 473.718 3.64962 473.685 3.73743C473.663 3.83621 473.64 3.91303 473.64 3.98986H475.364C475.32 3.72645 475.231 3.51792 475.099 3.38622M473.895 5.40568C474.049 5.55933 474.281 5.63616 474.58 5.63616C474.79 5.63616 474.977 5.58128 475.132 5.47153C475.287 5.36178 475.375 5.25202 475.419 5.13129H476.347C476.193 5.59226 475.972 5.92152 475.662 6.11907C475.353 6.31663 474.977 6.41541 474.546 6.41541C474.248 6.41541 473.972 6.37151 473.729 6.27273C473.486 6.17395 473.276 6.04225 473.11 5.86664C472.944 5.69104 472.812 5.47153 472.723 5.23007C472.635 4.98861 472.591 4.71423 472.591 4.4179C472.591 4.12156 472.635 3.86913 472.734 3.6167C472.834 3.36427 472.966 3.15574 473.132 2.98013C473.309 2.80452 473.519 2.66185 473.751 2.55209C473.994 2.45331 474.259 2.39844 474.557 2.39844C474.889 2.39844 475.176 2.46429 475.419 2.58502C475.662 2.70575 475.861 2.88135 476.016 3.08988C476.171 3.29841 476.281 3.53987 476.358 3.81425C476.425 4.08864 476.458 4.374 476.436 4.67033H473.651C473.663 5.01057 473.751 5.263 473.917 5.40568"></path>
<path fill="#161616" d="M477.894 2.48599V3.19938H477.905C477.95 3.07865 478.027 2.9689 478.104 2.87012C478.193 2.77134 478.281 2.68354 478.392 2.60671C478.502 2.54086 478.613 2.47501 478.745 2.44208C478.867 2.39818 478.999 2.38721 479.132 2.38721C479.198 2.38721 479.275 2.39818 479.364 2.42013V3.39694C479.364 3.39694 479.253 3.37499 479.187 3.37499C479.121 3.37499 479.055 3.36401 478.988 3.36401C478.789 3.36401 478.635 3.39694 478.491 3.46279C478.358 3.52864 478.248 3.61644 478.171 3.7262C478.093 3.83595 478.027 3.96765 477.994 4.11033C477.961 4.25301 477.939 4.41764 477.939 4.59325V6.31637H476.878V2.48599H477.883H477.894Z"></path>
<path fill="#161616" d="M482.203 2.48616V3.18858H481.43V5.08731C481.43 5.26292 481.463 5.38365 481.518 5.43852C481.574 5.4934 481.695 5.52633 481.872 5.52633C481.927 5.52633 481.993 5.52633 482.049 5.52633C482.104 5.52633 482.159 5.51535 482.203 5.50438V6.31655C482.115 6.32753 482.016 6.3385 481.905 6.34948C481.795 6.34948 481.684 6.34948 481.585 6.34948C481.419 6.34948 481.264 6.3385 481.121 6.31655C480.977 6.2946 480.844 6.2507 480.734 6.18485C480.623 6.11899 480.535 6.03119 480.469 5.91046C480.402 5.78973 480.369 5.63608 480.369 5.4495V3.18858H479.729V2.48616H480.369V1.34473H481.43V2.49714H482.203V2.48616Z"></path>
<path fill="#161616" d="M483.883 6.31647H482.822V2.48609H483.883V6.31647ZM482.822 1.02637H483.883V1.89342H482.822V1.02637Z"></path>
<path fill="#161616" d="M484.303 3.19974V2.49732H484.933V2.20098C484.933 1.86075 485.043 1.58636 485.253 1.36686C485.463 1.14735 485.794 1.0376 486.225 1.0376C486.325 1.0376 486.413 1.0376 486.512 1.04857C486.601 1.04857 486.7 1.05955 486.789 1.07052V1.86075C486.667 1.84977 486.535 1.8388 486.402 1.8388C486.258 1.8388 486.159 1.87172 486.093 1.93757C486.026 2.00343 486.004 2.11318 486.004 2.27781V2.50829H486.733V3.21071H486.004V6.33868H484.944V3.21071H484.314L484.303 3.19974Z"></path>
<path fill="#161616" d="M488.501 6.31647H487.44V2.48609H488.501V6.31647ZM487.44 1.02637H488.501V1.89342H487.44V1.02637Z"></path>
<path fill="#161616" d="M491.373 3.38622C491.252 3.24354 491.053 3.17769 490.799 3.17769C490.633 3.17769 490.489 3.21061 490.379 3.26549C490.268 3.32037 490.18 3.39719 490.114 3.47402C490.047 3.56182 490.003 3.64962 489.97 3.73743C489.948 3.83621 489.926 3.91303 489.926 3.98986H491.649C491.605 3.72645 491.517 3.51792 491.384 3.38622M490.169 5.40568C490.324 5.55933 490.556 5.63616 490.854 5.63616C491.064 5.63616 491.252 5.58128 491.406 5.47153C491.561 5.36178 491.661 5.25202 491.694 5.13129H492.622C492.478 5.59226 492.246 5.92152 491.937 6.11907C491.627 6.31663 491.252 6.41541 490.821 6.41541C490.523 6.41541 490.246 6.37151 490.003 6.27273C489.76 6.17395 489.55 6.04225 489.385 5.86664C489.219 5.69104 489.086 5.47153 488.998 5.23007C488.909 4.98861 488.865 4.71423 488.865 4.4179C488.865 4.12156 488.909 3.86913 489.009 3.6167C489.108 3.36427 489.241 3.15574 489.407 2.98013C489.583 2.80452 489.793 2.66185 490.025 2.55209C490.268 2.45331 490.534 2.39844 490.832 2.39844C491.163 2.39844 491.451 2.46429 491.694 2.58502C491.937 2.70575 492.136 2.88135 492.29 3.08988C492.445 3.29841 492.555 3.53987 492.633 3.81425C492.699 4.08864 492.732 4.374 492.71 4.67033H489.926C489.937 5.01057 490.025 5.263 490.191 5.40568"></path>
<path fill="#161616" d="M495.86 3.93483C495.827 3.79215 495.782 3.66045 495.705 3.55069C495.628 3.44094 495.539 3.35314 495.429 3.27631C495.318 3.21046 495.175 3.17753 494.998 3.17753C494.821 3.17753 494.677 3.21046 494.556 3.27631C494.434 3.34216 494.346 3.44094 494.269 3.55069C494.202 3.66045 494.147 3.79215 494.114 3.93483C494.081 4.07751 494.07 4.23116 494.07 4.38482C494.07 4.5275 494.092 4.68115 494.125 4.82383C494.158 4.96651 494.213 5.10919 494.291 5.21894C494.368 5.33967 494.468 5.42747 494.578 5.5043C494.7 5.58113 494.832 5.61405 494.998 5.61405C495.175 5.61405 495.318 5.58113 495.429 5.51528C495.55 5.44942 495.639 5.35065 495.705 5.24089C495.771 5.12016 495.827 4.98846 495.849 4.84578C495.882 4.69213 495.893 4.54945 495.893 4.38482C495.893 4.22019 495.882 4.07751 495.849 3.92385M495.904 5.83356C495.782 6.04209 495.617 6.19575 495.418 6.28355C495.219 6.37135 494.987 6.41525 494.733 6.41525C494.445 6.41525 494.191 6.36038 493.97 6.25062C493.749 6.14087 493.573 5.98722 493.429 5.80064C493.285 5.61405 493.175 5.39455 493.109 5.14212C493.031 4.90066 492.998 4.63725 492.998 4.37384C492.998 4.11043 493.031 3.86898 493.109 3.62752C493.175 3.38606 493.285 3.17753 493.429 2.99095C493.573 2.80437 493.749 2.66169 493.959 2.55194C494.169 2.44218 494.423 2.38731 494.711 2.38731C494.943 2.38731 495.153 2.43121 495.362 2.52999C495.572 2.62877 495.727 2.77144 495.849 2.95803H495.86V1.02637H496.92V6.31648H495.915V5.82259H495.904V5.83356Z"></path>
<path fill="#161616" d="M470.072 46.9804C470.017 46.6072 469.663 46.3328 469.254 46.3328C468.514 46.3328 468.238 46.9584 468.238 47.606C468.238 48.2535 468.514 48.8571 469.254 48.8571C469.763 48.8571 470.039 48.5169 470.105 48.023H470.901C470.812 48.9559 470.171 49.5486 469.254 49.5486C468.094 49.5486 467.409 48.6925 467.409 47.6169C467.409 46.5413 468.094 45.6523 469.254 45.6523C470.083 45.6523 470.768 46.1353 470.867 46.9913H470.072V46.9804Z"></path>
<path fill="#161616" d="M472.624 48.967C473.132 48.967 473.287 48.5389 473.287 48.1109C473.287 47.6828 473.132 47.2438 472.624 47.2438C472.116 47.2438 471.972 47.6719 471.972 48.1109C471.972 48.5499 472.127 48.967 472.624 48.967ZM472.624 46.6841C473.475 46.6841 474.027 47.2438 474.027 48.1109C474.027 48.9779 473.475 49.5267 472.624 49.5267C471.773 49.5267 471.221 48.9669 471.221 48.1109C471.221 47.2548 471.773 46.6841 472.624 46.6841Z"></path>
<path fill="#161616" d="M474.492 46.7499H475.199V47.2548C475.331 46.9146 475.707 46.6841 476.06 46.6841C476.116 46.6841 476.171 46.6841 476.226 46.706V47.3975C476.16 47.3865 476.049 47.3755 475.961 47.3755C475.42 47.3755 475.221 47.7706 475.221 48.2426V49.4608H474.48V46.7609L474.492 46.7499Z"></path>
<path fill="#161616" d="M478.546 48.1106C478.546 47.6826 478.37 47.2436 477.894 47.2436C477.419 47.2436 477.254 47.6716 477.254 48.1106C477.254 48.5496 477.419 48.9667 477.905 48.9667C478.392 48.9667 478.546 48.5496 478.546 48.1106ZM476.524 46.7497H477.232V47.0899C477.408 46.8046 477.707 46.6729 478.038 46.6729C478.889 46.6729 479.276 47.3533 479.276 48.1216C479.276 48.846 478.878 49.5155 478.082 49.5155C477.762 49.5155 477.453 49.3728 477.265 49.1094V50.3935H476.524V46.7497Z"></path>
<path fill="#161616" d="M480.922 48.967C481.43 48.967 481.585 48.5389 481.585 48.1109C481.585 47.6828 481.43 47.2438 480.922 47.2438C480.413 47.2438 480.27 47.6719 480.27 48.1109C480.27 48.5499 480.425 48.967 480.922 48.967ZM480.922 46.6841C481.772 46.6841 482.325 47.2438 482.325 48.1109C482.325 48.9779 481.772 49.5267 480.922 49.5267C480.071 49.5267 479.519 48.9669 479.519 48.1109C479.519 47.2548 480.071 46.6841 480.922 46.6841Z"></path>
<path fill="#161616" d="M482.8 46.7499H483.507V47.2548H483.518C483.651 46.9146 484.026 46.6841 484.38 46.6841C484.435 46.6841 484.49 46.6841 484.545 46.706V47.3975C484.479 47.3865 484.369 47.3755 484.28 47.3755C483.739 47.3755 483.54 47.7706 483.54 48.2426V49.4608H482.8V46.7609V46.7499Z"></path>
<path fill="#161616" d="M486.491 48.1328C486.369 48.2426 486.104 48.2426 485.872 48.2865C485.64 48.3304 485.43 48.4072 485.43 48.6816C485.43 48.956 485.651 49.0218 485.883 49.0218C486.469 49.0218 486.491 48.5609 486.491 48.3962V48.1219V48.1328ZM484.767 47.5841C484.811 46.8926 485.43 46.6841 486.049 46.6841C486.59 46.6841 487.242 46.8048 487.242 47.4524V48.8572C487.242 49.0987 487.264 49.3511 487.341 49.4608H486.579C486.557 49.373 486.535 49.2852 486.524 49.1974C486.292 49.4389 485.938 49.5267 485.607 49.5267C485.088 49.5267 484.679 49.2743 484.679 48.7145C484.679 48.0999 485.143 47.9572 485.607 47.8914C486.06 47.8255 486.491 47.8365 486.491 47.5402C486.491 47.2438 486.27 47.178 486.005 47.178C485.717 47.178 485.541 47.2877 485.507 47.5841H484.767Z"></path>
<path fill="#161616" d="M488.733 46.7499H489.274V47.2438H488.733V48.5828C488.733 48.8352 488.799 48.9011 489.042 48.9011C489.119 48.9011 489.197 48.9011 489.274 48.8791V49.4608C489.152 49.4828 488.987 49.4828 488.832 49.4828C488.379 49.4828 487.981 49.373 487.981 48.8462V47.2548H487.528V46.7609H487.981V45.9487H488.722V46.7609L488.733 46.7499Z"></path>
<path fill="#161616" d="M489.849 46.7499H490.589V49.4499H489.849V46.7499ZM490.589 46.3329H489.849V45.7183H490.589V46.3329Z"></path>
<path fill="#161616" d="M492.49 48.967C492.998 48.967 493.153 48.5389 493.153 48.1109C493.153 47.6828 492.998 47.2438 492.49 47.2438C491.982 47.2438 491.838 47.6719 491.838 48.1109C491.838 48.5499 491.993 48.967 492.49 48.967ZM492.49 46.6841C493.352 46.6841 493.893 47.2438 493.893 48.1109C493.893 48.9779 493.341 49.5267 492.49 49.5267C491.639 49.5267 491.087 48.9669 491.087 48.1109C491.087 47.2548 491.639 46.6841 492.49 46.6841Z"></path>
<path fill="#161616" d="M494.379 46.7497H495.086V47.1228H495.097C495.285 46.8155 495.616 46.6729 495.926 46.6729C496.721 46.6729 496.92 47.1119 496.92 47.7814V49.4386H496.18V47.9131C496.18 47.4741 496.047 47.2545 495.705 47.2545C495.296 47.2545 495.13 47.4741 495.13 48.0228V49.4386H494.39V46.7387L494.379 46.7497Z"></path>
</g>
<defs>
<clipPath id="clip0_2426_4835">
<rect transform="translate(16 1.14941)" fill="white" height="49" width="197"></rect>
</clipPath>
<clipPath id="clip1_2426_4835">
<rect transform="translate(233 2.58545)" fill="white" height="46.128" width="93"></rect>
</clipPath>
<clipPath id="clip2_2426_4835">
<rect transform="translate(346 0.5)" fill="white" height="50.299" width="101.409"></rect>
</clipPath>
<clipPath id="clip3_2426_4835">
<rect transform="translate(467.409 0.905762)" fill="white" height="49.4878" width="29.5552"></rect>
</clipPath>
</defs>
</svg>
