<svg xmlns="http://www.w3.org/2000/svg" fill="none" viewBox="0 0 18 18" height="18" width="18">
<g clip-path="url(#clip0_531_9485)">
<path stroke-linejoin="round" stroke-linecap="round" stroke-width="1.5" stroke="#32654E" d="M6 2.25H17.25V12H6V2.25Z"></path>
<path stroke-linejoin="round" stroke-linecap="round" stroke-width="1.5" stroke="#32654E" d="M6 6H3L0.75 8.25V12H6V6Z"></path>
<path stroke-linejoin="round" stroke-linecap="round" stroke-width="1.5" stroke="#32654E" d="M13.875 15.75C12.8395 15.75 12 14.9105 12 13.875C12 12.8395 12.8395 12 13.875 12C14.9105 12 15.75 12.8395 15.75 13.875C15.75 14.9105 14.9105 15.75 13.875 15.75Z"></path>
<path stroke-linejoin="round" stroke-linecap="round" stroke-width="1.5" stroke="#32654E" d="M4.125 15.75C3.08947 15.75 2.25 14.9105 2.25 13.875C2.25 12.8395 3.08947 12 4.125 12C5.16053 12 6 12.8395 6 13.875C6 14.9105 5.16053 15.75 4.125 15.75Z"></path>
</g>
<defs>
<clipPath id="clip0_531_9485">
<rect transform="matrix(-1 0 0 1 18 0)" fill="white" height="18" width="18"></rect>
</clipPath>
</defs>
</svg>
