<svg xmlns="http://www.w3.org/2000/svg" fill="none" viewBox="0 0 33 39" height="39" width="33">
<path fill="#AB8744" d="M31.6434 0.735837C31.6019 0.490029 31.5205 0.245824 31.4806 0C29.0289 2.04308 26.8232 2.98323 25.27 3.47324C22.2469 4.37187 19.0595 4.69909 16.0345 5.67912C13.1742 6.61926 10.3952 7.92651 8.10813 9.8466C3.57045 13.6471 1.03702 19.6951 2.59018 25.5383C2.63168 25.7011 2.67158 25.9054 2.75299 26.0698C3.1201 27.2542 3.57022 28.1544 3.93732 28.8072C3.243 30.0331 2.50716 31.4217 1.81284 32.8934C1.11852 34.3235 0.545475 35.7122 0.096978 37.0212C-0.10733 37.5528 0.0155736 38.1242 0.42419 38.5328C0.628498 38.7371 0.914203 38.86 1.19991 38.86C1.73144 38.86 2.26296 38.4514 2.38424 37.8385C2.66995 36.4083 3.20147 34.4466 4.1001 32.2408C4.75454 30.6064 6.5518 26.6828 10.1877 22.68C11.7407 20.9641 13.538 19.534 17.0925 16.6738C19.2983 14.9164 21.1786 13.5277 22.5275 12.5459C22.6504 12.4645 22.8132 12.5044 22.8547 12.5874C22.9361 12.7103 22.8962 12.8332 22.8132 12.9146C20.1604 14.9146 16.3199 18.102 12.7637 21.6153C11.7421 22.5953 10.5977 23.8212 9.41335 25.6201C8.02471 27.7047 7.24736 29.6248 6.75734 30.9738C7.53306 31.4638 8.67752 32.1182 10.1492 32.5667C15.2152 34.1597 20.6502 32.5667 24.5738 29.135C27.8012 26.3162 30.0088 22.3928 31.2346 18.3066C32.0934 15.4048 32.502 12.3817 32.5834 9.35876C32.7047 6.41545 32.3377 3.59615 31.6434 0.735837Z"></path>
</svg>
