<svg xmlns="http://www.w3.org/2000/svg" fill="none" viewBox="0 0 18 18" height="18" width="18">
<path fill="#AB8744" d="M14.2511 7.54258C14.1083 6.90686 13.5368 6.42829 12.8583 6.42829H11.044C11.294 6.00686 11.4297 5.52115 11.4297 4.99972C11.4297 4.24196 11.1287 3.51523 10.5928 2.97942C10.057 2.4436 9.33031 2.14258 8.57255 2.14258C7.81478 2.14258 7.08806 2.4436 6.55224 2.97942C6.01642 3.51523 5.7154 4.24196 5.7154 4.99972C5.7154 5.52115 5.85112 6.00686 6.10112 6.42829H4.28683C3.60826 6.42829 3.03683 6.90686 2.89397 7.54258C1.45826 13.264 1.42969 13.414 1.42969 13.5711C1.42969 13.95 1.5802 14.3134 1.84811 14.5813C2.11602 14.8492 2.47938 14.9997 2.85826 14.9997H14.2868C14.6657 14.9997 15.0291 14.8492 15.297 14.5813C15.5649 14.3134 15.7154 13.95 15.7154 13.5711C15.7154 13.414 15.6868 13.264 14.2511 7.54258ZM8.57255 3.57115C8.95143 3.57115 9.31479 3.72166 9.5827 3.98957C9.85061 4.25748 10.0011 4.62084 10.0011 4.99972C10.0011 5.3786 9.85061 5.74196 9.5827 6.00987C9.31479 6.27778 8.95143 6.42829 8.57255 6.42829C8.19366 6.42829 7.8303 6.27778 7.56239 6.00987C7.29448 5.74196 7.14397 5.3786 7.14397 4.99972C7.14397 4.62084 7.29448 4.25748 7.56239 3.98957C7.8303 3.72166 8.19366 3.57115 8.57255 3.57115ZM10.7154 9.28543H7.85826V12.1426H9.28683V9.99972H10.7154V13.5711H7.85826C7.0654 13.5711 6.42969 12.9354 6.42969 12.1426V9.28543C6.42969 8.49258 7.0654 7.85686 7.85826 7.85686H10.7154V9.28543Z"></path>
</svg>
