<svg xmlns="http://www.w3.org/2000/svg" fill="none" viewBox="0 0 30 40" height="40" width="30">
<g clip-path="url(#clip0_834_3693)">
<path fill="#AB8744" d="M23.3171 14.1594C23.3171 9.64299 19.5898 5.97461 15.0004 5.97461C10.4109 5.97461 6.68359 9.64275 6.68359 14.1594C6.68359 18.676 10.4109 22.3441 15.0004 22.3441C19.5898 22.3441 23.3171 18.6685 23.3171 14.1594ZM14.1236 18.3409H14.0707C13.8741 18.3409 13.6851 18.2665 13.5414 18.1251L9.92747 14.5686C9.63261 14.2784 9.63261 13.8096 9.92747 13.5195C10.2223 13.2293 10.7062 13.2293 11.0011 13.5195L14.0026 16.4733L18.9395 10.2605C19.1966 9.93308 19.6729 9.87355 20.0055 10.1265C20.3306 10.3795 20.3911 10.8482 20.1341 11.1756L14.6678 18.058C14.5392 18.2217 14.3353 18.326 14.1236 18.3409Z"></path>
<path fill="#AB8744" d="M24.89 24.189C25.7519 23.9509 26.6591 23.6385 27.2111 22.8869C27.8386 22.0388 27.7781 20.9301 27.7252 19.9554C27.6949 19.3155 27.6647 18.7054 27.8159 18.2516C27.952 17.8349 28.33 17.381 28.7307 16.8974C29.3658 16.1236 30.0916 15.2456 30.0916 14.1593C30.0916 13.073 29.3658 12.1876 28.7307 11.4138C28.33 10.9301 27.952 10.4762 27.8159 10.0596C27.6647 9.61314 27.6949 9.003 27.7252 8.35571C27.7781 7.381 27.8386 6.27238 27.2111 5.42419C26.576 4.56852 25.4873 4.2858 24.5195 4.02538C23.892 3.86169 23.2948 3.70543 22.9167 3.43014C22.5463 3.16972 22.2136 2.66376 21.8658 2.13547C21.3214 1.30214 20.7015 0.357186 19.6657 0.0298046C18.6677 -0.290138 17.6697 0.0818903 16.7095 0.446471C16.0896 0.684566 15.4999 0.900338 15.0009 0.900338C14.5019 0.900338 13.9122 0.684566 13.2922 0.446471C12.332 0.0818903 11.3341 -0.290148 10.3361 0.0298046C9.3003 0.357186 8.68032 1.30214 8.13596 2.13547C7.78818 2.66376 7.45554 3.16971 7.08504 3.43014C6.70702 3.70543 6.10975 3.86169 5.48222 4.02538C4.52203 4.2858 3.42577 4.56852 2.79069 5.42419C2.16316 6.27238 2.22364 7.38104 2.27658 8.35571C2.30682 9.00304 2.33706 9.61314 2.18585 10.0596C2.04976 10.4762 1.67174 10.9301 1.27104 11.4138C0.635963 12.1876 -0.0898438 13.0656 -0.0898438 14.1593C-0.0898438 15.253 0.635963 16.1236 1.27104 16.8974C1.67175 17.381 2.04979 17.8349 2.18585 18.2516C2.33706 18.7054 2.30682 19.3156 2.27658 19.9554C2.22365 20.9301 2.16317 22.0388 2.79069 22.8869C3.34259 23.6384 4.24985 23.9509 5.11177 24.189L0.575479 36.5848C0.462069 36.8824 0.552797 37.2098 0.802293 37.4107C1.04423 37.6116 1.39204 37.6413 1.66416 37.4776L5.93583 35.0148L7.64447 39.5981C7.75032 39.8958 8.03762 40.0892 8.35518 40.0892C8.67274 40.0892 8.95247 39.8883 9.06589 39.5981L13.3602 27.842C13.9575 27.6187 14.517 27.4104 15.0009 27.4104C15.4847 27.4104 16.0442 27.6187 16.6415 27.842L20.9358 39.5981C21.0492 39.8883 21.329 40.0892 21.6465 40.0892C21.9641 40.0892 22.2514 39.8957 22.3572 39.5981L24.0659 35.0148L28.3376 37.4776C28.6097 37.6413 28.9575 37.6116 29.1994 37.4107C29.4489 37.2098 29.5396 36.8824 29.4262 36.5848L24.89 24.189ZM5.17225 14.1595C5.17225 8.82476 9.58003 4.48714 15.0006 4.48714C20.4213 4.48714 24.829 8.82495 24.829 14.1595C24.829 19.4941 20.4213 23.8319 15.0006 23.8319C9.58003 23.8319 5.17225 19.4867 5.17225 14.1595ZM8.34766 37.1581L7.04725 33.661C6.97165 33.4527 6.80532 33.2965 6.59362 33.2221C6.38193 33.1402 6.14755 33.1625 5.95854 33.2741L2.69996 35.1566L6.56338 24.6061C6.75995 24.6879 6.94141 24.7772 7.08504 24.8814C7.45551 25.1492 7.78816 25.6478 8.13596 26.1761C8.68032 27.0094 9.30025 27.9543 10.3361 28.2817C10.6007 28.371 10.8653 28.4008 11.1299 28.4008C11.2736 28.4008 11.4172 28.3933 11.5609 28.371L8.34766 37.1581ZM24.0435 33.2742C23.8545 33.1626 23.6201 33.1403 23.4084 33.2221C23.1967 33.2965 23.0304 33.4528 22.9548 33.6611L21.6544 37.1581L18.4412 28.371C18.8494 28.4305 19.2577 28.4156 19.6659 28.2817C20.7017 27.9543 21.3217 27.0094 21.866 26.1835C22.2138 25.6478 22.5465 25.1493 22.917 24.8814C23.0606 24.7773 23.2421 24.688 23.4386 24.6061L27.302 35.1566L24.0435 33.2742Z"></path>
</g>
<defs>
<clipPath id="clip0_834_3693">
<rect fill="white" height="40" width="30"></rect>
</clipPath>
</defs>
</svg>
